%TF.GenerationSoftware,KiCad,Pcbnew,10.0.5-10.0.5~ubuntu24.04.1*%
%TF.CreationDate,2026-09-06T09:39:39-07:00*%
%TF.ProjectId,vr65816,76723635-3831-4362-9e6b-696361645f70,rev?*%
%TF.SameCoordinates,Original*%
%TF.FileFunction,Copper,L1,Top*%
%TF.FilePolarity,Positive*%
%FSLAX46Y46*%
G04 Gerber Fmt 4.6, Leading zero omitted, Abs format (unit mm)*
G04 Created by KiCad (PCBNEW 10.0.5-10.0.5~ubuntu24.04.1) date 2026-09-06 09:39:39*
%MOMM*%
%LPD*%
G01*
G04 APERTURE LIST*
G04 Aperture macros list*
%AMRoundRect*
0 Rectangle with rounded corners*
0 $1 Rounding radius*
0 $2 $3 $4 $5 $6 $7 $8 $9 X,Y pos of 4 corners*
0 Add a 4 corners polygon primitive as box body*
4,1,4,$2,$3,$4,$5,$6,$7,$8,$9,$2,$3,0*
0 Add four circle primitives for the rounded corners*
1,1,$1+$1,$2,$3*
1,1,$1+$1,$4,$5*
1,1,$1+$1,$6,$7*
1,1,$1+$1,$8,$9*
0 Add four rect primitives between the rounded corners*
20,1,$1+$1,$2,$3,$4,$5,0*
20,1,$1+$1,$4,$5,$6,$7,0*
20,1,$1+$1,$6,$7,$8,$9,0*
20,1,$1+$1,$8,$9,$2,$3,0*%
G04 Aperture macros list end*
%TA.AperFunction,ComponentPad*%
%ADD10O,1.600000X2.400000*%
%TD*%
%TA.AperFunction,ComponentPad*%
%ADD11RoundRect,0.250000X-0.950000X-0.550000X0.950000X-0.550000X0.950000X0.550000X-0.950000X0.550000X0*%
%TD*%
%TA.AperFunction,ComponentPad*%
%ADD12O,2.400000X1.600000*%
%TD*%
%TA.AperFunction,ComponentPad*%
%ADD13R,1.800000X1.800000*%
%TD*%
%TA.AperFunction,ComponentPad*%
%ADD14C,1.800000*%
%TD*%
%TA.AperFunction,ComponentPad*%
%ADD15R,2.400000X1.600000*%
%TD*%
%TA.AperFunction,ComponentPad*%
%ADD16RoundRect,0.250000X0.550000X-0.950000X0.550000X0.950000X-0.550000X0.950000X-0.550000X-0.950000X0*%
%TD*%
%TA.AperFunction,ComponentPad*%
%ADD17C,5.600000*%
%TD*%
%TA.AperFunction,ComponentPad*%
%ADD18C,4.200000*%
%TD*%
%TA.AperFunction,ComponentPad*%
%ADD19R,1.700000X1.700000*%
%TD*%
%TA.AperFunction,ComponentPad*%
%ADD20C,1.700000*%
%TD*%
%TA.AperFunction,ComponentPad*%
%ADD21O,2.500000X1.600000*%
%TD*%
%TA.AperFunction,ComponentPad*%
%ADD22O,1.300000X2.300000*%
%TD*%
%TA.AperFunction,ComponentPad*%
%ADD23O,2.300000X1.300000*%
%TD*%
%TA.AperFunction,ComponentPad*%
%ADD24C,2.200000*%
%TD*%
%TA.AperFunction,ViaPad*%
%ADD25C,1.100000*%
%TD*%
%TA.AperFunction,ViaPad*%
%ADD26C,0.800000*%
%TD*%
%TA.AperFunction,Conductor*%
%ADD27C,0.400000*%
%TD*%
%TA.AperFunction,Conductor*%
%ADD28C,0.800000*%
%TD*%
G04 APERTURE END LIST*
D10*
%TO.P,R13,1*%
%TO.N,/AUDL*%
X128337500Y-72650000D03*
%TO.P,R13,2*%
%TO.N,GND*%
X128337500Y-82810000D03*
%TD*%
%TO.P,R30,1*%
%TO.N,/BLU3*%
X162957500Y-65097500D03*
%TO.P,R30,2*%
%TO.N,/BLUV*%
X162957500Y-54937500D03*
%TD*%
D11*
%TO.P,U7,1,A->B_1*%
%TO.N,/RWB*%
X170876250Y-88728750D03*
D12*
%TO.P,U7,2,A0_2*%
%TO.N,/D0*%
X170876250Y-91268750D03*
%TO.P,U7,3,A1_3*%
%TO.N,/D1*%
X170876250Y-93808750D03*
%TO.P,U7,4,A2_4*%
%TO.N,/D2*%
X170876250Y-96348750D03*
%TO.P,U7,5,A3_5*%
%TO.N,/D3*%
X170876250Y-98888750D03*
%TO.P,U7,6,A4_6*%
%TO.N,/D4*%
X170876250Y-101428750D03*
%TO.P,U7,7,A5_7*%
%TO.N,/D5*%
X170876250Y-103968750D03*
%TO.P,U7,8,A6_8*%
%TO.N,/D6*%
X170876250Y-106508750D03*
%TO.P,U7,9,A7_9*%
%TO.N,/D7*%
X170876250Y-109048750D03*
%TO.P,U7,10,GND_10*%
%TO.N,GND*%
X170876250Y-111588750D03*
%TO.P,U7,11,B7_11*%
%TO.N,/DBA7*%
X178496250Y-111588750D03*
%TO.P,U7,12,B6_12*%
%TO.N,/DBA6*%
X178496250Y-109048750D03*
%TO.P,U7,13,B5_13*%
%TO.N,/DBA5*%
X178496250Y-106508750D03*
%TO.P,U7,14,B4_14*%
%TO.N,/DBA4*%
X178496250Y-103968750D03*
%TO.P,U7,15,B3_15*%
%TO.N,/DBA3*%
X178496250Y-101428750D03*
%TO.P,U7,16,B2_16*%
%TO.N,/DBA2*%
X178496250Y-98888750D03*
%TO.P,U7,17,B1_17*%
%TO.N,/DBA1*%
X178496250Y-96348750D03*
%TO.P,U7,18,B0_18*%
%TO.N,/DBA0*%
X178496250Y-93808750D03*
%TO.P,U7,19,CEB_19*%
%TO.N,/PHI2B*%
X178496250Y-91268750D03*
%TO.P,U7,20,VCC_20*%
%TO.N,+3V3A*%
X178496250Y-88728750D03*
%TD*%
D13*
%TO.P,D2,1,K_1*%
%TO.N,Net-(D2-K)*%
X88160000Y-85497500D03*
D14*
%TO.P,D2,2,A_2*%
%TO.N,Net-(D2-A)*%
X90700000Y-85497500D03*
%TD*%
D10*
%TO.P,R31,1*%
%TO.N,/BLU4*%
X166132500Y-65097500D03*
%TO.P,R31,2*%
%TO.N,/BLUV*%
X166132500Y-54937500D03*
%TD*%
%TO.P,R2,1*%
%TO.N,Net-(U3-ABORTB)*%
X143875000Y-82800000D03*
%TO.P,R2,2*%
%TO.N,+3V3A*%
X143875000Y-72640000D03*
%TD*%
%TO.P,R18,1*%
%TO.N,/RED1*%
X124782500Y-64997500D03*
%TO.P,R18,2*%
%TO.N,/REDV*%
X124782500Y-54837500D03*
%TD*%
%TO.P,R21,1*%
%TO.N,/RED4*%
X134307500Y-64997500D03*
%TO.P,R21,2*%
%TO.N,/REDV*%
X134307500Y-54837500D03*
%TD*%
D12*
%TO.P,C12,1*%
%TO.N,+3V3A*%
X185100000Y-123480000D03*
%TO.P,C12,2*%
%TO.N,GND*%
X195260000Y-123480000D03*
%TD*%
D11*
%TO.P,U4,1,VSS_1*%
%TO.N,GND*%
X81757500Y-94037500D03*
D12*
%TO.P,U4,2,PA0_2*%
%TO.N,/PA0*%
X81757500Y-96577500D03*
%TO.P,U4,3,PA1_3*%
%TO.N,/PA1*%
X81757500Y-99117500D03*
%TO.P,U4,4,PA2_4*%
%TO.N,/PA2*%
X81757500Y-101657500D03*
%TO.P,U4,5,PA3_5*%
%TO.N,/PA3*%
X81757500Y-104197500D03*
%TO.P,U4,6,PA4_6*%
%TO.N,/PA4*%
X81757500Y-106737500D03*
%TO.P,U4,7,PA5_7*%
%TO.N,/PA5*%
X81757500Y-109277500D03*
%TO.P,U4,8,PA6_8*%
%TO.N,/PA6*%
X81757500Y-111817500D03*
%TO.P,U4,9,PA7_9*%
%TO.N,/PA7*%
X81757500Y-114357500D03*
%TO.P,U4,10,PB0_10*%
%TO.N,/PB0*%
X81757500Y-116897500D03*
%TO.P,U4,11,PB1_11*%
%TO.N,/PB1*%
X81757500Y-119437500D03*
%TO.P,U4,12,PB2_12*%
%TO.N,/PB2*%
X81757500Y-121977500D03*
%TO.P,U4,13,PB3_13*%
%TO.N,/PB3*%
X81757500Y-124517500D03*
%TO.P,U4,14,PB4_14*%
%TO.N,/PB4*%
X81757500Y-127057500D03*
%TO.P,U4,15,PB5_15*%
%TO.N,/PB5*%
X81757500Y-129597500D03*
%TO.P,U4,16,PB6_16*%
%TO.N,/PB6*%
X81757500Y-132137500D03*
%TO.P,U4,17,PB7_17*%
%TO.N,/PB7*%
X81757500Y-134677500D03*
%TO.P,U4,18,CB1_18*%
%TO.N,/CB0*%
X81757500Y-137217500D03*
%TO.P,U4,19,CB2_19*%
%TO.N,/CB1*%
X81757500Y-139757500D03*
%TO.P,U4,20,VDD_20*%
%TO.N,+3V3B*%
X81757500Y-142297500D03*
%TO.P,U4,21,IRQB_21*%
%TO.N,/VIRQB*%
X96997500Y-142297500D03*
%TO.P,U4,22,RWB_22*%
%TO.N,/RWB*%
X96997500Y-139757500D03*
%TO.P,U4,23,CS2B_23*%
%TO.N,/RREQ*%
X96997500Y-137217500D03*
%TO.P,U4,24,CS1_24*%
%TO.N,/IORQ*%
X96997500Y-134677500D03*
%TO.P,U4,25,PHI2_25*%
%TO.N,/PHI2*%
X96997500Y-132137500D03*
%TO.P,U4,26,D7_26*%
%TO.N,/D7*%
X96997500Y-129597500D03*
%TO.P,U4,27,D6_27*%
%TO.N,/D6*%
X96997500Y-127057500D03*
%TO.P,U4,28,D5_28*%
%TO.N,/D5*%
X96997500Y-124517500D03*
%TO.P,U4,29,D4_29*%
%TO.N,/D4*%
X96997500Y-121977500D03*
%TO.P,U4,30,D3_30*%
%TO.N,/D3*%
X96997500Y-119437500D03*
%TO.P,U4,31,D2_31*%
%TO.N,/D2*%
X96997500Y-116897500D03*
%TO.P,U4,32,D1_32*%
%TO.N,/D1*%
X96997500Y-114357500D03*
%TO.P,U4,33,D0_33*%
%TO.N,/D0*%
X96997500Y-111817500D03*
%TO.P,U4,34,RESB_34*%
%TO.N,/RESB*%
X96997500Y-109277500D03*
%TO.P,U4,35,RS3_35*%
%TO.N,/A3*%
X96997500Y-106737500D03*
%TO.P,U4,36,RS2_36*%
%TO.N,/A2*%
X96997500Y-104197500D03*
%TO.P,U4,37,RS1_37*%
%TO.N,/A1*%
X96997500Y-101657500D03*
%TO.P,U4,38,RS0_38*%
%TO.N,/A0*%
X96997500Y-99117500D03*
%TO.P,U4,39,CA2_39*%
%TO.N,/CA1*%
X96997500Y-96577500D03*
%TO.P,U4,40,CA1_40*%
%TO.N,/CA0*%
X96997500Y-94037500D03*
%TD*%
D10*
%TO.P,R14,1*%
%TO.N,GND*%
X131450000Y-82810000D03*
%TO.P,R14,2*%
%TO.N,Net-(D2-K)*%
X131450000Y-72650000D03*
%TD*%
D12*
%TO.P,C6,1*%
%TO.N,+3V3A*%
X117850000Y-100457500D03*
%TO.P,C6,2*%
%TO.N,GND*%
X107690000Y-100457500D03*
%TD*%
D10*
%TO.P,C17,1*%
%TO.N,Net-(C15-Pad1)*%
X119037500Y-72650000D03*
%TO.P,C17,2*%
%TO.N,GND*%
X119037500Y-82810000D03*
%TD*%
%TO.P,R12,1*%
%TO.N,/AUDR*%
X153175000Y-72632500D03*
%TO.P,R12,2*%
%TO.N,GND*%
X153175000Y-82792500D03*
%TD*%
%TO.P,R5,1*%
%TO.N,+3V3A*%
X134550000Y-72650000D03*
%TO.P,R5,2*%
%TO.N,Net-(D1-A)*%
X134550000Y-82810000D03*
%TD*%
D15*
%TO.P,U2,1,GP0_1*%
%TO.N,/PIX0*%
X78457500Y-29137500D03*
D12*
%TO.P,U2,2,GP1_2*%
%TO.N,/PIX1*%
X78457500Y-31677500D03*
%TO.P,U2,3,GND_3*%
%TO.N,GND*%
X78457500Y-34217500D03*
%TO.P,U2,4,GP2_4*%
%TO.N,/PIX2*%
X78457500Y-36757500D03*
%TO.P,U2,5,GP3_5*%
%TO.N,/PIX3*%
X78457500Y-39297500D03*
%TO.P,U2,6,GP4_6*%
%TO.N,/URX*%
X78457500Y-41837500D03*
%TO.P,U2,7,GP5_7*%
%TO.N,/UTX*%
X78457500Y-44377500D03*
%TO.P,U2,8,GND_8*%
%TO.N,GND*%
X78457500Y-46917500D03*
%TO.P,U2,9,GP6_9*%
%TO.N,/RED0*%
X78457500Y-49457500D03*
%TO.P,U2,10,GP7_10*%
%TO.N,/RED1*%
X78457500Y-51997500D03*
%TO.P,U2,11,GP8_11*%
%TO.N,/RED2*%
X78457500Y-54537500D03*
%TO.P,U2,12,GP9_12*%
%TO.N,/RED3*%
X78457500Y-57077500D03*
%TO.P,U2,13,GND_13*%
%TO.N,GND*%
X78457500Y-59617500D03*
%TO.P,U2,14,GP10_14*%
%TO.N,/RED4*%
X78457500Y-62157500D03*
%TO.P,U2,15,GP11_15*%
%TO.N,/PHI2*%
X78457500Y-64697500D03*
%TO.P,U2,16,GP12_16*%
%TO.N,/GRN0*%
X78457500Y-67237500D03*
%TO.P,U2,17,GP13_17*%
%TO.N,/GRN1*%
X78457500Y-69777500D03*
%TO.P,U2,18,GND_18*%
%TO.N,GND*%
X78457500Y-72317500D03*
%TO.P,U2,19,GP14_19*%
%TO.N,/GRN2*%
X78457500Y-74857500D03*
%TO.P,U2,20,GP15_20*%
%TO.N,/GRN3*%
X78457500Y-77397500D03*
%TO.P,U2,21,GP16_21*%
%TO.N,/GRN4*%
X96237500Y-77397500D03*
%TO.P,U2,22,GP17_22*%
%TO.N,/BLU0*%
X96237500Y-74857500D03*
%TO.P,U2,23,GND_23*%
%TO.N,GND*%
X96237500Y-72317500D03*
%TO.P,U2,24,GP18_24*%
%TO.N,/BLU1*%
X96237500Y-69777500D03*
%TO.P,U2,25,GP19_25*%
%TO.N,/BLU2*%
X96237500Y-67237500D03*
%TO.P,U2,26,GP20_26*%
%TO.N,/BLU3*%
X96237500Y-64697500D03*
%TO.P,U2,27,GP21_27*%
%TO.N,/BLU4*%
X96237500Y-62157500D03*
%TO.P,U2,28,GND_28*%
%TO.N,GND*%
X96237500Y-59617500D03*
%TO.P,U2,29,GP22_29*%
%TO.N,/SPARE0*%
X96237500Y-57077500D03*
%TO.P,U2,30,RUN_30*%
%TO.N,unconnected-(U2-RUN-Pad30)*%
X96237500Y-54537500D03*
%TO.P,U2,31,GP26_31*%
%TO.N,/HSYNC*%
X96237500Y-51997500D03*
%TO.P,U2,32,GP27_32*%
%TO.N,/VSYNC*%
X96237500Y-49457500D03*
%TO.P,U2,33,GND_33*%
%TO.N,GND*%
X96237500Y-46917500D03*
%TO.P,U2,34,GP28_34*%
%TO.N,/SPARE1*%
X96237500Y-44377500D03*
%TO.P,U2,35,ADC_VREF_35*%
%TO.N,unconnected-(U2-ADC_VREF-Pad35)*%
X96237500Y-41837500D03*
%TO.P,U2,36,3V3_36*%
%TO.N,+3V3B*%
X96237500Y-39297500D03*
%TO.P,U2,37,3V3_EN_37*%
%TO.N,unconnected-(U2-3V3_EN-Pad37)*%
X96237500Y-36757500D03*
%TO.P,U2,38,GND_38*%
%TO.N,GND*%
X96237500Y-34217500D03*
%TO.P,U2,39,VSYS_39*%
%TO.N,unconnected-(U2-VSYS-Pad39)*%
X96237500Y-31677500D03*
%TO.P,U2,40,VBUS_40*%
%TO.N,VBUS*%
X96237500Y-29137500D03*
%TD*%
D11*
%TO.P,U13,1*%
%TO.N,/A12*%
X199410000Y-127130000D03*
D12*
%TO.P,U13,2*%
%TO.N,/A13*%
X199410000Y-129670000D03*
%TO.P,U13,3*%
%TO.N,N/C*%
X199410000Y-132210000D03*
%TO.P,U13,4*%
%TO.N,/A14*%
X199410000Y-134750000D03*
%TO.P,U13,5*%
%TO.N,/A15*%
X199410000Y-137290000D03*
%TO.P,U13,6*%
%TO.N,Net-(U11-Pad5)*%
X199410000Y-139830000D03*
%TO.P,U13,7,GND_7*%
%TO.N,GND*%
X199410000Y-142370000D03*
%TO.P,U13,8*%
%TO.N,Net-(U11-Pad10)*%
X207030000Y-142370000D03*
%TO.P,U13,9*%
%TO.N,/A11*%
X207030000Y-139830000D03*
%TO.P,U13,10*%
%TO.N,/A10*%
X207030000Y-137290000D03*
%TO.P,U13,11*%
%TO.N,N/C*%
X207030000Y-134750000D03*
%TO.P,U13,12*%
%TO.N,/A9*%
X207030000Y-132210000D03*
%TO.P,U13,13*%
%TO.N,/A8*%
X207030000Y-129670000D03*
%TO.P,U13,14,VCC_14*%
%TO.N,+3V3A*%
X207030000Y-127130000D03*
%TD*%
D10*
%TO.P,R9,1*%
%TO.N,/PWML*%
X122137500Y-82810000D03*
%TO.P,R9,2*%
%TO.N,Net-(C15-Pad1)*%
X122137500Y-72650000D03*
%TD*%
D16*
%TO.P,U11,1*%
%TO.N,/IORQ*%
X194100000Y-118160000D03*
D10*
%TO.P,U11,2*%
%TO.N,Net-(U11-Pad12)*%
X196640000Y-118160000D03*
%TO.P,U11,3*%
%TO.N,GND*%
X199180000Y-118160000D03*
%TO.P,U11,4*%
%TO.N,Net-(U11-Pad10)*%
X201720000Y-118160000D03*
%TO.P,U11,5*%
%TO.N,Net-(U11-Pad5)*%
X204260000Y-118160000D03*
%TO.P,U11,6*%
%TO.N,N/C*%
X206800000Y-118160000D03*
%TO.P,U11,7,VSS_7*%
%TO.N,GND*%
X209340000Y-118160000D03*
%TO.P,U11,8*%
%TO.N,N/C*%
X209340000Y-110540000D03*
%TO.P,U11,9*%
%TO.N,Net-(U11-Pad5)*%
X206800000Y-110540000D03*
%TO.P,U11,10*%
%TO.N,Net-(U11-Pad10)*%
X204260000Y-110540000D03*
%TO.P,U11,11*%
%TO.N,Net-(U11-Pad11)*%
X201720000Y-110540000D03*
%TO.P,U11,12*%
%TO.N,Net-(U11-Pad12)*%
X199180000Y-110540000D03*
%TO.P,U11,13*%
%TO.N,/RREQ*%
X196640000Y-110540000D03*
%TO.P,U11,14,VDD_14*%
%TO.N,+3V3A*%
X194100000Y-110540000D03*
%TD*%
D12*
%TO.P,C3,1*%
%TO.N,+3V3A*%
X150822500Y-90327500D03*
%TO.P,C3,2*%
%TO.N,GND*%
X160982500Y-90327500D03*
%TD*%
%TO.P,C8,1*%
%TO.N,+3V3A*%
X179753750Y-115786250D03*
%TO.P,C8,2*%
%TO.N,GND*%
X169593750Y-115786250D03*
%TD*%
D10*
%TO.P,R23,1*%
%TO.N,/GRN1*%
X140692500Y-64997500D03*
%TO.P,R23,2*%
%TO.N,/GRNV*%
X140692500Y-54837500D03*
%TD*%
%TO.P,R19,1*%
%TO.N,/RED2*%
X127957500Y-64997500D03*
%TO.P,R19,2*%
%TO.N,/REDV*%
X127957500Y-54837500D03*
%TD*%
%TO.P,R1,1*%
%TO.N,/RDY*%
X146975000Y-82800000D03*
%TO.P,R1,2*%
%TO.N,+3V3A*%
X146975000Y-72640000D03*
%TD*%
D17*
%TO.P,REF\u002A\u002A,1*%
%TO.N,N/C*%
X210657500Y-32397500D03*
%TD*%
%TO.P,REF\u002A\u002A,1*%
%TO.N,N/C*%
X70657500Y-147397500D03*
%TD*%
D12*
%TO.P,C7,1*%
%TO.N,+3V3A*%
X179825000Y-84400000D03*
%TO.P,C7,2*%
%TO.N,GND*%
X169665000Y-84400000D03*
%TD*%
D10*
%TO.P,C11,1*%
%TO.N,+3V3A*%
X190430000Y-119500000D03*
%TO.P,C11,2*%
%TO.N,GND*%
X190430000Y-109340000D03*
%TD*%
%TO.P,R25,1*%
%TO.N,/GRN3*%
X147042500Y-64997500D03*
%TO.P,R25,2*%
%TO.N,/GRNV*%
X147042500Y-54837500D03*
%TD*%
D18*
%TO.P,J5,0*%
%TO.N,Net-(JP2-A)*%
X153210000Y-38807500D03*
X128210000Y-38807500D03*
D19*
%TO.P,J5,1*%
%TO.N,/REDV*%
X136395000Y-41347500D03*
D20*
%TO.P,J5,2*%
%TO.N,/GRNV*%
X138685000Y-41347500D03*
%TO.P,J5,3*%
%TO.N,/BLUV*%
X140975000Y-41347500D03*
%TO.P,J5,4*%
%TO.N,unconnected-(J5-Pad4)*%
X143265000Y-41347500D03*
%TO.P,J5,5*%
%TO.N,GND*%
X145555000Y-41347500D03*
%TO.P,J5,6*%
X135250000Y-38807500D03*
%TO.P,J5,7*%
X137540000Y-38807500D03*
%TO.P,J5,8*%
X139830000Y-38807500D03*
%TO.P,J5,9*%
%TO.N,Net-(JP1-A)*%
X142120000Y-38807500D03*
%TO.P,J5,10*%
%TO.N,GND*%
X144410000Y-38807500D03*
%TO.P,J5,11*%
%TO.N,unconnected-(J5-Pad11)*%
X136395000Y-36267500D03*
%TO.P,J5,12*%
%TO.N,unconnected-(J5-Pad12)*%
X138685000Y-36267500D03*
%TO.P,J5,13*%
%TO.N,/HSYNCV*%
X140975000Y-36267500D03*
%TO.P,J5,14*%
%TO.N,/VSYNCV*%
X143265000Y-36267500D03*
%TO.P,J5,15*%
%TO.N,unconnected-(J5-Pad15)*%
X145555000Y-36267500D03*
%TD*%
D19*
%TO.P,J3,1,Pin_1_1*%
%TO.N,+3V3B*%
X69932500Y-94522500D03*
D20*
%TO.P,J3,2,Pin_2_2*%
%TO.N,VBUS*%
X72472500Y-94522500D03*
%TO.P,J3,3,Pin_3_3*%
%TO.N,/PA0*%
X69932500Y-97062500D03*
%TO.P,J3,4,Pin_4_4*%
%TO.N,/PB0*%
X72472500Y-97062500D03*
%TO.P,J3,5,Pin_5_5*%
%TO.N,/PA1*%
X69932500Y-99602500D03*
%TO.P,J3,6,Pin_6_6*%
%TO.N,/PB1*%
X72472500Y-99602500D03*
%TO.P,J3,7,Pin_7_7*%
%TO.N,/PA2*%
X69932500Y-102142500D03*
%TO.P,J3,8,Pin_8_8*%
%TO.N,/PB2*%
X72472500Y-102142500D03*
%TO.P,J3,9,Pin_9_9*%
%TO.N,/PA3*%
X69932500Y-104682500D03*
%TO.P,J3,10,Pin_10_10*%
%TO.N,/PB3*%
X72472500Y-104682500D03*
%TO.P,J3,11,Pin_11_11*%
%TO.N,/PA4*%
X69932500Y-107222500D03*
%TO.P,J3,12,Pin_12_12*%
%TO.N,/PB4*%
X72472500Y-107222500D03*
%TO.P,J3,13,Pin_13_13*%
%TO.N,/PA5*%
X69932500Y-109762500D03*
%TO.P,J3,14,Pin_14_14*%
%TO.N,/PB5*%
X72472500Y-109762500D03*
%TO.P,J3,15,Pin_15_15*%
%TO.N,/PA6*%
X69932500Y-112302500D03*
%TO.P,J3,16,Pin_16_16*%
%TO.N,/PB6*%
X72472500Y-112302500D03*
%TO.P,J3,17,Pin_17_17*%
%TO.N,/PA7*%
X69932500Y-114842500D03*
%TO.P,J3,18,Pin_18_18*%
%TO.N,/PB7*%
X72472500Y-114842500D03*
%TO.P,J3,19,Pin_19_19*%
%TO.N,/CA0*%
X69932500Y-117382500D03*
%TO.P,J3,20,Pin_20_20*%
%TO.N,/CB0*%
X72472500Y-117382500D03*
%TO.P,J3,21,Pin_21_21*%
%TO.N,/CA1*%
X69932500Y-119922500D03*
%TO.P,J3,22,Pin_22_22*%
%TO.N,/CB1*%
X72472500Y-119922500D03*
%TO.P,J3,23,Pin_23_23*%
%TO.N,GND*%
X69932500Y-122462500D03*
%TO.P,J3,24,Pin_24_24*%
X72472500Y-122462500D03*
%TD*%
D10*
%TO.P,R11,1*%
%TO.N,Net-(C15-Pad1)*%
X125237500Y-72650000D03*
%TO.P,R11,2*%
%TO.N,GND*%
X125237500Y-82810000D03*
%TD*%
D15*
%TO.P,U1,1,GP0_1*%
%TO.N,/PIX0*%
X185107500Y-29137500D03*
D12*
%TO.P,U1,2,GP1_2*%
%TO.N,/PIX1*%
X185107500Y-31677500D03*
%TO.P,U1,3,GND_3*%
%TO.N,GND*%
X185107500Y-34217500D03*
%TO.P,U1,4,GP2_4*%
%TO.N,/PIX2*%
X185107500Y-36757500D03*
%TO.P,U1,5,GP3_5*%
%TO.N,/PIX3*%
X185107500Y-39297500D03*
%TO.P,U1,6,GP4_6*%
%TO.N,/UTX*%
X185107500Y-41837500D03*
%TO.P,U1,7,GP5_7*%
%TO.N,/URX*%
X185107500Y-44377500D03*
%TO.P,U1,8,GND_8*%
%TO.N,GND*%
X185107500Y-46917500D03*
%TO.P,U1,9,GP6_9*%
%TO.N,/RREQ*%
X185107500Y-49457500D03*
%TO.P,U1,10,GP7_10*%
%TO.N,/RWB*%
X185107500Y-51997500D03*
%TO.P,U1,11,GP8_11*%
%TO.N,/D0*%
X185107500Y-54537500D03*
%TO.P,U1,12,GP9_12*%
%TO.N,/D1*%
X185107500Y-57077500D03*
%TO.P,U1,13,GND_13*%
%TO.N,GND*%
X185107500Y-59617500D03*
%TO.P,U1,14,GP10_14*%
%TO.N,/D2*%
X185107500Y-62157500D03*
%TO.P,U1,15,GP11_15*%
%TO.N,/D3*%
X185107500Y-64697500D03*
%TO.P,U1,16,GP12_16*%
%TO.N,/D4*%
X185107500Y-67237500D03*
%TO.P,U1,17,GP13_17*%
%TO.N,/D5*%
X185107500Y-69777500D03*
%TO.P,U1,18,GND_18*%
%TO.N,GND*%
X185107500Y-72317500D03*
%TO.P,U1,19,GP14_19*%
%TO.N,/D6*%
X185107500Y-74857500D03*
%TO.P,U1,20,GP15_20*%
%TO.N,/D7*%
X185107500Y-77397500D03*
%TO.P,U1,21,GP16_21*%
%TO.N,/A0*%
X202887500Y-77397500D03*
%TO.P,U1,22,GP17_22*%
%TO.N,/A1*%
X202887500Y-74857500D03*
%TO.P,U1,23,GND_23*%
%TO.N,GND*%
X202887500Y-72317500D03*
%TO.P,U1,24,GP18_24*%
%TO.N,/A2*%
X202887500Y-69777500D03*
%TO.P,U1,25,GP19_25*%
%TO.N,/A3*%
X202887500Y-67237500D03*
%TO.P,U1,26,GP20_26*%
%TO.N,/A4*%
X202887500Y-64697500D03*
%TO.P,U1,27,GP21_27*%
%TO.N,/PHI2*%
X202887500Y-62157500D03*
%TO.P,U1,28,GND_28*%
%TO.N,GND*%
X202887500Y-59617500D03*
%TO.P,U1,29,GP22_29*%
%TO.N,/RIRQB*%
X202887500Y-57077500D03*
%TO.P,U1,30,RUN_30*%
%TO.N,/RUN*%
X202887500Y-54537500D03*
%TO.P,U1,31,GP26_31*%
%TO.N,/RESB*%
X202887500Y-51997500D03*
%TO.P,U1,32,GP27_32*%
%TO.N,/PWMR*%
X202887500Y-49457500D03*
%TO.P,U1,33,GND_33*%
%TO.N,GND*%
X202887500Y-46917500D03*
%TO.P,U1,34,GP28_34*%
%TO.N,/PWML*%
X202887500Y-44377500D03*
%TO.P,U1,35,ADC_VREF_35*%
%TO.N,unconnected-(U1-ADC_VREF-Pad35)*%
X202887500Y-41837500D03*
%TO.P,U1,36,3V3_36*%
%TO.N,+3V3A*%
X202887500Y-39297500D03*
%TO.P,U1,37,3V3_EN_37*%
%TO.N,unconnected-(U1-3V3_EN-Pad37)*%
X202887500Y-36757500D03*
%TO.P,U1,38,GND_38*%
%TO.N,GND*%
X202887500Y-34217500D03*
%TO.P,U1,39,VSYS_39*%
%TO.N,unconnected-(U1-VSYS-Pad39)*%
X202887500Y-31677500D03*
%TO.P,U1,40,VBUS_40*%
%TO.N,VBUS*%
X202887500Y-29137500D03*
%TD*%
D10*
%TO.P,C2,1*%
%TO.N,+3V3B*%
X111400000Y-54890000D03*
%TO.P,C2,2*%
%TO.N,GND*%
X111400000Y-65050000D03*
%TD*%
D11*
%TO.P,U8,1,OEB_1*%
%TO.N,GND*%
X170830000Y-119495000D03*
D12*
%TO.P,U8,2,D0_2*%
%TO.N,/DBA0*%
X170830000Y-122035000D03*
%TO.P,U8,3,D1_3*%
%TO.N,/DBA1*%
X170830000Y-124575000D03*
%TO.P,U8,4,D2_4*%
%TO.N,/DBA2*%
X170830000Y-127115000D03*
%TO.P,U8,5,D3_5*%
%TO.N,/DBA3*%
X170830000Y-129655000D03*
%TO.P,U8,6,D4_6*%
%TO.N,GND*%
X170830000Y-132195000D03*
%TO.P,U8,7,D5_7*%
X170830000Y-134735000D03*
%TO.P,U8,8,D6_8*%
X170830000Y-137275000D03*
%TO.P,U8,9,D7_9*%
X170830000Y-139815000D03*
%TO.P,U8,10,GND_10*%
X170830000Y-142355000D03*
%TO.P,U8,11,Load_11*%
%TO.N,/PHI2B*%
X178450000Y-142355000D03*
%TO.P,U8,12,Q7_12*%
%TO.N,unconnected-(U8-Q7-Pad12)*%
X178450000Y-139815000D03*
%TO.P,U8,13,Q6_13*%
%TO.N,unconnected-(U8-Q6-Pad13)*%
X178450000Y-137275000D03*
%TO.P,U8,14,Q5_14*%
%TO.N,unconnected-(U8-Q5-Pad14)*%
X178450000Y-134735000D03*
%TO.P,U8,15,Q4_15*%
%TO.N,unconnected-(U8-Q4-Pad15)*%
X178450000Y-132195000D03*
%TO.P,U8,16,Q3_16*%
%TO.N,/A19*%
X178450000Y-129655000D03*
%TO.P,U8,17,Q2_17*%
%TO.N,/A18*%
X178450000Y-127115000D03*
%TO.P,U8,18,Q1_18*%
%TO.N,/A17*%
X178450000Y-124575000D03*
%TO.P,U8,19,Q0_19*%
%TO.N,/A16*%
X178450000Y-122035000D03*
%TO.P,U8,20,VCC_20*%
%TO.N,+3V3A*%
X178450000Y-119495000D03*
%TD*%
D19*
%TO.P,JP4,1,A_1*%
%TO.N,/A5*%
X211050000Y-131010000D03*
D20*
%TO.P,JP4,2,C_2*%
%TO.N,Net-(JP4-C)*%
X211050000Y-133550000D03*
%TO.P,JP4,3,B_3*%
%TO.N,+3V3A*%
X211050000Y-136090000D03*
%TD*%
D19*
%TO.P,JP3,1,A_1*%
%TO.N,/PA0*%
X84850000Y-84400000D03*
D20*
%TO.P,JP3,2,B_2*%
%TO.N,Net-(D2-A)*%
X84850000Y-86940000D03*
%TD*%
D10*
%TO.P,R22,1*%
%TO.N,/GRN0*%
X137517500Y-64997500D03*
%TO.P,R22,2*%
%TO.N,/GRNV*%
X137517500Y-54837500D03*
%TD*%
D21*
%TO.P,C15,1*%
%TO.N,Net-(C15-Pad1)*%
X110425000Y-74375000D03*
D12*
%TO.P,C15,2*%
%TO.N,/AUDL*%
X115425000Y-74375000D03*
%TD*%
D10*
%TO.P,R15,1*%
%TO.N,/VSYNCV*%
X115257500Y-54837500D03*
%TO.P,R15,2*%
%TO.N,/VSYNC*%
X115257500Y-64997500D03*
%TD*%
%TO.P,C9,1*%
%TO.N,+3V3A*%
X190370000Y-82940000D03*
%TO.P,C9,2*%
%TO.N,GND*%
X190370000Y-93100000D03*
%TD*%
%TO.P,R17,1*%
%TO.N,/RED0*%
X121607500Y-64997500D03*
%TO.P,R17,2*%
%TO.N,/REDV*%
X121607500Y-54837500D03*
%TD*%
D19*
%TO.P,J1,1,Pin_1_1*%
%TO.N,VBUS*%
X70017500Y-40427500D03*
D20*
%TO.P,J1,2,Pin_2_2*%
%TO.N,GND*%
X72557500Y-40427500D03*
%TO.P,J1,3,Pin_3_3*%
%TO.N,/PHI2*%
X70017500Y-42967500D03*
%TO.P,J1,4,Pin_4_4*%
%TO.N,GND*%
X72557500Y-42967500D03*
%TO.P,J1,5,Pin_5_5*%
%TO.N,/PIX0*%
X70017500Y-45507500D03*
%TO.P,J1,6,Pin_6_6*%
%TO.N,GND*%
X72557500Y-45507500D03*
%TO.P,J1,7,Pin_7_7*%
%TO.N,/PIX1*%
X70017500Y-48047500D03*
%TO.P,J1,8,Pin_8_8*%
%TO.N,GND*%
X72557500Y-48047500D03*
%TO.P,J1,9,Pin_9_9*%
%TO.N,/PIX2*%
X70017500Y-50587500D03*
%TO.P,J1,10,Pin_10_10*%
%TO.N,GND*%
X72557500Y-50587500D03*
%TO.P,J1,11,Pin_11_11*%
%TO.N,/PIX3*%
X70017500Y-53127500D03*
%TO.P,J1,12,Pin_12_12*%
%TO.N,GND*%
X72557500Y-53127500D03*
%TO.P,J1,13,Pin_13_13*%
%TO.N,/SPARE0*%
X70017500Y-55667500D03*
%TO.P,J1,14,Pin_14_14*%
%TO.N,/SPARE1*%
X72557500Y-55667500D03*
%TD*%
D10*
%TO.P,R3,1*%
%TO.N,/IRQB*%
X140775000Y-82800000D03*
%TO.P,R3,2*%
%TO.N,+3V3A*%
X140775000Y-72640000D03*
%TD*%
D22*
%TO.P,J6,R*%
%TO.N,/AUDR*%
X175422500Y-36897500D03*
%TO.P,J6,RN*%
%TO.N,unconnected-(J6-PadRN)*%
X172922500Y-36897500D03*
D23*
%TO.P,J6,S*%
%TO.N,GND*%
X170422500Y-31897500D03*
D22*
%TO.P,J6,T*%
%TO.N,/AUDL*%
X165422500Y-36897500D03*
%TO.P,J6,TN*%
%TO.N,unconnected-(J6-PadTN)*%
X167922500Y-36897500D03*
%TD*%
D10*
%TO.P,C1,1*%
%TO.N,+3V3A*%
X170057500Y-54937500D03*
%TO.P,C1,2*%
%TO.N,GND*%
X170057500Y-65097500D03*
%TD*%
%TO.P,R24,1*%
%TO.N,/GRN2*%
X143867500Y-64997500D03*
%TO.P,R24,2*%
%TO.N,/GRNV*%
X143867500Y-54837500D03*
%TD*%
D17*
%TO.P,REF\u002A\u002A,1*%
%TO.N,N/C*%
X210657500Y-147397500D03*
%TD*%
D19*
%TO.P,J2,1,Pin_1_1*%
%TO.N,VBAT*%
X69917500Y-67507500D03*
D20*
%TO.P,J2,2,Pin_2_2*%
X72457500Y-67507500D03*
%TO.P,J2,3,Pin_3_3*%
%TO.N,VBUS*%
X69917500Y-70047500D03*
%TO.P,J2,4,Pin_4_4*%
X72457500Y-70047500D03*
%TO.P,J2,5,Pin_5_5*%
%TO.N,/AUDL*%
X69917500Y-72587500D03*
%TO.P,J2,6,Pin_6_6*%
%TO.N,GND*%
X72457500Y-72587500D03*
%TO.P,J2,7,Pin_7_7*%
%TO.N,/AUDR*%
X69917500Y-75127500D03*
%TO.P,J2,8,Pin_8_8*%
%TO.N,GND*%
X72457500Y-75127500D03*
%TO.P,J2,9,Pin_9_9*%
%TO.N,/AMPL*%
X69917500Y-77667500D03*
%TO.P,J2,10,Pin_10_10*%
%TO.N,GND*%
X72457500Y-77667500D03*
%TO.P,J2,11,Pin_11_11*%
%TO.N,/AMPR*%
X69917500Y-80207500D03*
%TO.P,J2,12,Pin_12_12*%
%TO.N,GND*%
X72457500Y-80207500D03*
%TO.P,J2,13,Pin_13_13*%
X69917500Y-82747500D03*
%TO.P,J2,14,Pin_14_14*%
X72457500Y-82747500D03*
%TD*%
D12*
%TO.P,C5,1*%
%TO.N,+3V3A*%
X136925000Y-100375000D03*
%TO.P,C5,2*%
%TO.N,GND*%
X126765000Y-100375000D03*
%TD*%
D11*
%TO.P,U5,1,A18_1*%
%TO.N,/A18*%
X123907500Y-104397500D03*
D12*
%TO.P,U5,2,A16_2*%
%TO.N,/A16*%
X123907500Y-106937500D03*
%TO.P,U5,3,A14_3*%
%TO.N,/A14*%
X123907500Y-109477500D03*
%TO.P,U5,4,A12_4*%
%TO.N,/A12*%
X123907500Y-112017500D03*
%TO.P,U5,5,A7_5*%
%TO.N,/A7*%
X123907500Y-114557500D03*
%TO.P,U5,6,A6_6*%
%TO.N,/A6*%
X123907500Y-117097500D03*
%TO.P,U5,7,A5_7*%
%TO.N,/A5*%
X123907500Y-119637500D03*
%TO.P,U5,8,A4_8*%
%TO.N,/A4*%
X123907500Y-122177500D03*
%TO.P,U5,9,A3_9*%
%TO.N,/A3*%
X123907500Y-124717500D03*
%TO.P,U5,10,A2_10*%
%TO.N,/A2*%
X123907500Y-127257500D03*
%TO.P,U5,11,A1_11*%
%TO.N,/A1*%
X123907500Y-129797500D03*
%TO.P,U5,12,A0_12*%
%TO.N,/A0*%
X123907500Y-132337500D03*
%TO.P,U5,13,DQ0_13*%
%TO.N,/D0*%
X123907500Y-134877500D03*
%TO.P,U5,14,DQ1_14*%
%TO.N,/D1*%
X123907500Y-137417500D03*
%TO.P,U5,15,DQ2_15*%
%TO.N,/D2*%
X123907500Y-139957500D03*
%TO.P,U5,16,Vss_16*%
%TO.N,GND*%
X123907500Y-142497500D03*
%TO.P,U5,17,DQ3_17*%
%TO.N,/D3*%
X139147500Y-142497500D03*
%TO.P,U5,18,DQ4_18*%
%TO.N,/D4*%
X139147500Y-139957500D03*
%TO.P,U5,19,DQ5_19*%
%TO.N,/D5*%
X139147500Y-137417500D03*
%TO.P,U5,20,DQ6_20*%
%TO.N,/D6*%
X139147500Y-134877500D03*
%TO.P,U5,21,DQ7_21*%
%TO.N,/D7*%
X139147500Y-132337500D03*
%TO.P,U5,22,CE#_22*%
%TO.N,/AB19*%
X139147500Y-129797500D03*
%TO.P,U5,23,A10_23*%
%TO.N,/A10*%
X139147500Y-127257500D03*
%TO.P,U5,24,OE#_24*%
%TO.N,/IORQ*%
X139147500Y-124717500D03*
%TO.P,U5,25,A11_25*%
%TO.N,/A11*%
X139147500Y-122177500D03*
%TO.P,U5,26,A9_26*%
%TO.N,/A9*%
X139147500Y-119637500D03*
%TO.P,U5,27,A8_27*%
%TO.N,/A8*%
X139147500Y-117097500D03*
%TO.P,U5,28,A13_28*%
%TO.N,/A13*%
X139147500Y-114557500D03*
%TO.P,U5,29,WE#_29*%
%TO.N,/WEB*%
X139147500Y-112017500D03*
%TO.P,U5,30,A17_30*%
%TO.N,/A17*%
X139147500Y-109477500D03*
%TO.P,U5,31,A15_31*%
%TO.N,/A15*%
X139147500Y-106937500D03*
%TO.P,U5,32,Vcc_32*%
%TO.N,+3V3A*%
X139147500Y-104397500D03*
%TD*%
D11*
%TO.P,U12,1*%
%TO.N,/AB16*%
X186180000Y-127150000D03*
D12*
%TO.P,U12,2*%
%TO.N,/AB19*%
X186180000Y-129690000D03*
%TO.P,U12,3*%
%TO.N,N/C*%
X186180000Y-132230000D03*
%TO.P,U12,4*%
%TO.N,/AB18*%
X186180000Y-134770000D03*
%TO.P,U12,5*%
%TO.N,/AB17*%
X186180000Y-137310000D03*
%TO.P,U12,6*%
%TO.N,Net-(U11-Pad12)*%
X186180000Y-139850000D03*
%TO.P,U12,7,GND_7*%
%TO.N,GND*%
X186180000Y-142390000D03*
%TO.P,U12,8*%
%TO.N,Net-(U11-Pad11)*%
X193800000Y-142390000D03*
%TO.P,U12,9*%
%TO.N,/A7*%
X193800000Y-139850000D03*
%TO.P,U12,10*%
%TO.N,/A6*%
X193800000Y-137310000D03*
%TO.P,U12,11*%
%TO.N,N/C*%
X193800000Y-134770000D03*
%TO.P,U12,12*%
%TO.N,Net-(JP4-C)*%
X193800000Y-132230000D03*
%TO.P,U12,13*%
%TO.N,+3V3A*%
X193800000Y-129690000D03*
%TO.P,U12,14,VCC_14*%
X193800000Y-127150000D03*
%TD*%
D10*
%TO.P,R4,1*%
%TO.N,/NMIB*%
X137650000Y-82810000D03*
%TO.P,R4,2*%
%TO.N,+3V3A*%
X137650000Y-72650000D03*
%TD*%
D16*
%TO.P,U9,1*%
%TO.N,/RIRQB*%
X194025000Y-91885000D03*
D10*
%TO.P,U9,2*%
%TO.N,/VIRQB*%
X196565000Y-91885000D03*
%TO.P,U9,3*%
%TO.N,Net-(U10-Pad5)*%
X199105000Y-91885000D03*
%TO.P,U9,4*%
%TO.N,Net-(U10-Pad4)*%
X201645000Y-91885000D03*
%TO.P,U9,5*%
%TO.N,/PHI2*%
X204185000Y-91885000D03*
%TO.P,U9,6*%
%TO.N,/WEB*%
X206725000Y-91885000D03*
%TO.P,U9,7,GND_7*%
%TO.N,GND*%
X209265000Y-91885000D03*
%TO.P,U9,8*%
%TO.N,/AB17*%
X209265000Y-84265000D03*
%TO.P,U9,9*%
%TO.N,/A19*%
X206725000Y-84265000D03*
%TO.P,U9,10*%
X204185000Y-84265000D03*
%TO.P,U9,11*%
%TO.N,unconnected-(U9-Pad11)*%
X201645000Y-84265000D03*
%TO.P,U9,12*%
%TO.N,+3V3A*%
X199105000Y-84265000D03*
%TO.P,U9,13*%
X196565000Y-84265000D03*
%TO.P,U9,14,VCC_14*%
X194025000Y-84265000D03*
%TD*%
D24*
%TO.P,SW1,*%
%TO.N,*%
X105400000Y-32947500D03*
X112400000Y-32947500D03*
D20*
%TO.P,SW1,1,1_1*%
%TO.N,GND*%
X106650000Y-30447500D03*
%TO.P,SW1,2,2_2*%
%TO.N,/RUN*%
X111150000Y-30447500D03*
%TD*%
D10*
%TO.P,R6,1*%
%TO.N,Net-(U3-BE)*%
X150075000Y-82800000D03*
%TO.P,R6,2*%
%TO.N,+3V3A*%
X150075000Y-72640000D03*
%TD*%
%TO.P,R8,1*%
%TO.N,/PWMR*%
X159375000Y-82785000D03*
%TO.P,R8,2*%
%TO.N,Net-(C14-Pad1)*%
X159375000Y-72625000D03*
%TD*%
D16*
%TO.P,U10,1*%
%TO.N,/PHI2*%
X194000000Y-105050000D03*
D10*
%TO.P,U10,2*%
%TO.N,Net-(R7-Pad1)*%
X196540000Y-105050000D03*
%TO.P,U10,3*%
%TO.N,/RWB*%
X199080000Y-105050000D03*
%TO.P,U10,4*%
%TO.N,Net-(U10-Pad4)*%
X201620000Y-105050000D03*
%TO.P,U10,5*%
%TO.N,Net-(U10-Pad5)*%
X204160000Y-105050000D03*
%TO.P,U10,6*%
%TO.N,/IRQB*%
X206700000Y-105050000D03*
%TO.P,U10,7,GND_7*%
%TO.N,GND*%
X209240000Y-105050000D03*
%TO.P,U10,8*%
%TO.N,/AB16*%
X209240000Y-97430000D03*
%TO.P,U10,9*%
%TO.N,/A16*%
X206700000Y-97430000D03*
%TO.P,U10,10*%
%TO.N,/AB19*%
X204160000Y-97430000D03*
%TO.P,U10,11*%
%TO.N,/A17*%
X201620000Y-97430000D03*
%TO.P,U10,12*%
%TO.N,/AB18*%
X199080000Y-97430000D03*
%TO.P,U10,13*%
%TO.N,/A18*%
X196540000Y-97430000D03*
%TO.P,U10,14,VCC_14*%
%TO.N,+3V3A*%
X194000000Y-97430000D03*
%TD*%
%TO.P,R10,1*%
%TO.N,Net-(C14-Pad1)*%
X156275000Y-72627500D03*
%TO.P,R10,2*%
%TO.N,GND*%
X156275000Y-82787500D03*
%TD*%
%TO.P,C16,1*%
%TO.N,Net-(C14-Pad1)*%
X162475000Y-72627500D03*
%TO.P,C16,2*%
%TO.N,GND*%
X162475000Y-82787500D03*
%TD*%
D13*
%TO.P,D1,1,K_1*%
%TO.N,Net-(D1-K)*%
X130810000Y-95200000D03*
D14*
%TO.P,D1,2,A_2*%
%TO.N,Net-(D1-A)*%
X133350000Y-95200000D03*
%TD*%
D10*
%TO.P,R7,1*%
%TO.N,Net-(R7-Pad1)*%
X181975000Y-101385000D03*
%TO.P,R7,2*%
%TO.N,/PHI2B*%
X181975000Y-91225000D03*
%TD*%
%TO.P,R29,1*%
%TO.N,/BLU2*%
X159782500Y-65097500D03*
%TO.P,R29,2*%
%TO.N,/BLUV*%
X159782500Y-54937500D03*
%TD*%
%TO.P,R28,1*%
%TO.N,/BLU1*%
X156607500Y-65097500D03*
%TO.P,R28,2*%
%TO.N,/BLUV*%
X156607500Y-54937500D03*
%TD*%
D21*
%TO.P,C14,1*%
%TO.N,Net-(C14-Pad1)*%
X166050000Y-74317500D03*
D12*
%TO.P,C14,2*%
%TO.N,/AUDR*%
X171050000Y-74317500D03*
%TD*%
D10*
%TO.P,R20,1*%
%TO.N,/RED3*%
X131132500Y-64997500D03*
%TO.P,R20,2*%
%TO.N,/REDV*%
X131132500Y-54837500D03*
%TD*%
D11*
%TO.P,U6,1,A18_1*%
%TO.N,/A18*%
X105117500Y-104447500D03*
D12*
%TO.P,U6,2,A16_2*%
%TO.N,/A16*%
X105117500Y-106987500D03*
%TO.P,U6,3,A14_3*%
%TO.N,/A14*%
X105117500Y-109527500D03*
%TO.P,U6,4,A12_4*%
%TO.N,/A12*%
X105117500Y-112067500D03*
%TO.P,U6,5,A7_5*%
%TO.N,/A7*%
X105117500Y-114607500D03*
%TO.P,U6,6,A6_6*%
%TO.N,/A6*%
X105117500Y-117147500D03*
%TO.P,U6,7,A5_7*%
%TO.N,/A5*%
X105117500Y-119687500D03*
%TO.P,U6,8,A4_8*%
%TO.N,/A4*%
X105117500Y-122227500D03*
%TO.P,U6,9,A3_9*%
%TO.N,/A3*%
X105117500Y-124767500D03*
%TO.P,U6,10,A2_10*%
%TO.N,/A2*%
X105117500Y-127307500D03*
%TO.P,U6,11,A1_11*%
%TO.N,/A1*%
X105117500Y-129847500D03*
%TO.P,U6,12,A0_12*%
%TO.N,/A0*%
X105117500Y-132387500D03*
%TO.P,U6,13,DQ0_13*%
%TO.N,/D0*%
X105117500Y-134927500D03*
%TO.P,U6,14,DQ1_14*%
%TO.N,/D1*%
X105117500Y-137467500D03*
%TO.P,U6,15,DQ2_15*%
%TO.N,/D2*%
X105117500Y-140007500D03*
%TO.P,U6,16,Vss_16*%
%TO.N,GND*%
X105117500Y-142547500D03*
%TO.P,U6,17,DQ3_17*%
%TO.N,/D3*%
X120357500Y-142547500D03*
%TO.P,U6,18,DQ4_18*%
%TO.N,/D4*%
X120357500Y-140007500D03*
%TO.P,U6,19,DQ5_19*%
%TO.N,/D5*%
X120357500Y-137467500D03*
%TO.P,U6,20,DQ6_20*%
%TO.N,/D6*%
X120357500Y-134927500D03*
%TO.P,U6,21,DQ7_21*%
%TO.N,/D7*%
X120357500Y-132387500D03*
%TO.P,U6,22,CE#_22*%
%TO.N,/A19*%
X120357500Y-129847500D03*
%TO.P,U6,23,A10_23*%
%TO.N,/A10*%
X120357500Y-127307500D03*
%TO.P,U6,24,OE#_24*%
%TO.N,/IORQ*%
X120357500Y-124767500D03*
%TO.P,U6,25,A11_25*%
%TO.N,/A11*%
X120357500Y-122227500D03*
%TO.P,U6,26,A9_26*%
%TO.N,/A9*%
X120357500Y-119687500D03*
%TO.P,U6,27,A8_27*%
%TO.N,/A8*%
X120357500Y-117147500D03*
%TO.P,U6,28,A13_28*%
%TO.N,/A13*%
X120357500Y-114607500D03*
%TO.P,U6,29,WE#_29*%
%TO.N,/WEB*%
X120357500Y-112067500D03*
%TO.P,U6,30,A17_30*%
%TO.N,/A17*%
X120357500Y-109527500D03*
%TO.P,U6,31,A15_31*%
%TO.N,/A15*%
X120357500Y-106987500D03*
%TO.P,U6,32,Vcc_32*%
%TO.N,+3V3A*%
X120357500Y-104447500D03*
%TD*%
%TO.P,C13,1*%
%TO.N,+3V3A*%
X208380000Y-123410000D03*
%TO.P,C13,2*%
%TO.N,GND*%
X198220000Y-123410000D03*
%TD*%
D10*
%TO.P,C10,1*%
%TO.N,+3V3A*%
X190380000Y-96120000D03*
%TO.P,C10,2*%
%TO.N,GND*%
X190380000Y-106280000D03*
%TD*%
D19*
%TO.P,J4,1,Pin_1_1*%
%TO.N,VBAT*%
X148377500Y-47142500D03*
D20*
%TO.P,J4,2,Pin_2_2*%
X148377500Y-49682500D03*
%TO.P,J4,3,Pin_3_3*%
%TO.N,GND*%
X145837500Y-47142500D03*
%TO.P,J4,4,Pin_4_4*%
X145837500Y-49682500D03*
%TO.P,J4,5,Pin_5_5*%
X143297500Y-47142500D03*
%TO.P,J4,6,Pin_6_6*%
%TO.N,/BLUV*%
X143297500Y-49682500D03*
%TO.P,J4,7,Pin_7_7*%
%TO.N,/GRNV*%
X140757500Y-47142500D03*
%TO.P,J4,8,Pin_8_8*%
%TO.N,/REDV*%
X140757500Y-49682500D03*
%TO.P,J4,9,Pin_9_9*%
%TO.N,/HSYNCV*%
X138217500Y-47142500D03*
%TO.P,J4,10,Pin_10_10*%
%TO.N,/VSYNCV*%
X138217500Y-49682500D03*
%TO.P,J4,11,Pin_11_11*%
%TO.N,/AMPR*%
X135677500Y-47142500D03*
%TO.P,J4,12,Pin_12_12*%
%TO.N,GND*%
X135677500Y-49682500D03*
%TO.P,J4,13,Pin_13_13*%
%TO.N,/AMPL*%
X133137500Y-47142500D03*
%TO.P,J4,14,Pin_14_14*%
%TO.N,GND*%
X133137500Y-49682500D03*
%TD*%
D12*
%TO.P,C4,1*%
%TO.N,GND*%
X94472500Y-90462500D03*
%TO.P,C4,2*%
%TO.N,+3V3B*%
X84312500Y-90462500D03*
%TD*%
D10*
%TO.P,R27,1*%
%TO.N,/BLU0*%
X153432500Y-65097500D03*
%TO.P,R27,2*%
%TO.N,/BLUV*%
X153432500Y-54937500D03*
%TD*%
D11*
%TO.P,U3,1,VPB_1*%
%TO.N,unconnected-(U3-VPB-Pad1)*%
X148067500Y-94187500D03*
D12*
%TO.P,U3,2,RDY_2*%
%TO.N,/RDY*%
X148067500Y-96727500D03*
%TO.P,U3,3,ABORTB_3*%
%TO.N,Net-(U3-ABORTB)*%
X148067500Y-99267500D03*
%TO.P,U3,4,IRQB_4*%
%TO.N,/IRQB*%
X148067500Y-101807500D03*
%TO.P,U3,5,MLB_5*%
%TO.N,unconnected-(U3-MLB-Pad5)*%
X148067500Y-104347500D03*
%TO.P,U3,6,NMIB_6*%
%TO.N,/NMIB*%
X148067500Y-106887500D03*
%TO.P,U3,7,VPA_7*%
%TO.N,unconnected-(U3-VPA-Pad7)*%
X148067500Y-109427500D03*
%TO.P,U3,8,VDD_8*%
%TO.N,+3V3A*%
X148067500Y-111967500D03*
%TO.P,U3,9,A0_9*%
%TO.N,/A0*%
X148067500Y-114507500D03*
%TO.P,U3,10,A1_10*%
%TO.N,/A1*%
X148067500Y-117047500D03*
%TO.P,U3,11,A2_11*%
%TO.N,/A2*%
X148067500Y-119587500D03*
%TO.P,U3,12,A3_12*%
%TO.N,/A3*%
X148067500Y-122127500D03*
%TO.P,U3,13,A4_13*%
%TO.N,/A4*%
X148067500Y-124667500D03*
%TO.P,U3,14,A5_14*%
%TO.N,/A5*%
X148067500Y-127207500D03*
%TO.P,U3,15,A6_15*%
%TO.N,/A6*%
X148067500Y-129747500D03*
%TO.P,U3,16,A7_16*%
%TO.N,/A7*%
X148067500Y-132287500D03*
%TO.P,U3,17,A8_17*%
%TO.N,/A8*%
X148067500Y-134827500D03*
%TO.P,U3,18,A9_18*%
%TO.N,/A9*%
X148067500Y-137367500D03*
%TO.P,U3,19,A10_19*%
%TO.N,/A10*%
X148067500Y-139907500D03*
%TO.P,U3,20,A11_20*%
%TO.N,/A11*%
X148067500Y-142447500D03*
%TO.P,U3,21,VSS_21*%
%TO.N,GND*%
X163307500Y-142447500D03*
%TO.P,U3,22,A12_22*%
%TO.N,/A12*%
X163307500Y-139907500D03*
%TO.P,U3,23,A13_23*%
%TO.N,/A13*%
X163307500Y-137367500D03*
%TO.P,U3,24,A14_24*%
%TO.N,/A14*%
X163307500Y-134827500D03*
%TO.P,U3,25,A15_25*%
%TO.N,/A15*%
X163307500Y-132287500D03*
%TO.P,U3,26,DBA7_26*%
%TO.N,/DBA7*%
X163307500Y-129747500D03*
%TO.P,U3,27,DBA6_27*%
%TO.N,/DBA6*%
X163307500Y-127207500D03*
%TO.P,U3,28,DBA5_28*%
%TO.N,/DBA5*%
X163307500Y-124667500D03*
%TO.P,U3,29,DBA4_29*%
%TO.N,/DBA4*%
X163307500Y-122127500D03*
%TO.P,U3,30,DBA3_30*%
%TO.N,/DBA3*%
X163307500Y-119587500D03*
%TO.P,U3,31,DBA2_31*%
%TO.N,/DBA2*%
X163307500Y-117047500D03*
%TO.P,U3,32,DBA1_32*%
%TO.N,/DBA1*%
X163307500Y-114507500D03*
%TO.P,U3,33,DBA0_33*%
%TO.N,/DBA0*%
X163307500Y-111967500D03*
%TO.P,U3,34,RWB_34*%
%TO.N,/RWB*%
X163307500Y-109427500D03*
%TO.P,U3,35,E_35*%
%TO.N,Net-(D1-K)*%
X163307500Y-106887500D03*
%TO.P,U3,36,BE_36*%
%TO.N,Net-(U3-BE)*%
X163307500Y-104347500D03*
%TO.P,U3,37,PHI2_37*%
%TO.N,/PHI2*%
X163307500Y-101807500D03*
%TO.P,U3,38,MX_38*%
%TO.N,unconnected-(U3-MX-Pad38)*%
X163307500Y-99267500D03*
%TO.P,U3,39,VDA_39*%
%TO.N,unconnected-(U3-VDA-Pad39)*%
X163307500Y-96727500D03*
%TO.P,U3,40,RESB_40*%
%TO.N,/RESB*%
X163307500Y-94187500D03*
%TD*%
D10*
%TO.P,R26,1*%
%TO.N,/GRN4*%
X150217500Y-64997500D03*
%TO.P,R26,2*%
%TO.N,/GRNV*%
X150217500Y-54837500D03*
%TD*%
%TO.P,R16,1*%
%TO.N,/HSYNCV*%
X118417500Y-54837500D03*
%TO.P,R16,2*%
%TO.N,/HSYNC*%
X118417500Y-64997500D03*
%TD*%
D17*
%TO.P,REF\u002A\u002A,1*%
%TO.N,N/C*%
X70657500Y-32397500D03*
%TD*%
D25*
%TO.N,GND*%
X173000000Y-115725000D03*
D26*
X168025000Y-128455000D03*
X170000000Y-68925000D03*
%TO.N,/D0*%
X109300000Y-86000000D03*
X177829843Y-75650000D03*
%TO.N,/D1*%
X178445352Y-76438130D03*
X110096358Y-86604829D03*
%TO.N,/D2*%
X179450000Y-76933811D03*
X110900000Y-87200000D03*
%TO.N,/D3*%
X111724044Y-87766530D03*
X180250000Y-77786043D03*
%TO.N,/D4*%
X112556030Y-88321330D03*
X181050000Y-78518629D03*
%TO.N,/D5*%
X181850000Y-79243517D03*
X113390320Y-88872660D03*
%TO.N,/D6*%
X114200000Y-89479528D03*
X182650000Y-79953978D03*
%TO.N,/D7*%
X183558599Y-80695379D03*
X117700000Y-132350000D03*
X115000000Y-90159038D03*
%TO.N,/DBA3*%
X175458750Y-104811250D03*
%TO.N,/DBA2*%
X174664389Y-103004276D03*
%TO.N,/DBA1*%
X173863750Y-100761250D03*
%TO.N,/DBA0*%
X172988750Y-97861250D03*
D25*
%TO.N,+3V3A*%
X169850000Y-60250000D03*
X208801651Y-77828248D03*
D26*
X148517500Y-80927500D03*
%TO.N,Net-(D2-K)*%
X118325000Y-76975000D03*
X118325000Y-75225000D03*
D25*
%TO.N,+3V3B*%
X94457500Y-84575000D03*
D26*
%TO.N,/RREQ*%
X186800000Y-53250000D03*
%TO.N,/IORQ*%
X190953426Y-145325001D03*
X192250000Y-146625000D03*
X137921814Y-148053186D03*
%TO.N,/A3*%
X155743630Y-145100001D03*
%TO.N,/A2*%
X156543630Y-145900000D03*
%TO.N,/A1*%
X157343630Y-146700001D03*
%TO.N,/A0*%
X158193630Y-147550001D03*
%TO.N,/URX*%
X101657500Y-43217500D03*
%TO.N,/UTX*%
X101857500Y-40517500D03*
%TO.N,/GRN3*%
X99957500Y-73217500D03*
%TO.N,/SPARE0*%
X87575000Y-49250000D03*
X90875000Y-49225000D03*
%TO.N,/HSYNC*%
X101500000Y-51917500D03*
X99207500Y-52017500D03*
%TO.N,/SPARE1*%
X87100000Y-44475000D03*
D25*
%TO.N,VBUS*%
X68400000Y-60600000D03*
X108857500Y-39047500D03*
X114357500Y-39047500D03*
D26*
%TO.N,/A14*%
X154764950Y-128435050D03*
X151428528Y-128378528D03*
%TO.N,/A15*%
X156190686Y-133409314D03*
X159165685Y-130434315D03*
%TO.N,/A11*%
X155600000Y-141122542D03*
%TO.N,/A10*%
X156598758Y-141172403D03*
%TO.N,/A9*%
X157598368Y-141144410D03*
%TO.N,/A8*%
X141500000Y-120550000D03*
X158596833Y-141088982D03*
%TO.N,/A4*%
X154943630Y-144300001D03*
%TO.N,/A19*%
X210525000Y-77875000D03*
X155010050Y-143239950D03*
X166602740Y-134000000D03*
%TO.N,/A18*%
X184000000Y-122075000D03*
X186975000Y-99825000D03*
%TO.N,/A17*%
X173450000Y-129350000D03*
X185375000Y-105600000D03*
X183925000Y-120700000D03*
X173450000Y-138525000D03*
%TO.N,/A16*%
X155920000Y-124600000D03*
X153120000Y-124600000D03*
%TO.N,/A5*%
X151667499Y-133447398D03*
%TO.N,/IRQB*%
X185475000Y-79875000D03*
D25*
%TO.N,VBAT*%
X91957500Y-54717500D03*
X87557500Y-54717500D03*
D26*
%TO.N,/AMPL*%
X84650000Y-66000000D03*
X109000000Y-54950000D03*
X91000000Y-61700000D03*
%TO.N,/AMPR*%
X83000000Y-65950000D03*
X90950000Y-60700000D03*
X107950000Y-54100000D03*
%TO.N,/A7*%
X150867499Y-132250000D03*
%TO.N,/AB19*%
X172375000Y-125825000D03*
X152200000Y-137650686D03*
X174096814Y-127571814D03*
X160675000Y-125923960D03*
X175725000Y-132200000D03*
X164775000Y-125825000D03*
%TO.N,/AB17*%
X203625000Y-79725000D03*
%TD*%
%TO.N,/AUDL*%
D27*
X108875000Y-78650000D02*
X95250000Y-78650000D01*
X95250000Y-78650000D02*
X93397500Y-76797500D01*
X113150000Y-74375000D02*
X108875000Y-78650000D01*
X168057500Y-45317500D02*
X165422500Y-42682500D01*
X128337500Y-74037500D02*
X128337500Y-72650000D01*
X76000000Y-77200000D02*
X76000000Y-76775000D01*
X145525000Y-64175000D02*
X152950000Y-56750000D01*
X79500000Y-78700000D02*
X77500000Y-78700000D01*
X77500000Y-78700000D02*
X76000000Y-77200000D01*
X115425000Y-73275000D02*
X117882500Y-70817500D01*
X76000000Y-76775000D02*
X73062500Y-73837500D01*
X71167500Y-73837500D02*
X69917500Y-72587500D01*
X115425000Y-74375000D02*
X113150000Y-74375000D01*
X152950000Y-56750000D02*
X167175000Y-56750000D01*
X117882500Y-70817500D02*
X141557500Y-70817500D01*
X165422500Y-42682500D02*
X165422500Y-36897500D01*
X115425000Y-74375000D02*
X128000000Y-74375000D01*
X81402500Y-76797500D02*
X79500000Y-78700000D01*
X141557500Y-70817500D02*
X145525000Y-66850000D01*
X93397500Y-76797500D02*
X81402500Y-76797500D01*
X73062500Y-73837500D02*
X71167500Y-73837500D01*
X168057500Y-55867500D02*
X168057500Y-45317500D01*
X128000000Y-74375000D02*
X128337500Y-74037500D01*
X145525000Y-66850000D02*
X145525000Y-64175000D01*
X115425000Y-74375000D02*
X115425000Y-73275000D01*
X167175000Y-56750000D02*
X168057500Y-55867500D01*
%TO.N,GND*%
D28*
X170000000Y-65155000D02*
X170057500Y-65097500D01*
X209265000Y-91845000D02*
X209265000Y-91885000D01*
X81757500Y-94037500D02*
X88537500Y-94037500D01*
X209265000Y-92945000D02*
X209265000Y-91885000D01*
X168025000Y-128455000D02*
X168025000Y-119929898D01*
D27*
X176600000Y-143600000D02*
X175350000Y-142350000D01*
D28*
X190370000Y-93100000D02*
X191045000Y-93775000D01*
X153210000Y-82757500D02*
X153175000Y-82792500D01*
X96237500Y-59617500D02*
X102357500Y-59617500D01*
X201250000Y-140530000D02*
X199410000Y-142370000D01*
X72557500Y-50587500D02*
X72557500Y-53127500D01*
X76300000Y-59617500D02*
X78457500Y-59617500D01*
X204880000Y-72555000D02*
X205375000Y-73050000D01*
X151732500Y-79925000D02*
X131475000Y-79925000D01*
X204880000Y-72320000D02*
X205375000Y-71825000D01*
X190430000Y-111105000D02*
X192275000Y-112950000D01*
X79175000Y-58900000D02*
X78457500Y-59617500D01*
X123907500Y-142497500D02*
X122457500Y-143947500D01*
X81757500Y-94037500D02*
X81782500Y-94062500D01*
X170830000Y-119495000D02*
X173000000Y-117325000D01*
X72557500Y-53127500D02*
X76300000Y-56870000D01*
X155900000Y-86700000D02*
X159527500Y-90327500D01*
X105097500Y-143950000D02*
X80590000Y-143950000D01*
X78457500Y-46917500D02*
X72590000Y-46917500D01*
D27*
X180450000Y-141100000D02*
X176600000Y-141100000D01*
D28*
X202887500Y-59617500D02*
X204950000Y-57555000D01*
X78440000Y-72300000D02*
X78457500Y-72317500D01*
X69917500Y-82747500D02*
X72457500Y-82747500D01*
X153175000Y-82792500D02*
X153125000Y-82742500D01*
X76250000Y-68795000D02*
X72457500Y-72587500D01*
X78457500Y-34217500D02*
X96237500Y-34217500D01*
X156275000Y-82787500D02*
X156245000Y-82757500D01*
X128337500Y-81062500D02*
X128337500Y-82810000D01*
D27*
X181700000Y-142350000D02*
X180450000Y-141100000D01*
D28*
X204880000Y-72320000D02*
X202890000Y-72320000D01*
X69932500Y-133292500D02*
X69932500Y-122462500D01*
D27*
X176600000Y-141100000D02*
X175350000Y-142350000D01*
D28*
X190380000Y-106280000D02*
X190380000Y-109290000D01*
X111367500Y-65017500D02*
X111400000Y-65050000D01*
X168459898Y-119495000D02*
X170830000Y-119495000D01*
X199175000Y-123410000D02*
X199175000Y-118165000D01*
X170830000Y-142355000D02*
X170835000Y-142350000D01*
X195260000Y-123480000D02*
X198150000Y-123480000D01*
X94460000Y-90475000D02*
X94472500Y-90462500D01*
X72480000Y-75150000D02*
X72457500Y-75127500D01*
X76737500Y-89017500D02*
X81757500Y-94037500D01*
X170835000Y-142350000D02*
X175350000Y-142350000D01*
X199685000Y-123410000D02*
X202575000Y-126300000D01*
X76300000Y-56870000D02*
X76300000Y-59617500D01*
X208435000Y-93775000D02*
X209265000Y-92945000D01*
X155900000Y-82780000D02*
X155900000Y-86700000D01*
X96237500Y-72317500D02*
X78457500Y-72317500D01*
X202887500Y-34217500D02*
X204950000Y-36280000D01*
X201250000Y-138950000D02*
X201250000Y-140530000D01*
X105117500Y-142547500D02*
X105117500Y-143930000D01*
X77565419Y-34217500D02*
X78457500Y-34217500D01*
X131450000Y-82825000D02*
X131450000Y-79925000D01*
D27*
X170100000Y-137370000D02*
X171700000Y-137370000D01*
D28*
X76300000Y-59617500D02*
X76250000Y-59667500D01*
X76250000Y-59667500D02*
X76250000Y-68795000D01*
X123600000Y-89450000D02*
X128337500Y-84712500D01*
X123600000Y-89450000D02*
X123600000Y-99800000D01*
X185107500Y-59617500D02*
X184757500Y-59617500D01*
X192275000Y-122175000D02*
X193580000Y-123480000D01*
X192275000Y-112950000D02*
X192275000Y-122175000D01*
X205375000Y-71825000D02*
X205375000Y-62075000D01*
X211375000Y-89735000D02*
X209265000Y-91845000D01*
X69932500Y-122462500D02*
X72472500Y-122462500D01*
X202887500Y-46917500D02*
X204842500Y-46917500D01*
X88537500Y-94037500D02*
X92100000Y-90475000D01*
X198220000Y-123410000D02*
X199175000Y-123410000D01*
X191045000Y-93775000D02*
X208435000Y-93775000D01*
X72557500Y-48047500D02*
X72557500Y-50587500D01*
X204950000Y-36280000D02*
X204950000Y-46810000D01*
X72457500Y-82717500D02*
X73712500Y-81462500D01*
X72557500Y-40427500D02*
X72557500Y-39225419D01*
X170097500Y-142447500D02*
X170127500Y-142417500D01*
X72457500Y-77667500D02*
X72457500Y-80207500D01*
X124257500Y-100457500D02*
X125567500Y-100457500D01*
X173000000Y-117325000D02*
X173000000Y-115725000D01*
X205375000Y-62075000D02*
X202917500Y-59617500D01*
X198150000Y-123480000D02*
X198220000Y-123410000D01*
X72457500Y-82747500D02*
X72457500Y-82717500D01*
X168025000Y-119929898D02*
X168459898Y-119495000D01*
X96237500Y-59617500D02*
X95520000Y-58900000D01*
X186700000Y-142350000D02*
X186660000Y-142390000D01*
X193580000Y-123480000D02*
X195260000Y-123480000D01*
X204950000Y-57555000D02*
X204950000Y-46950000D01*
X211375000Y-82050000D02*
X211375000Y-89735000D01*
X190380000Y-109290000D02*
X190430000Y-109340000D01*
X122457500Y-143947500D02*
X105100000Y-143947500D01*
X83272500Y-94062500D02*
X83972500Y-94762500D01*
X170000000Y-68925000D02*
X170000000Y-65155000D01*
X199175000Y-118165000D02*
X199180000Y-118160000D01*
X202575000Y-126300000D02*
X202575000Y-137625000D01*
X153125000Y-81317500D02*
X151732500Y-79925000D01*
X205375000Y-76050000D02*
X211375000Y-82050000D01*
X202887500Y-46917500D02*
X185107500Y-46917500D01*
X153125000Y-82742500D02*
X153125000Y-81317500D01*
X96237500Y-46917500D02*
X78457500Y-46917500D01*
D27*
X180450000Y-143600000D02*
X176600000Y-143600000D01*
D28*
X181700000Y-142350000D02*
X186140000Y-142350000D01*
X72557500Y-46950000D02*
X72557500Y-48047500D01*
X202917500Y-59617500D02*
X202887500Y-59617500D01*
X72457500Y-80207500D02*
X73712500Y-81462500D01*
X72457500Y-72587500D02*
X72745000Y-72300000D01*
X83972500Y-94762500D02*
X83972500Y-143922500D01*
X107757500Y-65017500D02*
X111367500Y-65017500D01*
X129475000Y-79925000D02*
X128337500Y-81062500D01*
X204950000Y-46810000D02*
X204880000Y-46880000D01*
X204880000Y-72320000D02*
X204880000Y-72555000D01*
X102357500Y-59617500D02*
X107757500Y-65017500D01*
X198220000Y-123410000D02*
X199685000Y-123410000D01*
X95520000Y-58900000D02*
X79175000Y-58900000D01*
X190430000Y-109340000D02*
X190430000Y-111105000D01*
X81782500Y-94062500D02*
X83272500Y-94062500D01*
X81757500Y-94037500D02*
X81057500Y-94037500D01*
X186140000Y-142350000D02*
X186180000Y-142390000D01*
X204842500Y-46917500D02*
X204880000Y-46880000D01*
X76737500Y-81462500D02*
X76737500Y-89017500D01*
X205375000Y-73050000D02*
X205375000Y-76050000D01*
X159527500Y-90327500D02*
X160982500Y-90327500D01*
X78457500Y-72317500D02*
X78290000Y-72150000D01*
X92100000Y-90475000D02*
X94460000Y-90475000D01*
X72557500Y-45507500D02*
X72557500Y-46950000D01*
X72557500Y-39225419D02*
X77565419Y-34217500D01*
X131450000Y-79925000D02*
X129475000Y-79925000D01*
X202575000Y-137625000D02*
X201250000Y-138950000D01*
X202890000Y-72320000D02*
X202887500Y-72317500D01*
X169598750Y-115786250D02*
X169603750Y-115781250D01*
X76737500Y-81462500D02*
X73712500Y-81462500D01*
D27*
X181700000Y-142350000D02*
X180450000Y-143600000D01*
D28*
X72745000Y-72300000D02*
X78440000Y-72300000D01*
X123600000Y-99800000D02*
X124257500Y-100457500D01*
X72557500Y-42967500D02*
X72557500Y-45507500D01*
X72557500Y-40427500D02*
X72557500Y-42967500D01*
X80590000Y-143950000D02*
X69932500Y-133292500D01*
X128337500Y-84712500D02*
X128337500Y-82810000D01*
X204950000Y-46950000D02*
X204880000Y-46880000D01*
%TO.N,/BLUV*%
D27*
X153432500Y-54937500D02*
X156607500Y-54937500D01*
X142007500Y-47567500D02*
X142047500Y-47607500D01*
X142047500Y-47660267D02*
X142647500Y-48260267D01*
X142647500Y-48260267D02*
X142647500Y-49032500D01*
X156607500Y-54937500D02*
X159782500Y-54937500D01*
X142047500Y-47607500D02*
X142047500Y-47660267D01*
X162957500Y-54937500D02*
X166132500Y-54937500D01*
X159782500Y-54937500D02*
X162957500Y-54937500D01*
X140975000Y-41347500D02*
X142007500Y-42380000D01*
X142007500Y-42380000D02*
X142007500Y-47567500D01*
X152157500Y-52017500D02*
X145632500Y-52017500D01*
X153432500Y-53292500D02*
X152157500Y-52017500D01*
X143322500Y-49682500D02*
X143297500Y-49682500D01*
X142647500Y-49032500D02*
X143297500Y-49682500D01*
X153432500Y-54937500D02*
X153432500Y-53292500D01*
X145632500Y-52017500D02*
X143297500Y-49682500D01*
%TO.N,/RWB*%
X92975444Y-137185444D02*
X92975444Y-95113972D01*
X103489416Y-84600000D02*
X122587500Y-84600000D01*
X161625000Y-94875000D02*
X162175000Y-95425000D01*
X170321250Y-88728750D02*
X170876250Y-88728750D01*
X161625000Y-93625000D02*
X161625000Y-94875000D01*
X186553186Y-78746814D02*
X186800000Y-78500000D01*
X184600000Y-82723528D02*
X184600000Y-79275000D01*
X171328750Y-88276250D02*
X171328750Y-80059778D01*
X186800000Y-78500000D02*
X186800000Y-61500000D01*
X176550000Y-74498528D02*
X176550000Y-58801472D01*
X187247500Y-51997500D02*
X185107500Y-51997500D01*
X92975444Y-95113972D02*
X103489416Y-84600000D01*
X162225000Y-95425000D02*
X162250000Y-95450000D01*
X170713750Y-88821250D02*
X170726250Y-88808750D01*
X162700000Y-92550000D02*
X161625000Y-93625000D01*
X123700000Y-83487500D02*
X123700000Y-78987500D01*
X96997500Y-139757500D02*
X95547500Y-139757500D01*
X186800000Y-61500000D02*
X187675000Y-60625000D01*
X170876250Y-88728750D02*
X171328750Y-88276250D01*
X187675000Y-52425000D02*
X187247500Y-51997500D01*
X176550000Y-58801472D02*
X183353972Y-51997500D01*
X125187500Y-77500000D02*
X153575000Y-77500000D01*
X164275000Y-95450000D02*
X165775000Y-93950000D01*
X183350000Y-83973528D02*
X184600000Y-82723528D01*
X165775000Y-93275000D02*
X170321250Y-88728750D01*
X197325000Y-101575000D02*
X184000000Y-101575000D01*
X162700000Y-89725000D02*
X162700000Y-92550000D01*
X123700000Y-78987500D02*
X125187500Y-77500000D01*
X185128186Y-78746814D02*
X186553186Y-78746814D01*
X183350000Y-100925000D02*
X183350000Y-83973528D01*
X187675000Y-60625000D02*
X187675000Y-52425000D01*
X95547500Y-139757500D02*
X92975444Y-137185444D01*
X153575000Y-77500000D02*
X157775000Y-81700000D01*
X122587500Y-84600000D02*
X123700000Y-83487500D01*
X199080000Y-105050000D02*
X199080000Y-103330000D01*
X162250000Y-95450000D02*
X164275000Y-95450000D01*
X171300000Y-79748528D02*
X176550000Y-74498528D01*
X157775000Y-84800000D02*
X162700000Y-89725000D01*
X184600000Y-79275000D02*
X185128186Y-78746814D01*
X157775000Y-81700000D02*
X157775000Y-84800000D01*
X184000000Y-101575000D02*
X183350000Y-100925000D01*
X165775000Y-93950000D02*
X165775000Y-93275000D01*
X199080000Y-103330000D02*
X197325000Y-101575000D01*
X183353972Y-51997500D02*
X185107500Y-51997500D01*
X162175000Y-95425000D02*
X162225000Y-95425000D01*
%TO.N,/D0*%
X177825000Y-60375000D02*
X183662500Y-54537500D01*
X109290000Y-132410000D02*
X106772500Y-134927500D01*
X173125000Y-80354843D02*
X177829843Y-75650000D01*
X109300000Y-86000000D02*
X109290000Y-86010000D01*
X170838750Y-91381250D02*
X172218750Y-91381250D01*
X183662500Y-54537500D02*
X185107500Y-54537500D01*
X177829843Y-75650000D02*
X177829843Y-75504711D01*
X106772500Y-134927500D02*
X105117500Y-134927500D01*
X109290000Y-86010000D02*
X109290000Y-132410000D01*
X173125000Y-90475000D02*
X173125000Y-80354843D01*
X177829843Y-75504711D02*
X177825000Y-75499868D01*
X172218750Y-91381250D02*
X173125000Y-90475000D01*
X177825000Y-75499868D02*
X177825000Y-60375000D01*
%TO.N,/D1*%
X178445352Y-76438130D02*
X178445352Y-76386472D01*
X173725000Y-92525000D02*
X173725000Y-81158482D01*
X110096358Y-86604829D02*
X110096358Y-86806542D01*
X170848750Y-93911250D02*
X172338750Y-93911250D01*
X172338750Y-93911250D02*
X173725000Y-92525000D01*
X106732500Y-137467500D02*
X105117500Y-137467500D01*
X110100000Y-86810184D02*
X110100000Y-134100000D01*
X173725000Y-81158482D02*
X178445352Y-76438130D01*
X178650000Y-76181824D02*
X178650000Y-62060000D01*
X183632500Y-57077500D02*
X185107500Y-57077500D01*
X110100000Y-134100000D02*
X106732500Y-137467500D01*
X178650000Y-62060000D02*
X183632500Y-57077500D01*
X178445352Y-76386472D02*
X178650000Y-76181824D01*
X170838750Y-93921250D02*
X170848750Y-93911250D01*
X178445352Y-76426786D02*
X178628912Y-76243226D01*
X110096358Y-86806542D02*
X110100000Y-86810184D01*
X178445352Y-76438130D02*
X178445352Y-76426786D01*
%TO.N,/D2*%
X179450000Y-66340000D02*
X183632500Y-62157500D01*
X171158750Y-96461250D02*
X174325000Y-93295000D01*
X110900000Y-87200000D02*
X110900000Y-135850000D01*
X179450000Y-76933811D02*
X179450000Y-77125000D01*
X179450000Y-76933811D02*
X179450000Y-66340000D01*
X106750000Y-140000000D02*
X105125000Y-140000000D01*
X110900000Y-135850000D02*
X106750000Y-140000000D01*
X174325000Y-82058811D02*
X179450000Y-76933811D01*
X170838750Y-96461250D02*
X171158750Y-96461250D01*
X174325000Y-93295000D02*
X174325000Y-82058811D01*
X105125000Y-140000000D02*
X105117500Y-140007500D01*
X183632500Y-62157500D02*
X185107500Y-62157500D01*
%TO.N,/D3*%
X180250000Y-77786043D02*
X174925000Y-83111043D01*
X174925000Y-83111043D02*
X174925000Y-94675000D01*
X171023750Y-99001250D02*
X170838750Y-99001250D01*
X118697500Y-142547500D02*
X120357500Y-142547500D01*
X111724044Y-87766530D02*
X111724044Y-135574044D01*
X174925000Y-94675000D02*
X172188750Y-97411250D01*
X172188750Y-97836250D02*
X171023750Y-99001250D01*
X180250000Y-77786043D02*
X180250000Y-67860000D01*
X172188750Y-97411250D02*
X172188750Y-97836250D01*
X183412500Y-64697500D02*
X185107500Y-64697500D01*
X180250000Y-67860000D02*
X183412500Y-64697500D01*
X111724044Y-135574044D02*
X118697500Y-142547500D01*
%TO.N,/D4*%
X171639778Y-101428750D02*
X175550000Y-97518528D01*
X170876250Y-101428750D02*
X171639778Y-101428750D01*
X175550000Y-97518528D02*
X175550000Y-84018629D01*
X183532500Y-67237500D02*
X185107500Y-67237500D01*
X112556030Y-88321330D02*
X112556030Y-133756030D01*
X118807500Y-140007500D02*
X120357500Y-140007500D01*
X175550000Y-84018629D02*
X181050000Y-78518629D01*
X181050000Y-78518629D02*
X181050000Y-69720000D01*
X181050000Y-69720000D02*
X183532500Y-67237500D01*
X112556030Y-133756030D02*
X118807500Y-140007500D01*
%TO.N,/D5*%
X113400000Y-88882340D02*
X113390320Y-88872660D01*
X113400000Y-132100000D02*
X113400000Y-88882340D01*
X183672500Y-69777500D02*
X185107500Y-69777500D01*
X181850000Y-71600000D02*
X183672500Y-69777500D01*
X118767500Y-137467500D02*
X113400000Y-132100000D01*
X181850000Y-79243517D02*
X181850000Y-71600000D01*
X170838750Y-104081250D02*
X172358750Y-104081250D01*
X176150000Y-100290000D02*
X176150000Y-84900000D01*
X176150000Y-84900000D02*
X181806483Y-79243517D01*
X181806483Y-79243517D02*
X181850000Y-79243517D01*
X120357500Y-137467500D02*
X118767500Y-137467500D01*
X172358750Y-104081250D02*
X176150000Y-100290000D01*
%TO.N,/D6*%
X114200000Y-89479528D02*
X114200000Y-130350000D01*
X172477379Y-106621250D02*
X176750000Y-102348629D01*
X176750000Y-85277944D02*
X181984427Y-80043517D01*
X118777500Y-134927500D02*
X120357500Y-134927500D01*
X182650000Y-75980000D02*
X183772500Y-74857500D01*
X170838750Y-106621250D02*
X172477379Y-106621250D01*
X181984427Y-80043517D02*
X182560461Y-80043517D01*
X114200000Y-130350000D02*
X118777500Y-134927500D01*
X182650000Y-79953978D02*
X182650000Y-75980000D01*
X183772500Y-74857500D02*
X185107500Y-74857500D01*
X176750000Y-102348629D02*
X176750000Y-85277944D01*
X182560461Y-80043517D02*
X182650000Y-79953978D01*
%TO.N,/D7*%
X183558599Y-80695379D02*
X183550000Y-80686780D01*
X177375000Y-102675000D02*
X179400000Y-102675000D01*
X179400000Y-102675000D02*
X180625000Y-101450000D01*
X176258750Y-103791250D02*
X177375000Y-102675000D01*
X114950000Y-95100000D02*
X114950000Y-129600000D01*
X170838750Y-109161250D02*
X172530222Y-109161250D01*
X183558599Y-80695379D02*
X183550000Y-80703978D01*
X180625000Y-85850000D02*
X183558599Y-82916401D01*
X115000000Y-90159038D02*
X115000000Y-95050000D01*
X183558599Y-82916401D02*
X183558599Y-80695379D01*
X176258750Y-105432722D02*
X176258750Y-103791250D01*
X180625000Y-101450000D02*
X180625000Y-85850000D01*
X172530222Y-109161250D02*
X176258750Y-105432722D01*
X114950000Y-129600000D02*
X117700000Y-132350000D01*
X183550000Y-78955000D02*
X185107500Y-77397500D01*
X115000000Y-95050000D02*
X114950000Y-95100000D01*
X183550000Y-80686780D02*
X183550000Y-78955000D01*
%TO.N,/DBA7*%
X166325000Y-128350000D02*
X166325000Y-124847056D01*
X167225000Y-123947056D02*
X167225000Y-119598528D01*
X163307500Y-129747500D02*
X164927500Y-129747500D01*
X166325000Y-124847056D02*
X167225000Y-123947056D01*
X171925000Y-114425000D02*
X174761250Y-111588750D01*
X174761250Y-111588750D02*
X178496250Y-111588750D01*
X170798528Y-117675000D02*
X171925000Y-116548528D01*
X164927500Y-129747500D02*
X166325000Y-128350000D01*
X169148528Y-117675000D02*
X170798528Y-117675000D01*
X171925000Y-116548528D02*
X171925000Y-114425000D01*
X167225000Y-119598528D02*
X169148528Y-117675000D01*
%TO.N,/DBA6*%
X173175000Y-112323528D02*
X173175000Y-111098528D01*
X163307500Y-127207500D02*
X164742500Y-127207500D01*
X175224778Y-109048750D02*
X178496250Y-109048750D01*
X163360000Y-127260000D02*
X163990000Y-127260000D01*
X166625000Y-123698528D02*
X166625000Y-119350000D01*
X170550000Y-117075000D02*
X171325000Y-116300000D01*
X172023528Y-113476472D02*
X172023528Y-113475000D01*
X171325000Y-116300000D02*
X171325000Y-114175000D01*
X172023528Y-113475000D02*
X173175000Y-112323528D01*
X163307500Y-127207500D02*
X163360000Y-127260000D01*
X168900000Y-117075000D02*
X170550000Y-117075000D01*
X164742500Y-127207500D02*
X165650000Y-126300000D01*
X171325000Y-114175000D02*
X172023528Y-113476472D01*
X173175000Y-111098528D02*
X175224778Y-109048750D01*
X165650000Y-124673528D02*
X166625000Y-123698528D01*
X166625000Y-119350000D02*
X168900000Y-117075000D01*
X165650000Y-126300000D02*
X165650000Y-124673528D01*
%TO.N,/DBA5*%
X166025000Y-118407944D02*
X167575000Y-116857944D01*
X172575000Y-110850000D02*
X176916250Y-106508750D01*
X167575000Y-115707944D02*
X168675000Y-114607944D01*
X167575000Y-116857944D02*
X167575000Y-115707944D01*
X176916250Y-106508750D02*
X178496250Y-106508750D01*
X168675000Y-114600000D02*
X168682944Y-114600000D01*
X170407944Y-112875000D02*
X171775000Y-112875000D01*
X171775000Y-112875000D02*
X172575000Y-112075000D01*
X168682944Y-114600000D02*
X170407944Y-112875000D01*
X172575000Y-112075000D02*
X172575000Y-110850000D01*
X166025000Y-123450000D02*
X166025000Y-118407944D01*
X163307500Y-124667500D02*
X164807500Y-124667500D01*
X168675000Y-114607944D02*
X168675000Y-114600000D01*
X164807500Y-124667500D02*
X166025000Y-123450000D01*
%TO.N,/DBA4*%
X168075000Y-113773528D02*
X168050000Y-113798528D01*
X166975000Y-115222056D02*
X166975000Y-116609416D01*
X168075000Y-112292944D02*
X168075000Y-113773528D01*
X164802500Y-122127500D02*
X163307500Y-122127500D01*
X172151250Y-110388750D02*
X169979194Y-110388750D01*
X178458750Y-104081250D02*
X178458750Y-104131250D01*
X168050000Y-113798528D02*
X168050000Y-114126955D01*
X178458750Y-104131250D02*
X177188750Y-104131250D01*
X176858750Y-105681250D02*
X172151250Y-110388750D01*
X177188750Y-104131250D02*
X176858750Y-104461250D01*
X169979194Y-110388750D02*
X168075000Y-112292944D01*
X176858750Y-104461250D02*
X176858750Y-105681250D01*
X167900000Y-114297056D02*
X166975000Y-115222056D01*
X165370000Y-121560000D02*
X164802500Y-122127500D01*
X167900000Y-114276955D02*
X167900000Y-114297056D01*
X168050000Y-114126955D02*
X167900000Y-114276955D01*
X166975000Y-116609416D02*
X165370000Y-118214416D01*
X165370000Y-118214416D02*
X165370000Y-121560000D01*
%TO.N,/DBA3*%
X170100000Y-129750000D02*
X171700000Y-129750000D01*
X167450000Y-113550000D02*
X167475000Y-113525000D01*
X174958750Y-105311250D02*
X175458750Y-104811250D01*
X167450000Y-113878427D02*
X167450000Y-113550000D01*
X174958750Y-105321250D02*
X174958750Y-105311250D01*
X166375000Y-114973528D02*
X167300000Y-114048528D01*
X163307500Y-119587500D02*
X163307500Y-119428388D01*
X172505000Y-107775000D02*
X174958750Y-105321250D01*
X167300000Y-114048528D02*
X167300000Y-114028427D01*
X166375000Y-116360888D02*
X166375000Y-114973528D01*
X167475000Y-110235000D02*
X169935000Y-107775000D01*
X163307500Y-119428388D02*
X166375000Y-116360888D01*
X169935000Y-107775000D02*
X172505000Y-107775000D01*
X167300000Y-114028427D02*
X167450000Y-113878427D01*
X167475000Y-113525000D02*
X167475000Y-110235000D01*
%TO.N,/DBA2*%
X169850000Y-105250000D02*
X166850000Y-108250000D01*
X166850000Y-113629899D02*
X166700000Y-113779899D01*
X166850000Y-108250000D02*
X166850000Y-113629899D01*
X165750000Y-114750000D02*
X165750000Y-116110000D01*
X172420000Y-105250000D02*
X169850000Y-105250000D01*
X166700000Y-113800000D02*
X165750000Y-114750000D01*
X174664389Y-103004276D02*
X174108750Y-103559915D01*
X164812500Y-117047500D02*
X163307500Y-117047500D01*
X174108750Y-103559915D02*
X174108750Y-103561250D01*
X166700000Y-113779899D02*
X166700000Y-113800000D01*
X165750000Y-116110000D02*
X164812500Y-117047500D01*
X174108750Y-103561250D02*
X172420000Y-105250000D01*
%TO.N,/DBA1*%
X173788750Y-100761250D02*
X171850000Y-102700000D01*
X171850000Y-102700000D02*
X168900000Y-102700000D01*
X166250000Y-105350000D02*
X166250000Y-113381371D01*
X165123871Y-114507500D02*
X163307500Y-114507500D01*
X173863750Y-100761250D02*
X173788750Y-100761250D01*
X166250000Y-113381371D02*
X165123871Y-114507500D01*
X168900000Y-102700000D02*
X166250000Y-105350000D01*
%TO.N,/DBA0*%
X178458750Y-94181250D02*
X178458750Y-93921250D01*
X164975000Y-111675000D02*
X164682500Y-111967500D01*
X164682500Y-111967500D02*
X163307500Y-111967500D01*
X170065000Y-100125000D02*
X164975000Y-105215000D01*
X172988750Y-97861250D02*
X172988750Y-99231250D01*
X164975000Y-105215000D02*
X164975000Y-111675000D01*
X172095000Y-100125000D02*
X170065000Y-100125000D01*
X172988750Y-99231250D02*
X172095000Y-100125000D01*
%TO.N,+3V3A*%
D28*
X134550000Y-72665000D02*
X134575000Y-72640000D01*
X149785000Y-72400000D02*
X150050000Y-72665000D01*
X196575000Y-82375000D02*
X190935000Y-82375000D01*
X212080000Y-136000000D02*
X212730000Y-135350000D01*
X150025000Y-70950000D02*
X150025000Y-72590000D01*
X190935000Y-82375000D02*
X190370000Y-82940000D01*
X120350000Y-101450000D02*
X119357500Y-100457500D01*
X169850000Y-60250000D02*
X168050000Y-62050000D01*
X136427500Y-102917500D02*
X136427500Y-102247500D01*
X137650000Y-72650000D02*
X140765000Y-72650000D01*
X140765000Y-72650000D02*
X140775000Y-72640000D01*
X184320000Y-119495000D02*
X185100000Y-120275000D01*
D27*
X183107500Y-43067500D02*
X181857500Y-41817500D01*
D28*
X195727500Y-39297500D02*
X193207500Y-41817500D01*
X180436250Y-115786250D02*
X179758750Y-115786250D01*
X119357500Y-100457500D02*
X117850000Y-100457500D01*
D27*
X188207500Y-41817500D02*
X186957500Y-43067500D01*
D28*
X137650000Y-72640000D02*
X137690000Y-72600000D01*
X136925000Y-100375000D02*
X136925000Y-101750000D01*
X150822500Y-90327500D02*
X150822500Y-110927500D01*
X190370000Y-82940000D02*
X190370000Y-84680000D01*
X193207500Y-41817500D02*
X188207500Y-41817500D01*
D27*
X188207500Y-41817500D02*
X186957500Y-40567500D01*
D28*
X139147500Y-104397500D02*
X139237500Y-104397500D01*
X170057500Y-54937500D02*
X170007500Y-54887500D01*
X192690000Y-96120000D02*
X194000000Y-97430000D01*
X179317500Y-41817500D02*
X181857500Y-41817500D01*
X208926651Y-77953248D02*
X209128248Y-77953248D01*
X212730000Y-135350000D02*
X212730000Y-127130000D01*
X194025000Y-82385000D02*
X194025000Y-84265000D01*
X164650000Y-70100000D02*
X150875000Y-70100000D01*
X150875000Y-70100000D02*
X150025000Y-70950000D01*
X199105000Y-84265000D02*
X199105000Y-82375000D01*
X212225000Y-126625000D02*
X207535000Y-126625000D01*
X196565000Y-82385000D02*
X196575000Y-82375000D01*
X146975000Y-72640000D02*
X150075000Y-72640000D01*
X199105000Y-82375000D02*
X196575000Y-82375000D01*
X136925000Y-101750000D02*
X136427500Y-102247500D01*
D27*
X186957500Y-40567500D02*
X183107500Y-40567500D01*
D28*
X140775000Y-72640000D02*
X143875000Y-72640000D01*
X207535000Y-126625000D02*
X207030000Y-127130000D01*
X139237500Y-104397500D02*
X146807500Y-111967500D01*
X150025000Y-72590000D02*
X150075000Y-72640000D01*
X190380000Y-96120000D02*
X192690000Y-96120000D01*
X150822500Y-110927500D02*
X149782500Y-111967500D01*
X150822500Y-90327500D02*
X148517500Y-88022500D01*
X185100000Y-123480000D02*
X190130000Y-123480000D01*
D27*
X186957500Y-43067500D02*
X183107500Y-43067500D01*
D28*
X202887500Y-39297500D02*
X195727500Y-39297500D01*
X136427500Y-102247500D02*
X120357500Y-102247500D01*
X208801651Y-77828248D02*
X208926651Y-77953248D01*
X196565000Y-84265000D02*
X196565000Y-82385000D01*
X212375000Y-126475000D02*
X212225000Y-126625000D01*
X140775000Y-72640000D02*
X141015000Y-72400000D01*
X120350000Y-102240000D02*
X120350000Y-101450000D01*
X168050000Y-62050000D02*
X168050000Y-66700000D01*
X139147500Y-104397500D02*
X139097500Y-104347500D01*
X170007500Y-51127500D02*
X179317500Y-41817500D01*
X149782500Y-111967500D02*
X148067500Y-111967500D01*
X120357500Y-104447500D02*
X120357500Y-102247500D01*
X134550000Y-72650000D02*
X137650000Y-72650000D01*
X190130000Y-123480000D02*
X193800000Y-127150000D01*
X190370000Y-84680000D02*
X188500000Y-86550000D01*
X146807500Y-111967500D02*
X148067500Y-111967500D01*
X140735000Y-72600000D02*
X140775000Y-72640000D01*
X211050000Y-136090000D02*
X211140000Y-136000000D01*
X185100000Y-120275000D02*
X185100000Y-123480000D01*
X209128248Y-77953248D02*
X212375000Y-81200000D01*
X120357500Y-102247500D02*
X120350000Y-102240000D01*
X212730000Y-127130000D02*
X212225000Y-126625000D01*
X143875000Y-72640000D02*
X146975000Y-72640000D01*
X178450000Y-119495000D02*
X184320000Y-119495000D01*
X168050000Y-66700000D02*
X164650000Y-70100000D01*
X188500000Y-94240000D02*
X190380000Y-96120000D01*
X179753750Y-115786250D02*
X179753750Y-118191250D01*
X139097500Y-104347500D02*
X137857500Y-104347500D01*
X212375000Y-81200000D02*
X212375000Y-126475000D01*
X188500000Y-86550000D02*
X188500000Y-94240000D01*
X148517500Y-88022500D02*
X148517500Y-80927500D01*
X170007500Y-54887500D02*
X170007500Y-51127500D01*
X137857500Y-104347500D02*
X136427500Y-102917500D01*
X179753750Y-118191250D02*
X178450000Y-119495000D01*
X211140000Y-136000000D02*
X212080000Y-136000000D01*
D27*
X183107500Y-40567500D02*
X181857500Y-41817500D01*
%TO.N,Net-(D2-K)*%
X109498528Y-79850000D02*
X92580000Y-79850000D01*
X130350000Y-75225000D02*
X131450000Y-74125000D01*
X92580000Y-79850000D02*
X88130000Y-84300000D01*
X118325000Y-76975000D02*
X112373528Y-76975000D01*
X131450000Y-74125000D02*
X131450000Y-72650000D01*
X88130000Y-85467500D02*
X88160000Y-85497500D01*
X118325000Y-75225000D02*
X130350000Y-75225000D01*
X88130000Y-84300000D02*
X88130000Y-85467500D01*
X112373528Y-76975000D02*
X109498528Y-79850000D01*
%TO.N,Net-(U3-ABORTB)*%
X143850000Y-82825000D02*
X143875000Y-82800000D01*
X143850000Y-96550000D02*
X143850000Y-82825000D01*
X146567500Y-99267500D02*
X143850000Y-96550000D01*
X148067500Y-99267500D02*
X146567500Y-99267500D01*
%TO.N,/RED1*%
X124782500Y-64997500D02*
X124782500Y-63532500D01*
X118881028Y-63000000D02*
X118248528Y-62367500D01*
X113172056Y-60250000D02*
X108419112Y-60250000D01*
X124782500Y-63532500D02*
X124250000Y-63000000D01*
X102350000Y-51450000D02*
X99017500Y-48117500D01*
X124250000Y-63000000D02*
X118881028Y-63000000D01*
X76857500Y-48820444D02*
X76857500Y-50397500D01*
X77560444Y-48117500D02*
X76857500Y-48820444D01*
X102350000Y-54180888D02*
X102350000Y-51450000D01*
X115289556Y-62367500D02*
X113172056Y-60250000D01*
X76857500Y-50397500D02*
X78457500Y-51997500D01*
X118248528Y-62367500D02*
X115289556Y-62367500D01*
X99017500Y-48117500D02*
X77560444Y-48117500D01*
X108419112Y-60250000D02*
X102350000Y-54180888D01*
%TO.N,/REDV*%
X136395000Y-41347500D02*
X139467500Y-44420000D01*
X139467500Y-47727500D02*
X140757500Y-49017500D01*
X124782500Y-54837500D02*
X127957500Y-54837500D01*
X134307500Y-53032500D02*
X134822500Y-52517500D01*
X139357500Y-52517500D02*
X140757500Y-51117500D01*
X127957500Y-54837500D02*
X131132500Y-54837500D01*
X134307500Y-54837500D02*
X134307500Y-53032500D01*
X131132500Y-54837500D02*
X134307500Y-54837500D01*
X139467500Y-44420000D02*
X139467500Y-47727500D01*
X121607500Y-54837500D02*
X124782500Y-54837500D01*
X140757500Y-49017500D02*
X140757500Y-49682500D01*
X134822500Y-52517500D02*
X139357500Y-52517500D01*
X140757500Y-51117500D02*
X140757500Y-49682500D01*
%TO.N,/RED4*%
X102058630Y-60450000D02*
X108876130Y-67267500D01*
X97134556Y-60817500D02*
X97502056Y-60450000D01*
X80915000Y-59700000D02*
X94222944Y-59700000D01*
X78457500Y-62157500D02*
X80915000Y-59700000D01*
X94222944Y-59700000D02*
X95340444Y-60817500D01*
X112884860Y-67267500D02*
X114034860Y-68417500D01*
X114034860Y-68417500D02*
X130887500Y-68417500D01*
X95340444Y-60817500D02*
X97134556Y-60817500D01*
X97502056Y-60450000D02*
X102058630Y-60450000D01*
X108876130Y-67267500D02*
X112884860Y-67267500D01*
X130887500Y-68417500D02*
X134307500Y-64997500D01*
%TO.N,/PB0*%
X80097500Y-116897500D02*
X81757500Y-116897500D01*
X80097500Y-102787500D02*
X80097500Y-105082500D01*
X80097500Y-105082500D02*
X80097500Y-116897500D01*
X72097500Y-96962500D02*
X72197500Y-97062500D01*
X72197500Y-97062500D02*
X72472500Y-97062500D01*
X72472500Y-97062500D02*
X74372500Y-97062500D01*
X74372500Y-97062500D02*
X80097500Y-102787500D01*
%TO.N,/PB1*%
X79497500Y-104787500D02*
X79497500Y-118687500D01*
X79497500Y-118687500D02*
X80247500Y-119437500D01*
X80247500Y-119437500D02*
X81757500Y-119437500D01*
X72472500Y-99602500D02*
X74312500Y-99602500D01*
X74312500Y-99602500D02*
X79497500Y-104787500D01*
%TO.N,/PB2*%
X78897500Y-120687500D02*
X80187500Y-121977500D01*
X80187500Y-121977500D02*
X81757500Y-121977500D01*
X72472500Y-102142500D02*
X72572500Y-102042500D01*
X72572500Y-102042500D02*
X74352500Y-102042500D01*
X78897500Y-106587500D02*
X78897500Y-120687500D01*
X74352500Y-102042500D02*
X78897500Y-106587500D01*
%TO.N,/PB3*%
X72472500Y-104682500D02*
X74392500Y-104682500D01*
X78297500Y-122687500D02*
X80127500Y-124517500D01*
X80127500Y-124517500D02*
X81757500Y-124517500D01*
X78297500Y-108587500D02*
X78297500Y-122687500D01*
X74392500Y-104682500D02*
X78297500Y-108587500D01*
%TO.N,/PB4*%
X74332500Y-107222500D02*
X77697500Y-110587500D01*
X80167500Y-127057500D02*
X81757500Y-127057500D01*
X77697500Y-110587500D02*
X77697500Y-124587500D01*
X77697500Y-124587500D02*
X80167500Y-127057500D01*
X72472500Y-107222500D02*
X74332500Y-107222500D01*
%TO.N,/PB5*%
X74472500Y-109762500D02*
X77097500Y-112387500D01*
X77097500Y-112387500D02*
X77097500Y-126487500D01*
X72472500Y-109762500D02*
X74472500Y-109762500D01*
X80207500Y-129597500D02*
X81757500Y-129597500D01*
X77097500Y-126487500D02*
X80207500Y-129597500D01*
%TO.N,/PB6*%
X76497500Y-114287500D02*
X76497500Y-128437500D01*
X80197500Y-132137500D02*
X81757500Y-132137500D01*
X74512500Y-112302500D02*
X76497500Y-114287500D01*
X72472500Y-112302500D02*
X74512500Y-112302500D01*
X76497500Y-128437500D02*
X80197500Y-132137500D01*
%TO.N,/PB7*%
X80187500Y-134677500D02*
X81757500Y-134677500D01*
X75897500Y-130387500D02*
X80187500Y-134677500D01*
X74452500Y-114842500D02*
X75897500Y-116287500D01*
X75897500Y-116287500D02*
X75897500Y-130387500D01*
X72472500Y-114842500D02*
X74452500Y-114842500D01*
%TO.N,/CB0*%
X74492500Y-117382500D02*
X75297500Y-118187500D01*
X75297500Y-118187500D02*
X75297500Y-132287500D01*
X75297500Y-132287500D02*
X80227500Y-137217500D01*
X80227500Y-137217500D02*
X81757500Y-137217500D01*
X72472500Y-117382500D02*
X74492500Y-117382500D01*
%TO.N,/CB1*%
X74697500Y-134237500D02*
X80217500Y-139757500D01*
X74697500Y-120587500D02*
X74697500Y-134237500D01*
X72472500Y-119922500D02*
X74032500Y-119922500D01*
X80217500Y-139757500D02*
X81757500Y-139757500D01*
X74032500Y-119922500D02*
X74697500Y-120587500D01*
%TO.N,+3V3B*%
D28*
X88570000Y-90462500D02*
X94457500Y-84575000D01*
X103550000Y-54200000D02*
X103550000Y-40100000D01*
X103550000Y-40100000D02*
X102747500Y-39297500D01*
X105300000Y-55950000D02*
X103550000Y-54200000D01*
X84312500Y-90462500D02*
X88570000Y-90462500D01*
X110340000Y-55950000D02*
X105300000Y-55950000D01*
X111300000Y-54790000D02*
X111400000Y-54890000D01*
X102747500Y-39297500D02*
X96237500Y-39297500D01*
X111400000Y-54890000D02*
X110340000Y-55950000D01*
X83912500Y-90562500D02*
X84012500Y-90662500D01*
X69712500Y-94522500D02*
X69932500Y-94522500D01*
%TO.N,/VIRQB*%
D27*
X97017500Y-142317500D02*
X96997500Y-142297500D01*
%TO.N,/RREQ*%
X96997500Y-137217500D02*
X95557500Y-137217500D01*
X126825000Y-81443630D02*
X129143629Y-79125000D01*
X157375000Y-90025000D02*
X157375000Y-93032056D01*
X152063870Y-79125000D02*
X154700000Y-81761130D01*
X170013750Y-90011250D02*
X172103750Y-90011250D01*
X157375000Y-93032056D02*
X162324416Y-97981472D01*
X154700000Y-81761130D02*
X154700000Y-87350000D01*
X93575444Y-95362500D02*
X103737944Y-85200000D01*
X162324416Y-97981472D02*
X164150584Y-97981472D01*
X166500000Y-93525000D02*
X170013750Y-90011250D01*
X172525000Y-89590000D02*
X172525000Y-79712056D01*
X93575444Y-135235444D02*
X93575444Y-95362500D01*
X186800000Y-53250000D02*
X182950000Y-53250000D01*
X177150000Y-59050000D02*
X177150000Y-74747056D01*
X177150000Y-74747056D02*
X172550000Y-79347056D01*
X95557500Y-137217500D02*
X93575444Y-135235444D01*
X125644556Y-85200000D02*
X126825000Y-84019556D01*
X103737944Y-85200000D02*
X125644556Y-85200000D01*
X126825000Y-84019556D02*
X126825000Y-81443630D01*
X164150584Y-97981472D02*
X166500000Y-95632056D01*
X172103750Y-90011250D02*
X172525000Y-89590000D01*
X182950000Y-53250000D02*
X177150000Y-59050000D01*
X172525000Y-79712056D02*
X172578750Y-79658306D01*
X129143629Y-79125000D02*
X152063870Y-79125000D01*
X166500000Y-95632056D02*
X166500000Y-93525000D01*
X154700000Y-87350000D02*
X157375000Y-90025000D01*
%TO.N,/IORQ*%
X123072944Y-133600000D02*
X122307500Y-132834556D01*
X122300000Y-131950000D02*
X122300000Y-126710000D01*
X122307500Y-131957500D02*
X122300000Y-131950000D01*
X137903186Y-148053186D02*
X125700000Y-135850000D01*
X190953426Y-145328426D02*
X192250000Y-146625000D01*
X122300000Y-126710000D02*
X120357500Y-124767500D01*
X125700000Y-134450000D02*
X124850000Y-133600000D01*
X190953426Y-145325001D02*
X190953426Y-145328426D01*
X124850000Y-133600000D02*
X123072944Y-133600000D01*
X122307500Y-132834556D02*
X122307500Y-131957500D01*
X125700000Y-135850000D02*
X125700000Y-134450000D01*
X137921814Y-148053186D02*
X137903186Y-148053186D01*
%TO.N,/PHI2*%
X203838528Y-73600000D02*
X201575000Y-73600000D01*
X201575000Y-73600000D02*
X200800000Y-72825000D01*
X204575000Y-74336472D02*
X203838528Y-73600000D01*
X204185000Y-91885000D02*
X204185000Y-90215000D01*
X200800000Y-72825000D02*
X200800000Y-62525000D01*
X210575000Y-82381370D02*
X204575000Y-76381370D01*
X200800000Y-62525000D02*
X201167500Y-62157500D01*
X209875000Y-85925000D02*
X210575000Y-85225000D01*
X204185000Y-90215000D02*
X208475000Y-85925000D01*
X204575000Y-76381370D02*
X204575000Y-74336472D01*
X201167500Y-62157500D02*
X202887500Y-62157500D01*
X208475000Y-85925000D02*
X209875000Y-85925000D01*
X210575000Y-85225000D02*
X210575000Y-82381370D01*
%TO.N,/RESB*%
X175950000Y-58325000D02*
X175950000Y-74250000D01*
X164650000Y-92845000D02*
X163307500Y-94187500D01*
X193570000Y-50780000D02*
X183495000Y-50780000D01*
X164650000Y-85550000D02*
X164650000Y-92845000D01*
X175950000Y-74250000D02*
X164650000Y-85550000D01*
X183495000Y-50780000D02*
X175950000Y-58325000D01*
X194787500Y-51997500D02*
X193570000Y-50780000D01*
X202887500Y-51997500D02*
X194787500Y-51997500D01*
%TO.N,/A3*%
X103157500Y-124767500D02*
X105117500Y-124767500D01*
X155743630Y-145100001D02*
X155743630Y-145131370D01*
X94707500Y-96617500D02*
X96007500Y-95317500D01*
X128375000Y-134829416D02*
X128375000Y-127525000D01*
X95527500Y-106737500D02*
X94707500Y-105917500D01*
X128375000Y-127525000D02*
X125567500Y-124717500D01*
X96997500Y-106737500D02*
X95527500Y-106737500D01*
X153475000Y-147400000D02*
X140945584Y-147400000D01*
X102657500Y-124267500D02*
X103157500Y-124767500D01*
X125567500Y-124717500D02*
X123907500Y-124717500D01*
X94707500Y-105917500D02*
X94707500Y-96617500D01*
X140945584Y-147400000D02*
X128375000Y-134829416D01*
X155743630Y-145131370D02*
X153475000Y-147400000D01*
X102657500Y-99967500D02*
X102657500Y-124267500D01*
X98007500Y-95317500D02*
X102657500Y-99967500D01*
X96007500Y-95317500D02*
X98007500Y-95317500D01*
%TO.N,/A2*%
X102057500Y-126367500D02*
X102997500Y-127307500D01*
X95307500Y-98617500D02*
X96107500Y-97817500D01*
X95307500Y-103817500D02*
X95307500Y-98617500D01*
X154418630Y-148025000D02*
X140722056Y-148025000D01*
X102997500Y-127307500D02*
X105117500Y-127307500D01*
X125607500Y-127257500D02*
X123907500Y-127257500D01*
X102057500Y-100718972D02*
X102057500Y-126367500D01*
X140722056Y-148025000D02*
X127725000Y-135027944D01*
X96107500Y-97817500D02*
X99156028Y-97817500D01*
X127725000Y-135027944D02*
X127725000Y-129375000D01*
X95687500Y-104197500D02*
X95307500Y-103817500D01*
X127725000Y-129375000D02*
X125607500Y-127257500D01*
X99156028Y-97817500D02*
X102057500Y-100718972D01*
X96997500Y-104197500D02*
X95687500Y-104197500D01*
X156543630Y-145900000D02*
X154418630Y-148025000D01*
%TO.N,/A1*%
X157343630Y-146700001D02*
X157343630Y-146781370D01*
X127125000Y-131475000D02*
X125447500Y-129797500D01*
X157343630Y-146781370D02*
X155475000Y-148650000D01*
X96997500Y-101657500D02*
X99647500Y-101657500D01*
X106487500Y-129847500D02*
X105117500Y-129847500D01*
X140498528Y-148650000D02*
X127125000Y-135276472D01*
X127125000Y-135276472D02*
X127125000Y-131475000D01*
X106807500Y-132967500D02*
X106807500Y-130167500D01*
X100857500Y-102867500D02*
X100857500Y-131016028D01*
X103508972Y-133667500D02*
X106107500Y-133667500D01*
X106807500Y-130167500D02*
X106487500Y-129847500D01*
X99647500Y-101657500D02*
X100857500Y-102867500D01*
X100857500Y-131016028D02*
X103508972Y-133667500D01*
X106107500Y-133667500D02*
X106807500Y-132967500D01*
X125447500Y-129797500D02*
X123907500Y-129797500D01*
X155475000Y-148650000D02*
X140498528Y-148650000D01*
%TO.N,/A0*%
X155748528Y-149225000D02*
X155723528Y-149250000D01*
X126475000Y-133225000D02*
X125587500Y-132337500D01*
X140250000Y-149250000D02*
X126475000Y-135475000D01*
X103077500Y-132387500D02*
X105117500Y-132387500D01*
X156475000Y-149225000D02*
X155748528Y-149225000D01*
X101457500Y-130767500D02*
X103077500Y-132387500D01*
X126475000Y-135475000D02*
X126475000Y-133225000D01*
X158177099Y-147533470D02*
X158166530Y-147533470D01*
X125587500Y-132337500D02*
X123907500Y-132337500D01*
X158166530Y-147533470D02*
X156475000Y-149225000D01*
X155723528Y-149250000D02*
X140250000Y-149250000D01*
X99607500Y-99117500D02*
X101457500Y-100967500D01*
X96997500Y-99117500D02*
X99607500Y-99117500D01*
X101457500Y-100967500D02*
X101457500Y-130767500D01*
X158193630Y-147550001D02*
X158177099Y-147533470D01*
%TO.N,/AUDR*%
X153125000Y-72597500D02*
X153125000Y-76100000D01*
X74351472Y-76400000D02*
X71190000Y-76400000D01*
X171050000Y-75625000D02*
X171050000Y-74317500D01*
X95001472Y-79250000D02*
X93148972Y-77397500D01*
X174150000Y-73504416D02*
X174150000Y-61350000D01*
X79748528Y-79300000D02*
X77251472Y-79300000D01*
X93148972Y-77397500D02*
X81651028Y-77397500D01*
X170575000Y-76100000D02*
X171050000Y-75625000D01*
X77251472Y-79300000D02*
X74351472Y-76400000D01*
X171050000Y-74317500D02*
X173336916Y-74317500D01*
X153125000Y-76100000D02*
X112400000Y-76100000D01*
X71190000Y-76400000D02*
X69917500Y-75127500D01*
X168657500Y-55857500D02*
X168657500Y-45367500D01*
X153125000Y-76100000D02*
X170575000Y-76100000D01*
X168657500Y-45367500D02*
X175422500Y-38602500D01*
X81651028Y-77397500D02*
X79748528Y-79300000D01*
X109250000Y-79250000D02*
X95001472Y-79250000D01*
X112400000Y-76100000D02*
X109250000Y-79250000D01*
X174150000Y-61350000D02*
X168657500Y-55857500D01*
X175422500Y-38602500D02*
X175422500Y-36897500D01*
X173336916Y-74317500D02*
X174150000Y-73504416D01*
%TO.N,Net-(D1-A)*%
X133350000Y-95200000D02*
X134550000Y-94000000D01*
X134550000Y-94000000D02*
X134550000Y-82810000D01*
%TO.N,/PIX0*%
X182888972Y-29137500D02*
X185107500Y-29137500D01*
X78457500Y-29137500D02*
X86877500Y-29137500D01*
X154654556Y-33517500D02*
X178508972Y-33517500D01*
X88157500Y-30417500D02*
X97757500Y-30417500D01*
X178508972Y-33517500D02*
X182888972Y-29137500D01*
X102557500Y-35217500D02*
X124840444Y-35217500D01*
X124840444Y-35217500D02*
X128875444Y-31182500D01*
X97757500Y-30417500D02*
X102557500Y-35217500D01*
X152319556Y-31182500D02*
X154654556Y-33517500D01*
X128875444Y-31182500D02*
X152319556Y-31182500D01*
X86877500Y-29137500D02*
X88157500Y-30417500D01*
%TO.N,/PIX1*%
X86617500Y-31677500D02*
X87957500Y-33017500D01*
X178757500Y-34117500D02*
X181197500Y-31677500D01*
X154406028Y-34117500D02*
X178757500Y-34117500D01*
X125088972Y-35817500D02*
X129123972Y-31782500D01*
X87957500Y-33017500D02*
X98557500Y-33017500D01*
X101357500Y-35817500D02*
X125088972Y-35817500D01*
X129123972Y-31782500D02*
X152071028Y-31782500D01*
X152071028Y-31782500D02*
X154406028Y-34117500D01*
X98557500Y-33017500D02*
X101357500Y-35817500D01*
X181197500Y-31677500D02*
X185107500Y-31677500D01*
X78457500Y-31677500D02*
X86617500Y-31677500D01*
%TO.N,/PIX2*%
X178806028Y-34717500D02*
X180846028Y-36757500D01*
X151822500Y-32382500D02*
X154157500Y-34717500D01*
X129372500Y-32382500D02*
X151822500Y-32382500D01*
X78457500Y-36757500D02*
X80417500Y-36757500D01*
X99317500Y-35557500D02*
X100177500Y-36417500D01*
X125337500Y-36417500D02*
X129372500Y-32382500D01*
X154157500Y-34717500D02*
X178806028Y-34717500D01*
X100177500Y-36417500D02*
X125337500Y-36417500D01*
X80417500Y-36757500D02*
X81617500Y-35557500D01*
X81617500Y-35557500D02*
X99317500Y-35557500D01*
X180846028Y-36757500D02*
X185107500Y-36757500D01*
%TO.N,/PIX3*%
X151522500Y-32982500D02*
X129692500Y-32982500D01*
X185107500Y-39297500D02*
X184837500Y-39297500D01*
X153857500Y-35317500D02*
X151522500Y-32982500D01*
X129692500Y-32982500D02*
X125857500Y-36817500D01*
X184837500Y-39297500D02*
X184757500Y-39217500D01*
X184857500Y-39117500D02*
X185057500Y-39117500D01*
X125586028Y-37017500D02*
X100157500Y-37017500D01*
X125857500Y-36817500D02*
X125786028Y-36817500D01*
X99157500Y-38017500D02*
X88157500Y-38017500D01*
X100157500Y-37017500D02*
X99157500Y-38017500D01*
X184757500Y-39217500D02*
X184857500Y-39117500D01*
X178557500Y-35317500D02*
X153857500Y-35317500D01*
X182537500Y-39297500D02*
X178557500Y-35317500D01*
X125786028Y-36817500D02*
X125586028Y-37017500D01*
X185107500Y-39297500D02*
X182537500Y-39297500D01*
X86877500Y-39297500D02*
X78457500Y-39297500D01*
X88157500Y-38017500D02*
X86877500Y-39297500D01*
%TO.N,/URX*%
X88617500Y-43177500D02*
X101617500Y-43177500D01*
X101617500Y-43177500D02*
X101657500Y-43217500D01*
X78457500Y-41837500D02*
X87277500Y-41837500D01*
X87277500Y-41837500D02*
X88617500Y-43177500D01*
%TO.N,/UTX*%
X76697500Y-44377500D02*
X78457500Y-44377500D01*
X76257500Y-43937500D02*
X76697500Y-44377500D01*
X76257500Y-41917500D02*
X76257500Y-43937500D01*
X77657500Y-40517500D02*
X76257500Y-41917500D01*
X101857500Y-40517500D02*
X77657500Y-40517500D01*
%TO.N,/RED0*%
X114760444Y-66597500D02*
X120007500Y-66597500D01*
X78457500Y-49457500D02*
X79657500Y-50657500D01*
X114057500Y-65894556D02*
X114760444Y-66597500D01*
X107698528Y-62075000D02*
X112397056Y-62075000D01*
X79657500Y-50657500D02*
X99032500Y-50657500D01*
X114057500Y-63735444D02*
X114057500Y-65894556D01*
X100025000Y-51650000D02*
X100025000Y-54401472D01*
X99032500Y-50657500D02*
X100025000Y-51650000D01*
X120007500Y-66597500D02*
X121607500Y-64997500D01*
X112397056Y-62075000D02*
X114057500Y-63735444D01*
X100025000Y-54401472D02*
X107698528Y-62075000D01*
%TO.N,/RED2*%
X98025000Y-53250000D02*
X103707500Y-58932500D01*
X112148528Y-62675000D02*
X113457500Y-63983972D01*
X103707500Y-58932500D02*
X103707500Y-58958972D01*
X113457500Y-66143084D02*
X114511916Y-67197500D01*
X113457500Y-63983972D02*
X113457500Y-66143084D01*
X125757500Y-67197500D02*
X127957500Y-64997500D01*
X78457500Y-54537500D02*
X79745000Y-53250000D01*
X114511916Y-67197500D02*
X125757500Y-67197500D01*
X79745000Y-53250000D02*
X98025000Y-53250000D01*
X103707500Y-58958972D02*
X107423528Y-62675000D01*
X107423528Y-62675000D02*
X112148528Y-62675000D01*
%TO.N,/RED3*%
X114263388Y-67797500D02*
X128332500Y-67797500D01*
X112857500Y-66391612D02*
X114263388Y-67797500D01*
X107175000Y-63275000D02*
X111900000Y-63275000D01*
X128332500Y-67797500D02*
X131132500Y-64997500D01*
X79657500Y-55877500D02*
X99777500Y-55877500D01*
X78457500Y-57077500D02*
X79657500Y-55877500D01*
X99777500Y-55877500D02*
X107175000Y-63275000D01*
X111900000Y-63275000D02*
X112857500Y-64232500D01*
X112857500Y-64232500D02*
X112857500Y-66391612D01*
%TO.N,/GRN0*%
X88757500Y-65917500D02*
X87437500Y-67237500D01*
X87437500Y-67237500D02*
X78457500Y-67237500D01*
X106677602Y-65917500D02*
X88757500Y-65917500D01*
X112636332Y-67867500D02*
X108627602Y-67867500D01*
X108627602Y-67867500D02*
X106677602Y-65917500D01*
X113786332Y-69017500D02*
X112636332Y-67867500D01*
X133497500Y-69017500D02*
X113786332Y-69017500D01*
X137517500Y-64997500D02*
X133497500Y-69017500D01*
%TO.N,/GRN1*%
X140692500Y-64997500D02*
X136072500Y-69617500D01*
X88682500Y-68467500D02*
X87372500Y-69777500D01*
X113537804Y-69617500D02*
X112387804Y-68467500D01*
X112387804Y-68467500D02*
X88682500Y-68467500D01*
X136072500Y-69617500D02*
X113537804Y-69617500D01*
X87372500Y-69777500D02*
X78457500Y-69777500D01*
%TO.N,/GRN2*%
X88717500Y-73657500D02*
X87457500Y-74917500D01*
X97957500Y-72717500D02*
X97017500Y-73657500D01*
X113289276Y-70217500D02*
X112139276Y-69067500D01*
X97957500Y-70042500D02*
X97957500Y-72717500D01*
X97017500Y-73657500D02*
X88717500Y-73657500D01*
X98932500Y-69067500D02*
X97957500Y-70042500D01*
X143867500Y-64997500D02*
X138647500Y-70217500D01*
X87457500Y-74917500D02*
X78517500Y-74917500D01*
X78517500Y-74917500D02*
X78457500Y-74857500D01*
X112139276Y-69067500D02*
X98932500Y-69067500D01*
X138647500Y-70217500D02*
X113289276Y-70217500D01*
%TO.N,/GRN3*%
X78457500Y-77397500D02*
X79657500Y-76197500D01*
X99957500Y-73317500D02*
X99957500Y-73217500D01*
X79657500Y-76197500D02*
X97077500Y-76197500D01*
X97077500Y-76197500D02*
X99957500Y-73317500D01*
%TO.N,/SPARE0*%
X90850000Y-49250000D02*
X90875000Y-49225000D01*
X87575000Y-49250000D02*
X90850000Y-49250000D01*
%TO.N,/HSYNC*%
X112923528Y-60850000D02*
X115041028Y-62967500D01*
X96237500Y-51997500D02*
X99187500Y-51997500D01*
X108170584Y-60850000D02*
X112923528Y-60850000D01*
X99187500Y-51997500D02*
X99207500Y-52017500D01*
X118417500Y-63385000D02*
X118000000Y-62967500D01*
X118417500Y-64997500D02*
X118417500Y-63385000D01*
X101500000Y-54179416D02*
X108170584Y-60850000D01*
X101500000Y-51917500D02*
X101500000Y-54179416D01*
X115041028Y-62967500D02*
X117890000Y-62967500D01*
%TO.N,/VSYNC*%
X96237500Y-49457500D02*
X98732500Y-49457500D01*
X100625000Y-51350000D02*
X100625000Y-54152944D01*
X98732500Y-49457500D02*
X100625000Y-51350000D01*
X107922056Y-61450000D02*
X112675000Y-61450000D01*
X112675000Y-61450000D02*
X115257500Y-64032500D01*
X100625000Y-54152944D02*
X107922056Y-61450000D01*
X115257500Y-64032500D02*
X115257500Y-64997500D01*
%TO.N,/SPARE1*%
X87100000Y-44475000D02*
X87197500Y-44377500D01*
X87197500Y-44377500D02*
X96237500Y-44377500D01*
%TO.N,VBUS*%
D28*
X68375000Y-90550000D02*
X68375000Y-70050000D01*
D27*
X108857500Y-39047500D02*
X114357500Y-39047500D01*
D28*
X69917500Y-70047500D02*
X72457500Y-70047500D01*
X68375000Y-60625000D02*
X68400000Y-60600000D01*
X68425000Y-60575000D02*
X68400000Y-60600000D01*
X69917500Y-70047500D02*
X68377500Y-70047500D01*
X70975000Y-90625000D02*
X68450000Y-90625000D01*
X68450000Y-90625000D02*
X68375000Y-90550000D01*
X72472500Y-93617500D02*
X72472500Y-92122500D01*
X72472500Y-92122500D02*
X70975000Y-90625000D01*
X68425000Y-42020000D02*
X68425000Y-60575000D01*
X72472500Y-92962500D02*
X72472500Y-94522500D01*
X68377500Y-70047500D02*
X68375000Y-70050000D01*
X68375000Y-70050000D02*
X68375000Y-60625000D01*
X70017500Y-40427500D02*
X68425000Y-42020000D01*
%TO.N,/A12*%
D27*
X123907500Y-112017500D02*
X125617500Y-112017500D01*
X168000000Y-145650000D02*
X187800000Y-145650000D01*
X189650000Y-143800000D02*
X189650000Y-142348528D01*
X192900000Y-136050000D02*
X195850000Y-136050000D01*
X125617500Y-112017500D02*
X131897500Y-118297500D01*
X146400000Y-127800000D02*
X147100000Y-128500000D01*
X191500000Y-139051472D02*
X192150000Y-138401472D01*
X192150000Y-138401472D02*
X192150000Y-136800000D01*
X200350000Y-138550000D02*
X201750000Y-137150000D01*
X201750000Y-128000000D02*
X200880000Y-127130000D01*
X163307500Y-139907500D02*
X163315000Y-139900000D01*
X150150000Y-128500000D02*
X161557500Y-139907500D01*
X187800000Y-145650000D02*
X189650000Y-143800000D01*
X147100000Y-128500000D02*
X150150000Y-128500000D01*
X195850000Y-136050000D02*
X198350000Y-138550000D01*
X165150000Y-140250000D02*
X165150000Y-142800000D01*
X161557500Y-139907500D02*
X163307500Y-139907500D01*
X198350000Y-138550000D02*
X200350000Y-138550000D01*
X200880000Y-127130000D02*
X199410000Y-127130000D01*
X131897500Y-118297500D02*
X140597500Y-118297500D01*
X146400000Y-126448528D02*
X146400000Y-127800000D01*
X164800000Y-139900000D02*
X165150000Y-140250000D01*
X163315000Y-139900000D02*
X164800000Y-139900000D01*
X189650000Y-142348528D02*
X191500000Y-140498528D01*
X144600000Y-124648528D02*
X146400000Y-126448528D01*
X192150000Y-136800000D02*
X192900000Y-136050000D01*
X165150000Y-142800000D02*
X168000000Y-145650000D01*
X201750000Y-137150000D02*
X201750000Y-128000000D01*
X144600000Y-122300000D02*
X144600000Y-124648528D01*
X140597500Y-118297500D02*
X144600000Y-122300000D01*
X191500000Y-140498528D02*
X191500000Y-139051472D01*
%TO.N,/A13*%
X201150000Y-135300000D02*
X201150000Y-129950000D01*
X194900000Y-131116472D02*
X195550000Y-131766472D01*
X145200000Y-116821472D02*
X145200000Y-118097056D01*
X163307500Y-137367500D02*
X163992500Y-137367500D01*
X187348528Y-144350000D02*
X187350000Y-144350000D01*
X198351472Y-136000000D02*
X200450000Y-136000000D01*
X163992500Y-137367500D02*
X166250000Y-139625000D01*
X145800000Y-118697056D02*
X145800000Y-121957056D01*
X142936028Y-114557500D02*
X145200000Y-116821472D01*
X147242944Y-123400000D02*
X149048528Y-123400000D01*
X187248528Y-144450000D02*
X187348528Y-144350000D01*
X188450000Y-141847056D02*
X190300000Y-139997056D01*
X194750000Y-130950000D02*
X194900000Y-131100000D01*
X139147500Y-114557500D02*
X142936028Y-114557500D01*
X145200000Y-118097056D02*
X145800000Y-118697056D01*
X166250000Y-139651472D02*
X166350000Y-139751472D01*
X187350000Y-144350000D02*
X188450000Y-143250000D01*
X166350000Y-139751472D02*
X166350000Y-142302944D01*
X190950000Y-132850000D02*
X192850000Y-130950000D01*
X149700000Y-124051472D02*
X149700000Y-125500000D01*
X195550000Y-131766472D02*
X195550000Y-133198528D01*
X200450000Y-136000000D02*
X201150000Y-135300000D01*
X188450000Y-143250000D02*
X188450000Y-141847056D01*
X149700000Y-125500000D02*
X161567500Y-137367500D01*
X168497056Y-144450000D02*
X187248528Y-144450000D01*
X190950000Y-137904416D02*
X190950000Y-132850000D01*
X190300000Y-138554416D02*
X190950000Y-137904416D01*
X149048528Y-123400000D02*
X149700000Y-124051472D01*
X145800000Y-121957056D02*
X147242944Y-123400000D01*
X166350000Y-142302944D02*
X168497056Y-144450000D01*
X200870000Y-129670000D02*
X199410000Y-129670000D01*
X195550000Y-133198528D02*
X198351472Y-136000000D01*
X192850000Y-130950000D02*
X194750000Y-130950000D01*
X190300000Y-139997056D02*
X190300000Y-138554416D01*
X194900000Y-131100000D02*
X194900000Y-131116472D01*
X201150000Y-129950000D02*
X200870000Y-129670000D01*
X166250000Y-139625000D02*
X166250000Y-139651472D01*
X161567500Y-137367500D02*
X163307500Y-137367500D01*
%TO.N,/A14*%
X187425000Y-138575000D02*
X175575000Y-138575000D01*
X194557056Y-128350000D02*
X192950000Y-128350000D01*
X190325000Y-135675000D02*
X187425000Y-138575000D01*
X154764950Y-128435050D02*
X161157400Y-134827500D01*
X173075000Y-136075000D02*
X166175000Y-136075000D01*
X146750000Y-125950000D02*
X145200000Y-124400000D01*
X192950000Y-128350000D02*
X190325000Y-130975000D01*
X145200000Y-119858528D02*
X141141472Y-115800000D01*
X164927500Y-134827500D02*
X163307500Y-134827500D01*
X196150000Y-131517944D02*
X195500000Y-130867944D01*
X149000000Y-125950000D02*
X146750000Y-125950000D01*
X197950000Y-134750000D02*
X196150000Y-132950000D01*
X166175000Y-136075000D02*
X164927500Y-134827500D01*
X145200000Y-124400000D02*
X145200000Y-119858528D01*
X175575000Y-138575000D02*
X173075000Y-136075000D01*
X151428528Y-128378528D02*
X149000000Y-125950000D01*
X141141472Y-115800000D02*
X131900000Y-115800000D01*
X195500000Y-129292944D02*
X194557056Y-128350000D01*
X190325000Y-130975000D02*
X190325000Y-135675000D01*
X125577500Y-109477500D02*
X123907500Y-109477500D01*
X131900000Y-115800000D02*
X125577500Y-109477500D01*
X161157400Y-134827500D02*
X163307500Y-134827500D01*
X199410000Y-134750000D02*
X197950000Y-134750000D01*
X195500000Y-130867944D02*
X195500000Y-129292944D01*
X196150000Y-132950000D02*
X196150000Y-131517944D01*
%TO.N,/A15*%
X189050000Y-142100000D02*
X190900000Y-140250000D01*
X159165685Y-130434315D02*
X155120000Y-126388630D01*
X155120000Y-116020000D02*
X152370000Y-113270000D01*
X164400000Y-138650000D02*
X165750000Y-140000000D01*
X196150000Y-135500000D02*
X197940000Y-137290000D01*
X192880000Y-133450000D02*
X194700000Y-133450000D01*
X191550000Y-138152944D02*
X191550000Y-134780000D01*
X187499264Y-145050000D02*
X189050000Y-143499264D01*
X156190686Y-133409314D02*
X156259314Y-133409314D01*
X155120000Y-126388630D02*
X155120000Y-116020000D01*
X168248528Y-145050000D02*
X187499264Y-145050000D01*
X190900000Y-140250000D02*
X190900000Y-138802944D01*
X199410000Y-137290000D02*
X199410000Y-136760000D01*
X191550000Y-134780000D02*
X192880000Y-133450000D01*
X197940000Y-137290000D02*
X199410000Y-137290000D01*
X190900000Y-138802944D02*
X191550000Y-138152944D01*
X194700000Y-133450000D02*
X196150000Y-134900000D01*
X165750000Y-140000000D02*
X165750000Y-142551472D01*
X159165685Y-130434315D02*
X161018870Y-132287500D01*
X161500000Y-138650000D02*
X164400000Y-138650000D01*
X161018870Y-132287500D02*
X163307500Y-132287500D01*
X152370000Y-113270000D02*
X146560000Y-113270000D01*
X189050000Y-143499264D02*
X189050000Y-142100000D01*
X165750000Y-142551472D02*
X168248528Y-145050000D01*
X146560000Y-113270000D02*
X140227500Y-106937500D01*
X196150000Y-134900000D02*
X196150000Y-135500000D01*
X156259314Y-133409314D02*
X161500000Y-138650000D01*
X140227500Y-106937500D02*
X139147500Y-106937500D01*
%TO.N,Net-(U11-Pad5)*%
X202950000Y-138980888D02*
X202950000Y-141176028D01*
X204325000Y-131902944D02*
X203575000Y-132652944D01*
X198350000Y-143650000D02*
X197700000Y-143000000D01*
X200476028Y-143650000D02*
X198350000Y-143650000D01*
X197700000Y-143000000D02*
X197700000Y-141540000D01*
X203575000Y-132652944D02*
X203575000Y-138355888D01*
X204150000Y-114850000D02*
X204150000Y-118050000D01*
X204150000Y-118050000D02*
X204260000Y-118160000D01*
X197700000Y-141540000D02*
X199410000Y-139830000D01*
X206800000Y-110540000D02*
X206800000Y-112200000D01*
X204260000Y-118160000D02*
X204325000Y-118225000D01*
X204325000Y-118225000D02*
X204325000Y-131902944D01*
X203575000Y-138355888D02*
X202950000Y-138980888D01*
X202950000Y-141176028D02*
X200476028Y-143650000D01*
X206800000Y-112200000D02*
X204150000Y-114850000D01*
%TO.N,Net-(U11-Pad10)*%
X201720000Y-114730000D02*
X204260000Y-112190000D01*
X204260000Y-109165000D02*
X204260000Y-110540000D01*
X204260000Y-112190000D02*
X204260000Y-110540000D01*
X208650000Y-129052944D02*
X207997056Y-128400000D01*
X208025000Y-114250000D02*
X210875000Y-111400000D01*
X210150000Y-108925000D02*
X204500000Y-108925000D01*
X207030000Y-142370000D02*
X208650000Y-140750000D01*
X210875000Y-111400000D02*
X210875000Y-109650000D01*
X207997056Y-128400000D02*
X206100000Y-128400000D01*
X204500000Y-108925000D02*
X204260000Y-109165000D01*
X201750000Y-118190000D02*
X201720000Y-118160000D01*
X205350000Y-127650000D02*
X205350000Y-121707056D01*
X208650000Y-140750000D02*
X208650000Y-129052944D01*
X206100000Y-128400000D02*
X205350000Y-127650000D01*
X208025000Y-119032056D02*
X208025000Y-114250000D01*
X201720000Y-118160000D02*
X201720000Y-114730000D01*
X210875000Y-109650000D02*
X210150000Y-108925000D01*
X205350000Y-121707056D02*
X208025000Y-119032056D01*
%TO.N,/A11*%
X140727500Y-122177500D02*
X139147500Y-122177500D01*
X155600000Y-141850000D02*
X163100000Y-149350000D01*
X145800000Y-137348528D02*
X145800000Y-135697056D01*
X146350000Y-137898528D02*
X145800000Y-137348528D01*
X148067500Y-142447500D02*
X146847500Y-142447500D01*
X205350000Y-139975000D02*
X205495000Y-139830000D01*
X155600000Y-141122542D02*
X155600000Y-141850000D01*
X141000000Y-124398528D02*
X141000000Y-122450000D01*
X146350000Y-141950000D02*
X146350000Y-137898528D01*
X205495000Y-139830000D02*
X207030000Y-139830000D01*
X198925000Y-149350000D02*
X205350000Y-142925000D01*
X144550000Y-134447056D02*
X144550000Y-127948528D01*
X146847500Y-142447500D02*
X146350000Y-141950000D01*
X163100000Y-149350000D02*
X198925000Y-149350000D01*
X141000000Y-122450000D02*
X140727500Y-122177500D01*
X205350000Y-142925000D02*
X205350000Y-139975000D01*
X145800000Y-135697056D02*
X144550000Y-134447056D01*
X144550000Y-127948528D02*
X141000000Y-124398528D01*
%TO.N,/A10*%
X198776472Y-148650000D02*
X204750000Y-142676472D01*
X148067500Y-139907500D02*
X149825000Y-141665000D01*
X143950000Y-130600000D02*
X140607500Y-127257500D01*
X205584264Y-137290000D02*
X207030000Y-137290000D01*
X145200000Y-135945584D02*
X143950000Y-134695584D01*
X140607500Y-127257500D02*
X139147500Y-127257500D01*
X156598758Y-141848758D02*
X163400000Y-148650000D01*
X145200000Y-137597056D02*
X145200000Y-135945584D01*
X145750000Y-138147056D02*
X145200000Y-137597056D01*
X205375000Y-139101472D02*
X205375000Y-137499264D01*
X145750000Y-142300000D02*
X145750000Y-138147056D01*
X143950000Y-134695584D02*
X143950000Y-130600000D01*
X149825000Y-143000000D02*
X149075000Y-143750000D01*
X205375000Y-137499264D02*
X205584264Y-137290000D01*
X163400000Y-148650000D02*
X198776472Y-148650000D01*
X204750000Y-139726472D02*
X205375000Y-139101472D01*
X156598758Y-141172403D02*
X156598758Y-141848758D01*
X149075000Y-143750000D02*
X147200000Y-143750000D01*
X204750000Y-142676472D02*
X204750000Y-139726472D01*
X147200000Y-143750000D02*
X145750000Y-142300000D01*
X149825000Y-141665000D02*
X149825000Y-143000000D01*
%TO.N,/A9*%
X163850000Y-148050000D02*
X198527944Y-148050000D01*
X146400000Y-137100000D02*
X146400000Y-135427500D01*
X205715000Y-132210000D02*
X207030000Y-132210000D01*
X145150000Y-127700000D02*
X141600000Y-124150000D01*
X146667500Y-137367500D02*
X146400000Y-137100000D01*
X157600000Y-141146042D02*
X157600000Y-141800000D01*
X204775000Y-138852944D02*
X204775000Y-133150000D01*
X141600000Y-124150000D02*
X141600000Y-122090000D01*
X204150000Y-142427944D02*
X204150000Y-139477944D01*
X141600000Y-122090000D02*
X139147500Y-119637500D01*
X146378972Y-135427500D02*
X145150000Y-134198528D01*
X157600000Y-141800000D02*
X163850000Y-148050000D01*
X148067500Y-137367500D02*
X146667500Y-137367500D01*
X145150000Y-134198528D02*
X145150000Y-127700000D01*
X157598368Y-141144410D02*
X157600000Y-141146042D01*
X204775000Y-133150000D02*
X205715000Y-132210000D01*
X204150000Y-139477944D02*
X204775000Y-138852944D01*
X198527944Y-148050000D02*
X204150000Y-142427944D01*
X146400000Y-135427500D02*
X146378972Y-135427500D01*
%TO.N,/A8*%
X205275000Y-129950000D02*
X205555000Y-129670000D01*
X198279416Y-147450000D02*
X203550000Y-142179416D01*
X146627500Y-134827500D02*
X148067500Y-134827500D01*
X145750000Y-133950000D02*
X146627500Y-134827500D01*
X205275000Y-131801472D02*
X205275000Y-129950000D01*
X203550000Y-139229416D02*
X204175000Y-138604416D01*
X141500000Y-120550000D02*
X142200000Y-121250000D01*
X205555000Y-129670000D02*
X207030000Y-129670000D01*
X164098528Y-147450000D02*
X198279416Y-147450000D01*
X204175000Y-138604416D02*
X204175000Y-132901472D01*
X203550000Y-142179416D02*
X203550000Y-139229416D01*
X158650000Y-141142149D02*
X158650000Y-142001472D01*
X142200000Y-121250000D02*
X142200000Y-123901472D01*
X158596833Y-141088982D02*
X158650000Y-141142149D01*
X158650000Y-142001472D02*
X164098528Y-147450000D01*
X204175000Y-132901472D02*
X205275000Y-131801472D01*
X142200000Y-123901472D02*
X145750000Y-127451472D01*
X145750000Y-127451472D02*
X145750000Y-133950000D01*
%TO.N,/PWML*%
X174750000Y-54475000D02*
X174750000Y-73752944D01*
X202887500Y-44377500D02*
X194397500Y-44377500D01*
X174750000Y-73752944D02*
X171802944Y-76700000D01*
X193125000Y-45650000D02*
X183575000Y-45650000D01*
X122137500Y-79701472D02*
X125138972Y-76700000D01*
X194397500Y-44377500D02*
X193125000Y-45650000D01*
X125138972Y-76700000D02*
X171802944Y-76700000D01*
X122137500Y-82810000D02*
X122137500Y-79701472D01*
X183575000Y-45650000D02*
X174750000Y-54475000D01*
%TO.N,Net-(U11-Pad12)*%
X199180000Y-110540000D02*
X199180000Y-112370000D01*
X199180000Y-112370000D02*
X196640000Y-114910000D01*
X196640000Y-114910000D02*
X196640000Y-118160000D01*
%TO.N,Net-(U11-Pad11)*%
X193800000Y-142390000D02*
X193810000Y-142400000D01*
%TO.N,/GRNV*%
X147042500Y-54837500D02*
X150217500Y-54837500D01*
X143867500Y-54837500D02*
X143867500Y-53027500D01*
X140757500Y-47218795D02*
X140757500Y-47142500D01*
X143867500Y-53027500D02*
X142047500Y-51207500D01*
X140692500Y-54837500D02*
X143867500Y-54837500D01*
X143867500Y-54837500D02*
X147042500Y-54837500D01*
X137517500Y-54837500D02*
X140692500Y-54837500D01*
X150217500Y-54837500D02*
X150107500Y-54727500D01*
X142047500Y-51207500D02*
X142047500Y-48508795D01*
X140757500Y-43420000D02*
X140757500Y-47142500D01*
X142047500Y-48508795D02*
X140757500Y-47218795D01*
X138685000Y-41347500D02*
X140757500Y-43420000D01*
%TO.N,/RDY*%
X146300000Y-86300000D02*
X146975000Y-85625000D01*
X146975000Y-85625000D02*
X146975000Y-82800000D01*
X146752500Y-96727500D02*
X146300000Y-96275000D01*
X146300000Y-96275000D02*
X146300000Y-86300000D01*
X148067500Y-96727500D02*
X146752500Y-96727500D01*
%TO.N,Net-(JP2-A)*%
X148475000Y-33582500D02*
X153210000Y-38317500D01*
X132945000Y-33582500D02*
X148475000Y-33582500D01*
X128210000Y-38317500D02*
X132945000Y-33582500D01*
%TO.N,/HSYNCV*%
X139725000Y-35017500D02*
X140975000Y-36267500D01*
X139467500Y-48827500D02*
X139467500Y-50200267D01*
X137750267Y-51917500D02*
X119297500Y-51917500D01*
X118417500Y-52797500D02*
X118417500Y-54837500D01*
X138217500Y-45577500D02*
X134000000Y-41360000D01*
X135877233Y-35017500D02*
X139725000Y-35017500D01*
X138217500Y-47577500D02*
X139467500Y-48827500D01*
X139467500Y-50200267D02*
X137750267Y-51917500D01*
X134000000Y-41360000D02*
X134000000Y-36894733D01*
X119297500Y-51917500D02*
X118417500Y-52797500D01*
X138217500Y-47142500D02*
X138217500Y-47577500D01*
X134000000Y-36894733D02*
X135877233Y-35017500D01*
X138217500Y-47142500D02*
X138217500Y-45577500D01*
%TO.N,/VSYNCV*%
X133400000Y-41860000D02*
X136967500Y-45427500D01*
X116857500Y-51317500D02*
X136582500Y-51317500D01*
X135628705Y-34417500D02*
X133400000Y-36646205D01*
X133400000Y-36646205D02*
X133400000Y-41860000D01*
X138217500Y-49682500D02*
X138192500Y-49682500D01*
X136967500Y-48432500D02*
X138217500Y-49682500D01*
X138192500Y-49682500D02*
X138057500Y-49817500D01*
X136967500Y-45427500D02*
X136967500Y-48432500D01*
X143265000Y-36267500D02*
X141415000Y-34417500D01*
X136582500Y-51317500D02*
X138217500Y-49682500D01*
X115307500Y-52867500D02*
X116857500Y-51317500D01*
X115257500Y-54837500D02*
X115257500Y-52917500D01*
X141415000Y-34417500D02*
X135628705Y-34417500D01*
%TO.N,/A4*%
X129025000Y-125775000D02*
X125427500Y-122177500D01*
X152500000Y-146775000D02*
X141169112Y-146775000D01*
X141169112Y-146775000D02*
X129025000Y-134630888D01*
X125427500Y-122177500D02*
X123907500Y-122177500D01*
X154943630Y-144300001D02*
X154943630Y-144331370D01*
X129025000Y-134630888D02*
X129025000Y-125775000D01*
X154943630Y-144331370D02*
X152500000Y-146775000D01*
%TO.N,/PWMR*%
X193650000Y-48210000D02*
X181863528Y-48210000D01*
X181863528Y-48210000D02*
X175350000Y-54723528D01*
X172051472Y-77300000D02*
X163382500Y-77300000D01*
X175350000Y-54723528D02*
X175350000Y-74001472D01*
X159375000Y-81307500D02*
X159375000Y-82785000D01*
X175350000Y-74001472D02*
X172051472Y-77300000D01*
X194897500Y-49457500D02*
X193650000Y-48210000D01*
X202887500Y-49457500D02*
X194897500Y-49457500D01*
X163382500Y-77300000D02*
X159375000Y-81307500D01*
%TO.N,/A19*%
X155014950Y-143239950D02*
X155010050Y-143239950D01*
X162325000Y-150550000D02*
X155014950Y-143239950D01*
X213275000Y-126543629D02*
X213530000Y-126798630D01*
X200173528Y-149875000D02*
X199498528Y-150550000D01*
X118852500Y-129847500D02*
X120357500Y-129847500D01*
X119502500Y-129847500D02*
X120357500Y-129847500D01*
X167102740Y-133500000D02*
X173025000Y-133500000D01*
X212125000Y-140325000D02*
X202575000Y-149875000D01*
X202575000Y-149875000D02*
X200173528Y-149875000D01*
X210525000Y-77875000D02*
X210525000Y-77900000D01*
X124848528Y-136148528D02*
X123048528Y-136148528D01*
X119450000Y-133650000D02*
X118650000Y-132850000D01*
X213530000Y-126798630D02*
X213530000Y-135681370D01*
X161650000Y-149875000D02*
X138575000Y-149875000D01*
X213275000Y-80650000D02*
X213275000Y-126543629D01*
X123048528Y-136148528D02*
X122150000Y-135250000D01*
X213530000Y-135681370D02*
X213275000Y-135936371D01*
X176870000Y-129655000D02*
X178450000Y-129655000D01*
X122150000Y-135250000D02*
X122150000Y-134500000D01*
X173025000Y-133500000D02*
X176870000Y-129655000D01*
X122150000Y-134500000D02*
X121300000Y-133650000D01*
X121300000Y-133650000D02*
X119450000Y-133650000D01*
X213275000Y-135936371D02*
X213275000Y-136000000D01*
X210525000Y-77900000D02*
X213275000Y-80650000D01*
X212125000Y-137150000D02*
X212125000Y-140325000D01*
X161662500Y-149887500D02*
X161650000Y-149875000D01*
X138575000Y-149875000D02*
X124848528Y-136148528D01*
X213275000Y-136000000D02*
X212125000Y-137150000D01*
X199498528Y-150550000D02*
X162325000Y-150550000D01*
X166602740Y-134000000D02*
X167102740Y-133500000D01*
X118650000Y-130050000D02*
X118852500Y-129847500D01*
X118650000Y-132850000D02*
X118650000Y-130050000D01*
%TO.N,/A18*%
X146400000Y-115100000D02*
X147100000Y-115800000D01*
X165475000Y-132700000D02*
X167462500Y-132700000D01*
X154520000Y-118688528D02*
X154520000Y-126920000D01*
X164547500Y-133627500D02*
X165475000Y-132700000D01*
X173075000Y-130950000D02*
X176910000Y-127115000D01*
X123907500Y-104397500D02*
X125597500Y-104397500D01*
X194145000Y-99825000D02*
X186975000Y-99825000D01*
X129400000Y-108200000D02*
X140100000Y-108200000D01*
X167462500Y-132700000D02*
X169212500Y-130950000D01*
X169212500Y-130950000D02*
X173075000Y-130950000D01*
X154520000Y-126920000D02*
X161227500Y-133627500D01*
X176910000Y-127115000D02*
X178450000Y-127115000D01*
X161227500Y-133627500D02*
X164547500Y-133627500D01*
X125597500Y-104397500D02*
X129400000Y-108200000D01*
X147100000Y-115800000D02*
X151631472Y-115800000D01*
X151631472Y-115800000D02*
X154520000Y-118688528D01*
X178450000Y-127115000D02*
X178960000Y-127115000D01*
X196540000Y-97430000D02*
X194145000Y-99825000D01*
X178960000Y-127115000D02*
X184000000Y-122075000D01*
X146400000Y-114500000D02*
X146400000Y-115100000D01*
X140100000Y-108200000D02*
X146400000Y-114500000D01*
%TO.N,/A17*%
X147100000Y-118300000D02*
X146400000Y-117600000D01*
X161298528Y-136100000D02*
X153920000Y-128721472D01*
X201620000Y-99095000D02*
X202900000Y-100375000D01*
X202900000Y-100375000D02*
X204473528Y-100375000D01*
X173450000Y-129350000D02*
X178225000Y-124575000D01*
X194801166Y-103425000D02*
X187550000Y-103425000D01*
X151150000Y-118300000D02*
X147100000Y-118300000D01*
X146400000Y-117600000D02*
X146400000Y-116000000D01*
X195200000Y-103823834D02*
X194801166Y-103425000D01*
X178450000Y-124575000D02*
X180050000Y-124575000D01*
X195573834Y-106650000D02*
X195200000Y-106276166D01*
X207900000Y-104152944D02*
X207900000Y-106400000D01*
X204473528Y-100375000D02*
X207300000Y-103201472D01*
X166750000Y-138525000D02*
X164325000Y-136100000D01*
X180050000Y-124575000D02*
X183925000Y-120700000D01*
X207900000Y-106400000D02*
X207650000Y-106650000D01*
X201620000Y-97430000D02*
X201620000Y-99095000D01*
X153920000Y-128721472D02*
X153920000Y-121070000D01*
X173450000Y-138525000D02*
X166750000Y-138525000D01*
X207650000Y-106650000D02*
X195573834Y-106650000D01*
X139877500Y-109477500D02*
X139147500Y-109477500D01*
X207300000Y-103552944D02*
X207900000Y-104152944D01*
X146400000Y-116000000D02*
X139877500Y-109477500D01*
X195200000Y-106276166D02*
X195200000Y-103823834D01*
X164325000Y-136100000D02*
X161298528Y-136100000D01*
X187550000Y-103425000D02*
X185375000Y-105600000D01*
D28*
X177747500Y-124637500D02*
X177780000Y-124670000D01*
D27*
X153920000Y-121070000D02*
X151150000Y-118300000D01*
X207300000Y-103201472D02*
X207300000Y-103552944D01*
X178225000Y-124575000D02*
X178450000Y-124575000D01*
%TO.N,/A16*%
X178576472Y-113925000D02*
X177500000Y-115001472D01*
X176890000Y-122035000D02*
X178450000Y-122035000D01*
X152637056Y-124600000D02*
X148964556Y-120927500D01*
X175725000Y-120910000D02*
X176850000Y-122035000D01*
X175655000Y-120800000D02*
X176890000Y-122035000D01*
X169075000Y-121550000D02*
X169825000Y-120800000D01*
X206700000Y-99000000D02*
X210975000Y-103275000D01*
X165118629Y-130800000D02*
X166825000Y-130800000D01*
X153120000Y-124600000D02*
X152637056Y-124600000D01*
X192250000Y-105026472D02*
X191248528Y-104025000D01*
X203501472Y-108200000D02*
X192573528Y-108200000D01*
X177500000Y-115001472D02*
X177500000Y-116126472D01*
X206700000Y-97430000D02*
X206700000Y-99000000D01*
X203976472Y-107725000D02*
X203501472Y-108200000D01*
X210150000Y-107725000D02*
X203976472Y-107725000D01*
X138242944Y-110825000D02*
X129475000Y-110825000D01*
X140044556Y-110817500D02*
X138250444Y-110817500D01*
X177500000Y-116126472D02*
X175725000Y-117901472D01*
X145800000Y-116572944D02*
X140044556Y-110817500D01*
X166825000Y-130800000D02*
X169075000Y-128550000D01*
X210975000Y-106900000D02*
X210150000Y-107725000D01*
X188286572Y-104025000D02*
X187650393Y-104661179D01*
X175725000Y-120730000D02*
X175655000Y-120800000D01*
X125587500Y-106937500D02*
X123907500Y-106937500D01*
X192250000Y-107876472D02*
X192250000Y-105026472D01*
X179701472Y-113925000D02*
X178576472Y-113925000D01*
X146400000Y-120150000D02*
X146400000Y-118448528D01*
X175725000Y-117901472D02*
X175725000Y-120730000D01*
X164918629Y-131000000D02*
X165118629Y-130800000D01*
X148964556Y-120927500D02*
X147177500Y-120927500D01*
X192573528Y-108200000D02*
X192250000Y-107876472D01*
X129475000Y-110825000D02*
X125587500Y-106937500D01*
X155920000Y-124600000D02*
X155920000Y-125848628D01*
X169825000Y-120800000D02*
X175655000Y-120800000D01*
X169075000Y-128550000D02*
X169075000Y-121550000D01*
X161071372Y-131000000D02*
X164918629Y-131000000D01*
X146400000Y-118448528D02*
X145800000Y-117848528D01*
X155920000Y-125848628D02*
X161071372Y-131000000D01*
X210975000Y-103275000D02*
X210975000Y-106900000D01*
X145800000Y-117848528D02*
X145800000Y-116572944D01*
X176850000Y-122035000D02*
X178450000Y-122035000D01*
X191248528Y-104025000D02*
X188286572Y-104025000D01*
X187650393Y-104661179D02*
X187650393Y-105976079D01*
X147177500Y-120927500D02*
X146400000Y-120150000D01*
X187650393Y-105976079D02*
X179701472Y-113925000D01*
X138250444Y-110817500D02*
X138242944Y-110825000D01*
%TO.N,/A5*%
X146176472Y-146150000D02*
X152025000Y-146150000D01*
X162851472Y-149950000D02*
X155126472Y-142225000D01*
X211050000Y-131010000D02*
X210430000Y-131010000D01*
X204750000Y-144450000D02*
X199250000Y-149950000D01*
X146025000Y-146075000D02*
X146101472Y-146075000D01*
X129700000Y-123850000D02*
X129700000Y-134457360D01*
X209270000Y-132170000D02*
X209270000Y-142330000D01*
X154200000Y-135979899D02*
X151667499Y-133447398D01*
X154200000Y-142225000D02*
X154200000Y-135979899D01*
X141450000Y-137600000D02*
X141450000Y-141500000D01*
X210430000Y-131010000D02*
X209270000Y-132170000D01*
X123907500Y-119637500D02*
X125487500Y-119637500D01*
X125487500Y-119637500D02*
X129700000Y-123850000D01*
X141450000Y-141500000D02*
X146025000Y-146075000D01*
X131392640Y-136150000D02*
X140000000Y-136150000D01*
X155126472Y-142225000D02*
X154200000Y-142225000D01*
X154200000Y-143975000D02*
X154200000Y-142225000D01*
X209270000Y-142330000D02*
X207150000Y-144450000D01*
X207150000Y-144450000D02*
X204750000Y-144450000D01*
X140000000Y-136150000D02*
X141450000Y-137600000D01*
X146101472Y-146075000D02*
X146176472Y-146150000D01*
X152025000Y-146150000D02*
X154200000Y-143975000D01*
X199250000Y-149950000D02*
X162851472Y-149950000D01*
X129700000Y-134457360D02*
X131392640Y-136150000D01*
%TO.N,/IRQB*%
X183950000Y-100575000D02*
X184350000Y-100975000D01*
X148067500Y-101807500D02*
X146482500Y-101807500D01*
X140775000Y-96100000D02*
X140775000Y-82800000D01*
X184350000Y-100975000D02*
X204225000Y-100975000D01*
X148067500Y-101807500D02*
X147667500Y-101807500D01*
X206700000Y-103450000D02*
X206700000Y-105050000D01*
X183950000Y-84222056D02*
X183950000Y-100575000D01*
X185475000Y-79875000D02*
X185475000Y-82697056D01*
X204225000Y-100975000D02*
X206700000Y-103450000D01*
X146482500Y-101807500D02*
X140775000Y-96100000D01*
X185475000Y-82697056D02*
X183950000Y-84222056D01*
%TO.N,VBAT*%
D28*
X69917500Y-67507500D02*
X72457500Y-67507500D01*
X72482500Y-67482500D02*
X72457500Y-67507500D01*
X87557500Y-54717500D02*
X91957500Y-54717500D01*
%TO.N,/AMPL*%
D27*
X91000000Y-61700000D02*
X88950000Y-61700000D01*
X129880000Y-50400000D02*
X133137500Y-47142500D01*
X109000000Y-54950000D02*
X109000000Y-52050000D01*
X88950000Y-61700000D02*
X84650000Y-66000000D01*
X110650000Y-50400000D02*
X129880000Y-50400000D01*
X109000000Y-52050000D02*
X110650000Y-50400000D01*
%TO.N,/AMPR*%
X88250000Y-60700000D02*
X90950000Y-60700000D01*
X107950000Y-54100000D02*
X107950000Y-51200000D01*
X83000000Y-65950000D02*
X88250000Y-60700000D01*
X109350000Y-49800000D02*
X128350000Y-49800000D01*
X107950000Y-51200000D02*
X109350000Y-49800000D01*
X134252500Y-45717500D02*
X135677500Y-47142500D01*
X132432500Y-45717500D02*
X134252500Y-45717500D01*
X128350000Y-49800000D02*
X132432500Y-45717500D01*
%TO.N,/A7*%
X190850000Y-144297056D02*
X190850000Y-142850000D01*
X131050000Y-130400000D02*
X131050000Y-121675000D01*
X151687500Y-132287500D02*
X159400000Y-140000000D01*
X131700000Y-131050000D02*
X131050000Y-130400000D01*
X142700000Y-133652944D02*
X140097056Y-131050000D01*
X188297056Y-146850000D02*
X190850000Y-144297056D01*
X150867499Y-132250000D02*
X150904999Y-132287500D01*
X146325000Y-144575000D02*
X142700000Y-140950000D01*
X159400000Y-141648528D02*
X164601472Y-146850000D01*
X190850000Y-142850000D02*
X193800000Y-139900000D01*
X146702944Y-144950000D02*
X146327944Y-144575000D01*
X150904999Y-132287500D02*
X151687500Y-132287500D01*
X140097056Y-131050000D02*
X131700000Y-131050000D01*
X193800000Y-139900000D02*
X193800000Y-139850000D01*
X131050000Y-121675000D02*
X123932500Y-114557500D01*
X151527944Y-144950000D02*
X146702944Y-144950000D01*
X148067500Y-132287500D02*
X153000000Y-137220000D01*
X153000000Y-143477944D02*
X151527944Y-144950000D01*
X142700000Y-140950000D02*
X142700000Y-133652944D01*
X146327944Y-144575000D02*
X146325000Y-144575000D01*
X123932500Y-114557500D02*
X123907500Y-114557500D01*
X153000000Y-137220000D02*
X153000000Y-143477944D01*
X159400000Y-140000000D02*
X159400000Y-141648528D01*
X164601472Y-146850000D02*
X188297056Y-146850000D01*
%TO.N,/A6*%
X153600000Y-136600000D02*
X153600000Y-143726472D01*
X148067500Y-129747500D02*
X150067499Y-131747499D01*
X193800000Y-137310000D02*
X193800000Y-137600000D01*
X150075000Y-132588872D02*
X150075000Y-133075000D01*
X160000000Y-141400000D02*
X160000000Y-139400000D01*
X190250000Y-144048528D02*
X188048528Y-146250000D01*
X164850000Y-146250000D02*
X160000000Y-141400000D01*
X131650000Y-133600000D02*
X130375000Y-132325000D01*
X190250000Y-142597056D02*
X190250000Y-144048528D01*
X142100000Y-135350000D02*
X140350000Y-133600000D01*
X130375000Y-121875000D02*
X125597500Y-117097500D01*
X192100000Y-140747056D02*
X190250000Y-142597056D01*
X153600000Y-143726472D02*
X151776472Y-145550000D01*
X150075000Y-133075000D02*
X153600000Y-136600000D01*
X142300000Y-141398528D02*
X142100000Y-141198528D01*
X140350000Y-133600000D02*
X131650000Y-133600000D01*
X150347500Y-129747500D02*
X148067500Y-129747500D01*
X142100000Y-141198528D02*
X142100000Y-135350000D01*
X188048528Y-146250000D02*
X164850000Y-146250000D01*
X146425000Y-145550000D02*
X142300000Y-141425000D01*
X142300000Y-141425000D02*
X142300000Y-141398528D01*
X130375000Y-132325000D02*
X130375000Y-121875000D01*
X193800000Y-137600000D02*
X192100000Y-139300000D01*
X192100000Y-139300000D02*
X192100000Y-140747056D01*
X150067499Y-132581371D02*
X150075000Y-132588872D01*
X150067499Y-131747499D02*
X150067499Y-132581371D01*
X160000000Y-139400000D02*
X150347500Y-129747500D01*
X151776472Y-145550000D02*
X146425000Y-145550000D01*
X125597500Y-117097500D02*
X123907500Y-117097500D01*
%TO.N,/AB19*%
X211575000Y-96300000D02*
X211575000Y-107148528D01*
X139147500Y-129797500D02*
X140822500Y-129797500D01*
X180125000Y-122650000D02*
X179475000Y-123300000D01*
X174900000Y-123300000D02*
X172375000Y-125825000D01*
X160675000Y-125923960D02*
X164676040Y-125923960D01*
X191000000Y-104625000D02*
X189850000Y-104625000D01*
X211575000Y-107148528D02*
X210398528Y-108325000D01*
X176325000Y-118150000D02*
X176325000Y-119750000D01*
X204225000Y-108325000D02*
X203750000Y-108800000D01*
X186180000Y-129690000D02*
X184875000Y-130995000D01*
X178100000Y-115250000D02*
X178100000Y-116375000D01*
X146951472Y-144350000D02*
X151279416Y-144350000D01*
X178100000Y-116375000D02*
X176325000Y-118150000D01*
X179338528Y-120725000D02*
X180125000Y-121511472D01*
X177300000Y-120725000D02*
X179338528Y-120725000D01*
X143350000Y-140748528D02*
X146951472Y-144350000D01*
X210125000Y-94850000D02*
X211575000Y-96300000D01*
X192325000Y-108800000D02*
X191650000Y-108125000D01*
X140822500Y-129797500D02*
X143350000Y-132325000D01*
X179475000Y-123300000D02*
X174900000Y-123300000D01*
X180125000Y-121511472D02*
X180125000Y-122650000D01*
X172375000Y-125850000D02*
X174096814Y-127571814D01*
X178825000Y-114525000D02*
X178100000Y-115250000D01*
X172375000Y-125825000D02*
X172375000Y-125850000D01*
X151279416Y-144350000D02*
X152200000Y-143429416D01*
X176325000Y-119750000D02*
X177300000Y-120725000D01*
X179950000Y-114525000D02*
X178825000Y-114525000D01*
X189850000Y-104625000D02*
X179950000Y-114525000D01*
X176930000Y-130995000D02*
X175725000Y-132200000D01*
X164676040Y-125923960D02*
X164775000Y-125825000D01*
X204160000Y-95790000D02*
X205100000Y-94850000D01*
X204160000Y-97430000D02*
X204160000Y-95790000D01*
X152200000Y-143429416D02*
X152200000Y-137650686D01*
X191650000Y-108125000D02*
X191650000Y-105275000D01*
X203750000Y-108800000D02*
X192325000Y-108800000D01*
X205100000Y-94850000D02*
X210125000Y-94850000D01*
X210398528Y-108325000D02*
X204225000Y-108325000D01*
X143350000Y-132325000D02*
X143350000Y-140748528D01*
X184875000Y-130995000D02*
X176930000Y-130995000D01*
X191650000Y-105275000D02*
X191000000Y-104625000D01*
%TO.N,/AB17*%
X209265000Y-82465000D02*
X209265000Y-84265000D01*
X203625000Y-79725000D02*
X206525000Y-79725000D01*
X186170000Y-137300000D02*
X186180000Y-137310000D01*
X206525000Y-79725000D02*
X209265000Y-82465000D01*
%TO.N,/NMIB*%
X148067500Y-106887500D02*
X146437500Y-106887500D01*
X146437500Y-106887500D02*
X137650000Y-98100000D01*
X137650000Y-98100000D02*
X137650000Y-82810000D01*
%TO.N,Net-(U3-BE)*%
X150075000Y-84350000D02*
X150075000Y-82800000D01*
X159842500Y-104347500D02*
X156122500Y-100627500D01*
X156122500Y-90397500D02*
X150075000Y-84350000D01*
X150050000Y-82825000D02*
X150075000Y-82850000D01*
X156122500Y-100627500D02*
X156122500Y-90397500D01*
X150075000Y-82850000D02*
X150075000Y-83295000D01*
X163307500Y-104347500D02*
X159842500Y-104347500D01*
%TO.N,Net-(R7-Pad1)*%
X196540000Y-105050000D02*
X196540000Y-103440000D01*
X196540000Y-103440000D02*
X195275000Y-102175000D01*
X195275000Y-102175000D02*
X182765000Y-102175000D01*
X182765000Y-102175000D02*
X181975000Y-101385000D01*
%TD*%
M02*
