M48
; DRILL file KiCad 10.0.5-10.0.5~ubuntu24.04.1 date 2026-09-12T21:15:19
; FORMAT={-:-/ absolute / metric / decimal}
; #@! TF.CreationDate,2026-09-12T21:15:19-07:00
; #@! TF.GenerationSoftware,Kicad,Pcbnew,10.0.5-10.0.5~ubuntu24.04.1
; #@! TF.FileFunction,Plated,1,2,PTH
FMAT,2
METRIC
; #@! TA.AperFunction,Plated,PTH,ViaDrill
T1C0.400
; #@! TA.AperFunction,Plated,PTH,ComponentDrill
T2C0.450
; #@! TA.AperFunction,Plated,PTH,ViaDrill
T3C0.700
; #@! TA.AperFunction,Plated,PTH,ComponentDrill
T4C0.800
; #@! TA.AperFunction,Plated,PTH,ComponentDrill
T5C0.900
; #@! TA.AperFunction,Plated,PTH,ComponentDrill
T6C1.000
; #@! TA.AperFunction,Plated,PTH,ComponentDrill
T7C1.300
; #@! TA.AperFunction,Plated,PTH,ComponentDrill
T8C3.200
%
G90
G05
T1
X83.0Y-65.95
X84.65Y-66.0
X87.1Y-44.475
X87.575Y-49.25
X90.875Y-49.225
X90.95Y-60.7
X91.0Y-61.7
X99.207Y-52.017
X99.957Y-73.218
X101.5Y-51.917
X101.657Y-43.218
X101.858Y-40.517
X107.95Y-54.1
X109.0Y-54.95
X109.3Y-86.0
X110.096Y-86.605
X110.9Y-87.2
X111.724Y-87.767
X112.556Y-88.321
X113.39Y-88.873
X114.2Y-89.48
X115.0Y-90.159
X117.7Y-132.35
X118.325Y-75.225
X118.325Y-76.975
X137.922Y-148.053
X141.5Y-120.55
X148.517Y-80.927
X150.867Y-132.25
X151.429Y-128.379
X151.667Y-133.447
X152.2Y-137.651
X153.12Y-124.6
X154.765Y-128.435
X154.944Y-144.3
X155.01Y-143.24
X155.6Y-141.123
X155.744Y-145.1
X155.92Y-124.6
X156.191Y-133.409
X156.544Y-145.9
X156.599Y-141.172
X157.344Y-146.7
X157.598Y-141.144
X158.194Y-147.55
X158.597Y-141.089
X159.166Y-130.434
X160.675Y-125.924
X164.775Y-125.825
X166.603Y-134.0
X168.025Y-128.455
X170.0Y-68.925
X172.375Y-125.825
X172.989Y-97.861
X173.45Y-129.35
X173.45Y-138.525
X173.864Y-100.761
X174.097Y-127.572
X174.664Y-103.004
X175.459Y-104.811
X175.725Y-132.2
X177.83Y-75.65
X178.445Y-76.438
X179.45Y-76.934
X180.25Y-77.786
X180.725Y-102.725
X181.05Y-78.519
X181.85Y-79.244
X182.65Y-79.954
X183.559Y-80.695
X183.875Y-121.0
X184.619Y-121.668
X184.7Y-79.9
X185.62Y-109.03
X185.998Y-109.956
X186.8Y-53.25
X190.197Y-123.508
X190.953Y-145.325
X192.25Y-146.625
X192.575Y-99.975
X205.35Y-59.825
T3
X68.4Y-60.6
X87.557Y-54.717
X91.957Y-54.717
X94.457Y-84.575
X108.858Y-39.047
X114.358Y-39.047
X169.85Y-60.25
X173.0Y-115.725
T4
X78.457Y-29.137
X78.457Y-31.677
X78.457Y-34.218
X78.457Y-36.758
X78.457Y-39.297
X78.457Y-41.837
X78.457Y-44.377
X78.457Y-46.917
X78.457Y-49.457
X78.457Y-51.997
X78.457Y-54.537
X78.457Y-57.078
X78.457Y-59.617
X78.457Y-62.157
X78.457Y-64.697
X78.457Y-67.237
X78.457Y-69.778
X78.457Y-72.317
X78.457Y-74.858
X78.457Y-77.397
X81.757Y-94.037
X81.757Y-96.578
X81.757Y-99.117
X81.757Y-101.657
X81.757Y-104.197
X81.757Y-106.737
X81.757Y-109.277
X81.757Y-111.817
X81.757Y-114.358
X81.757Y-116.897
X81.757Y-119.438
X81.757Y-121.977
X81.757Y-124.517
X81.757Y-127.057
X81.757Y-129.597
X81.757Y-132.137
X81.757Y-134.677
X81.757Y-137.218
X81.757Y-139.757
X81.757Y-142.297
X84.312Y-90.462
X94.472Y-90.462
X96.237Y-29.137
X96.237Y-31.677
X96.237Y-34.218
X96.237Y-36.758
X96.237Y-39.297
X96.237Y-41.837
X96.237Y-44.377
X96.237Y-46.917
X96.237Y-49.457
X96.237Y-51.997
X96.237Y-54.537
X96.237Y-57.078
X96.237Y-59.617
X96.237Y-62.157
X96.237Y-64.697
X96.237Y-67.237
X96.237Y-69.778
X96.237Y-72.317
X96.237Y-74.858
X96.237Y-77.397
X96.998Y-94.037
X96.998Y-96.578
X96.998Y-99.117
X96.998Y-101.657
X96.998Y-104.197
X96.998Y-106.737
X96.998Y-109.277
X96.998Y-111.817
X96.998Y-114.358
X96.998Y-116.897
X96.998Y-119.438
X96.998Y-121.977
X96.998Y-124.517
X96.998Y-127.057
X96.998Y-129.597
X96.998Y-132.137
X96.998Y-134.677
X96.998Y-137.218
X96.998Y-139.757
X96.998Y-142.297
X105.117Y-104.447
X105.117Y-106.987
X105.117Y-109.527
X105.117Y-112.067
X105.117Y-114.608
X105.117Y-117.147
X105.117Y-119.688
X105.117Y-122.227
X105.117Y-124.767
X105.117Y-127.307
X105.117Y-129.847
X105.117Y-132.387
X105.117Y-134.927
X105.117Y-137.468
X105.117Y-140.007
X105.117Y-142.547
X107.69Y-100.457
X110.425Y-74.375
X111.4Y-54.89
X111.4Y-65.05
X115.257Y-54.837
X115.257Y-64.998
X115.425Y-74.375
X117.85Y-100.457
X118.417Y-54.837
X118.417Y-64.998
X119.037Y-72.65
X119.037Y-82.81
X120.357Y-104.447
X120.357Y-106.987
X120.357Y-109.527
X120.357Y-112.067
X120.357Y-114.608
X120.357Y-117.147
X120.357Y-119.688
X120.357Y-122.227
X120.357Y-124.767
X120.357Y-127.307
X120.357Y-129.847
X120.357Y-132.387
X120.357Y-134.927
X120.357Y-137.468
X120.357Y-140.007
X120.357Y-142.547
X121.607Y-54.837
X121.607Y-64.998
X122.137Y-72.65
X122.137Y-82.81
X123.907Y-104.397
X123.907Y-106.938
X123.907Y-109.477
X123.907Y-112.017
X123.907Y-114.557
X123.907Y-117.097
X123.907Y-119.637
X123.907Y-122.177
X123.907Y-124.718
X123.907Y-127.257
X123.907Y-129.797
X123.907Y-132.338
X123.907Y-134.877
X123.907Y-137.417
X123.907Y-139.957
X123.907Y-142.498
X124.782Y-54.837
X124.782Y-64.998
X125.237Y-72.65
X125.237Y-82.81
X126.765Y-100.375
X127.957Y-54.837
X127.957Y-64.998
X128.338Y-72.65
X128.338Y-82.81
X131.132Y-54.837
X131.132Y-64.998
X131.45Y-72.65
X131.45Y-82.81
X134.308Y-54.837
X134.308Y-64.998
X134.55Y-72.65
X134.55Y-82.81
X136.925Y-100.375
X137.517Y-54.837
X137.517Y-64.998
X137.65Y-72.65
X137.65Y-82.81
X139.147Y-104.397
X139.147Y-106.938
X139.147Y-109.477
X139.147Y-112.017
X139.147Y-114.557
X139.147Y-117.097
X139.147Y-119.637
X139.147Y-122.177
X139.147Y-124.718
X139.147Y-127.257
X139.147Y-129.797
X139.147Y-132.338
X139.147Y-134.877
X139.147Y-137.417
X139.147Y-139.957
X139.147Y-142.498
X140.692Y-54.837
X140.692Y-64.998
X140.775Y-72.64
X140.775Y-82.8
X143.868Y-54.837
X143.868Y-64.998
X143.875Y-72.64
X143.875Y-82.8
X146.975Y-72.64
X146.975Y-82.8
X147.042Y-54.837
X147.042Y-64.998
X148.067Y-94.188
X148.067Y-96.727
X148.067Y-99.267
X148.067Y-101.807
X148.067Y-104.347
X148.067Y-106.887
X148.067Y-109.427
X148.067Y-111.968
X148.067Y-114.507
X148.067Y-117.047
X148.067Y-119.587
X148.067Y-122.127
X148.067Y-124.667
X148.067Y-127.207
X148.067Y-129.748
X148.067Y-132.287
X148.067Y-134.827
X148.067Y-137.368
X148.067Y-139.907
X148.067Y-142.447
X150.075Y-72.64
X150.075Y-82.8
X150.218Y-54.837
X150.218Y-64.998
X150.822Y-90.328
X153.175Y-72.632
X153.175Y-82.792
X153.433Y-54.938
X153.433Y-65.097
X156.275Y-72.627
X156.275Y-82.787
X156.607Y-54.938
X156.607Y-65.097
X159.375Y-72.625
X159.375Y-82.785
X159.782Y-54.938
X159.782Y-65.097
X160.982Y-90.328
X162.475Y-72.627
X162.475Y-82.787
X162.957Y-54.938
X162.957Y-65.097
X163.308Y-94.188
X163.308Y-96.727
X163.308Y-99.267
X163.308Y-101.807
X163.308Y-104.347
X163.308Y-106.887
X163.308Y-109.427
X163.308Y-111.968
X163.308Y-114.507
X163.308Y-117.047
X163.308Y-119.587
X163.308Y-122.127
X163.308Y-124.667
X163.308Y-127.207
X163.308Y-129.748
X163.308Y-132.287
X163.308Y-134.827
X163.308Y-137.368
X163.308Y-139.907
X163.308Y-142.447
X166.05Y-74.317
X166.132Y-54.938
X166.132Y-65.097
X169.594Y-115.786
X169.665Y-84.4
X170.058Y-54.938
X170.058Y-65.097
X170.83Y-119.495
X170.83Y-122.035
X170.83Y-124.575
X170.83Y-127.115
X170.83Y-129.655
X170.83Y-132.195
X170.83Y-134.735
X170.83Y-137.275
X170.83Y-139.815
X170.83Y-142.355
X170.876Y-88.729
X170.876Y-91.269
X170.876Y-93.809
X170.876Y-96.349
X170.876Y-98.889
X170.876Y-101.429
X170.876Y-103.969
X170.876Y-106.509
X170.876Y-109.049
X170.876Y-111.589
X171.05Y-74.317
X178.45Y-119.495
X178.45Y-122.035
X178.45Y-124.575
X178.45Y-127.115
X178.45Y-129.655
X178.45Y-132.195
X178.45Y-134.735
X178.45Y-137.275
X178.45Y-139.815
X178.45Y-142.355
X178.496Y-88.729
X178.496Y-91.269
X178.496Y-93.809
X178.496Y-96.349
X178.496Y-98.889
X178.496Y-101.429
X178.496Y-103.969
X178.496Y-106.509
X178.496Y-109.049
X178.496Y-111.589
X179.754Y-115.786
X179.825Y-84.4
X185.1Y-123.48
X185.107Y-29.137
X185.107Y-31.677
X185.107Y-34.218
X185.107Y-36.758
X185.107Y-39.297
X185.107Y-41.837
X185.107Y-44.377
X185.107Y-46.917
X185.107Y-49.457
X185.107Y-51.997
X185.107Y-54.537
X185.107Y-57.078
X185.107Y-59.617
X185.107Y-62.157
X185.107Y-64.697
X185.107Y-67.237
X185.107Y-69.778
X185.107Y-72.317
X185.107Y-74.858
X185.107Y-77.397
X186.18Y-127.15
X186.18Y-129.69
X186.18Y-132.23
X186.18Y-134.77
X186.18Y-137.31
X186.18Y-139.85
X186.18Y-142.39
X188.875Y-84.42
X188.875Y-92.04
X188.9Y-97.605
X188.9Y-105.225
X188.95Y-110.945
X188.95Y-118.565
X191.415Y-84.42
X191.415Y-92.04
X191.44Y-97.605
X191.44Y-105.225
X191.49Y-110.945
X191.49Y-118.565
X193.8Y-127.15
X193.8Y-129.69
X193.8Y-132.23
X193.8Y-134.77
X193.8Y-137.31
X193.8Y-139.85
X193.8Y-142.39
X193.955Y-84.42
X193.955Y-92.04
X193.98Y-97.605
X193.98Y-105.225
X194.03Y-110.945
X194.03Y-118.565
X195.26Y-123.48
X196.495Y-84.42
X196.495Y-92.04
X196.52Y-97.605
X196.52Y-105.225
X196.57Y-110.945
X196.57Y-118.565
X198.22Y-123.41
X199.035Y-84.42
X199.035Y-92.04
X199.06Y-97.605
X199.06Y-105.225
X199.11Y-110.945
X199.11Y-118.565
X199.41Y-127.13
X199.41Y-129.67
X199.41Y-132.21
X199.41Y-134.75
X199.41Y-137.29
X199.41Y-139.83
X199.41Y-142.37
X201.575Y-84.42
X201.575Y-92.04
X201.6Y-97.605
X201.6Y-105.225
X201.65Y-110.945
X201.65Y-118.565
X202.887Y-29.137
X202.887Y-31.677
X202.887Y-34.218
X202.887Y-36.758
X202.887Y-39.297
X202.887Y-41.837
X202.887Y-44.377
X202.887Y-46.917
X202.887Y-49.457
X202.887Y-51.997
X202.887Y-54.537
X202.887Y-57.078
X202.887Y-59.617
X202.887Y-62.157
X202.887Y-64.697
X202.887Y-67.237
X202.887Y-69.778
X202.887Y-72.317
X202.887Y-74.858
X202.887Y-77.397
X204.115Y-84.42
X204.115Y-92.04
X204.14Y-97.605
X204.14Y-105.225
X204.19Y-110.945
X204.19Y-118.565
X207.03Y-127.13
X207.03Y-129.67
X207.03Y-132.21
X207.03Y-134.75
X207.03Y-137.29
X207.03Y-139.83
X207.03Y-142.37
X207.77Y-83.205
X207.77Y-93.365
X207.85Y-96.32
X207.85Y-106.48
X207.86Y-109.605
X207.86Y-119.765
X208.38Y-123.41
T5
X88.16Y-85.498
X90.7Y-85.498
X130.81Y-95.2
X133.35Y-95.2
T6
X69.962Y-75.873
X69.962Y-78.412
X69.962Y-80.953
X69.962Y-83.492
X69.962Y-86.032
X69.962Y-88.572
X69.962Y-91.112
X70.017Y-40.427
X70.017Y-42.968
X70.017Y-45.508
X70.017Y-48.047
X70.017Y-50.587
X70.017Y-53.127
X70.017Y-55.667
X70.023Y-111.388
X70.023Y-113.928
X70.023Y-116.468
X70.023Y-119.008
X70.023Y-121.548
X70.023Y-124.088
X70.023Y-126.628
X70.023Y-129.168
X70.023Y-131.708
X70.023Y-134.248
X70.023Y-136.788
X70.023Y-139.328
X72.502Y-75.873
X72.502Y-78.412
X72.502Y-80.953
X72.502Y-83.492
X72.502Y-86.032
X72.502Y-88.572
X72.502Y-91.112
X72.557Y-40.427
X72.557Y-42.968
X72.557Y-45.508
X72.557Y-48.047
X72.557Y-50.587
X72.557Y-53.127
X72.557Y-55.667
X72.563Y-111.388
X72.563Y-113.928
X72.563Y-116.468
X72.563Y-119.008
X72.563Y-121.548
X72.563Y-124.088
X72.563Y-126.628
X72.563Y-129.168
X72.563Y-131.708
X72.563Y-134.248
X72.563Y-136.788
X72.563Y-139.328
X84.85Y-84.4
X84.85Y-86.94
X106.65Y-30.447
X111.15Y-30.447
X133.137Y-47.142
X133.137Y-49.682
X135.25Y-38.807
X135.677Y-47.142
X135.677Y-49.682
X136.395Y-36.267
X136.395Y-41.347
X137.54Y-38.807
X138.218Y-47.142
X138.218Y-49.682
X138.685Y-36.267
X138.685Y-41.347
X139.83Y-38.807
X140.757Y-47.142
X140.757Y-49.682
X140.975Y-36.267
X140.975Y-41.347
X142.12Y-38.807
X143.265Y-36.267
X143.265Y-41.347
X143.297Y-47.142
X143.297Y-49.682
X144.41Y-38.807
X145.555Y-36.267
X145.555Y-41.347
X145.838Y-47.142
X145.838Y-49.682
X148.377Y-47.142
X148.377Y-49.682
X211.05Y-131.01
X211.05Y-133.55
X211.05Y-136.09
T7
X105.4Y-32.947
X112.4Y-32.947
T8
X70.657Y-32.398
X70.657Y-147.397
X128.21Y-38.807
X153.21Y-38.807
X210.657Y-32.398
X210.657Y-147.397
T2
G00X165.422Y-36.422
M15
G01X165.422Y-37.372
M16
G05
G00X167.922Y-36.422
M15
G01X167.922Y-37.372
M16
G05
G00X170.897Y-31.897
M15
G01X169.947Y-31.897
M16
G05
G00X172.922Y-37.372
M15
G01X172.922Y-36.422
M16
G05
G00X175.422Y-37.372
M15
G01X175.422Y-36.422
M16
G05
M30
