%TF.GenerationSoftware,KiCad,Pcbnew,10.0.5-10.0.5~ubuntu24.04.1*%
%TF.CreationDate,2026-09-06T09:39:39-07:00*%
%TF.ProjectId,vr65816,76723635-3831-4362-9e6b-696361645f70,rev?*%
%TF.SameCoordinates,Original*%
%TF.FileFunction,Legend,Bot*%
%TF.FilePolarity,Positive*%
%FSLAX46Y46*%
G04 Gerber Fmt 4.6, Leading zero omitted, Abs format (unit mm)*
G04 Created by KiCad (PCBNEW 10.0.5-10.0.5~ubuntu24.04.1) date 2026-09-06 09:39:39*
%MOMM*%
%LPD*%
G01*
G04 APERTURE LIST*
%ADD10C,0.200000*%
%ADD11C,0.300000*%
%ADD12C,0.120000*%
G04 APERTURE END LIST*
D10*
X90801428Y-28581280D02*
X90801428Y-29795566D01*
X90801428Y-29795566D02*
X90729999Y-29938423D01*
X90729999Y-29938423D02*
X90658571Y-30009852D01*
X90658571Y-30009852D02*
X90515713Y-30081280D01*
X90515713Y-30081280D02*
X90229999Y-30081280D01*
X90229999Y-30081280D02*
X90087142Y-30009852D01*
X90087142Y-30009852D02*
X90015713Y-29938423D01*
X90015713Y-29938423D02*
X89944285Y-29795566D01*
X89944285Y-29795566D02*
X89944285Y-28581280D01*
X89301427Y-30009852D02*
X89087142Y-30081280D01*
X89087142Y-30081280D02*
X88729999Y-30081280D01*
X88729999Y-30081280D02*
X88587142Y-30009852D01*
X88587142Y-30009852D02*
X88515713Y-29938423D01*
X88515713Y-29938423D02*
X88444284Y-29795566D01*
X88444284Y-29795566D02*
X88444284Y-29652709D01*
X88444284Y-29652709D02*
X88515713Y-29509852D01*
X88515713Y-29509852D02*
X88587142Y-29438423D01*
X88587142Y-29438423D02*
X88729999Y-29366994D01*
X88729999Y-29366994D02*
X89015713Y-29295566D01*
X89015713Y-29295566D02*
X89158570Y-29224137D01*
X89158570Y-29224137D02*
X89229999Y-29152709D01*
X89229999Y-29152709D02*
X89301427Y-29009852D01*
X89301427Y-29009852D02*
X89301427Y-28866994D01*
X89301427Y-28866994D02*
X89229999Y-28724137D01*
X89229999Y-28724137D02*
X89158570Y-28652709D01*
X89158570Y-28652709D02*
X89015713Y-28581280D01*
X89015713Y-28581280D02*
X88658570Y-28581280D01*
X88658570Y-28581280D02*
X88444284Y-28652709D01*
X87301428Y-29295566D02*
X87087142Y-29366994D01*
X87087142Y-29366994D02*
X87015713Y-29438423D01*
X87015713Y-29438423D02*
X86944285Y-29581280D01*
X86944285Y-29581280D02*
X86944285Y-29795566D01*
X86944285Y-29795566D02*
X87015713Y-29938423D01*
X87015713Y-29938423D02*
X87087142Y-30009852D01*
X87087142Y-30009852D02*
X87229999Y-30081280D01*
X87229999Y-30081280D02*
X87801428Y-30081280D01*
X87801428Y-30081280D02*
X87801428Y-28581280D01*
X87801428Y-28581280D02*
X87301428Y-28581280D01*
X87301428Y-28581280D02*
X87158571Y-28652709D01*
X87158571Y-28652709D02*
X87087142Y-28724137D01*
X87087142Y-28724137D02*
X87015713Y-28866994D01*
X87015713Y-28866994D02*
X87015713Y-29009852D01*
X87015713Y-29009852D02*
X87087142Y-29152709D01*
X87087142Y-29152709D02*
X87158571Y-29224137D01*
X87158571Y-29224137D02*
X87301428Y-29295566D01*
X87301428Y-29295566D02*
X87801428Y-29295566D01*
X85372856Y-29081280D02*
X84801428Y-29081280D01*
X85158571Y-28581280D02*
X85158571Y-29866994D01*
X85158571Y-29866994D02*
X85087142Y-30009852D01*
X85087142Y-30009852D02*
X84944285Y-30081280D01*
X84944285Y-30081280D02*
X84801428Y-30081280D01*
X84087142Y-30081280D02*
X84229999Y-30009852D01*
X84229999Y-30009852D02*
X84301428Y-29938423D01*
X84301428Y-29938423D02*
X84372856Y-29795566D01*
X84372856Y-29795566D02*
X84372856Y-29366994D01*
X84372856Y-29366994D02*
X84301428Y-29224137D01*
X84301428Y-29224137D02*
X84229999Y-29152709D01*
X84229999Y-29152709D02*
X84087142Y-29081280D01*
X84087142Y-29081280D02*
X83872856Y-29081280D01*
X83872856Y-29081280D02*
X83729999Y-29152709D01*
X83729999Y-29152709D02*
X83658571Y-29224137D01*
X83658571Y-29224137D02*
X83587142Y-29366994D01*
X83587142Y-29366994D02*
X83587142Y-29795566D01*
X83587142Y-29795566D02*
X83658571Y-29938423D01*
X83658571Y-29938423D02*
X83729999Y-30009852D01*
X83729999Y-30009852D02*
X83872856Y-30081280D01*
X83872856Y-30081280D02*
X84087142Y-30081280D01*
X90980000Y-32496196D02*
X90980000Y-30996196D01*
X90337143Y-32496196D02*
X90337143Y-31710482D01*
X90337143Y-31710482D02*
X90408571Y-31567625D01*
X90408571Y-31567625D02*
X90551428Y-31496196D01*
X90551428Y-31496196D02*
X90765714Y-31496196D01*
X90765714Y-31496196D02*
X90908571Y-31567625D01*
X90908571Y-31567625D02*
X90980000Y-31639053D01*
X89408571Y-32496196D02*
X89551428Y-32424768D01*
X89551428Y-32424768D02*
X89622857Y-32353339D01*
X89622857Y-32353339D02*
X89694285Y-32210482D01*
X89694285Y-32210482D02*
X89694285Y-31781910D01*
X89694285Y-31781910D02*
X89622857Y-31639053D01*
X89622857Y-31639053D02*
X89551428Y-31567625D01*
X89551428Y-31567625D02*
X89408571Y-31496196D01*
X89408571Y-31496196D02*
X89194285Y-31496196D01*
X89194285Y-31496196D02*
X89051428Y-31567625D01*
X89051428Y-31567625D02*
X88980000Y-31639053D01*
X88980000Y-31639053D02*
X88908571Y-31781910D01*
X88908571Y-31781910D02*
X88908571Y-32210482D01*
X88908571Y-32210482D02*
X88980000Y-32353339D01*
X88980000Y-32353339D02*
X89051428Y-32424768D01*
X89051428Y-32424768D02*
X89194285Y-32496196D01*
X89194285Y-32496196D02*
X89408571Y-32496196D01*
X88337142Y-32424768D02*
X88194285Y-32496196D01*
X88194285Y-32496196D02*
X87908571Y-32496196D01*
X87908571Y-32496196D02*
X87765714Y-32424768D01*
X87765714Y-32424768D02*
X87694285Y-32281910D01*
X87694285Y-32281910D02*
X87694285Y-32210482D01*
X87694285Y-32210482D02*
X87765714Y-32067625D01*
X87765714Y-32067625D02*
X87908571Y-31996196D01*
X87908571Y-31996196D02*
X88122857Y-31996196D01*
X88122857Y-31996196D02*
X88265714Y-31924768D01*
X88265714Y-31924768D02*
X88337142Y-31781910D01*
X88337142Y-31781910D02*
X88337142Y-31710482D01*
X88337142Y-31710482D02*
X88265714Y-31567625D01*
X88265714Y-31567625D02*
X88122857Y-31496196D01*
X88122857Y-31496196D02*
X87908571Y-31496196D01*
X87908571Y-31496196D02*
X87765714Y-31567625D01*
X87265713Y-31496196D02*
X86694285Y-31496196D01*
X87051428Y-30996196D02*
X87051428Y-32281910D01*
X87051428Y-32281910D02*
X86979999Y-32424768D01*
X86979999Y-32424768D02*
X86837142Y-32496196D01*
X86837142Y-32496196D02*
X86694285Y-32496196D01*
X84837142Y-32496196D02*
X84979999Y-32424768D01*
X84979999Y-32424768D02*
X85051428Y-32353339D01*
X85051428Y-32353339D02*
X85122856Y-32210482D01*
X85122856Y-32210482D02*
X85122856Y-31781910D01*
X85122856Y-31781910D02*
X85051428Y-31639053D01*
X85051428Y-31639053D02*
X84979999Y-31567625D01*
X84979999Y-31567625D02*
X84837142Y-31496196D01*
X84837142Y-31496196D02*
X84622856Y-31496196D01*
X84622856Y-31496196D02*
X84479999Y-31567625D01*
X84479999Y-31567625D02*
X84408571Y-31639053D01*
X84408571Y-31639053D02*
X84337142Y-31781910D01*
X84337142Y-31781910D02*
X84337142Y-32210482D01*
X84337142Y-32210482D02*
X84408571Y-32353339D01*
X84408571Y-32353339D02*
X84479999Y-32424768D01*
X84479999Y-32424768D02*
X84622856Y-32496196D01*
X84622856Y-32496196D02*
X84837142Y-32496196D01*
X83694285Y-32496196D02*
X83694285Y-31496196D01*
X83694285Y-31781910D02*
X83622856Y-31639053D01*
X83622856Y-31639053D02*
X83551428Y-31567625D01*
X83551428Y-31567625D02*
X83408570Y-31496196D01*
X83408570Y-31496196D02*
X83265713Y-31496196D01*
X90122857Y-33911112D02*
X90122857Y-35411112D01*
X90122857Y-33982541D02*
X89980000Y-33911112D01*
X89980000Y-33911112D02*
X89694285Y-33911112D01*
X89694285Y-33911112D02*
X89551428Y-33982541D01*
X89551428Y-33982541D02*
X89480000Y-34053969D01*
X89480000Y-34053969D02*
X89408571Y-34196826D01*
X89408571Y-34196826D02*
X89408571Y-34625398D01*
X89408571Y-34625398D02*
X89480000Y-34768255D01*
X89480000Y-34768255D02*
X89551428Y-34839684D01*
X89551428Y-34839684D02*
X89694285Y-34911112D01*
X89694285Y-34911112D02*
X89980000Y-34911112D01*
X89980000Y-34911112D02*
X90122857Y-34839684D01*
X88551428Y-34911112D02*
X88694285Y-34839684D01*
X88694285Y-34839684D02*
X88765714Y-34768255D01*
X88765714Y-34768255D02*
X88837142Y-34625398D01*
X88837142Y-34625398D02*
X88837142Y-34196826D01*
X88837142Y-34196826D02*
X88765714Y-34053969D01*
X88765714Y-34053969D02*
X88694285Y-33982541D01*
X88694285Y-33982541D02*
X88551428Y-33911112D01*
X88551428Y-33911112D02*
X88337142Y-33911112D01*
X88337142Y-33911112D02*
X88194285Y-33982541D01*
X88194285Y-33982541D02*
X88122857Y-34053969D01*
X88122857Y-34053969D02*
X88051428Y-34196826D01*
X88051428Y-34196826D02*
X88051428Y-34625398D01*
X88051428Y-34625398D02*
X88122857Y-34768255D01*
X88122857Y-34768255D02*
X88194285Y-34839684D01*
X88194285Y-34839684D02*
X88337142Y-34911112D01*
X88337142Y-34911112D02*
X88551428Y-34911112D01*
X87551428Y-33911112D02*
X87265714Y-34911112D01*
X87265714Y-34911112D02*
X86979999Y-34196826D01*
X86979999Y-34196826D02*
X86694285Y-34911112D01*
X86694285Y-34911112D02*
X86408571Y-33911112D01*
X85265713Y-34839684D02*
X85408570Y-34911112D01*
X85408570Y-34911112D02*
X85694285Y-34911112D01*
X85694285Y-34911112D02*
X85837142Y-34839684D01*
X85837142Y-34839684D02*
X85908570Y-34696826D01*
X85908570Y-34696826D02*
X85908570Y-34125398D01*
X85908570Y-34125398D02*
X85837142Y-33982541D01*
X85837142Y-33982541D02*
X85694285Y-33911112D01*
X85694285Y-33911112D02*
X85408570Y-33911112D01*
X85408570Y-33911112D02*
X85265713Y-33982541D01*
X85265713Y-33982541D02*
X85194285Y-34125398D01*
X85194285Y-34125398D02*
X85194285Y-34268255D01*
X85194285Y-34268255D02*
X85908570Y-34411112D01*
X84551428Y-34911112D02*
X84551428Y-33911112D01*
X84551428Y-34196826D02*
X84479999Y-34053969D01*
X84479999Y-34053969D02*
X84408571Y-33982541D01*
X84408571Y-33982541D02*
X84265713Y-33911112D01*
X84265713Y-33911112D02*
X84122856Y-33911112D01*
X90551428Y-37254600D02*
X90408571Y-37326028D01*
X90408571Y-37326028D02*
X90122857Y-37326028D01*
X90122857Y-37326028D02*
X89980000Y-37254600D01*
X89980000Y-37254600D02*
X89908571Y-37111742D01*
X89908571Y-37111742D02*
X89908571Y-37040314D01*
X89908571Y-37040314D02*
X89980000Y-36897457D01*
X89980000Y-36897457D02*
X90122857Y-36826028D01*
X90122857Y-36826028D02*
X90337143Y-36826028D01*
X90337143Y-36826028D02*
X90480000Y-36754600D01*
X90480000Y-36754600D02*
X90551428Y-36611742D01*
X90551428Y-36611742D02*
X90551428Y-36540314D01*
X90551428Y-36540314D02*
X90480000Y-36397457D01*
X90480000Y-36397457D02*
X90337143Y-36326028D01*
X90337143Y-36326028D02*
X90122857Y-36326028D01*
X90122857Y-36326028D02*
X89980000Y-36397457D01*
X88622857Y-36326028D02*
X88622857Y-37326028D01*
X89265714Y-36326028D02*
X89265714Y-37111742D01*
X89265714Y-37111742D02*
X89194285Y-37254600D01*
X89194285Y-37254600D02*
X89051428Y-37326028D01*
X89051428Y-37326028D02*
X88837142Y-37326028D01*
X88837142Y-37326028D02*
X88694285Y-37254600D01*
X88694285Y-37254600D02*
X88622857Y-37183171D01*
X87908571Y-36326028D02*
X87908571Y-37826028D01*
X87908571Y-36397457D02*
X87765714Y-36326028D01*
X87765714Y-36326028D02*
X87479999Y-36326028D01*
X87479999Y-36326028D02*
X87337142Y-36397457D01*
X87337142Y-36397457D02*
X87265714Y-36468885D01*
X87265714Y-36468885D02*
X87194285Y-36611742D01*
X87194285Y-36611742D02*
X87194285Y-37040314D01*
X87194285Y-37040314D02*
X87265714Y-37183171D01*
X87265714Y-37183171D02*
X87337142Y-37254600D01*
X87337142Y-37254600D02*
X87479999Y-37326028D01*
X87479999Y-37326028D02*
X87765714Y-37326028D01*
X87765714Y-37326028D02*
X87908571Y-37254600D01*
X86551428Y-36326028D02*
X86551428Y-37826028D01*
X86551428Y-36397457D02*
X86408571Y-36326028D01*
X86408571Y-36326028D02*
X86122856Y-36326028D01*
X86122856Y-36326028D02*
X85979999Y-36397457D01*
X85979999Y-36397457D02*
X85908571Y-36468885D01*
X85908571Y-36468885D02*
X85837142Y-36611742D01*
X85837142Y-36611742D02*
X85837142Y-37040314D01*
X85837142Y-37040314D02*
X85908571Y-37183171D01*
X85908571Y-37183171D02*
X85979999Y-37254600D01*
X85979999Y-37254600D02*
X86122856Y-37326028D01*
X86122856Y-37326028D02*
X86408571Y-37326028D01*
X86408571Y-37326028D02*
X86551428Y-37254600D01*
X84979999Y-37326028D02*
X85122856Y-37254600D01*
X85122856Y-37254600D02*
X85194285Y-37111742D01*
X85194285Y-37111742D02*
X85194285Y-35826028D01*
X84551428Y-36326028D02*
X84194285Y-37326028D01*
X83837142Y-36326028D02*
X84194285Y-37326028D01*
X84194285Y-37326028D02*
X84337142Y-37683171D01*
X84337142Y-37683171D02*
X84408571Y-37754600D01*
X84408571Y-37754600D02*
X84551428Y-37826028D01*
X197571428Y-28426196D02*
X197571428Y-29640482D01*
X197571428Y-29640482D02*
X197499999Y-29783339D01*
X197499999Y-29783339D02*
X197428571Y-29854768D01*
X197428571Y-29854768D02*
X197285713Y-29926196D01*
X197285713Y-29926196D02*
X196999999Y-29926196D01*
X196999999Y-29926196D02*
X196857142Y-29854768D01*
X196857142Y-29854768D02*
X196785713Y-29783339D01*
X196785713Y-29783339D02*
X196714285Y-29640482D01*
X196714285Y-29640482D02*
X196714285Y-28426196D01*
X196071427Y-29854768D02*
X195857142Y-29926196D01*
X195857142Y-29926196D02*
X195499999Y-29926196D01*
X195499999Y-29926196D02*
X195357142Y-29854768D01*
X195357142Y-29854768D02*
X195285713Y-29783339D01*
X195285713Y-29783339D02*
X195214284Y-29640482D01*
X195214284Y-29640482D02*
X195214284Y-29497625D01*
X195214284Y-29497625D02*
X195285713Y-29354768D01*
X195285713Y-29354768D02*
X195357142Y-29283339D01*
X195357142Y-29283339D02*
X195499999Y-29211910D01*
X195499999Y-29211910D02*
X195785713Y-29140482D01*
X195785713Y-29140482D02*
X195928570Y-29069053D01*
X195928570Y-29069053D02*
X195999999Y-28997625D01*
X195999999Y-28997625D02*
X196071427Y-28854768D01*
X196071427Y-28854768D02*
X196071427Y-28711910D01*
X196071427Y-28711910D02*
X195999999Y-28569053D01*
X195999999Y-28569053D02*
X195928570Y-28497625D01*
X195928570Y-28497625D02*
X195785713Y-28426196D01*
X195785713Y-28426196D02*
X195428570Y-28426196D01*
X195428570Y-28426196D02*
X195214284Y-28497625D01*
X194071428Y-29140482D02*
X193857142Y-29211910D01*
X193857142Y-29211910D02*
X193785713Y-29283339D01*
X193785713Y-29283339D02*
X193714285Y-29426196D01*
X193714285Y-29426196D02*
X193714285Y-29640482D01*
X193714285Y-29640482D02*
X193785713Y-29783339D01*
X193785713Y-29783339D02*
X193857142Y-29854768D01*
X193857142Y-29854768D02*
X193999999Y-29926196D01*
X193999999Y-29926196D02*
X194571428Y-29926196D01*
X194571428Y-29926196D02*
X194571428Y-28426196D01*
X194571428Y-28426196D02*
X194071428Y-28426196D01*
X194071428Y-28426196D02*
X193928571Y-28497625D01*
X193928571Y-28497625D02*
X193857142Y-28569053D01*
X193857142Y-28569053D02*
X193785713Y-28711910D01*
X193785713Y-28711910D02*
X193785713Y-28854768D01*
X193785713Y-28854768D02*
X193857142Y-28997625D01*
X193857142Y-28997625D02*
X193928571Y-29069053D01*
X193928571Y-29069053D02*
X194071428Y-29140482D01*
X194071428Y-29140482D02*
X194571428Y-29140482D01*
X192142856Y-28926196D02*
X191571428Y-28926196D01*
X191928571Y-28426196D02*
X191928571Y-29711910D01*
X191928571Y-29711910D02*
X191857142Y-29854768D01*
X191857142Y-29854768D02*
X191714285Y-29926196D01*
X191714285Y-29926196D02*
X191571428Y-29926196D01*
X190857142Y-29926196D02*
X190999999Y-29854768D01*
X190999999Y-29854768D02*
X191071428Y-29783339D01*
X191071428Y-29783339D02*
X191142856Y-29640482D01*
X191142856Y-29640482D02*
X191142856Y-29211910D01*
X191142856Y-29211910D02*
X191071428Y-29069053D01*
X191071428Y-29069053D02*
X190999999Y-28997625D01*
X190999999Y-28997625D02*
X190857142Y-28926196D01*
X190857142Y-28926196D02*
X190642856Y-28926196D01*
X190642856Y-28926196D02*
X190499999Y-28997625D01*
X190499999Y-28997625D02*
X190428571Y-29069053D01*
X190428571Y-29069053D02*
X190357142Y-29211910D01*
X190357142Y-29211910D02*
X190357142Y-29640482D01*
X190357142Y-29640482D02*
X190428571Y-29783339D01*
X190428571Y-29783339D02*
X190499999Y-29854768D01*
X190499999Y-29854768D02*
X190642856Y-29926196D01*
X190642856Y-29926196D02*
X190857142Y-29926196D01*
X197392857Y-32341112D02*
X197392857Y-30841112D01*
X196750000Y-32341112D02*
X196750000Y-31555398D01*
X196750000Y-31555398D02*
X196821428Y-31412541D01*
X196821428Y-31412541D02*
X196964285Y-31341112D01*
X196964285Y-31341112D02*
X197178571Y-31341112D01*
X197178571Y-31341112D02*
X197321428Y-31412541D01*
X197321428Y-31412541D02*
X197392857Y-31483969D01*
X195392857Y-31341112D02*
X195392857Y-32341112D01*
X196035714Y-31341112D02*
X196035714Y-32126826D01*
X196035714Y-32126826D02*
X195964285Y-32269684D01*
X195964285Y-32269684D02*
X195821428Y-32341112D01*
X195821428Y-32341112D02*
X195607142Y-32341112D01*
X195607142Y-32341112D02*
X195464285Y-32269684D01*
X195464285Y-32269684D02*
X195392857Y-32198255D01*
X194678571Y-32341112D02*
X194678571Y-30841112D01*
X194678571Y-31412541D02*
X194535714Y-31341112D01*
X194535714Y-31341112D02*
X194249999Y-31341112D01*
X194249999Y-31341112D02*
X194107142Y-31412541D01*
X194107142Y-31412541D02*
X194035714Y-31483969D01*
X194035714Y-31483969D02*
X193964285Y-31626826D01*
X193964285Y-31626826D02*
X193964285Y-32055398D01*
X193964285Y-32055398D02*
X194035714Y-32198255D01*
X194035714Y-32198255D02*
X194107142Y-32269684D01*
X194107142Y-32269684D02*
X194249999Y-32341112D01*
X194249999Y-32341112D02*
X194535714Y-32341112D01*
X194535714Y-32341112D02*
X194678571Y-32269684D01*
X191964285Y-32341112D02*
X192107142Y-32269684D01*
X192107142Y-32269684D02*
X192178571Y-32198255D01*
X192178571Y-32198255D02*
X192249999Y-32055398D01*
X192249999Y-32055398D02*
X192249999Y-31626826D01*
X192249999Y-31626826D02*
X192178571Y-31483969D01*
X192178571Y-31483969D02*
X192107142Y-31412541D01*
X192107142Y-31412541D02*
X191964285Y-31341112D01*
X191964285Y-31341112D02*
X191749999Y-31341112D01*
X191749999Y-31341112D02*
X191607142Y-31412541D01*
X191607142Y-31412541D02*
X191535714Y-31483969D01*
X191535714Y-31483969D02*
X191464285Y-31626826D01*
X191464285Y-31626826D02*
X191464285Y-32055398D01*
X191464285Y-32055398D02*
X191535714Y-32198255D01*
X191535714Y-32198255D02*
X191607142Y-32269684D01*
X191607142Y-32269684D02*
X191749999Y-32341112D01*
X191749999Y-32341112D02*
X191964285Y-32341112D01*
X190821428Y-32341112D02*
X190821428Y-31341112D01*
X190821428Y-31626826D02*
X190749999Y-31483969D01*
X190749999Y-31483969D02*
X190678571Y-31412541D01*
X190678571Y-31412541D02*
X190535713Y-31341112D01*
X190535713Y-31341112D02*
X190392856Y-31341112D01*
X196535714Y-34756028D02*
X196535714Y-33256028D01*
X196535714Y-34684600D02*
X196678571Y-34756028D01*
X196678571Y-34756028D02*
X196964285Y-34756028D01*
X196964285Y-34756028D02*
X197107142Y-34684600D01*
X197107142Y-34684600D02*
X197178571Y-34613171D01*
X197178571Y-34613171D02*
X197249999Y-34470314D01*
X197249999Y-34470314D02*
X197249999Y-34041742D01*
X197249999Y-34041742D02*
X197178571Y-33898885D01*
X197178571Y-33898885D02*
X197107142Y-33827457D01*
X197107142Y-33827457D02*
X196964285Y-33756028D01*
X196964285Y-33756028D02*
X196678571Y-33756028D01*
X196678571Y-33756028D02*
X196535714Y-33827457D01*
X195249999Y-34684600D02*
X195392856Y-34756028D01*
X195392856Y-34756028D02*
X195678571Y-34756028D01*
X195678571Y-34756028D02*
X195821428Y-34684600D01*
X195821428Y-34684600D02*
X195892856Y-34541742D01*
X195892856Y-34541742D02*
X195892856Y-33970314D01*
X195892856Y-33970314D02*
X195821428Y-33827457D01*
X195821428Y-33827457D02*
X195678571Y-33756028D01*
X195678571Y-33756028D02*
X195392856Y-33756028D01*
X195392856Y-33756028D02*
X195249999Y-33827457D01*
X195249999Y-33827457D02*
X195178571Y-33970314D01*
X195178571Y-33970314D02*
X195178571Y-34113171D01*
X195178571Y-34113171D02*
X195892856Y-34256028D01*
X194678571Y-33756028D02*
X194321428Y-34756028D01*
X194321428Y-34756028D02*
X193964285Y-33756028D01*
X193392857Y-34756028D02*
X193392857Y-33756028D01*
X193392857Y-33256028D02*
X193464285Y-33327457D01*
X193464285Y-33327457D02*
X193392857Y-33398885D01*
X193392857Y-33398885D02*
X193321428Y-33327457D01*
X193321428Y-33327457D02*
X193392857Y-33256028D01*
X193392857Y-33256028D02*
X193392857Y-33398885D01*
X192035714Y-34684600D02*
X192178571Y-34756028D01*
X192178571Y-34756028D02*
X192464285Y-34756028D01*
X192464285Y-34756028D02*
X192607142Y-34684600D01*
X192607142Y-34684600D02*
X192678571Y-34613171D01*
X192678571Y-34613171D02*
X192749999Y-34470314D01*
X192749999Y-34470314D02*
X192749999Y-34041742D01*
X192749999Y-34041742D02*
X192678571Y-33898885D01*
X192678571Y-33898885D02*
X192607142Y-33827457D01*
X192607142Y-33827457D02*
X192464285Y-33756028D01*
X192464285Y-33756028D02*
X192178571Y-33756028D01*
X192178571Y-33756028D02*
X192035714Y-33827457D01*
X190821428Y-34684600D02*
X190964285Y-34756028D01*
X190964285Y-34756028D02*
X191250000Y-34756028D01*
X191250000Y-34756028D02*
X191392857Y-34684600D01*
X191392857Y-34684600D02*
X191464285Y-34541742D01*
X191464285Y-34541742D02*
X191464285Y-33970314D01*
X191464285Y-33970314D02*
X191392857Y-33827457D01*
X191392857Y-33827457D02*
X191250000Y-33756028D01*
X191250000Y-33756028D02*
X190964285Y-33756028D01*
X190964285Y-33756028D02*
X190821428Y-33827457D01*
X190821428Y-33827457D02*
X190750000Y-33970314D01*
X190750000Y-33970314D02*
X190750000Y-34113171D01*
X190750000Y-34113171D02*
X191464285Y-34256028D01*
D11*
X118622366Y-87906304D02*
X118027128Y-89239638D01*
X118027128Y-89239638D02*
X117431889Y-87906304D01*
X116479508Y-89239638D02*
X116479508Y-87906304D01*
X116479508Y-88287257D02*
X116360461Y-88096780D01*
X116360461Y-88096780D02*
X116241413Y-88001542D01*
X116241413Y-88001542D02*
X116003318Y-87906304D01*
X116003318Y-87906304D02*
X115765223Y-87906304D01*
X113860461Y-87239638D02*
X114336651Y-87239638D01*
X114336651Y-87239638D02*
X114574747Y-87334876D01*
X114574747Y-87334876D02*
X114693794Y-87430114D01*
X114693794Y-87430114D02*
X114931889Y-87715828D01*
X114931889Y-87715828D02*
X115050937Y-88096780D01*
X115050937Y-88096780D02*
X115050937Y-88858685D01*
X115050937Y-88858685D02*
X114931889Y-89049161D01*
X114931889Y-89049161D02*
X114812842Y-89144400D01*
X114812842Y-89144400D02*
X114574747Y-89239638D01*
X114574747Y-89239638D02*
X114098556Y-89239638D01*
X114098556Y-89239638D02*
X113860461Y-89144400D01*
X113860461Y-89144400D02*
X113741413Y-89049161D01*
X113741413Y-89049161D02*
X113622366Y-88858685D01*
X113622366Y-88858685D02*
X113622366Y-88382495D01*
X113622366Y-88382495D02*
X113741413Y-88192019D01*
X113741413Y-88192019D02*
X113860461Y-88096780D01*
X113860461Y-88096780D02*
X114098556Y-88001542D01*
X114098556Y-88001542D02*
X114574747Y-88001542D01*
X114574747Y-88001542D02*
X114812842Y-88096780D01*
X114812842Y-88096780D02*
X114931889Y-88192019D01*
X114931889Y-88192019D02*
X115050937Y-88382495D01*
X111360461Y-87239638D02*
X112550937Y-87239638D01*
X112550937Y-87239638D02*
X112669985Y-88192019D01*
X112669985Y-88192019D02*
X112550937Y-88096780D01*
X112550937Y-88096780D02*
X112312842Y-88001542D01*
X112312842Y-88001542D02*
X111717604Y-88001542D01*
X111717604Y-88001542D02*
X111479509Y-88096780D01*
X111479509Y-88096780D02*
X111360461Y-88192019D01*
X111360461Y-88192019D02*
X111241414Y-88382495D01*
X111241414Y-88382495D02*
X111241414Y-88858685D01*
X111241414Y-88858685D02*
X111360461Y-89049161D01*
X111360461Y-89049161D02*
X111479509Y-89144400D01*
X111479509Y-89144400D02*
X111717604Y-89239638D01*
X111717604Y-89239638D02*
X112312842Y-89239638D01*
X112312842Y-89239638D02*
X112550937Y-89144400D01*
X112550937Y-89144400D02*
X112669985Y-89049161D01*
X109812843Y-88096780D02*
X110050938Y-88001542D01*
X110050938Y-88001542D02*
X110169985Y-87906304D01*
X110169985Y-87906304D02*
X110289033Y-87715828D01*
X110289033Y-87715828D02*
X110289033Y-87620590D01*
X110289033Y-87620590D02*
X110169985Y-87430114D01*
X110169985Y-87430114D02*
X110050938Y-87334876D01*
X110050938Y-87334876D02*
X109812843Y-87239638D01*
X109812843Y-87239638D02*
X109336652Y-87239638D01*
X109336652Y-87239638D02*
X109098557Y-87334876D01*
X109098557Y-87334876D02*
X108979509Y-87430114D01*
X108979509Y-87430114D02*
X108860462Y-87620590D01*
X108860462Y-87620590D02*
X108860462Y-87715828D01*
X108860462Y-87715828D02*
X108979509Y-87906304D01*
X108979509Y-87906304D02*
X109098557Y-88001542D01*
X109098557Y-88001542D02*
X109336652Y-88096780D01*
X109336652Y-88096780D02*
X109812843Y-88096780D01*
X109812843Y-88096780D02*
X110050938Y-88192019D01*
X110050938Y-88192019D02*
X110169985Y-88287257D01*
X110169985Y-88287257D02*
X110289033Y-88477733D01*
X110289033Y-88477733D02*
X110289033Y-88858685D01*
X110289033Y-88858685D02*
X110169985Y-89049161D01*
X110169985Y-89049161D02*
X110050938Y-89144400D01*
X110050938Y-89144400D02*
X109812843Y-89239638D01*
X109812843Y-89239638D02*
X109336652Y-89239638D01*
X109336652Y-89239638D02*
X109098557Y-89144400D01*
X109098557Y-89144400D02*
X108979509Y-89049161D01*
X108979509Y-89049161D02*
X108860462Y-88858685D01*
X108860462Y-88858685D02*
X108860462Y-88477733D01*
X108860462Y-88477733D02*
X108979509Y-88287257D01*
X108979509Y-88287257D02*
X109098557Y-88192019D01*
X109098557Y-88192019D02*
X109336652Y-88096780D01*
X106479510Y-89239638D02*
X107908081Y-89239638D01*
X107193795Y-89239638D02*
X107193795Y-87239638D01*
X107193795Y-87239638D02*
X107431891Y-87525352D01*
X107431891Y-87525352D02*
X107669986Y-87715828D01*
X107669986Y-87715828D02*
X107908081Y-87811066D01*
X104336653Y-87239638D02*
X104812843Y-87239638D01*
X104812843Y-87239638D02*
X105050939Y-87334876D01*
X105050939Y-87334876D02*
X105169986Y-87430114D01*
X105169986Y-87430114D02*
X105408081Y-87715828D01*
X105408081Y-87715828D02*
X105527129Y-88096780D01*
X105527129Y-88096780D02*
X105527129Y-88858685D01*
X105527129Y-88858685D02*
X105408081Y-89049161D01*
X105408081Y-89049161D02*
X105289034Y-89144400D01*
X105289034Y-89144400D02*
X105050939Y-89239638D01*
X105050939Y-89239638D02*
X104574748Y-89239638D01*
X104574748Y-89239638D02*
X104336653Y-89144400D01*
X104336653Y-89144400D02*
X104217605Y-89049161D01*
X104217605Y-89049161D02*
X104098558Y-88858685D01*
X104098558Y-88858685D02*
X104098558Y-88382495D01*
X104098558Y-88382495D02*
X104217605Y-88192019D01*
X104217605Y-88192019D02*
X104336653Y-88096780D01*
X104336653Y-88096780D02*
X104574748Y-88001542D01*
X104574748Y-88001542D02*
X105050939Y-88001542D01*
X105050939Y-88001542D02*
X105289034Y-88096780D01*
X105289034Y-88096780D02*
X105408081Y-88192019D01*
X105408081Y-88192019D02*
X105527129Y-88382495D01*
X117134272Y-93439638D02*
X117967605Y-92487257D01*
X118562843Y-93439638D02*
X118562843Y-91439638D01*
X118562843Y-91439638D02*
X117610462Y-91439638D01*
X117610462Y-91439638D02*
X117372367Y-91534876D01*
X117372367Y-91534876D02*
X117253320Y-91630114D01*
X117253320Y-91630114D02*
X117134272Y-91820590D01*
X117134272Y-91820590D02*
X117134272Y-92106304D01*
X117134272Y-92106304D02*
X117253320Y-92296780D01*
X117253320Y-92296780D02*
X117372367Y-92392019D01*
X117372367Y-92392019D02*
X117610462Y-92487257D01*
X117610462Y-92487257D02*
X118562843Y-92487257D01*
X115110462Y-93344400D02*
X115348558Y-93439638D01*
X115348558Y-93439638D02*
X115824748Y-93439638D01*
X115824748Y-93439638D02*
X116062843Y-93344400D01*
X116062843Y-93344400D02*
X116181891Y-93153923D01*
X116181891Y-93153923D02*
X116181891Y-92392019D01*
X116181891Y-92392019D02*
X116062843Y-92201542D01*
X116062843Y-92201542D02*
X115824748Y-92106304D01*
X115824748Y-92106304D02*
X115348558Y-92106304D01*
X115348558Y-92106304D02*
X115110462Y-92201542D01*
X115110462Y-92201542D02*
X114991415Y-92392019D01*
X114991415Y-92392019D02*
X114991415Y-92582495D01*
X114991415Y-92582495D02*
X116181891Y-92772971D01*
X114158082Y-92106304D02*
X113562844Y-93439638D01*
X113562844Y-93439638D02*
X112967605Y-92106304D01*
X112015224Y-93249161D02*
X111896177Y-93344400D01*
X111896177Y-93344400D02*
X112015224Y-93439638D01*
X112015224Y-93439638D02*
X112134272Y-93344400D01*
X112134272Y-93344400D02*
X112015224Y-93249161D01*
X112015224Y-93249161D02*
X112015224Y-93439638D01*
X109039034Y-92868209D02*
X107848558Y-92868209D01*
X109277129Y-93439638D02*
X108443796Y-91439638D01*
X108443796Y-91439638D02*
X107610463Y-93439638D01*
D10*
X129021028Y-76480000D02*
X129021028Y-75622857D01*
X129021028Y-76051428D02*
X127521028Y-76051428D01*
X127521028Y-76051428D02*
X127735314Y-75908571D01*
X127735314Y-75908571D02*
X127878171Y-75765714D01*
X127878171Y-75765714D02*
X127949600Y-75622857D01*
X128878171Y-77122856D02*
X128949600Y-77194285D01*
X128949600Y-77194285D02*
X129021028Y-77122856D01*
X129021028Y-77122856D02*
X128949600Y-77051428D01*
X128949600Y-77051428D02*
X128878171Y-77122856D01*
X128878171Y-77122856D02*
X129021028Y-77122856D01*
X128163885Y-78051428D02*
X128092457Y-77908571D01*
X128092457Y-77908571D02*
X128021028Y-77837142D01*
X128021028Y-77837142D02*
X127878171Y-77765714D01*
X127878171Y-77765714D02*
X127806742Y-77765714D01*
X127806742Y-77765714D02*
X127663885Y-77837142D01*
X127663885Y-77837142D02*
X127592457Y-77908571D01*
X127592457Y-77908571D02*
X127521028Y-78051428D01*
X127521028Y-78051428D02*
X127521028Y-78337142D01*
X127521028Y-78337142D02*
X127592457Y-78480000D01*
X127592457Y-78480000D02*
X127663885Y-78551428D01*
X127663885Y-78551428D02*
X127806742Y-78622857D01*
X127806742Y-78622857D02*
X127878171Y-78622857D01*
X127878171Y-78622857D02*
X128021028Y-78551428D01*
X128021028Y-78551428D02*
X128092457Y-78480000D01*
X128092457Y-78480000D02*
X128163885Y-78337142D01*
X128163885Y-78337142D02*
X128163885Y-78051428D01*
X128163885Y-78051428D02*
X128235314Y-77908571D01*
X128235314Y-77908571D02*
X128306742Y-77837142D01*
X128306742Y-77837142D02*
X128449600Y-77765714D01*
X128449600Y-77765714D02*
X128735314Y-77765714D01*
X128735314Y-77765714D02*
X128878171Y-77837142D01*
X128878171Y-77837142D02*
X128949600Y-77908571D01*
X128949600Y-77908571D02*
X129021028Y-78051428D01*
X129021028Y-78051428D02*
X129021028Y-78337142D01*
X129021028Y-78337142D02*
X128949600Y-78480000D01*
X128949600Y-78480000D02*
X128878171Y-78551428D01*
X128878171Y-78551428D02*
X128735314Y-78622857D01*
X128735314Y-78622857D02*
X128449600Y-78622857D01*
X128449600Y-78622857D02*
X128306742Y-78551428D01*
X128306742Y-78551428D02*
X128235314Y-78480000D01*
X128235314Y-78480000D02*
X128163885Y-78337142D01*
X129021028Y-79265713D02*
X127521028Y-79265713D01*
X128449600Y-79408571D02*
X129021028Y-79837142D01*
X128021028Y-79837142D02*
X128592457Y-79265713D01*
X163641028Y-59838929D02*
X163641028Y-58981786D01*
X163641028Y-59410357D02*
X162141028Y-59410357D01*
X162141028Y-59410357D02*
X162355314Y-59267500D01*
X162355314Y-59267500D02*
X162498171Y-59124643D01*
X162498171Y-59124643D02*
X162569600Y-58981786D01*
X163641028Y-60481785D02*
X162141028Y-60481785D01*
X163069600Y-60624643D02*
X163641028Y-61053214D01*
X162641028Y-61053214D02*
X163212457Y-60481785D01*
X173929778Y-95468751D02*
X173929778Y-96468751D01*
X173929778Y-96468751D02*
X175429778Y-95825894D01*
X174429778Y-97683037D02*
X175429778Y-97683037D01*
X173858350Y-97325894D02*
X174929778Y-96968751D01*
X174929778Y-96968751D02*
X174929778Y-97897322D01*
X175001207Y-98397322D02*
X175001207Y-99111608D01*
X175429778Y-98254465D02*
X173929778Y-98754465D01*
X173929778Y-98754465D02*
X175429778Y-99254465D01*
X175286921Y-100611607D02*
X175358350Y-100540179D01*
X175358350Y-100540179D02*
X175429778Y-100325893D01*
X175429778Y-100325893D02*
X175429778Y-100183036D01*
X175429778Y-100183036D02*
X175358350Y-99968750D01*
X175358350Y-99968750D02*
X175215492Y-99825893D01*
X175215492Y-99825893D02*
X175072635Y-99754464D01*
X175072635Y-99754464D02*
X174786921Y-99683036D01*
X174786921Y-99683036D02*
X174572635Y-99683036D01*
X174572635Y-99683036D02*
X174286921Y-99754464D01*
X174286921Y-99754464D02*
X174144064Y-99825893D01*
X174144064Y-99825893D02*
X174001207Y-99968750D01*
X174001207Y-99968750D02*
X173929778Y-100183036D01*
X173929778Y-100183036D02*
X173929778Y-100325893D01*
X173929778Y-100325893D02*
X174001207Y-100540179D01*
X174001207Y-100540179D02*
X174072635Y-100611607D01*
X174072635Y-101183036D02*
X174001207Y-101254464D01*
X174001207Y-101254464D02*
X173929778Y-101397322D01*
X173929778Y-101397322D02*
X173929778Y-101754464D01*
X173929778Y-101754464D02*
X174001207Y-101897322D01*
X174001207Y-101897322D02*
X174072635Y-101968750D01*
X174072635Y-101968750D02*
X174215492Y-102040179D01*
X174215492Y-102040179D02*
X174358350Y-102040179D01*
X174358350Y-102040179D02*
X174572635Y-101968750D01*
X174572635Y-101968750D02*
X175429778Y-101111607D01*
X175429778Y-101111607D02*
X175429778Y-102040179D01*
X174429778Y-103325893D02*
X175429778Y-103325893D01*
X173858350Y-102968750D02*
X174929778Y-102611607D01*
X174929778Y-102611607D02*
X174929778Y-103540178D01*
X173929778Y-104825892D02*
X173929778Y-104111606D01*
X173929778Y-104111606D02*
X174644064Y-104040178D01*
X174644064Y-104040178D02*
X174572635Y-104111606D01*
X174572635Y-104111606D02*
X174501207Y-104254464D01*
X174501207Y-104254464D02*
X174501207Y-104611606D01*
X174501207Y-104611606D02*
X174572635Y-104754464D01*
X174572635Y-104754464D02*
X174644064Y-104825892D01*
X174644064Y-104825892D02*
X174786921Y-104897321D01*
X174786921Y-104897321D02*
X175144064Y-104897321D01*
X175144064Y-104897321D02*
X175286921Y-104825892D01*
X175286921Y-104825892D02*
X175358350Y-104754464D01*
X175358350Y-104754464D02*
X175429778Y-104611606D01*
X175429778Y-104611606D02*
X175429778Y-104254464D01*
X175429778Y-104254464D02*
X175358350Y-104111606D01*
X175358350Y-104111606D02*
X175286921Y-104040178D01*
X165816028Y-58874644D02*
X166816028Y-58874644D01*
X165244600Y-58517501D02*
X166316028Y-58160358D01*
X166316028Y-58160358D02*
X166316028Y-59088929D01*
X166816028Y-59731786D02*
X166816028Y-60017500D01*
X166816028Y-60017500D02*
X166744600Y-60160357D01*
X166744600Y-60160357D02*
X166673171Y-60231786D01*
X166673171Y-60231786D02*
X166458885Y-60374643D01*
X166458885Y-60374643D02*
X166173171Y-60446072D01*
X166173171Y-60446072D02*
X165601742Y-60446072D01*
X165601742Y-60446072D02*
X165458885Y-60374643D01*
X165458885Y-60374643D02*
X165387457Y-60303215D01*
X165387457Y-60303215D02*
X165316028Y-60160357D01*
X165316028Y-60160357D02*
X165316028Y-59874643D01*
X165316028Y-59874643D02*
X165387457Y-59731786D01*
X165387457Y-59731786D02*
X165458885Y-59660357D01*
X165458885Y-59660357D02*
X165601742Y-59588929D01*
X165601742Y-59588929D02*
X165958885Y-59588929D01*
X165958885Y-59588929D02*
X166101742Y-59660357D01*
X166101742Y-59660357D02*
X166173171Y-59731786D01*
X166173171Y-59731786D02*
X166244600Y-59874643D01*
X166244600Y-59874643D02*
X166244600Y-60160357D01*
X166244600Y-60160357D02*
X166173171Y-60303215D01*
X166173171Y-60303215D02*
X166101742Y-60374643D01*
X166101742Y-60374643D02*
X165958885Y-60446072D01*
X166816028Y-61160357D02*
X166816028Y-61446071D01*
X166816028Y-61446071D02*
X166744600Y-61588928D01*
X166744600Y-61588928D02*
X166673171Y-61660357D01*
X166673171Y-61660357D02*
X166458885Y-61803214D01*
X166458885Y-61803214D02*
X166173171Y-61874643D01*
X166173171Y-61874643D02*
X165601742Y-61874643D01*
X165601742Y-61874643D02*
X165458885Y-61803214D01*
X165458885Y-61803214D02*
X165387457Y-61731786D01*
X165387457Y-61731786D02*
X165316028Y-61588928D01*
X165316028Y-61588928D02*
X165316028Y-61303214D01*
X165316028Y-61303214D02*
X165387457Y-61160357D01*
X165387457Y-61160357D02*
X165458885Y-61088928D01*
X165458885Y-61088928D02*
X165601742Y-61017500D01*
X165601742Y-61017500D02*
X165958885Y-61017500D01*
X165958885Y-61017500D02*
X166101742Y-61088928D01*
X166101742Y-61088928D02*
X166173171Y-61160357D01*
X166173171Y-61160357D02*
X166244600Y-61303214D01*
X166244600Y-61303214D02*
X166244600Y-61588928D01*
X166244600Y-61588928D02*
X166173171Y-61731786D01*
X166173171Y-61731786D02*
X166101742Y-61803214D01*
X166101742Y-61803214D02*
X165958885Y-61874643D01*
X143201385Y-76684286D02*
X143129957Y-76755714D01*
X143129957Y-76755714D02*
X143058528Y-76898572D01*
X143058528Y-76898572D02*
X143058528Y-77255714D01*
X143058528Y-77255714D02*
X143129957Y-77398572D01*
X143129957Y-77398572D02*
X143201385Y-77470000D01*
X143201385Y-77470000D02*
X143344242Y-77541429D01*
X143344242Y-77541429D02*
X143487100Y-77541429D01*
X143487100Y-77541429D02*
X143701385Y-77470000D01*
X143701385Y-77470000D02*
X144558528Y-76612857D01*
X144558528Y-76612857D02*
X144558528Y-77541429D01*
X144558528Y-78184285D02*
X143058528Y-78184285D01*
X143987100Y-78327143D02*
X144558528Y-78755714D01*
X143558528Y-78755714D02*
X144129957Y-78184285D01*
X124466028Y-57810358D02*
X125466028Y-57810358D01*
X123894600Y-57453215D02*
X124966028Y-57096072D01*
X124966028Y-57096072D02*
X124966028Y-58024643D01*
X125323171Y-58596071D02*
X125394600Y-58667500D01*
X125394600Y-58667500D02*
X125466028Y-58596071D01*
X125466028Y-58596071D02*
X125394600Y-58524643D01*
X125394600Y-58524643D02*
X125323171Y-58596071D01*
X125323171Y-58596071D02*
X125466028Y-58596071D01*
X123966028Y-59596072D02*
X123966028Y-59738929D01*
X123966028Y-59738929D02*
X124037457Y-59881786D01*
X124037457Y-59881786D02*
X124108885Y-59953215D01*
X124108885Y-59953215D02*
X124251742Y-60024643D01*
X124251742Y-60024643D02*
X124537457Y-60096072D01*
X124537457Y-60096072D02*
X124894600Y-60096072D01*
X124894600Y-60096072D02*
X125180314Y-60024643D01*
X125180314Y-60024643D02*
X125323171Y-59953215D01*
X125323171Y-59953215D02*
X125394600Y-59881786D01*
X125394600Y-59881786D02*
X125466028Y-59738929D01*
X125466028Y-59738929D02*
X125466028Y-59596072D01*
X125466028Y-59596072D02*
X125394600Y-59453215D01*
X125394600Y-59453215D02*
X125323171Y-59381786D01*
X125323171Y-59381786D02*
X125180314Y-59310357D01*
X125180314Y-59310357D02*
X124894600Y-59238929D01*
X124894600Y-59238929D02*
X124537457Y-59238929D01*
X124537457Y-59238929D02*
X124251742Y-59310357D01*
X124251742Y-59310357D02*
X124108885Y-59381786D01*
X124108885Y-59381786D02*
X124037457Y-59453215D01*
X124037457Y-59453215D02*
X123966028Y-59596072D01*
X124108885Y-60667500D02*
X124037457Y-60738928D01*
X124037457Y-60738928D02*
X123966028Y-60881786D01*
X123966028Y-60881786D02*
X123966028Y-61238928D01*
X123966028Y-61238928D02*
X124037457Y-61381786D01*
X124037457Y-61381786D02*
X124108885Y-61453214D01*
X124108885Y-61453214D02*
X124251742Y-61524643D01*
X124251742Y-61524643D02*
X124394600Y-61524643D01*
X124394600Y-61524643D02*
X124608885Y-61453214D01*
X124608885Y-61453214D02*
X125466028Y-60596071D01*
X125466028Y-60596071D02*
X125466028Y-61524643D01*
X125466028Y-62167499D02*
X123966028Y-62167499D01*
X124894600Y-62310357D02*
X125466028Y-62738928D01*
X124466028Y-62738928D02*
X125037457Y-62167499D01*
X133991028Y-58774644D02*
X134991028Y-58774644D01*
X133419600Y-58417501D02*
X134491028Y-58060358D01*
X134491028Y-58060358D02*
X134491028Y-58988929D01*
X134991028Y-59631786D02*
X134991028Y-59917500D01*
X134991028Y-59917500D02*
X134919600Y-60060357D01*
X134919600Y-60060357D02*
X134848171Y-60131786D01*
X134848171Y-60131786D02*
X134633885Y-60274643D01*
X134633885Y-60274643D02*
X134348171Y-60346072D01*
X134348171Y-60346072D02*
X133776742Y-60346072D01*
X133776742Y-60346072D02*
X133633885Y-60274643D01*
X133633885Y-60274643D02*
X133562457Y-60203215D01*
X133562457Y-60203215D02*
X133491028Y-60060357D01*
X133491028Y-60060357D02*
X133491028Y-59774643D01*
X133491028Y-59774643D02*
X133562457Y-59631786D01*
X133562457Y-59631786D02*
X133633885Y-59560357D01*
X133633885Y-59560357D02*
X133776742Y-59488929D01*
X133776742Y-59488929D02*
X134133885Y-59488929D01*
X134133885Y-59488929D02*
X134276742Y-59560357D01*
X134276742Y-59560357D02*
X134348171Y-59631786D01*
X134348171Y-59631786D02*
X134419600Y-59774643D01*
X134419600Y-59774643D02*
X134419600Y-60060357D01*
X134419600Y-60060357D02*
X134348171Y-60203215D01*
X134348171Y-60203215D02*
X134276742Y-60274643D01*
X134276742Y-60274643D02*
X134133885Y-60346072D01*
X134991028Y-61060357D02*
X134991028Y-61346071D01*
X134991028Y-61346071D02*
X134919600Y-61488928D01*
X134919600Y-61488928D02*
X134848171Y-61560357D01*
X134848171Y-61560357D02*
X134633885Y-61703214D01*
X134633885Y-61703214D02*
X134348171Y-61774643D01*
X134348171Y-61774643D02*
X133776742Y-61774643D01*
X133776742Y-61774643D02*
X133633885Y-61703214D01*
X133633885Y-61703214D02*
X133562457Y-61631786D01*
X133562457Y-61631786D02*
X133491028Y-61488928D01*
X133491028Y-61488928D02*
X133491028Y-61203214D01*
X133491028Y-61203214D02*
X133562457Y-61060357D01*
X133562457Y-61060357D02*
X133633885Y-60988928D01*
X133633885Y-60988928D02*
X133776742Y-60917500D01*
X133776742Y-60917500D02*
X134133885Y-60917500D01*
X134133885Y-60917500D02*
X134276742Y-60988928D01*
X134276742Y-60988928D02*
X134348171Y-61060357D01*
X134348171Y-61060357D02*
X134419600Y-61203214D01*
X134419600Y-61203214D02*
X134419600Y-61488928D01*
X134419600Y-61488928D02*
X134348171Y-61631786D01*
X134348171Y-61631786D02*
X134276742Y-61703214D01*
X134276742Y-61703214D02*
X134133885Y-61774643D01*
X192751427Y-122663528D02*
X192608570Y-122663528D01*
X192608570Y-122663528D02*
X192465713Y-122734957D01*
X192465713Y-122734957D02*
X192394285Y-122806385D01*
X192394285Y-122806385D02*
X192322856Y-122949242D01*
X192322856Y-122949242D02*
X192251427Y-123234957D01*
X192251427Y-123234957D02*
X192251427Y-123592100D01*
X192251427Y-123592100D02*
X192322856Y-123877814D01*
X192322856Y-123877814D02*
X192394285Y-124020671D01*
X192394285Y-124020671D02*
X192465713Y-124092100D01*
X192465713Y-124092100D02*
X192608570Y-124163528D01*
X192608570Y-124163528D02*
X192751427Y-124163528D01*
X192751427Y-124163528D02*
X192894285Y-124092100D01*
X192894285Y-124092100D02*
X192965713Y-124020671D01*
X192965713Y-124020671D02*
X193037142Y-123877814D01*
X193037142Y-123877814D02*
X193108570Y-123592100D01*
X193108570Y-123592100D02*
X193108570Y-123234957D01*
X193108570Y-123234957D02*
X193037142Y-122949242D01*
X193037142Y-122949242D02*
X192965713Y-122806385D01*
X192965713Y-122806385D02*
X192894285Y-122734957D01*
X192894285Y-122734957D02*
X192751427Y-122663528D01*
X191608571Y-124020671D02*
X191537142Y-124092100D01*
X191537142Y-124092100D02*
X191608571Y-124163528D01*
X191608571Y-124163528D02*
X191679999Y-124092100D01*
X191679999Y-124092100D02*
X191608571Y-124020671D01*
X191608571Y-124020671D02*
X191608571Y-124163528D01*
X190108570Y-124163528D02*
X190965713Y-124163528D01*
X190537142Y-124163528D02*
X190537142Y-122663528D01*
X190537142Y-122663528D02*
X190679999Y-122877814D01*
X190679999Y-122877814D02*
X190822856Y-123020671D01*
X190822856Y-123020671D02*
X190965713Y-123092100D01*
X189465714Y-123163528D02*
X189465714Y-124663528D01*
X188751428Y-123949242D02*
X188679999Y-124092100D01*
X188679999Y-124092100D02*
X188537142Y-124163528D01*
X189465714Y-123949242D02*
X189394285Y-124092100D01*
X189394285Y-124092100D02*
X189251428Y-124163528D01*
X189251428Y-124163528D02*
X188965714Y-124163528D01*
X188965714Y-124163528D02*
X188822857Y-124092100D01*
X188822857Y-124092100D02*
X188751428Y-123949242D01*
X188751428Y-123949242D02*
X188751428Y-123163528D01*
X187394285Y-123377814D02*
X187894285Y-123377814D01*
X187894285Y-124163528D02*
X187894285Y-122663528D01*
X187894285Y-122663528D02*
X187179999Y-122663528D01*
X88561028Y-113203215D02*
X90061028Y-113560358D01*
X90061028Y-113560358D02*
X88989600Y-113846072D01*
X88989600Y-113846072D02*
X90061028Y-114131787D01*
X90061028Y-114131787D02*
X88561028Y-114488930D01*
X88561028Y-115703216D02*
X88561028Y-115417501D01*
X88561028Y-115417501D02*
X88632457Y-115274644D01*
X88632457Y-115274644D02*
X88703885Y-115203216D01*
X88703885Y-115203216D02*
X88918171Y-115060358D01*
X88918171Y-115060358D02*
X89203885Y-114988930D01*
X89203885Y-114988930D02*
X89775314Y-114988930D01*
X89775314Y-114988930D02*
X89918171Y-115060358D01*
X89918171Y-115060358D02*
X89989600Y-115131787D01*
X89989600Y-115131787D02*
X90061028Y-115274644D01*
X90061028Y-115274644D02*
X90061028Y-115560358D01*
X90061028Y-115560358D02*
X89989600Y-115703216D01*
X89989600Y-115703216D02*
X89918171Y-115774644D01*
X89918171Y-115774644D02*
X89775314Y-115846073D01*
X89775314Y-115846073D02*
X89418171Y-115846073D01*
X89418171Y-115846073D02*
X89275314Y-115774644D01*
X89275314Y-115774644D02*
X89203885Y-115703216D01*
X89203885Y-115703216D02*
X89132457Y-115560358D01*
X89132457Y-115560358D02*
X89132457Y-115274644D01*
X89132457Y-115274644D02*
X89203885Y-115131787D01*
X89203885Y-115131787D02*
X89275314Y-115060358D01*
X89275314Y-115060358D02*
X89418171Y-114988930D01*
X88561028Y-117203215D02*
X88561028Y-116488929D01*
X88561028Y-116488929D02*
X89275314Y-116417501D01*
X89275314Y-116417501D02*
X89203885Y-116488929D01*
X89203885Y-116488929D02*
X89132457Y-116631787D01*
X89132457Y-116631787D02*
X89132457Y-116988929D01*
X89132457Y-116988929D02*
X89203885Y-117131787D01*
X89203885Y-117131787D02*
X89275314Y-117203215D01*
X89275314Y-117203215D02*
X89418171Y-117274644D01*
X89418171Y-117274644D02*
X89775314Y-117274644D01*
X89775314Y-117274644D02*
X89918171Y-117203215D01*
X89918171Y-117203215D02*
X89989600Y-117131787D01*
X89989600Y-117131787D02*
X90061028Y-116988929D01*
X90061028Y-116988929D02*
X90061028Y-116631787D01*
X90061028Y-116631787D02*
X89989600Y-116488929D01*
X89989600Y-116488929D02*
X89918171Y-116417501D01*
X89918171Y-118774643D02*
X89989600Y-118703215D01*
X89989600Y-118703215D02*
X90061028Y-118488929D01*
X90061028Y-118488929D02*
X90061028Y-118346072D01*
X90061028Y-118346072D02*
X89989600Y-118131786D01*
X89989600Y-118131786D02*
X89846742Y-117988929D01*
X89846742Y-117988929D02*
X89703885Y-117917500D01*
X89703885Y-117917500D02*
X89418171Y-117846072D01*
X89418171Y-117846072D02*
X89203885Y-117846072D01*
X89203885Y-117846072D02*
X88918171Y-117917500D01*
X88918171Y-117917500D02*
X88775314Y-117988929D01*
X88775314Y-117988929D02*
X88632457Y-118131786D01*
X88632457Y-118131786D02*
X88561028Y-118346072D01*
X88561028Y-118346072D02*
X88561028Y-118488929D01*
X88561028Y-118488929D02*
X88632457Y-118703215D01*
X88632457Y-118703215D02*
X88703885Y-118774643D01*
X88703885Y-119346072D02*
X88632457Y-119417500D01*
X88632457Y-119417500D02*
X88561028Y-119560358D01*
X88561028Y-119560358D02*
X88561028Y-119917500D01*
X88561028Y-119917500D02*
X88632457Y-120060358D01*
X88632457Y-120060358D02*
X88703885Y-120131786D01*
X88703885Y-120131786D02*
X88846742Y-120203215D01*
X88846742Y-120203215D02*
X88989600Y-120203215D01*
X88989600Y-120203215D02*
X89203885Y-120131786D01*
X89203885Y-120131786D02*
X90061028Y-119274643D01*
X90061028Y-119274643D02*
X90061028Y-120203215D01*
X88703885Y-120774643D02*
X88632457Y-120846071D01*
X88632457Y-120846071D02*
X88561028Y-120988929D01*
X88561028Y-120988929D02*
X88561028Y-121346071D01*
X88561028Y-121346071D02*
X88632457Y-121488929D01*
X88632457Y-121488929D02*
X88703885Y-121560357D01*
X88703885Y-121560357D02*
X88846742Y-121631786D01*
X88846742Y-121631786D02*
X88989600Y-121631786D01*
X88989600Y-121631786D02*
X89203885Y-121560357D01*
X89203885Y-121560357D02*
X90061028Y-120703214D01*
X90061028Y-120703214D02*
X90061028Y-121631786D01*
X89989600Y-122203214D02*
X90061028Y-122417500D01*
X90061028Y-122417500D02*
X90061028Y-122774642D01*
X90061028Y-122774642D02*
X89989600Y-122917500D01*
X89989600Y-122917500D02*
X89918171Y-122988928D01*
X89918171Y-122988928D02*
X89775314Y-123060357D01*
X89775314Y-123060357D02*
X89632457Y-123060357D01*
X89632457Y-123060357D02*
X89489600Y-122988928D01*
X89489600Y-122988928D02*
X89418171Y-122917500D01*
X89418171Y-122917500D02*
X89346742Y-122774642D01*
X89346742Y-122774642D02*
X89275314Y-122488928D01*
X89275314Y-122488928D02*
X89203885Y-122346071D01*
X89203885Y-122346071D02*
X89132457Y-122274642D01*
X89132457Y-122274642D02*
X88989600Y-122203214D01*
X88989600Y-122203214D02*
X88846742Y-122203214D01*
X88846742Y-122203214D02*
X88703885Y-122274642D01*
X88703885Y-122274642D02*
X88632457Y-122346071D01*
X88632457Y-122346071D02*
X88561028Y-122488928D01*
X88561028Y-122488928D02*
X88561028Y-122846071D01*
X88561028Y-122846071D02*
X88632457Y-123060357D01*
X130776385Y-76694286D02*
X130704957Y-76765714D01*
X130704957Y-76765714D02*
X130633528Y-76908572D01*
X130633528Y-76908572D02*
X130633528Y-77265714D01*
X130633528Y-77265714D02*
X130704957Y-77408572D01*
X130704957Y-77408572D02*
X130776385Y-77480000D01*
X130776385Y-77480000D02*
X130919242Y-77551429D01*
X130919242Y-77551429D02*
X131062100Y-77551429D01*
X131062100Y-77551429D02*
X131276385Y-77480000D01*
X131276385Y-77480000D02*
X132133528Y-76622857D01*
X132133528Y-76622857D02*
X132133528Y-77551429D01*
X132133528Y-78194285D02*
X130633528Y-78194285D01*
X131562100Y-78337143D02*
X132133528Y-78765714D01*
X131133528Y-78765714D02*
X131704957Y-78194285D01*
X115341427Y-99641028D02*
X115198570Y-99641028D01*
X115198570Y-99641028D02*
X115055713Y-99712457D01*
X115055713Y-99712457D02*
X114984285Y-99783885D01*
X114984285Y-99783885D02*
X114912856Y-99926742D01*
X114912856Y-99926742D02*
X114841427Y-100212457D01*
X114841427Y-100212457D02*
X114841427Y-100569600D01*
X114841427Y-100569600D02*
X114912856Y-100855314D01*
X114912856Y-100855314D02*
X114984285Y-100998171D01*
X114984285Y-100998171D02*
X115055713Y-101069600D01*
X115055713Y-101069600D02*
X115198570Y-101141028D01*
X115198570Y-101141028D02*
X115341427Y-101141028D01*
X115341427Y-101141028D02*
X115484285Y-101069600D01*
X115484285Y-101069600D02*
X115555713Y-100998171D01*
X115555713Y-100998171D02*
X115627142Y-100855314D01*
X115627142Y-100855314D02*
X115698570Y-100569600D01*
X115698570Y-100569600D02*
X115698570Y-100212457D01*
X115698570Y-100212457D02*
X115627142Y-99926742D01*
X115627142Y-99926742D02*
X115555713Y-99783885D01*
X115555713Y-99783885D02*
X115484285Y-99712457D01*
X115484285Y-99712457D02*
X115341427Y-99641028D01*
X114198571Y-100998171D02*
X114127142Y-101069600D01*
X114127142Y-101069600D02*
X114198571Y-101141028D01*
X114198571Y-101141028D02*
X114269999Y-101069600D01*
X114269999Y-101069600D02*
X114198571Y-100998171D01*
X114198571Y-100998171D02*
X114198571Y-101141028D01*
X112698570Y-101141028D02*
X113555713Y-101141028D01*
X113127142Y-101141028D02*
X113127142Y-99641028D01*
X113127142Y-99641028D02*
X113269999Y-99855314D01*
X113269999Y-99855314D02*
X113412856Y-99998171D01*
X113412856Y-99998171D02*
X113555713Y-100069600D01*
X112055714Y-100141028D02*
X112055714Y-101641028D01*
X111341428Y-100926742D02*
X111269999Y-101069600D01*
X111269999Y-101069600D02*
X111127142Y-101141028D01*
X112055714Y-100926742D02*
X111984285Y-101069600D01*
X111984285Y-101069600D02*
X111841428Y-101141028D01*
X111841428Y-101141028D02*
X111555714Y-101141028D01*
X111555714Y-101141028D02*
X111412857Y-101069600D01*
X111412857Y-101069600D02*
X111341428Y-100926742D01*
X111341428Y-100926742D02*
X111341428Y-100141028D01*
X109984285Y-100355314D02*
X110484285Y-100355314D01*
X110484285Y-101141028D02*
X110484285Y-99641028D01*
X110484285Y-99641028D02*
X109769999Y-99641028D01*
X118221028Y-75158572D02*
X118221028Y-75301429D01*
X118221028Y-75301429D02*
X118292457Y-75444286D01*
X118292457Y-75444286D02*
X118363885Y-75515715D01*
X118363885Y-75515715D02*
X118506742Y-75587143D01*
X118506742Y-75587143D02*
X118792457Y-75658572D01*
X118792457Y-75658572D02*
X119149600Y-75658572D01*
X119149600Y-75658572D02*
X119435314Y-75587143D01*
X119435314Y-75587143D02*
X119578171Y-75515715D01*
X119578171Y-75515715D02*
X119649600Y-75444286D01*
X119649600Y-75444286D02*
X119721028Y-75301429D01*
X119721028Y-75301429D02*
X119721028Y-75158572D01*
X119721028Y-75158572D02*
X119649600Y-75015715D01*
X119649600Y-75015715D02*
X119578171Y-74944286D01*
X119578171Y-74944286D02*
X119435314Y-74872857D01*
X119435314Y-74872857D02*
X119149600Y-74801429D01*
X119149600Y-74801429D02*
X118792457Y-74801429D01*
X118792457Y-74801429D02*
X118506742Y-74872857D01*
X118506742Y-74872857D02*
X118363885Y-74944286D01*
X118363885Y-74944286D02*
X118292457Y-75015715D01*
X118292457Y-75015715D02*
X118221028Y-75158572D01*
X119578171Y-76301428D02*
X119649600Y-76372857D01*
X119649600Y-76372857D02*
X119721028Y-76301428D01*
X119721028Y-76301428D02*
X119649600Y-76230000D01*
X119649600Y-76230000D02*
X119578171Y-76301428D01*
X119578171Y-76301428D02*
X119721028Y-76301428D01*
X119721028Y-77801429D02*
X119721028Y-76944286D01*
X119721028Y-77372857D02*
X118221028Y-77372857D01*
X118221028Y-77372857D02*
X118435314Y-77230000D01*
X118435314Y-77230000D02*
X118578171Y-77087143D01*
X118578171Y-77087143D02*
X118649600Y-76944286D01*
X118721028Y-78444285D02*
X120221028Y-78444285D01*
X119506742Y-79158571D02*
X119649600Y-79230000D01*
X119649600Y-79230000D02*
X119721028Y-79372857D01*
X119506742Y-78444285D02*
X119649600Y-78515714D01*
X119649600Y-78515714D02*
X119721028Y-78658571D01*
X119721028Y-78658571D02*
X119721028Y-78944285D01*
X119721028Y-78944285D02*
X119649600Y-79087143D01*
X119649600Y-79087143D02*
X119506742Y-79158571D01*
X119506742Y-79158571D02*
X118721028Y-79158571D01*
X118935314Y-80515714D02*
X118935314Y-80015714D01*
X119721028Y-80015714D02*
X118221028Y-80015714D01*
X118221028Y-80015714D02*
X118221028Y-80730000D01*
X153858528Y-76462500D02*
X153858528Y-75605357D01*
X153858528Y-76033928D02*
X152358528Y-76033928D01*
X152358528Y-76033928D02*
X152572814Y-75891071D01*
X152572814Y-75891071D02*
X152715671Y-75748214D01*
X152715671Y-75748214D02*
X152787100Y-75605357D01*
X153715671Y-77105356D02*
X153787100Y-77176785D01*
X153787100Y-77176785D02*
X153858528Y-77105356D01*
X153858528Y-77105356D02*
X153787100Y-77033928D01*
X153787100Y-77033928D02*
X153715671Y-77105356D01*
X153715671Y-77105356D02*
X153858528Y-77105356D01*
X153001385Y-78033928D02*
X152929957Y-77891071D01*
X152929957Y-77891071D02*
X152858528Y-77819642D01*
X152858528Y-77819642D02*
X152715671Y-77748214D01*
X152715671Y-77748214D02*
X152644242Y-77748214D01*
X152644242Y-77748214D02*
X152501385Y-77819642D01*
X152501385Y-77819642D02*
X152429957Y-77891071D01*
X152429957Y-77891071D02*
X152358528Y-78033928D01*
X152358528Y-78033928D02*
X152358528Y-78319642D01*
X152358528Y-78319642D02*
X152429957Y-78462500D01*
X152429957Y-78462500D02*
X152501385Y-78533928D01*
X152501385Y-78533928D02*
X152644242Y-78605357D01*
X152644242Y-78605357D02*
X152715671Y-78605357D01*
X152715671Y-78605357D02*
X152858528Y-78533928D01*
X152858528Y-78533928D02*
X152929957Y-78462500D01*
X152929957Y-78462500D02*
X153001385Y-78319642D01*
X153001385Y-78319642D02*
X153001385Y-78033928D01*
X153001385Y-78033928D02*
X153072814Y-77891071D01*
X153072814Y-77891071D02*
X153144242Y-77819642D01*
X153144242Y-77819642D02*
X153287100Y-77748214D01*
X153287100Y-77748214D02*
X153572814Y-77748214D01*
X153572814Y-77748214D02*
X153715671Y-77819642D01*
X153715671Y-77819642D02*
X153787100Y-77891071D01*
X153787100Y-77891071D02*
X153858528Y-78033928D01*
X153858528Y-78033928D02*
X153858528Y-78319642D01*
X153858528Y-78319642D02*
X153787100Y-78462500D01*
X153787100Y-78462500D02*
X153715671Y-78533928D01*
X153715671Y-78533928D02*
X153572814Y-78605357D01*
X153572814Y-78605357D02*
X153287100Y-78605357D01*
X153287100Y-78605357D02*
X153144242Y-78533928D01*
X153144242Y-78533928D02*
X153072814Y-78462500D01*
X153072814Y-78462500D02*
X153001385Y-78319642D01*
X153858528Y-79248213D02*
X152358528Y-79248213D01*
X153287100Y-79391071D02*
X153858528Y-79819642D01*
X152858528Y-79819642D02*
X153429957Y-79248213D01*
X133876385Y-76694286D02*
X133804957Y-76765714D01*
X133804957Y-76765714D02*
X133733528Y-76908572D01*
X133733528Y-76908572D02*
X133733528Y-77265714D01*
X133733528Y-77265714D02*
X133804957Y-77408572D01*
X133804957Y-77408572D02*
X133876385Y-77480000D01*
X133876385Y-77480000D02*
X134019242Y-77551429D01*
X134019242Y-77551429D02*
X134162100Y-77551429D01*
X134162100Y-77551429D02*
X134376385Y-77480000D01*
X134376385Y-77480000D02*
X135233528Y-76622857D01*
X135233528Y-76622857D02*
X135233528Y-77551429D01*
X135233528Y-78194285D02*
X133733528Y-78194285D01*
X134662100Y-78337143D02*
X135233528Y-78765714D01*
X134233528Y-78765714D02*
X134804957Y-78194285D01*
X88011028Y-48798214D02*
X86511028Y-48798214D01*
X86511028Y-48798214D02*
X86511028Y-49369643D01*
X86511028Y-49369643D02*
X86582457Y-49512500D01*
X86582457Y-49512500D02*
X86653885Y-49583929D01*
X86653885Y-49583929D02*
X86796742Y-49655357D01*
X86796742Y-49655357D02*
X87011028Y-49655357D01*
X87011028Y-49655357D02*
X87153885Y-49583929D01*
X87153885Y-49583929D02*
X87225314Y-49512500D01*
X87225314Y-49512500D02*
X87296742Y-49369643D01*
X87296742Y-49369643D02*
X87296742Y-48798214D01*
X88011028Y-50298214D02*
X87011028Y-50298214D01*
X86511028Y-50298214D02*
X86582457Y-50226786D01*
X86582457Y-50226786D02*
X86653885Y-50298214D01*
X86653885Y-50298214D02*
X86582457Y-50369643D01*
X86582457Y-50369643D02*
X86511028Y-50298214D01*
X86511028Y-50298214D02*
X86653885Y-50298214D01*
X88011028Y-52155357D02*
X86511028Y-52155357D01*
X86511028Y-52155357D02*
X86511028Y-52726786D01*
X86511028Y-52726786D02*
X86582457Y-52869643D01*
X86582457Y-52869643D02*
X86653885Y-52941072D01*
X86653885Y-52941072D02*
X86796742Y-53012500D01*
X86796742Y-53012500D02*
X87011028Y-53012500D01*
X87011028Y-53012500D02*
X87153885Y-52941072D01*
X87153885Y-52941072D02*
X87225314Y-52869643D01*
X87225314Y-52869643D02*
X87296742Y-52726786D01*
X87296742Y-52726786D02*
X87296742Y-52155357D01*
X88011028Y-53655357D02*
X87011028Y-53655357D01*
X86511028Y-53655357D02*
X86582457Y-53583929D01*
X86582457Y-53583929D02*
X86653885Y-53655357D01*
X86653885Y-53655357D02*
X86582457Y-53726786D01*
X86582457Y-53726786D02*
X86511028Y-53655357D01*
X86511028Y-53655357D02*
X86653885Y-53655357D01*
X87939600Y-55012501D02*
X88011028Y-54869643D01*
X88011028Y-54869643D02*
X88011028Y-54583929D01*
X88011028Y-54583929D02*
X87939600Y-54441072D01*
X87939600Y-54441072D02*
X87868171Y-54369643D01*
X87868171Y-54369643D02*
X87725314Y-54298215D01*
X87725314Y-54298215D02*
X87296742Y-54298215D01*
X87296742Y-54298215D02*
X87153885Y-54369643D01*
X87153885Y-54369643D02*
X87082457Y-54441072D01*
X87082457Y-54441072D02*
X87011028Y-54583929D01*
X87011028Y-54583929D02*
X87011028Y-54869643D01*
X87011028Y-54869643D02*
X87082457Y-55012501D01*
X88011028Y-55869643D02*
X87939600Y-55726786D01*
X87939600Y-55726786D02*
X87868171Y-55655357D01*
X87868171Y-55655357D02*
X87725314Y-55583929D01*
X87725314Y-55583929D02*
X87296742Y-55583929D01*
X87296742Y-55583929D02*
X87153885Y-55655357D01*
X87153885Y-55655357D02*
X87082457Y-55726786D01*
X87082457Y-55726786D02*
X87011028Y-55869643D01*
X87011028Y-55869643D02*
X87011028Y-56083929D01*
X87011028Y-56083929D02*
X87082457Y-56226786D01*
X87082457Y-56226786D02*
X87153885Y-56298215D01*
X87153885Y-56298215D02*
X87296742Y-56369643D01*
X87296742Y-56369643D02*
X87725314Y-56369643D01*
X87725314Y-56369643D02*
X87868171Y-56298215D01*
X87868171Y-56298215D02*
X87939600Y-56226786D01*
X87939600Y-56226786D02*
X88011028Y-56083929D01*
X88011028Y-56083929D02*
X88011028Y-55869643D01*
X86653885Y-56941072D02*
X86582457Y-57012500D01*
X86582457Y-57012500D02*
X86511028Y-57155358D01*
X86511028Y-57155358D02*
X86511028Y-57512500D01*
X86511028Y-57512500D02*
X86582457Y-57655358D01*
X86582457Y-57655358D02*
X86653885Y-57726786D01*
X86653885Y-57726786D02*
X86796742Y-57798215D01*
X86796742Y-57798215D02*
X86939600Y-57798215D01*
X86939600Y-57798215D02*
X87153885Y-57726786D01*
X87153885Y-57726786D02*
X88011028Y-56869643D01*
X88011028Y-56869643D02*
X88011028Y-57798215D01*
X202403528Y-130719286D02*
X202403528Y-131719286D01*
X202403528Y-131719286D02*
X203903528Y-131076429D01*
X202903528Y-132933572D02*
X203903528Y-132933572D01*
X202332100Y-132576429D02*
X203403528Y-132219286D01*
X203403528Y-132219286D02*
X203403528Y-133147857D01*
X203474957Y-133647857D02*
X203474957Y-134362143D01*
X203903528Y-133505000D02*
X202403528Y-134005000D01*
X202403528Y-134005000D02*
X203903528Y-134505000D01*
X203760671Y-135862142D02*
X203832100Y-135790714D01*
X203832100Y-135790714D02*
X203903528Y-135576428D01*
X203903528Y-135576428D02*
X203903528Y-135433571D01*
X203903528Y-135433571D02*
X203832100Y-135219285D01*
X203832100Y-135219285D02*
X203689242Y-135076428D01*
X203689242Y-135076428D02*
X203546385Y-135004999D01*
X203546385Y-135004999D02*
X203260671Y-134933571D01*
X203260671Y-134933571D02*
X203046385Y-134933571D01*
X203046385Y-134933571D02*
X202760671Y-135004999D01*
X202760671Y-135004999D02*
X202617814Y-135076428D01*
X202617814Y-135076428D02*
X202474957Y-135219285D01*
X202474957Y-135219285D02*
X202403528Y-135433571D01*
X202403528Y-135433571D02*
X202403528Y-135576428D01*
X202403528Y-135576428D02*
X202474957Y-135790714D01*
X202474957Y-135790714D02*
X202546385Y-135862142D01*
X202546385Y-136433571D02*
X202474957Y-136504999D01*
X202474957Y-136504999D02*
X202403528Y-136647857D01*
X202403528Y-136647857D02*
X202403528Y-137004999D01*
X202403528Y-137004999D02*
X202474957Y-137147857D01*
X202474957Y-137147857D02*
X202546385Y-137219285D01*
X202546385Y-137219285D02*
X202689242Y-137290714D01*
X202689242Y-137290714D02*
X202832100Y-137290714D01*
X202832100Y-137290714D02*
X203046385Y-137219285D01*
X203046385Y-137219285D02*
X203903528Y-136362142D01*
X203903528Y-136362142D02*
X203903528Y-137290714D01*
X202403528Y-138219285D02*
X202403528Y-138362142D01*
X202403528Y-138362142D02*
X202474957Y-138504999D01*
X202474957Y-138504999D02*
X202546385Y-138576428D01*
X202546385Y-138576428D02*
X202689242Y-138647856D01*
X202689242Y-138647856D02*
X202974957Y-138719285D01*
X202974957Y-138719285D02*
X203332100Y-138719285D01*
X203332100Y-138719285D02*
X203617814Y-138647856D01*
X203617814Y-138647856D02*
X203760671Y-138576428D01*
X203760671Y-138576428D02*
X203832100Y-138504999D01*
X203832100Y-138504999D02*
X203903528Y-138362142D01*
X203903528Y-138362142D02*
X203903528Y-138219285D01*
X203903528Y-138219285D02*
X203832100Y-138076428D01*
X203832100Y-138076428D02*
X203760671Y-138004999D01*
X203760671Y-138004999D02*
X203617814Y-137933570D01*
X203617814Y-137933570D02*
X203332100Y-137862142D01*
X203332100Y-137862142D02*
X202974957Y-137862142D01*
X202974957Y-137862142D02*
X202689242Y-137933570D01*
X202689242Y-137933570D02*
X202546385Y-138004999D01*
X202546385Y-138004999D02*
X202474957Y-138076428D01*
X202474957Y-138076428D02*
X202403528Y-138219285D01*
X121463885Y-75872858D02*
X121392457Y-75944286D01*
X121392457Y-75944286D02*
X121321028Y-76087144D01*
X121321028Y-76087144D02*
X121321028Y-76444286D01*
X121321028Y-76444286D02*
X121392457Y-76587144D01*
X121392457Y-76587144D02*
X121463885Y-76658572D01*
X121463885Y-76658572D02*
X121606742Y-76730001D01*
X121606742Y-76730001D02*
X121749600Y-76730001D01*
X121749600Y-76730001D02*
X121963885Y-76658572D01*
X121963885Y-76658572D02*
X122821028Y-75801429D01*
X122821028Y-75801429D02*
X122821028Y-76730001D01*
X121463885Y-77301429D02*
X121392457Y-77372857D01*
X121392457Y-77372857D02*
X121321028Y-77515715D01*
X121321028Y-77515715D02*
X121321028Y-77872857D01*
X121321028Y-77872857D02*
X121392457Y-78015715D01*
X121392457Y-78015715D02*
X121463885Y-78087143D01*
X121463885Y-78087143D02*
X121606742Y-78158572D01*
X121606742Y-78158572D02*
X121749600Y-78158572D01*
X121749600Y-78158572D02*
X121963885Y-78087143D01*
X121963885Y-78087143D02*
X122821028Y-77230000D01*
X122821028Y-77230000D02*
X122821028Y-78158572D01*
X121321028Y-79087143D02*
X121321028Y-79230000D01*
X121321028Y-79230000D02*
X121392457Y-79372857D01*
X121392457Y-79372857D02*
X121463885Y-79444286D01*
X121463885Y-79444286D02*
X121606742Y-79515714D01*
X121606742Y-79515714D02*
X121892457Y-79587143D01*
X121892457Y-79587143D02*
X122249600Y-79587143D01*
X122249600Y-79587143D02*
X122535314Y-79515714D01*
X122535314Y-79515714D02*
X122678171Y-79444286D01*
X122678171Y-79444286D02*
X122749600Y-79372857D01*
X122749600Y-79372857D02*
X122821028Y-79230000D01*
X122821028Y-79230000D02*
X122821028Y-79087143D01*
X122821028Y-79087143D02*
X122749600Y-78944286D01*
X122749600Y-78944286D02*
X122678171Y-78872857D01*
X122678171Y-78872857D02*
X122535314Y-78801428D01*
X122535314Y-78801428D02*
X122249600Y-78730000D01*
X122249600Y-78730000D02*
X121892457Y-78730000D01*
X121892457Y-78730000D02*
X121606742Y-78801428D01*
X121606742Y-78801428D02*
X121463885Y-78872857D01*
X121463885Y-78872857D02*
X121392457Y-78944286D01*
X121392457Y-78944286D02*
X121321028Y-79087143D01*
X207332141Y-113518528D02*
X206332141Y-113518528D01*
X206332141Y-113518528D02*
X206974998Y-115018528D01*
X205117856Y-114018528D02*
X205117856Y-115018528D01*
X205474998Y-113447100D02*
X205832141Y-114518528D01*
X205832141Y-114518528D02*
X204903570Y-114518528D01*
X204332142Y-115018528D02*
X204332142Y-113518528D01*
X204332142Y-114232814D02*
X203474999Y-114232814D01*
X203474999Y-115018528D02*
X203474999Y-113518528D01*
X201903570Y-114875671D02*
X201974998Y-114947100D01*
X201974998Y-114947100D02*
X202189284Y-115018528D01*
X202189284Y-115018528D02*
X202332141Y-115018528D01*
X202332141Y-115018528D02*
X202546427Y-114947100D01*
X202546427Y-114947100D02*
X202689284Y-114804242D01*
X202689284Y-114804242D02*
X202760713Y-114661385D01*
X202760713Y-114661385D02*
X202832141Y-114375671D01*
X202832141Y-114375671D02*
X202832141Y-114161385D01*
X202832141Y-114161385D02*
X202760713Y-113875671D01*
X202760713Y-113875671D02*
X202689284Y-113732814D01*
X202689284Y-113732814D02*
X202546427Y-113589957D01*
X202546427Y-113589957D02*
X202332141Y-113518528D01*
X202332141Y-113518528D02*
X202189284Y-113518528D01*
X202189284Y-113518528D02*
X201974998Y-113589957D01*
X201974998Y-113589957D02*
X201903570Y-113661385D01*
X200617856Y-114018528D02*
X200617856Y-115018528D01*
X200974998Y-113447100D02*
X201332141Y-114518528D01*
X201332141Y-114518528D02*
X200403570Y-114518528D01*
X199546427Y-113518528D02*
X199403570Y-113518528D01*
X199403570Y-113518528D02*
X199260713Y-113589957D01*
X199260713Y-113589957D02*
X199189285Y-113661385D01*
X199189285Y-113661385D02*
X199117856Y-113804242D01*
X199117856Y-113804242D02*
X199046427Y-114089957D01*
X199046427Y-114089957D02*
X199046427Y-114447100D01*
X199046427Y-114447100D02*
X199117856Y-114732814D01*
X199117856Y-114732814D02*
X199189285Y-114875671D01*
X199189285Y-114875671D02*
X199260713Y-114947100D01*
X199260713Y-114947100D02*
X199403570Y-115018528D01*
X199403570Y-115018528D02*
X199546427Y-115018528D01*
X199546427Y-115018528D02*
X199689285Y-114947100D01*
X199689285Y-114947100D02*
X199760713Y-114875671D01*
X199760713Y-114875671D02*
X199832142Y-114732814D01*
X199832142Y-114732814D02*
X199903570Y-114447100D01*
X199903570Y-114447100D02*
X199903570Y-114089957D01*
X199903570Y-114089957D02*
X199832142Y-113804242D01*
X199832142Y-113804242D02*
X199760713Y-113661385D01*
X199760713Y-113661385D02*
X199689285Y-113589957D01*
X199689285Y-113589957D02*
X199546427Y-113518528D01*
X198117856Y-113518528D02*
X197974999Y-113518528D01*
X197974999Y-113518528D02*
X197832142Y-113589957D01*
X197832142Y-113589957D02*
X197760714Y-113661385D01*
X197760714Y-113661385D02*
X197689285Y-113804242D01*
X197689285Y-113804242D02*
X197617856Y-114089957D01*
X197617856Y-114089957D02*
X197617856Y-114447100D01*
X197617856Y-114447100D02*
X197689285Y-114732814D01*
X197689285Y-114732814D02*
X197760714Y-114875671D01*
X197760714Y-114875671D02*
X197832142Y-114947100D01*
X197832142Y-114947100D02*
X197974999Y-115018528D01*
X197974999Y-115018528D02*
X198117856Y-115018528D01*
X198117856Y-115018528D02*
X198260714Y-114947100D01*
X198260714Y-114947100D02*
X198332142Y-114875671D01*
X198332142Y-114875671D02*
X198403571Y-114732814D01*
X198403571Y-114732814D02*
X198474999Y-114447100D01*
X198474999Y-114447100D02*
X198474999Y-114089957D01*
X198474999Y-114089957D02*
X198403571Y-113804242D01*
X198403571Y-113804242D02*
X198332142Y-113661385D01*
X198332142Y-113661385D02*
X198260714Y-113589957D01*
X198260714Y-113589957D02*
X198117856Y-113518528D01*
X197046428Y-113661385D02*
X196975000Y-113589957D01*
X196975000Y-113589957D02*
X196832143Y-113518528D01*
X196832143Y-113518528D02*
X196475000Y-113518528D01*
X196475000Y-113518528D02*
X196332143Y-113589957D01*
X196332143Y-113589957D02*
X196260714Y-113661385D01*
X196260714Y-113661385D02*
X196189285Y-113804242D01*
X196189285Y-113804242D02*
X196189285Y-113947100D01*
X196189285Y-113947100D02*
X196260714Y-114161385D01*
X196260714Y-114161385D02*
X197117857Y-115018528D01*
X197117857Y-115018528D02*
X196189285Y-115018528D01*
X158473927Y-89511028D02*
X158331070Y-89511028D01*
X158331070Y-89511028D02*
X158188213Y-89582457D01*
X158188213Y-89582457D02*
X158116785Y-89653885D01*
X158116785Y-89653885D02*
X158045356Y-89796742D01*
X158045356Y-89796742D02*
X157973927Y-90082457D01*
X157973927Y-90082457D02*
X157973927Y-90439600D01*
X157973927Y-90439600D02*
X158045356Y-90725314D01*
X158045356Y-90725314D02*
X158116785Y-90868171D01*
X158116785Y-90868171D02*
X158188213Y-90939600D01*
X158188213Y-90939600D02*
X158331070Y-91011028D01*
X158331070Y-91011028D02*
X158473927Y-91011028D01*
X158473927Y-91011028D02*
X158616785Y-90939600D01*
X158616785Y-90939600D02*
X158688213Y-90868171D01*
X158688213Y-90868171D02*
X158759642Y-90725314D01*
X158759642Y-90725314D02*
X158831070Y-90439600D01*
X158831070Y-90439600D02*
X158831070Y-90082457D01*
X158831070Y-90082457D02*
X158759642Y-89796742D01*
X158759642Y-89796742D02*
X158688213Y-89653885D01*
X158688213Y-89653885D02*
X158616785Y-89582457D01*
X158616785Y-89582457D02*
X158473927Y-89511028D01*
X157331071Y-90868171D02*
X157259642Y-90939600D01*
X157259642Y-90939600D02*
X157331071Y-91011028D01*
X157331071Y-91011028D02*
X157402499Y-90939600D01*
X157402499Y-90939600D02*
X157331071Y-90868171D01*
X157331071Y-90868171D02*
X157331071Y-91011028D01*
X155831070Y-91011028D02*
X156688213Y-91011028D01*
X156259642Y-91011028D02*
X156259642Y-89511028D01*
X156259642Y-89511028D02*
X156402499Y-89725314D01*
X156402499Y-89725314D02*
X156545356Y-89868171D01*
X156545356Y-89868171D02*
X156688213Y-89939600D01*
X155188214Y-90011028D02*
X155188214Y-91511028D01*
X154473928Y-90796742D02*
X154402499Y-90939600D01*
X154402499Y-90939600D02*
X154259642Y-91011028D01*
X155188214Y-90796742D02*
X155116785Y-90939600D01*
X155116785Y-90939600D02*
X154973928Y-91011028D01*
X154973928Y-91011028D02*
X154688214Y-91011028D01*
X154688214Y-91011028D02*
X154545357Y-90939600D01*
X154545357Y-90939600D02*
X154473928Y-90796742D01*
X154473928Y-90796742D02*
X154473928Y-90011028D01*
X153116785Y-90225314D02*
X153616785Y-90225314D01*
X153616785Y-91011028D02*
X153616785Y-89511028D01*
X153616785Y-89511028D02*
X152902499Y-89511028D01*
X177245177Y-114969778D02*
X177102320Y-114969778D01*
X177102320Y-114969778D02*
X176959463Y-115041207D01*
X176959463Y-115041207D02*
X176888035Y-115112635D01*
X176888035Y-115112635D02*
X176816606Y-115255492D01*
X176816606Y-115255492D02*
X176745177Y-115541207D01*
X176745177Y-115541207D02*
X176745177Y-115898350D01*
X176745177Y-115898350D02*
X176816606Y-116184064D01*
X176816606Y-116184064D02*
X176888035Y-116326921D01*
X176888035Y-116326921D02*
X176959463Y-116398350D01*
X176959463Y-116398350D02*
X177102320Y-116469778D01*
X177102320Y-116469778D02*
X177245177Y-116469778D01*
X177245177Y-116469778D02*
X177388035Y-116398350D01*
X177388035Y-116398350D02*
X177459463Y-116326921D01*
X177459463Y-116326921D02*
X177530892Y-116184064D01*
X177530892Y-116184064D02*
X177602320Y-115898350D01*
X177602320Y-115898350D02*
X177602320Y-115541207D01*
X177602320Y-115541207D02*
X177530892Y-115255492D01*
X177530892Y-115255492D02*
X177459463Y-115112635D01*
X177459463Y-115112635D02*
X177388035Y-115041207D01*
X177388035Y-115041207D02*
X177245177Y-114969778D01*
X176102321Y-116326921D02*
X176030892Y-116398350D01*
X176030892Y-116398350D02*
X176102321Y-116469778D01*
X176102321Y-116469778D02*
X176173749Y-116398350D01*
X176173749Y-116398350D02*
X176102321Y-116326921D01*
X176102321Y-116326921D02*
X176102321Y-116469778D01*
X174602320Y-116469778D02*
X175459463Y-116469778D01*
X175030892Y-116469778D02*
X175030892Y-114969778D01*
X175030892Y-114969778D02*
X175173749Y-115184064D01*
X175173749Y-115184064D02*
X175316606Y-115326921D01*
X175316606Y-115326921D02*
X175459463Y-115398350D01*
X173959464Y-115469778D02*
X173959464Y-116969778D01*
X173245178Y-116255492D02*
X173173749Y-116398350D01*
X173173749Y-116398350D02*
X173030892Y-116469778D01*
X173959464Y-116255492D02*
X173888035Y-116398350D01*
X173888035Y-116398350D02*
X173745178Y-116469778D01*
X173745178Y-116469778D02*
X173459464Y-116469778D01*
X173459464Y-116469778D02*
X173316607Y-116398350D01*
X173316607Y-116398350D02*
X173245178Y-116255492D01*
X173245178Y-116255492D02*
X173245178Y-115469778D01*
X171888035Y-115684064D02*
X172388035Y-115684064D01*
X172388035Y-116469778D02*
X172388035Y-114969778D01*
X172388035Y-114969778D02*
X171673749Y-114969778D01*
X140376028Y-57810358D02*
X141376028Y-57810358D01*
X139804600Y-57453215D02*
X140876028Y-57096072D01*
X140876028Y-57096072D02*
X140876028Y-58024643D01*
X141233171Y-58596071D02*
X141304600Y-58667500D01*
X141304600Y-58667500D02*
X141376028Y-58596071D01*
X141376028Y-58596071D02*
X141304600Y-58524643D01*
X141304600Y-58524643D02*
X141233171Y-58596071D01*
X141233171Y-58596071D02*
X141376028Y-58596071D01*
X139876028Y-59596072D02*
X139876028Y-59738929D01*
X139876028Y-59738929D02*
X139947457Y-59881786D01*
X139947457Y-59881786D02*
X140018885Y-59953215D01*
X140018885Y-59953215D02*
X140161742Y-60024643D01*
X140161742Y-60024643D02*
X140447457Y-60096072D01*
X140447457Y-60096072D02*
X140804600Y-60096072D01*
X140804600Y-60096072D02*
X141090314Y-60024643D01*
X141090314Y-60024643D02*
X141233171Y-59953215D01*
X141233171Y-59953215D02*
X141304600Y-59881786D01*
X141304600Y-59881786D02*
X141376028Y-59738929D01*
X141376028Y-59738929D02*
X141376028Y-59596072D01*
X141376028Y-59596072D02*
X141304600Y-59453215D01*
X141304600Y-59453215D02*
X141233171Y-59381786D01*
X141233171Y-59381786D02*
X141090314Y-59310357D01*
X141090314Y-59310357D02*
X140804600Y-59238929D01*
X140804600Y-59238929D02*
X140447457Y-59238929D01*
X140447457Y-59238929D02*
X140161742Y-59310357D01*
X140161742Y-59310357D02*
X140018885Y-59381786D01*
X140018885Y-59381786D02*
X139947457Y-59453215D01*
X139947457Y-59453215D02*
X139876028Y-59596072D01*
X140018885Y-60667500D02*
X139947457Y-60738928D01*
X139947457Y-60738928D02*
X139876028Y-60881786D01*
X139876028Y-60881786D02*
X139876028Y-61238928D01*
X139876028Y-61238928D02*
X139947457Y-61381786D01*
X139947457Y-61381786D02*
X140018885Y-61453214D01*
X140018885Y-61453214D02*
X140161742Y-61524643D01*
X140161742Y-61524643D02*
X140304600Y-61524643D01*
X140304600Y-61524643D02*
X140518885Y-61453214D01*
X140518885Y-61453214D02*
X141376028Y-60596071D01*
X141376028Y-60596071D02*
X141376028Y-61524643D01*
X141376028Y-62167499D02*
X139876028Y-62167499D01*
X140804600Y-62310357D02*
X141376028Y-62738928D01*
X140376028Y-62738928D02*
X140947457Y-62167499D01*
X127283885Y-58881786D02*
X127212457Y-58953214D01*
X127212457Y-58953214D02*
X127141028Y-59096072D01*
X127141028Y-59096072D02*
X127141028Y-59453214D01*
X127141028Y-59453214D02*
X127212457Y-59596072D01*
X127212457Y-59596072D02*
X127283885Y-59667500D01*
X127283885Y-59667500D02*
X127426742Y-59738929D01*
X127426742Y-59738929D02*
X127569600Y-59738929D01*
X127569600Y-59738929D02*
X127783885Y-59667500D01*
X127783885Y-59667500D02*
X128641028Y-58810357D01*
X128641028Y-58810357D02*
X128641028Y-59738929D01*
X128641028Y-60381785D02*
X127141028Y-60381785D01*
X128069600Y-60524643D02*
X128641028Y-60953214D01*
X127641028Y-60953214D02*
X128212457Y-60381785D01*
X146801385Y-75184286D02*
X146729957Y-75041429D01*
X146729957Y-75041429D02*
X146658528Y-74970000D01*
X146658528Y-74970000D02*
X146515671Y-74898572D01*
X146515671Y-74898572D02*
X146444242Y-74898572D01*
X146444242Y-74898572D02*
X146301385Y-74970000D01*
X146301385Y-74970000D02*
X146229957Y-75041429D01*
X146229957Y-75041429D02*
X146158528Y-75184286D01*
X146158528Y-75184286D02*
X146158528Y-75470000D01*
X146158528Y-75470000D02*
X146229957Y-75612858D01*
X146229957Y-75612858D02*
X146301385Y-75684286D01*
X146301385Y-75684286D02*
X146444242Y-75755715D01*
X146444242Y-75755715D02*
X146515671Y-75755715D01*
X146515671Y-75755715D02*
X146658528Y-75684286D01*
X146658528Y-75684286D02*
X146729957Y-75612858D01*
X146729957Y-75612858D02*
X146801385Y-75470000D01*
X146801385Y-75470000D02*
X146801385Y-75184286D01*
X146801385Y-75184286D02*
X146872814Y-75041429D01*
X146872814Y-75041429D02*
X146944242Y-74970000D01*
X146944242Y-74970000D02*
X147087100Y-74898572D01*
X147087100Y-74898572D02*
X147372814Y-74898572D01*
X147372814Y-74898572D02*
X147515671Y-74970000D01*
X147515671Y-74970000D02*
X147587100Y-75041429D01*
X147587100Y-75041429D02*
X147658528Y-75184286D01*
X147658528Y-75184286D02*
X147658528Y-75470000D01*
X147658528Y-75470000D02*
X147587100Y-75612858D01*
X147587100Y-75612858D02*
X147515671Y-75684286D01*
X147515671Y-75684286D02*
X147372814Y-75755715D01*
X147372814Y-75755715D02*
X147087100Y-75755715D01*
X147087100Y-75755715D02*
X146944242Y-75684286D01*
X146944242Y-75684286D02*
X146872814Y-75612858D01*
X146872814Y-75612858D02*
X146801385Y-75470000D01*
X147515671Y-76398571D02*
X147587100Y-76470000D01*
X147587100Y-76470000D02*
X147658528Y-76398571D01*
X147658528Y-76398571D02*
X147587100Y-76327143D01*
X147587100Y-76327143D02*
X147515671Y-76398571D01*
X147515671Y-76398571D02*
X147658528Y-76398571D01*
X146158528Y-77398572D02*
X146158528Y-77541429D01*
X146158528Y-77541429D02*
X146229957Y-77684286D01*
X146229957Y-77684286D02*
X146301385Y-77755715D01*
X146301385Y-77755715D02*
X146444242Y-77827143D01*
X146444242Y-77827143D02*
X146729957Y-77898572D01*
X146729957Y-77898572D02*
X147087100Y-77898572D01*
X147087100Y-77898572D02*
X147372814Y-77827143D01*
X147372814Y-77827143D02*
X147515671Y-77755715D01*
X147515671Y-77755715D02*
X147587100Y-77684286D01*
X147587100Y-77684286D02*
X147658528Y-77541429D01*
X147658528Y-77541429D02*
X147658528Y-77398572D01*
X147658528Y-77398572D02*
X147587100Y-77255715D01*
X147587100Y-77255715D02*
X147515671Y-77184286D01*
X147515671Y-77184286D02*
X147372814Y-77112857D01*
X147372814Y-77112857D02*
X147087100Y-77041429D01*
X147087100Y-77041429D02*
X146729957Y-77041429D01*
X146729957Y-77041429D02*
X146444242Y-77112857D01*
X146444242Y-77112857D02*
X146301385Y-77184286D01*
X146301385Y-77184286D02*
X146229957Y-77255715D01*
X146229957Y-77255715D02*
X146158528Y-77398572D01*
X146158528Y-79184286D02*
X146158528Y-78898571D01*
X146158528Y-78898571D02*
X146229957Y-78755714D01*
X146229957Y-78755714D02*
X146301385Y-78684286D01*
X146301385Y-78684286D02*
X146515671Y-78541428D01*
X146515671Y-78541428D02*
X146801385Y-78470000D01*
X146801385Y-78470000D02*
X147372814Y-78470000D01*
X147372814Y-78470000D02*
X147515671Y-78541428D01*
X147515671Y-78541428D02*
X147587100Y-78612857D01*
X147587100Y-78612857D02*
X147658528Y-78755714D01*
X147658528Y-78755714D02*
X147658528Y-79041428D01*
X147658528Y-79041428D02*
X147587100Y-79184286D01*
X147587100Y-79184286D02*
X147515671Y-79255714D01*
X147515671Y-79255714D02*
X147372814Y-79327143D01*
X147372814Y-79327143D02*
X147015671Y-79327143D01*
X147015671Y-79327143D02*
X146872814Y-79255714D01*
X146872814Y-79255714D02*
X146801385Y-79184286D01*
X146801385Y-79184286D02*
X146729957Y-79041428D01*
X146729957Y-79041428D02*
X146729957Y-78755714D01*
X146729957Y-78755714D02*
X146801385Y-78612857D01*
X146801385Y-78612857D02*
X146872814Y-78541428D01*
X146872814Y-78541428D02*
X147015671Y-78470000D01*
X147658528Y-79969999D02*
X146158528Y-79969999D01*
X147087100Y-80112857D02*
X147658528Y-80541428D01*
X146658528Y-80541428D02*
X147229957Y-79969999D01*
X177316427Y-83583528D02*
X177173570Y-83583528D01*
X177173570Y-83583528D02*
X177030713Y-83654957D01*
X177030713Y-83654957D02*
X176959285Y-83726385D01*
X176959285Y-83726385D02*
X176887856Y-83869242D01*
X176887856Y-83869242D02*
X176816427Y-84154957D01*
X176816427Y-84154957D02*
X176816427Y-84512100D01*
X176816427Y-84512100D02*
X176887856Y-84797814D01*
X176887856Y-84797814D02*
X176959285Y-84940671D01*
X176959285Y-84940671D02*
X177030713Y-85012100D01*
X177030713Y-85012100D02*
X177173570Y-85083528D01*
X177173570Y-85083528D02*
X177316427Y-85083528D01*
X177316427Y-85083528D02*
X177459285Y-85012100D01*
X177459285Y-85012100D02*
X177530713Y-84940671D01*
X177530713Y-84940671D02*
X177602142Y-84797814D01*
X177602142Y-84797814D02*
X177673570Y-84512100D01*
X177673570Y-84512100D02*
X177673570Y-84154957D01*
X177673570Y-84154957D02*
X177602142Y-83869242D01*
X177602142Y-83869242D02*
X177530713Y-83726385D01*
X177530713Y-83726385D02*
X177459285Y-83654957D01*
X177459285Y-83654957D02*
X177316427Y-83583528D01*
X176173571Y-84940671D02*
X176102142Y-85012100D01*
X176102142Y-85012100D02*
X176173571Y-85083528D01*
X176173571Y-85083528D02*
X176244999Y-85012100D01*
X176244999Y-85012100D02*
X176173571Y-84940671D01*
X176173571Y-84940671D02*
X176173571Y-85083528D01*
X174673570Y-85083528D02*
X175530713Y-85083528D01*
X175102142Y-85083528D02*
X175102142Y-83583528D01*
X175102142Y-83583528D02*
X175244999Y-83797814D01*
X175244999Y-83797814D02*
X175387856Y-83940671D01*
X175387856Y-83940671D02*
X175530713Y-84012100D01*
X174030714Y-84083528D02*
X174030714Y-85583528D01*
X173316428Y-84869242D02*
X173244999Y-85012100D01*
X173244999Y-85012100D02*
X173102142Y-85083528D01*
X174030714Y-84869242D02*
X173959285Y-85012100D01*
X173959285Y-85012100D02*
X173816428Y-85083528D01*
X173816428Y-85083528D02*
X173530714Y-85083528D01*
X173530714Y-85083528D02*
X173387857Y-85012100D01*
X173387857Y-85012100D02*
X173316428Y-84869242D01*
X173316428Y-84869242D02*
X173316428Y-84083528D01*
X171959285Y-84297814D02*
X172459285Y-84297814D01*
X172459285Y-85083528D02*
X172459285Y-83583528D01*
X172459285Y-83583528D02*
X171744999Y-83583528D01*
X189613528Y-111848572D02*
X189613528Y-111991429D01*
X189613528Y-111991429D02*
X189684957Y-112134286D01*
X189684957Y-112134286D02*
X189756385Y-112205715D01*
X189756385Y-112205715D02*
X189899242Y-112277143D01*
X189899242Y-112277143D02*
X190184957Y-112348572D01*
X190184957Y-112348572D02*
X190542100Y-112348572D01*
X190542100Y-112348572D02*
X190827814Y-112277143D01*
X190827814Y-112277143D02*
X190970671Y-112205715D01*
X190970671Y-112205715D02*
X191042100Y-112134286D01*
X191042100Y-112134286D02*
X191113528Y-111991429D01*
X191113528Y-111991429D02*
X191113528Y-111848572D01*
X191113528Y-111848572D02*
X191042100Y-111705715D01*
X191042100Y-111705715D02*
X190970671Y-111634286D01*
X190970671Y-111634286D02*
X190827814Y-111562857D01*
X190827814Y-111562857D02*
X190542100Y-111491429D01*
X190542100Y-111491429D02*
X190184957Y-111491429D01*
X190184957Y-111491429D02*
X189899242Y-111562857D01*
X189899242Y-111562857D02*
X189756385Y-111634286D01*
X189756385Y-111634286D02*
X189684957Y-111705715D01*
X189684957Y-111705715D02*
X189613528Y-111848572D01*
X190970671Y-112991428D02*
X191042100Y-113062857D01*
X191042100Y-113062857D02*
X191113528Y-112991428D01*
X191113528Y-112991428D02*
X191042100Y-112920000D01*
X191042100Y-112920000D02*
X190970671Y-112991428D01*
X190970671Y-112991428D02*
X191113528Y-112991428D01*
X191113528Y-114491429D02*
X191113528Y-113634286D01*
X191113528Y-114062857D02*
X189613528Y-114062857D01*
X189613528Y-114062857D02*
X189827814Y-113920000D01*
X189827814Y-113920000D02*
X189970671Y-113777143D01*
X189970671Y-113777143D02*
X190042100Y-113634286D01*
X190113528Y-115134285D02*
X191613528Y-115134285D01*
X190899242Y-115848571D02*
X191042100Y-115920000D01*
X191042100Y-115920000D02*
X191113528Y-116062857D01*
X190899242Y-115134285D02*
X191042100Y-115205714D01*
X191042100Y-115205714D02*
X191113528Y-115348571D01*
X191113528Y-115348571D02*
X191113528Y-115634285D01*
X191113528Y-115634285D02*
X191042100Y-115777143D01*
X191042100Y-115777143D02*
X190899242Y-115848571D01*
X190899242Y-115848571D02*
X190113528Y-115848571D01*
X190327814Y-117205714D02*
X190327814Y-116705714D01*
X191113528Y-116705714D02*
X189613528Y-116705714D01*
X189613528Y-116705714D02*
X189613528Y-117420000D01*
X147726028Y-59738929D02*
X147726028Y-58881786D01*
X147726028Y-59310357D02*
X146226028Y-59310357D01*
X146226028Y-59310357D02*
X146440314Y-59167500D01*
X146440314Y-59167500D02*
X146583171Y-59024643D01*
X146583171Y-59024643D02*
X146654600Y-58881786D01*
X147726028Y-60381785D02*
X146226028Y-60381785D01*
X147154600Y-60524643D02*
X147726028Y-60953214D01*
X146726028Y-60953214D02*
X147297457Y-60381785D01*
X125921028Y-76730001D02*
X125921028Y-75872858D01*
X125921028Y-76301429D02*
X124421028Y-76301429D01*
X124421028Y-76301429D02*
X124635314Y-76158572D01*
X124635314Y-76158572D02*
X124778171Y-76015715D01*
X124778171Y-76015715D02*
X124849600Y-75872858D01*
X124421028Y-77658572D02*
X124421028Y-77801429D01*
X124421028Y-77801429D02*
X124492457Y-77944286D01*
X124492457Y-77944286D02*
X124563885Y-78015715D01*
X124563885Y-78015715D02*
X124706742Y-78087143D01*
X124706742Y-78087143D02*
X124992457Y-78158572D01*
X124992457Y-78158572D02*
X125349600Y-78158572D01*
X125349600Y-78158572D02*
X125635314Y-78087143D01*
X125635314Y-78087143D02*
X125778171Y-78015715D01*
X125778171Y-78015715D02*
X125849600Y-77944286D01*
X125849600Y-77944286D02*
X125921028Y-77801429D01*
X125921028Y-77801429D02*
X125921028Y-77658572D01*
X125921028Y-77658572D02*
X125849600Y-77515715D01*
X125849600Y-77515715D02*
X125778171Y-77444286D01*
X125778171Y-77444286D02*
X125635314Y-77372857D01*
X125635314Y-77372857D02*
X125349600Y-77301429D01*
X125349600Y-77301429D02*
X124992457Y-77301429D01*
X124992457Y-77301429D02*
X124706742Y-77372857D01*
X124706742Y-77372857D02*
X124563885Y-77444286D01*
X124563885Y-77444286D02*
X124492457Y-77515715D01*
X124492457Y-77515715D02*
X124421028Y-77658572D01*
X124421028Y-79087143D02*
X124421028Y-79230000D01*
X124421028Y-79230000D02*
X124492457Y-79372857D01*
X124492457Y-79372857D02*
X124563885Y-79444286D01*
X124563885Y-79444286D02*
X124706742Y-79515714D01*
X124706742Y-79515714D02*
X124992457Y-79587143D01*
X124992457Y-79587143D02*
X125349600Y-79587143D01*
X125349600Y-79587143D02*
X125635314Y-79515714D01*
X125635314Y-79515714D02*
X125778171Y-79444286D01*
X125778171Y-79444286D02*
X125849600Y-79372857D01*
X125849600Y-79372857D02*
X125921028Y-79230000D01*
X125921028Y-79230000D02*
X125921028Y-79087143D01*
X125921028Y-79087143D02*
X125849600Y-78944286D01*
X125849600Y-78944286D02*
X125778171Y-78872857D01*
X125778171Y-78872857D02*
X125635314Y-78801428D01*
X125635314Y-78801428D02*
X125349600Y-78730000D01*
X125349600Y-78730000D02*
X124992457Y-78730000D01*
X124992457Y-78730000D02*
X124706742Y-78801428D01*
X124706742Y-78801428D02*
X124563885Y-78872857D01*
X124563885Y-78872857D02*
X124492457Y-78944286D01*
X124492457Y-78944286D02*
X124421028Y-79087143D01*
X194661028Y-47941071D02*
X193161028Y-47941071D01*
X193161028Y-47941071D02*
X193161028Y-48512500D01*
X193161028Y-48512500D02*
X193232457Y-48655357D01*
X193232457Y-48655357D02*
X193303885Y-48726786D01*
X193303885Y-48726786D02*
X193446742Y-48798214D01*
X193446742Y-48798214D02*
X193661028Y-48798214D01*
X193661028Y-48798214D02*
X193803885Y-48726786D01*
X193803885Y-48726786D02*
X193875314Y-48655357D01*
X193875314Y-48655357D02*
X193946742Y-48512500D01*
X193946742Y-48512500D02*
X193946742Y-47941071D01*
X194661028Y-49441071D02*
X193661028Y-49441071D01*
X193161028Y-49441071D02*
X193232457Y-49369643D01*
X193232457Y-49369643D02*
X193303885Y-49441071D01*
X193303885Y-49441071D02*
X193232457Y-49512500D01*
X193232457Y-49512500D02*
X193161028Y-49441071D01*
X193161028Y-49441071D02*
X193303885Y-49441071D01*
X194661028Y-51298214D02*
X193161028Y-51298214D01*
X193161028Y-51298214D02*
X193161028Y-51869643D01*
X193161028Y-51869643D02*
X193232457Y-52012500D01*
X193232457Y-52012500D02*
X193303885Y-52083929D01*
X193303885Y-52083929D02*
X193446742Y-52155357D01*
X193446742Y-52155357D02*
X193661028Y-52155357D01*
X193661028Y-52155357D02*
X193803885Y-52083929D01*
X193803885Y-52083929D02*
X193875314Y-52012500D01*
X193875314Y-52012500D02*
X193946742Y-51869643D01*
X193946742Y-51869643D02*
X193946742Y-51298214D01*
X194661028Y-52798214D02*
X193661028Y-52798214D01*
X193161028Y-52798214D02*
X193232457Y-52726786D01*
X193232457Y-52726786D02*
X193303885Y-52798214D01*
X193303885Y-52798214D02*
X193232457Y-52869643D01*
X193232457Y-52869643D02*
X193161028Y-52798214D01*
X193161028Y-52798214D02*
X193303885Y-52798214D01*
X194589600Y-54155358D02*
X194661028Y-54012500D01*
X194661028Y-54012500D02*
X194661028Y-53726786D01*
X194661028Y-53726786D02*
X194589600Y-53583929D01*
X194589600Y-53583929D02*
X194518171Y-53512500D01*
X194518171Y-53512500D02*
X194375314Y-53441072D01*
X194375314Y-53441072D02*
X193946742Y-53441072D01*
X193946742Y-53441072D02*
X193803885Y-53512500D01*
X193803885Y-53512500D02*
X193732457Y-53583929D01*
X193732457Y-53583929D02*
X193661028Y-53726786D01*
X193661028Y-53726786D02*
X193661028Y-54012500D01*
X193661028Y-54012500D02*
X193732457Y-54155358D01*
X194661028Y-55012500D02*
X194589600Y-54869643D01*
X194589600Y-54869643D02*
X194518171Y-54798214D01*
X194518171Y-54798214D02*
X194375314Y-54726786D01*
X194375314Y-54726786D02*
X193946742Y-54726786D01*
X193946742Y-54726786D02*
X193803885Y-54798214D01*
X193803885Y-54798214D02*
X193732457Y-54869643D01*
X193732457Y-54869643D02*
X193661028Y-55012500D01*
X193661028Y-55012500D02*
X193661028Y-55226786D01*
X193661028Y-55226786D02*
X193732457Y-55369643D01*
X193732457Y-55369643D02*
X193803885Y-55441072D01*
X193803885Y-55441072D02*
X193946742Y-55512500D01*
X193946742Y-55512500D02*
X194375314Y-55512500D01*
X194375314Y-55512500D02*
X194518171Y-55441072D01*
X194518171Y-55441072D02*
X194589600Y-55369643D01*
X194589600Y-55369643D02*
X194661028Y-55226786D01*
X194661028Y-55226786D02*
X194661028Y-55012500D01*
X193303885Y-56083929D02*
X193232457Y-56155357D01*
X193232457Y-56155357D02*
X193161028Y-56298215D01*
X193161028Y-56298215D02*
X193161028Y-56655357D01*
X193161028Y-56655357D02*
X193232457Y-56798215D01*
X193232457Y-56798215D02*
X193303885Y-56869643D01*
X193303885Y-56869643D02*
X193446742Y-56941072D01*
X193446742Y-56941072D02*
X193589600Y-56941072D01*
X193589600Y-56941072D02*
X193803885Y-56869643D01*
X193803885Y-56869643D02*
X194661028Y-56012500D01*
X194661028Y-56012500D02*
X194661028Y-56941072D01*
X193161028Y-57441071D02*
X194661028Y-57798214D01*
X194661028Y-57798214D02*
X193589600Y-58083928D01*
X193589600Y-58083928D02*
X194661028Y-58369643D01*
X194661028Y-58369643D02*
X193161028Y-58726786D01*
X110583528Y-57398572D02*
X110583528Y-57541429D01*
X110583528Y-57541429D02*
X110654957Y-57684286D01*
X110654957Y-57684286D02*
X110726385Y-57755715D01*
X110726385Y-57755715D02*
X110869242Y-57827143D01*
X110869242Y-57827143D02*
X111154957Y-57898572D01*
X111154957Y-57898572D02*
X111512100Y-57898572D01*
X111512100Y-57898572D02*
X111797814Y-57827143D01*
X111797814Y-57827143D02*
X111940671Y-57755715D01*
X111940671Y-57755715D02*
X112012100Y-57684286D01*
X112012100Y-57684286D02*
X112083528Y-57541429D01*
X112083528Y-57541429D02*
X112083528Y-57398572D01*
X112083528Y-57398572D02*
X112012100Y-57255715D01*
X112012100Y-57255715D02*
X111940671Y-57184286D01*
X111940671Y-57184286D02*
X111797814Y-57112857D01*
X111797814Y-57112857D02*
X111512100Y-57041429D01*
X111512100Y-57041429D02*
X111154957Y-57041429D01*
X111154957Y-57041429D02*
X110869242Y-57112857D01*
X110869242Y-57112857D02*
X110726385Y-57184286D01*
X110726385Y-57184286D02*
X110654957Y-57255715D01*
X110654957Y-57255715D02*
X110583528Y-57398572D01*
X111940671Y-58541428D02*
X112012100Y-58612857D01*
X112012100Y-58612857D02*
X112083528Y-58541428D01*
X112083528Y-58541428D02*
X112012100Y-58470000D01*
X112012100Y-58470000D02*
X111940671Y-58541428D01*
X111940671Y-58541428D02*
X112083528Y-58541428D01*
X112083528Y-60041429D02*
X112083528Y-59184286D01*
X112083528Y-59612857D02*
X110583528Y-59612857D01*
X110583528Y-59612857D02*
X110797814Y-59470000D01*
X110797814Y-59470000D02*
X110940671Y-59327143D01*
X110940671Y-59327143D02*
X111012100Y-59184286D01*
X111083528Y-60684285D02*
X112583528Y-60684285D01*
X111869242Y-61398571D02*
X112012100Y-61470000D01*
X112012100Y-61470000D02*
X112083528Y-61612857D01*
X111869242Y-60684285D02*
X112012100Y-60755714D01*
X112012100Y-60755714D02*
X112083528Y-60898571D01*
X112083528Y-60898571D02*
X112083528Y-61184285D01*
X112083528Y-61184285D02*
X112012100Y-61327143D01*
X112012100Y-61327143D02*
X111869242Y-61398571D01*
X111869242Y-61398571D02*
X111083528Y-61398571D01*
X111297814Y-62755714D02*
X111297814Y-62255714D01*
X112083528Y-62255714D02*
X110583528Y-62255714D01*
X110583528Y-62255714D02*
X110583528Y-62970000D01*
X173983528Y-126075001D02*
X173983528Y-127075001D01*
X173983528Y-127075001D02*
X175483528Y-126432144D01*
X174483528Y-128289287D02*
X175483528Y-128289287D01*
X173912100Y-127932144D02*
X174983528Y-127575001D01*
X174983528Y-127575001D02*
X174983528Y-128503572D01*
X175054957Y-129003572D02*
X175054957Y-129717858D01*
X175483528Y-128860715D02*
X173983528Y-129360715D01*
X173983528Y-129360715D02*
X175483528Y-129860715D01*
X175340671Y-131217857D02*
X175412100Y-131146429D01*
X175412100Y-131146429D02*
X175483528Y-130932143D01*
X175483528Y-130932143D02*
X175483528Y-130789286D01*
X175483528Y-130789286D02*
X175412100Y-130575000D01*
X175412100Y-130575000D02*
X175269242Y-130432143D01*
X175269242Y-130432143D02*
X175126385Y-130360714D01*
X175126385Y-130360714D02*
X174840671Y-130289286D01*
X174840671Y-130289286D02*
X174626385Y-130289286D01*
X174626385Y-130289286D02*
X174340671Y-130360714D01*
X174340671Y-130360714D02*
X174197814Y-130432143D01*
X174197814Y-130432143D02*
X174054957Y-130575000D01*
X174054957Y-130575000D02*
X173983528Y-130789286D01*
X173983528Y-130789286D02*
X173983528Y-130932143D01*
X173983528Y-130932143D02*
X174054957Y-131146429D01*
X174054957Y-131146429D02*
X174126385Y-131217857D01*
X173983528Y-132575000D02*
X173983528Y-131860714D01*
X173983528Y-131860714D02*
X174697814Y-131789286D01*
X174697814Y-131789286D02*
X174626385Y-131860714D01*
X174626385Y-131860714D02*
X174554957Y-132003572D01*
X174554957Y-132003572D02*
X174554957Y-132360714D01*
X174554957Y-132360714D02*
X174626385Y-132503572D01*
X174626385Y-132503572D02*
X174697814Y-132575000D01*
X174697814Y-132575000D02*
X174840671Y-132646429D01*
X174840671Y-132646429D02*
X175197814Y-132646429D01*
X175197814Y-132646429D02*
X175340671Y-132575000D01*
X175340671Y-132575000D02*
X175412100Y-132503572D01*
X175412100Y-132503572D02*
X175483528Y-132360714D01*
X175483528Y-132360714D02*
X175483528Y-132003572D01*
X175483528Y-132003572D02*
X175412100Y-131860714D01*
X175412100Y-131860714D02*
X175340671Y-131789286D01*
X173983528Y-133146428D02*
X173983528Y-134146428D01*
X173983528Y-134146428D02*
X175483528Y-133503571D01*
X173983528Y-134574999D02*
X173983528Y-135503571D01*
X173983528Y-135503571D02*
X174554957Y-135003571D01*
X174554957Y-135003571D02*
X174554957Y-135217856D01*
X174554957Y-135217856D02*
X174626385Y-135360714D01*
X174626385Y-135360714D02*
X174697814Y-135432142D01*
X174697814Y-135432142D02*
X174840671Y-135503571D01*
X174840671Y-135503571D02*
X175197814Y-135503571D01*
X175197814Y-135503571D02*
X175340671Y-135432142D01*
X175340671Y-135432142D02*
X175412100Y-135360714D01*
X175412100Y-135360714D02*
X175483528Y-135217856D01*
X175483528Y-135217856D02*
X175483528Y-134789285D01*
X175483528Y-134789285D02*
X175412100Y-134646428D01*
X175412100Y-134646428D02*
X175340671Y-134574999D01*
X137343885Y-57381786D02*
X137272457Y-57238929D01*
X137272457Y-57238929D02*
X137201028Y-57167500D01*
X137201028Y-57167500D02*
X137058171Y-57096072D01*
X137058171Y-57096072D02*
X136986742Y-57096072D01*
X136986742Y-57096072D02*
X136843885Y-57167500D01*
X136843885Y-57167500D02*
X136772457Y-57238929D01*
X136772457Y-57238929D02*
X136701028Y-57381786D01*
X136701028Y-57381786D02*
X136701028Y-57667500D01*
X136701028Y-57667500D02*
X136772457Y-57810358D01*
X136772457Y-57810358D02*
X136843885Y-57881786D01*
X136843885Y-57881786D02*
X136986742Y-57953215D01*
X136986742Y-57953215D02*
X137058171Y-57953215D01*
X137058171Y-57953215D02*
X137201028Y-57881786D01*
X137201028Y-57881786D02*
X137272457Y-57810358D01*
X137272457Y-57810358D02*
X137343885Y-57667500D01*
X137343885Y-57667500D02*
X137343885Y-57381786D01*
X137343885Y-57381786D02*
X137415314Y-57238929D01*
X137415314Y-57238929D02*
X137486742Y-57167500D01*
X137486742Y-57167500D02*
X137629600Y-57096072D01*
X137629600Y-57096072D02*
X137915314Y-57096072D01*
X137915314Y-57096072D02*
X138058171Y-57167500D01*
X138058171Y-57167500D02*
X138129600Y-57238929D01*
X138129600Y-57238929D02*
X138201028Y-57381786D01*
X138201028Y-57381786D02*
X138201028Y-57667500D01*
X138201028Y-57667500D02*
X138129600Y-57810358D01*
X138129600Y-57810358D02*
X138058171Y-57881786D01*
X138058171Y-57881786D02*
X137915314Y-57953215D01*
X137915314Y-57953215D02*
X137629600Y-57953215D01*
X137629600Y-57953215D02*
X137486742Y-57881786D01*
X137486742Y-57881786D02*
X137415314Y-57810358D01*
X137415314Y-57810358D02*
X137343885Y-57667500D01*
X138058171Y-58596071D02*
X138129600Y-58667500D01*
X138129600Y-58667500D02*
X138201028Y-58596071D01*
X138201028Y-58596071D02*
X138129600Y-58524643D01*
X138129600Y-58524643D02*
X138058171Y-58596071D01*
X138058171Y-58596071D02*
X138201028Y-58596071D01*
X136701028Y-59596072D02*
X136701028Y-59738929D01*
X136701028Y-59738929D02*
X136772457Y-59881786D01*
X136772457Y-59881786D02*
X136843885Y-59953215D01*
X136843885Y-59953215D02*
X136986742Y-60024643D01*
X136986742Y-60024643D02*
X137272457Y-60096072D01*
X137272457Y-60096072D02*
X137629600Y-60096072D01*
X137629600Y-60096072D02*
X137915314Y-60024643D01*
X137915314Y-60024643D02*
X138058171Y-59953215D01*
X138058171Y-59953215D02*
X138129600Y-59881786D01*
X138129600Y-59881786D02*
X138201028Y-59738929D01*
X138201028Y-59738929D02*
X138201028Y-59596072D01*
X138201028Y-59596072D02*
X138129600Y-59453215D01*
X138129600Y-59453215D02*
X138058171Y-59381786D01*
X138058171Y-59381786D02*
X137915314Y-59310357D01*
X137915314Y-59310357D02*
X137629600Y-59238929D01*
X137629600Y-59238929D02*
X137272457Y-59238929D01*
X137272457Y-59238929D02*
X136986742Y-59310357D01*
X136986742Y-59310357D02*
X136843885Y-59381786D01*
X136843885Y-59381786D02*
X136772457Y-59453215D01*
X136772457Y-59453215D02*
X136701028Y-59596072D01*
X136701028Y-61381786D02*
X136701028Y-61096071D01*
X136701028Y-61096071D02*
X136772457Y-60953214D01*
X136772457Y-60953214D02*
X136843885Y-60881786D01*
X136843885Y-60881786D02*
X137058171Y-60738928D01*
X137058171Y-60738928D02*
X137343885Y-60667500D01*
X137343885Y-60667500D02*
X137915314Y-60667500D01*
X137915314Y-60667500D02*
X138058171Y-60738928D01*
X138058171Y-60738928D02*
X138129600Y-60810357D01*
X138129600Y-60810357D02*
X138201028Y-60953214D01*
X138201028Y-60953214D02*
X138201028Y-61238928D01*
X138201028Y-61238928D02*
X138129600Y-61381786D01*
X138129600Y-61381786D02*
X138058171Y-61453214D01*
X138058171Y-61453214D02*
X137915314Y-61524643D01*
X137915314Y-61524643D02*
X137558171Y-61524643D01*
X137558171Y-61524643D02*
X137415314Y-61453214D01*
X137415314Y-61453214D02*
X137343885Y-61381786D01*
X137343885Y-61381786D02*
X137272457Y-61238928D01*
X137272457Y-61238928D02*
X137272457Y-60953214D01*
X137272457Y-60953214D02*
X137343885Y-60810357D01*
X137343885Y-60810357D02*
X137415314Y-60738928D01*
X137415314Y-60738928D02*
X137558171Y-60667500D01*
X138201028Y-62167499D02*
X136701028Y-62167499D01*
X137629600Y-62310357D02*
X138201028Y-62738928D01*
X137201028Y-62738928D02*
X137772457Y-62167499D01*
X112608528Y-72517858D02*
X113608528Y-72517858D01*
X112037100Y-72160715D02*
X113108528Y-71803572D01*
X113108528Y-71803572D02*
X113108528Y-72732143D01*
X112108528Y-73160714D02*
X112108528Y-74160714D01*
X112108528Y-74160714D02*
X113608528Y-73517857D01*
X112608528Y-74732142D02*
X114108528Y-74732142D01*
X113394242Y-75446428D02*
X113537100Y-75517857D01*
X113537100Y-75517857D02*
X113608528Y-75660714D01*
X113394242Y-74732142D02*
X113537100Y-74803571D01*
X113537100Y-74803571D02*
X113608528Y-74946428D01*
X113608528Y-74946428D02*
X113608528Y-75232142D01*
X113608528Y-75232142D02*
X113537100Y-75375000D01*
X113537100Y-75375000D02*
X113394242Y-75446428D01*
X113394242Y-75446428D02*
X112608528Y-75446428D01*
X112822814Y-76803571D02*
X112822814Y-76303571D01*
X113608528Y-76303571D02*
X112108528Y-76303571D01*
X112108528Y-76303571D02*
X112108528Y-77017857D01*
X114941028Y-59488929D02*
X115941028Y-59488929D01*
X114369600Y-59131786D02*
X115441028Y-58774643D01*
X115441028Y-58774643D02*
X115441028Y-59703214D01*
X114441028Y-60131785D02*
X114441028Y-61131785D01*
X114441028Y-61131785D02*
X115941028Y-60488928D01*
X189553528Y-85448572D02*
X189553528Y-85591429D01*
X189553528Y-85591429D02*
X189624957Y-85734286D01*
X189624957Y-85734286D02*
X189696385Y-85805715D01*
X189696385Y-85805715D02*
X189839242Y-85877143D01*
X189839242Y-85877143D02*
X190124957Y-85948572D01*
X190124957Y-85948572D02*
X190482100Y-85948572D01*
X190482100Y-85948572D02*
X190767814Y-85877143D01*
X190767814Y-85877143D02*
X190910671Y-85805715D01*
X190910671Y-85805715D02*
X190982100Y-85734286D01*
X190982100Y-85734286D02*
X191053528Y-85591429D01*
X191053528Y-85591429D02*
X191053528Y-85448572D01*
X191053528Y-85448572D02*
X190982100Y-85305715D01*
X190982100Y-85305715D02*
X190910671Y-85234286D01*
X190910671Y-85234286D02*
X190767814Y-85162857D01*
X190767814Y-85162857D02*
X190482100Y-85091429D01*
X190482100Y-85091429D02*
X190124957Y-85091429D01*
X190124957Y-85091429D02*
X189839242Y-85162857D01*
X189839242Y-85162857D02*
X189696385Y-85234286D01*
X189696385Y-85234286D02*
X189624957Y-85305715D01*
X189624957Y-85305715D02*
X189553528Y-85448572D01*
X190910671Y-86591428D02*
X190982100Y-86662857D01*
X190982100Y-86662857D02*
X191053528Y-86591428D01*
X191053528Y-86591428D02*
X190982100Y-86520000D01*
X190982100Y-86520000D02*
X190910671Y-86591428D01*
X190910671Y-86591428D02*
X191053528Y-86591428D01*
X191053528Y-88091429D02*
X191053528Y-87234286D01*
X191053528Y-87662857D02*
X189553528Y-87662857D01*
X189553528Y-87662857D02*
X189767814Y-87520000D01*
X189767814Y-87520000D02*
X189910671Y-87377143D01*
X189910671Y-87377143D02*
X189982100Y-87234286D01*
X190053528Y-88734285D02*
X191553528Y-88734285D01*
X190839242Y-89448571D02*
X190982100Y-89520000D01*
X190982100Y-89520000D02*
X191053528Y-89662857D01*
X190839242Y-88734285D02*
X190982100Y-88805714D01*
X190982100Y-88805714D02*
X191053528Y-88948571D01*
X191053528Y-88948571D02*
X191053528Y-89234285D01*
X191053528Y-89234285D02*
X190982100Y-89377143D01*
X190982100Y-89377143D02*
X190839242Y-89448571D01*
X190839242Y-89448571D02*
X190053528Y-89448571D01*
X190267814Y-90805714D02*
X190267814Y-90305714D01*
X191053528Y-90305714D02*
X189553528Y-90305714D01*
X189553528Y-90305714D02*
X189553528Y-91020000D01*
X121433885Y-57381786D02*
X121362457Y-57238929D01*
X121362457Y-57238929D02*
X121291028Y-57167500D01*
X121291028Y-57167500D02*
X121148171Y-57096072D01*
X121148171Y-57096072D02*
X121076742Y-57096072D01*
X121076742Y-57096072D02*
X120933885Y-57167500D01*
X120933885Y-57167500D02*
X120862457Y-57238929D01*
X120862457Y-57238929D02*
X120791028Y-57381786D01*
X120791028Y-57381786D02*
X120791028Y-57667500D01*
X120791028Y-57667500D02*
X120862457Y-57810358D01*
X120862457Y-57810358D02*
X120933885Y-57881786D01*
X120933885Y-57881786D02*
X121076742Y-57953215D01*
X121076742Y-57953215D02*
X121148171Y-57953215D01*
X121148171Y-57953215D02*
X121291028Y-57881786D01*
X121291028Y-57881786D02*
X121362457Y-57810358D01*
X121362457Y-57810358D02*
X121433885Y-57667500D01*
X121433885Y-57667500D02*
X121433885Y-57381786D01*
X121433885Y-57381786D02*
X121505314Y-57238929D01*
X121505314Y-57238929D02*
X121576742Y-57167500D01*
X121576742Y-57167500D02*
X121719600Y-57096072D01*
X121719600Y-57096072D02*
X122005314Y-57096072D01*
X122005314Y-57096072D02*
X122148171Y-57167500D01*
X122148171Y-57167500D02*
X122219600Y-57238929D01*
X122219600Y-57238929D02*
X122291028Y-57381786D01*
X122291028Y-57381786D02*
X122291028Y-57667500D01*
X122291028Y-57667500D02*
X122219600Y-57810358D01*
X122219600Y-57810358D02*
X122148171Y-57881786D01*
X122148171Y-57881786D02*
X122005314Y-57953215D01*
X122005314Y-57953215D02*
X121719600Y-57953215D01*
X121719600Y-57953215D02*
X121576742Y-57881786D01*
X121576742Y-57881786D02*
X121505314Y-57810358D01*
X121505314Y-57810358D02*
X121433885Y-57667500D01*
X122148171Y-58596071D02*
X122219600Y-58667500D01*
X122219600Y-58667500D02*
X122291028Y-58596071D01*
X122291028Y-58596071D02*
X122219600Y-58524643D01*
X122219600Y-58524643D02*
X122148171Y-58596071D01*
X122148171Y-58596071D02*
X122291028Y-58596071D01*
X120791028Y-59596072D02*
X120791028Y-59738929D01*
X120791028Y-59738929D02*
X120862457Y-59881786D01*
X120862457Y-59881786D02*
X120933885Y-59953215D01*
X120933885Y-59953215D02*
X121076742Y-60024643D01*
X121076742Y-60024643D02*
X121362457Y-60096072D01*
X121362457Y-60096072D02*
X121719600Y-60096072D01*
X121719600Y-60096072D02*
X122005314Y-60024643D01*
X122005314Y-60024643D02*
X122148171Y-59953215D01*
X122148171Y-59953215D02*
X122219600Y-59881786D01*
X122219600Y-59881786D02*
X122291028Y-59738929D01*
X122291028Y-59738929D02*
X122291028Y-59596072D01*
X122291028Y-59596072D02*
X122219600Y-59453215D01*
X122219600Y-59453215D02*
X122148171Y-59381786D01*
X122148171Y-59381786D02*
X122005314Y-59310357D01*
X122005314Y-59310357D02*
X121719600Y-59238929D01*
X121719600Y-59238929D02*
X121362457Y-59238929D01*
X121362457Y-59238929D02*
X121076742Y-59310357D01*
X121076742Y-59310357D02*
X120933885Y-59381786D01*
X120933885Y-59381786D02*
X120862457Y-59453215D01*
X120862457Y-59453215D02*
X120791028Y-59596072D01*
X120791028Y-61381786D02*
X120791028Y-61096071D01*
X120791028Y-61096071D02*
X120862457Y-60953214D01*
X120862457Y-60953214D02*
X120933885Y-60881786D01*
X120933885Y-60881786D02*
X121148171Y-60738928D01*
X121148171Y-60738928D02*
X121433885Y-60667500D01*
X121433885Y-60667500D02*
X122005314Y-60667500D01*
X122005314Y-60667500D02*
X122148171Y-60738928D01*
X122148171Y-60738928D02*
X122219600Y-60810357D01*
X122219600Y-60810357D02*
X122291028Y-60953214D01*
X122291028Y-60953214D02*
X122291028Y-61238928D01*
X122291028Y-61238928D02*
X122219600Y-61381786D01*
X122219600Y-61381786D02*
X122148171Y-61453214D01*
X122148171Y-61453214D02*
X122005314Y-61524643D01*
X122005314Y-61524643D02*
X121648171Y-61524643D01*
X121648171Y-61524643D02*
X121505314Y-61453214D01*
X121505314Y-61453214D02*
X121433885Y-61381786D01*
X121433885Y-61381786D02*
X121362457Y-61238928D01*
X121362457Y-61238928D02*
X121362457Y-60953214D01*
X121362457Y-60953214D02*
X121433885Y-60810357D01*
X121433885Y-60810357D02*
X121505314Y-60738928D01*
X121505314Y-60738928D02*
X121648171Y-60667500D01*
X122291028Y-62167499D02*
X120791028Y-62167499D01*
X121719600Y-62310357D02*
X122291028Y-62738928D01*
X121291028Y-62738928D02*
X121862457Y-62167499D01*
X140101385Y-76684286D02*
X140029957Y-76755714D01*
X140029957Y-76755714D02*
X139958528Y-76898572D01*
X139958528Y-76898572D02*
X139958528Y-77255714D01*
X139958528Y-77255714D02*
X140029957Y-77398572D01*
X140029957Y-77398572D02*
X140101385Y-77470000D01*
X140101385Y-77470000D02*
X140244242Y-77541429D01*
X140244242Y-77541429D02*
X140387100Y-77541429D01*
X140387100Y-77541429D02*
X140601385Y-77470000D01*
X140601385Y-77470000D02*
X141458528Y-76612857D01*
X141458528Y-76612857D02*
X141458528Y-77541429D01*
X141458528Y-78184285D02*
X139958528Y-78184285D01*
X140887100Y-78327143D02*
X141458528Y-78755714D01*
X140458528Y-78755714D02*
X141029957Y-78184285D01*
X169241028Y-57446072D02*
X169241028Y-57588929D01*
X169241028Y-57588929D02*
X169312457Y-57731786D01*
X169312457Y-57731786D02*
X169383885Y-57803215D01*
X169383885Y-57803215D02*
X169526742Y-57874643D01*
X169526742Y-57874643D02*
X169812457Y-57946072D01*
X169812457Y-57946072D02*
X170169600Y-57946072D01*
X170169600Y-57946072D02*
X170455314Y-57874643D01*
X170455314Y-57874643D02*
X170598171Y-57803215D01*
X170598171Y-57803215D02*
X170669600Y-57731786D01*
X170669600Y-57731786D02*
X170741028Y-57588929D01*
X170741028Y-57588929D02*
X170741028Y-57446072D01*
X170741028Y-57446072D02*
X170669600Y-57303215D01*
X170669600Y-57303215D02*
X170598171Y-57231786D01*
X170598171Y-57231786D02*
X170455314Y-57160357D01*
X170455314Y-57160357D02*
X170169600Y-57088929D01*
X170169600Y-57088929D02*
X169812457Y-57088929D01*
X169812457Y-57088929D02*
X169526742Y-57160357D01*
X169526742Y-57160357D02*
X169383885Y-57231786D01*
X169383885Y-57231786D02*
X169312457Y-57303215D01*
X169312457Y-57303215D02*
X169241028Y-57446072D01*
X170598171Y-58588928D02*
X170669600Y-58660357D01*
X170669600Y-58660357D02*
X170741028Y-58588928D01*
X170741028Y-58588928D02*
X170669600Y-58517500D01*
X170669600Y-58517500D02*
X170598171Y-58588928D01*
X170598171Y-58588928D02*
X170741028Y-58588928D01*
X170741028Y-60088929D02*
X170741028Y-59231786D01*
X170741028Y-59660357D02*
X169241028Y-59660357D01*
X169241028Y-59660357D02*
X169455314Y-59517500D01*
X169455314Y-59517500D02*
X169598171Y-59374643D01*
X169598171Y-59374643D02*
X169669600Y-59231786D01*
X169741028Y-60731785D02*
X171241028Y-60731785D01*
X170526742Y-61446071D02*
X170669600Y-61517500D01*
X170669600Y-61517500D02*
X170741028Y-61660357D01*
X170526742Y-60731785D02*
X170669600Y-60803214D01*
X170669600Y-60803214D02*
X170741028Y-60946071D01*
X170741028Y-60946071D02*
X170741028Y-61231785D01*
X170741028Y-61231785D02*
X170669600Y-61374643D01*
X170669600Y-61374643D02*
X170526742Y-61446071D01*
X170526742Y-61446071D02*
X169741028Y-61446071D01*
X169955314Y-62803214D02*
X169955314Y-62303214D01*
X170741028Y-62303214D02*
X169241028Y-62303214D01*
X169241028Y-62303214D02*
X169241028Y-63017500D01*
X143193885Y-58881786D02*
X143122457Y-58953214D01*
X143122457Y-58953214D02*
X143051028Y-59096072D01*
X143051028Y-59096072D02*
X143051028Y-59453214D01*
X143051028Y-59453214D02*
X143122457Y-59596072D01*
X143122457Y-59596072D02*
X143193885Y-59667500D01*
X143193885Y-59667500D02*
X143336742Y-59738929D01*
X143336742Y-59738929D02*
X143479600Y-59738929D01*
X143479600Y-59738929D02*
X143693885Y-59667500D01*
X143693885Y-59667500D02*
X144551028Y-58810357D01*
X144551028Y-58810357D02*
X144551028Y-59738929D01*
X144551028Y-60381785D02*
X143051028Y-60381785D01*
X143979600Y-60524643D02*
X144551028Y-60953214D01*
X143551028Y-60953214D02*
X144122457Y-60381785D01*
X134416427Y-99558528D02*
X134273570Y-99558528D01*
X134273570Y-99558528D02*
X134130713Y-99629957D01*
X134130713Y-99629957D02*
X134059285Y-99701385D01*
X134059285Y-99701385D02*
X133987856Y-99844242D01*
X133987856Y-99844242D02*
X133916427Y-100129957D01*
X133916427Y-100129957D02*
X133916427Y-100487100D01*
X133916427Y-100487100D02*
X133987856Y-100772814D01*
X133987856Y-100772814D02*
X134059285Y-100915671D01*
X134059285Y-100915671D02*
X134130713Y-100987100D01*
X134130713Y-100987100D02*
X134273570Y-101058528D01*
X134273570Y-101058528D02*
X134416427Y-101058528D01*
X134416427Y-101058528D02*
X134559285Y-100987100D01*
X134559285Y-100987100D02*
X134630713Y-100915671D01*
X134630713Y-100915671D02*
X134702142Y-100772814D01*
X134702142Y-100772814D02*
X134773570Y-100487100D01*
X134773570Y-100487100D02*
X134773570Y-100129957D01*
X134773570Y-100129957D02*
X134702142Y-99844242D01*
X134702142Y-99844242D02*
X134630713Y-99701385D01*
X134630713Y-99701385D02*
X134559285Y-99629957D01*
X134559285Y-99629957D02*
X134416427Y-99558528D01*
X133273571Y-100915671D02*
X133202142Y-100987100D01*
X133202142Y-100987100D02*
X133273571Y-101058528D01*
X133273571Y-101058528D02*
X133344999Y-100987100D01*
X133344999Y-100987100D02*
X133273571Y-100915671D01*
X133273571Y-100915671D02*
X133273571Y-101058528D01*
X131773570Y-101058528D02*
X132630713Y-101058528D01*
X132202142Y-101058528D02*
X132202142Y-99558528D01*
X132202142Y-99558528D02*
X132344999Y-99772814D01*
X132344999Y-99772814D02*
X132487856Y-99915671D01*
X132487856Y-99915671D02*
X132630713Y-99987100D01*
X131130714Y-100058528D02*
X131130714Y-101558528D01*
X130416428Y-100844242D02*
X130344999Y-100987100D01*
X130344999Y-100987100D02*
X130202142Y-101058528D01*
X131130714Y-100844242D02*
X131059285Y-100987100D01*
X131059285Y-100987100D02*
X130916428Y-101058528D01*
X130916428Y-101058528D02*
X130630714Y-101058528D01*
X130630714Y-101058528D02*
X130487857Y-100987100D01*
X130487857Y-100987100D02*
X130416428Y-100844242D01*
X130416428Y-100844242D02*
X130416428Y-100058528D01*
X129059285Y-100272814D02*
X129559285Y-100272814D01*
X129559285Y-101058528D02*
X129559285Y-99558528D01*
X129559285Y-99558528D02*
X128844999Y-99558528D01*
X131652457Y-118054644D02*
X131652457Y-118768930D01*
X132081028Y-117911787D02*
X130581028Y-118411787D01*
X130581028Y-118411787D02*
X132081028Y-118911787D01*
X132009600Y-119340358D02*
X132081028Y-119554644D01*
X132081028Y-119554644D02*
X132081028Y-119911786D01*
X132081028Y-119911786D02*
X132009600Y-120054644D01*
X132009600Y-120054644D02*
X131938171Y-120126072D01*
X131938171Y-120126072D02*
X131795314Y-120197501D01*
X131795314Y-120197501D02*
X131652457Y-120197501D01*
X131652457Y-120197501D02*
X131509600Y-120126072D01*
X131509600Y-120126072D02*
X131438171Y-120054644D01*
X131438171Y-120054644D02*
X131366742Y-119911786D01*
X131366742Y-119911786D02*
X131295314Y-119626072D01*
X131295314Y-119626072D02*
X131223885Y-119483215D01*
X131223885Y-119483215D02*
X131152457Y-119411786D01*
X131152457Y-119411786D02*
X131009600Y-119340358D01*
X131009600Y-119340358D02*
X130866742Y-119340358D01*
X130866742Y-119340358D02*
X130723885Y-119411786D01*
X130723885Y-119411786D02*
X130652457Y-119483215D01*
X130652457Y-119483215D02*
X130581028Y-119626072D01*
X130581028Y-119626072D02*
X130581028Y-119983215D01*
X130581028Y-119983215D02*
X130652457Y-120197501D01*
X130581028Y-121483215D02*
X130581028Y-121197500D01*
X130581028Y-121197500D02*
X130652457Y-121054643D01*
X130652457Y-121054643D02*
X130723885Y-120983215D01*
X130723885Y-120983215D02*
X130938171Y-120840357D01*
X130938171Y-120840357D02*
X131223885Y-120768929D01*
X131223885Y-120768929D02*
X131795314Y-120768929D01*
X131795314Y-120768929D02*
X131938171Y-120840357D01*
X131938171Y-120840357D02*
X132009600Y-120911786D01*
X132009600Y-120911786D02*
X132081028Y-121054643D01*
X132081028Y-121054643D02*
X132081028Y-121340357D01*
X132081028Y-121340357D02*
X132009600Y-121483215D01*
X132009600Y-121483215D02*
X131938171Y-121554643D01*
X131938171Y-121554643D02*
X131795314Y-121626072D01*
X131795314Y-121626072D02*
X131438171Y-121626072D01*
X131438171Y-121626072D02*
X131295314Y-121554643D01*
X131295314Y-121554643D02*
X131223885Y-121483215D01*
X131223885Y-121483215D02*
X131152457Y-121340357D01*
X131152457Y-121340357D02*
X131152457Y-121054643D01*
X131152457Y-121054643D02*
X131223885Y-120911786D01*
X131223885Y-120911786D02*
X131295314Y-120840357D01*
X131295314Y-120840357D02*
X131438171Y-120768929D01*
X131938171Y-123126071D02*
X132009600Y-123054643D01*
X132009600Y-123054643D02*
X132081028Y-122840357D01*
X132081028Y-122840357D02*
X132081028Y-122697500D01*
X132081028Y-122697500D02*
X132009600Y-122483214D01*
X132009600Y-122483214D02*
X131866742Y-122340357D01*
X131866742Y-122340357D02*
X131723885Y-122268928D01*
X131723885Y-122268928D02*
X131438171Y-122197500D01*
X131438171Y-122197500D02*
X131223885Y-122197500D01*
X131223885Y-122197500D02*
X130938171Y-122268928D01*
X130938171Y-122268928D02*
X130795314Y-122340357D01*
X130795314Y-122340357D02*
X130652457Y-122483214D01*
X130652457Y-122483214D02*
X130581028Y-122697500D01*
X130581028Y-122697500D02*
X130581028Y-122840357D01*
X130581028Y-122840357D02*
X130652457Y-123054643D01*
X130652457Y-123054643D02*
X130723885Y-123126071D01*
X131081028Y-124411786D02*
X132081028Y-124411786D01*
X130509600Y-124054643D02*
X131581028Y-123697500D01*
X131581028Y-123697500D02*
X131581028Y-124626071D01*
X130581028Y-125483214D02*
X130581028Y-125626071D01*
X130581028Y-125626071D02*
X130652457Y-125768928D01*
X130652457Y-125768928D02*
X130723885Y-125840357D01*
X130723885Y-125840357D02*
X130866742Y-125911785D01*
X130866742Y-125911785D02*
X131152457Y-125983214D01*
X131152457Y-125983214D02*
X131509600Y-125983214D01*
X131509600Y-125983214D02*
X131795314Y-125911785D01*
X131795314Y-125911785D02*
X131938171Y-125840357D01*
X131938171Y-125840357D02*
X132009600Y-125768928D01*
X132009600Y-125768928D02*
X132081028Y-125626071D01*
X132081028Y-125626071D02*
X132081028Y-125483214D01*
X132081028Y-125483214D02*
X132009600Y-125340357D01*
X132009600Y-125340357D02*
X131938171Y-125268928D01*
X131938171Y-125268928D02*
X131795314Y-125197499D01*
X131795314Y-125197499D02*
X131509600Y-125126071D01*
X131509600Y-125126071D02*
X131152457Y-125126071D01*
X131152457Y-125126071D02*
X130866742Y-125197499D01*
X130866742Y-125197499D02*
X130723885Y-125268928D01*
X130723885Y-125268928D02*
X130652457Y-125340357D01*
X130652457Y-125340357D02*
X130581028Y-125483214D01*
X130581028Y-126911785D02*
X130581028Y-127054642D01*
X130581028Y-127054642D02*
X130652457Y-127197499D01*
X130652457Y-127197499D02*
X130723885Y-127268928D01*
X130723885Y-127268928D02*
X130866742Y-127340356D01*
X130866742Y-127340356D02*
X131152457Y-127411785D01*
X131152457Y-127411785D02*
X131509600Y-127411785D01*
X131509600Y-127411785D02*
X131795314Y-127340356D01*
X131795314Y-127340356D02*
X131938171Y-127268928D01*
X131938171Y-127268928D02*
X132009600Y-127197499D01*
X132009600Y-127197499D02*
X132081028Y-127054642D01*
X132081028Y-127054642D02*
X132081028Y-126911785D01*
X132081028Y-126911785D02*
X132009600Y-126768928D01*
X132009600Y-126768928D02*
X131938171Y-126697499D01*
X131938171Y-126697499D02*
X131795314Y-126626070D01*
X131795314Y-126626070D02*
X131509600Y-126554642D01*
X131509600Y-126554642D02*
X131152457Y-126554642D01*
X131152457Y-126554642D02*
X130866742Y-126626070D01*
X130866742Y-126626070D02*
X130723885Y-126697499D01*
X130723885Y-126697499D02*
X130652457Y-126768928D01*
X130652457Y-126768928D02*
X130581028Y-126911785D01*
X131223885Y-128268927D02*
X131152457Y-128126070D01*
X131152457Y-128126070D02*
X131081028Y-128054641D01*
X131081028Y-128054641D02*
X130938171Y-127983213D01*
X130938171Y-127983213D02*
X130866742Y-127983213D01*
X130866742Y-127983213D02*
X130723885Y-128054641D01*
X130723885Y-128054641D02*
X130652457Y-128126070D01*
X130652457Y-128126070D02*
X130581028Y-128268927D01*
X130581028Y-128268927D02*
X130581028Y-128554641D01*
X130581028Y-128554641D02*
X130652457Y-128697499D01*
X130652457Y-128697499D02*
X130723885Y-128768927D01*
X130723885Y-128768927D02*
X130866742Y-128840356D01*
X130866742Y-128840356D02*
X130938171Y-128840356D01*
X130938171Y-128840356D02*
X131081028Y-128768927D01*
X131081028Y-128768927D02*
X131152457Y-128697499D01*
X131152457Y-128697499D02*
X131223885Y-128554641D01*
X131223885Y-128554641D02*
X131223885Y-128268927D01*
X131223885Y-128268927D02*
X131295314Y-128126070D01*
X131295314Y-128126070D02*
X131366742Y-128054641D01*
X131366742Y-128054641D02*
X131509600Y-127983213D01*
X131509600Y-127983213D02*
X131795314Y-127983213D01*
X131795314Y-127983213D02*
X131938171Y-128054641D01*
X131938171Y-128054641D02*
X132009600Y-128126070D01*
X132009600Y-128126070D02*
X132081028Y-128268927D01*
X132081028Y-128268927D02*
X132081028Y-128554641D01*
X132081028Y-128554641D02*
X132009600Y-128697499D01*
X132009600Y-128697499D02*
X131938171Y-128768927D01*
X131938171Y-128768927D02*
X131795314Y-128840356D01*
X131795314Y-128840356D02*
X131509600Y-128840356D01*
X131509600Y-128840356D02*
X131366742Y-128768927D01*
X131366742Y-128768927D02*
X131295314Y-128697499D01*
X131295314Y-128697499D02*
X131223885Y-128554641D01*
X189188528Y-130739286D02*
X189188528Y-131739286D01*
X189188528Y-131739286D02*
X190688528Y-131096429D01*
X189688528Y-132953572D02*
X190688528Y-132953572D01*
X189117100Y-132596429D02*
X190188528Y-132239286D01*
X190188528Y-132239286D02*
X190188528Y-133167857D01*
X190259957Y-133667857D02*
X190259957Y-134382143D01*
X190688528Y-133525000D02*
X189188528Y-134025000D01*
X189188528Y-134025000D02*
X190688528Y-134525000D01*
X190545671Y-135882142D02*
X190617100Y-135810714D01*
X190617100Y-135810714D02*
X190688528Y-135596428D01*
X190688528Y-135596428D02*
X190688528Y-135453571D01*
X190688528Y-135453571D02*
X190617100Y-135239285D01*
X190617100Y-135239285D02*
X190474242Y-135096428D01*
X190474242Y-135096428D02*
X190331385Y-135024999D01*
X190331385Y-135024999D02*
X190045671Y-134953571D01*
X190045671Y-134953571D02*
X189831385Y-134953571D01*
X189831385Y-134953571D02*
X189545671Y-135024999D01*
X189545671Y-135024999D02*
X189402814Y-135096428D01*
X189402814Y-135096428D02*
X189259957Y-135239285D01*
X189259957Y-135239285D02*
X189188528Y-135453571D01*
X189188528Y-135453571D02*
X189188528Y-135596428D01*
X189188528Y-135596428D02*
X189259957Y-135810714D01*
X189259957Y-135810714D02*
X189331385Y-135882142D01*
X189331385Y-136453571D02*
X189259957Y-136524999D01*
X189259957Y-136524999D02*
X189188528Y-136667857D01*
X189188528Y-136667857D02*
X189188528Y-137024999D01*
X189188528Y-137024999D02*
X189259957Y-137167857D01*
X189259957Y-137167857D02*
X189331385Y-137239285D01*
X189331385Y-137239285D02*
X189474242Y-137310714D01*
X189474242Y-137310714D02*
X189617100Y-137310714D01*
X189617100Y-137310714D02*
X189831385Y-137239285D01*
X189831385Y-137239285D02*
X190688528Y-136382142D01*
X190688528Y-136382142D02*
X190688528Y-137310714D01*
X189188528Y-138239285D02*
X189188528Y-138382142D01*
X189188528Y-138382142D02*
X189259957Y-138524999D01*
X189259957Y-138524999D02*
X189331385Y-138596428D01*
X189331385Y-138596428D02*
X189474242Y-138667856D01*
X189474242Y-138667856D02*
X189759957Y-138739285D01*
X189759957Y-138739285D02*
X190117100Y-138739285D01*
X190117100Y-138739285D02*
X190402814Y-138667856D01*
X190402814Y-138667856D02*
X190545671Y-138596428D01*
X190545671Y-138596428D02*
X190617100Y-138524999D01*
X190617100Y-138524999D02*
X190688528Y-138382142D01*
X190688528Y-138382142D02*
X190688528Y-138239285D01*
X190688528Y-138239285D02*
X190617100Y-138096428D01*
X190617100Y-138096428D02*
X190545671Y-138024999D01*
X190545671Y-138024999D02*
X190402814Y-137953570D01*
X190402814Y-137953570D02*
X190117100Y-137882142D01*
X190117100Y-137882142D02*
X189759957Y-137882142D01*
X189759957Y-137882142D02*
X189474242Y-137953570D01*
X189474242Y-137953570D02*
X189331385Y-138024999D01*
X189331385Y-138024999D02*
X189259957Y-138096428D01*
X189259957Y-138096428D02*
X189188528Y-138239285D01*
X136976385Y-76694286D02*
X136904957Y-76765714D01*
X136904957Y-76765714D02*
X136833528Y-76908572D01*
X136833528Y-76908572D02*
X136833528Y-77265714D01*
X136833528Y-77265714D02*
X136904957Y-77408572D01*
X136904957Y-77408572D02*
X136976385Y-77480000D01*
X136976385Y-77480000D02*
X137119242Y-77551429D01*
X137119242Y-77551429D02*
X137262100Y-77551429D01*
X137262100Y-77551429D02*
X137476385Y-77480000D01*
X137476385Y-77480000D02*
X138333528Y-76622857D01*
X138333528Y-76622857D02*
X138333528Y-77551429D01*
X138333528Y-78194285D02*
X136833528Y-78194285D01*
X137762100Y-78337143D02*
X138333528Y-78765714D01*
X137333528Y-78765714D02*
X137904957Y-78194285D01*
X205685713Y-87243528D02*
X204685713Y-87243528D01*
X204685713Y-87243528D02*
X205328570Y-88743528D01*
X203471428Y-87743528D02*
X203471428Y-88743528D01*
X203828570Y-87172100D02*
X204185713Y-88243528D01*
X204185713Y-88243528D02*
X203257142Y-88243528D01*
X202757142Y-88314957D02*
X202042857Y-88314957D01*
X202899999Y-88743528D02*
X202399999Y-87243528D01*
X202399999Y-87243528D02*
X201899999Y-88743528D01*
X200542857Y-88600671D02*
X200614285Y-88672100D01*
X200614285Y-88672100D02*
X200828571Y-88743528D01*
X200828571Y-88743528D02*
X200971428Y-88743528D01*
X200971428Y-88743528D02*
X201185714Y-88672100D01*
X201185714Y-88672100D02*
X201328571Y-88529242D01*
X201328571Y-88529242D02*
X201400000Y-88386385D01*
X201400000Y-88386385D02*
X201471428Y-88100671D01*
X201471428Y-88100671D02*
X201471428Y-87886385D01*
X201471428Y-87886385D02*
X201400000Y-87600671D01*
X201400000Y-87600671D02*
X201328571Y-87457814D01*
X201328571Y-87457814D02*
X201185714Y-87314957D01*
X201185714Y-87314957D02*
X200971428Y-87243528D01*
X200971428Y-87243528D02*
X200828571Y-87243528D01*
X200828571Y-87243528D02*
X200614285Y-87314957D01*
X200614285Y-87314957D02*
X200542857Y-87386385D01*
X199614285Y-87243528D02*
X199471428Y-87243528D01*
X199471428Y-87243528D02*
X199328571Y-87314957D01*
X199328571Y-87314957D02*
X199257143Y-87386385D01*
X199257143Y-87386385D02*
X199185714Y-87529242D01*
X199185714Y-87529242D02*
X199114285Y-87814957D01*
X199114285Y-87814957D02*
X199114285Y-88172100D01*
X199114285Y-88172100D02*
X199185714Y-88457814D01*
X199185714Y-88457814D02*
X199257143Y-88600671D01*
X199257143Y-88600671D02*
X199328571Y-88672100D01*
X199328571Y-88672100D02*
X199471428Y-88743528D01*
X199471428Y-88743528D02*
X199614285Y-88743528D01*
X199614285Y-88743528D02*
X199757143Y-88672100D01*
X199757143Y-88672100D02*
X199828571Y-88600671D01*
X199828571Y-88600671D02*
X199900000Y-88457814D01*
X199900000Y-88457814D02*
X199971428Y-88172100D01*
X199971428Y-88172100D02*
X199971428Y-87814957D01*
X199971428Y-87814957D02*
X199900000Y-87529242D01*
X199900000Y-87529242D02*
X199828571Y-87386385D01*
X199828571Y-87386385D02*
X199757143Y-87314957D01*
X199757143Y-87314957D02*
X199614285Y-87243528D01*
X198185714Y-87243528D02*
X198042857Y-87243528D01*
X198042857Y-87243528D02*
X197900000Y-87314957D01*
X197900000Y-87314957D02*
X197828572Y-87386385D01*
X197828572Y-87386385D02*
X197757143Y-87529242D01*
X197757143Y-87529242D02*
X197685714Y-87814957D01*
X197685714Y-87814957D02*
X197685714Y-88172100D01*
X197685714Y-88172100D02*
X197757143Y-88457814D01*
X197757143Y-88457814D02*
X197828572Y-88600671D01*
X197828572Y-88600671D02*
X197900000Y-88672100D01*
X197900000Y-88672100D02*
X198042857Y-88743528D01*
X198042857Y-88743528D02*
X198185714Y-88743528D01*
X198185714Y-88743528D02*
X198328572Y-88672100D01*
X198328572Y-88672100D02*
X198400000Y-88600671D01*
X198400000Y-88600671D02*
X198471429Y-88457814D01*
X198471429Y-88457814D02*
X198542857Y-88172100D01*
X198542857Y-88172100D02*
X198542857Y-87814957D01*
X198542857Y-87814957D02*
X198471429Y-87529242D01*
X198471429Y-87529242D02*
X198400000Y-87386385D01*
X198400000Y-87386385D02*
X198328572Y-87314957D01*
X198328572Y-87314957D02*
X198185714Y-87243528D01*
X149401385Y-76684286D02*
X149329957Y-76755714D01*
X149329957Y-76755714D02*
X149258528Y-76898572D01*
X149258528Y-76898572D02*
X149258528Y-77255714D01*
X149258528Y-77255714D02*
X149329957Y-77398572D01*
X149329957Y-77398572D02*
X149401385Y-77470000D01*
X149401385Y-77470000D02*
X149544242Y-77541429D01*
X149544242Y-77541429D02*
X149687100Y-77541429D01*
X149687100Y-77541429D02*
X149901385Y-77470000D01*
X149901385Y-77470000D02*
X150758528Y-76612857D01*
X150758528Y-76612857D02*
X150758528Y-77541429D01*
X150758528Y-78184285D02*
X149258528Y-78184285D01*
X150187100Y-78327143D02*
X150758528Y-78755714D01*
X149758528Y-78755714D02*
X150329957Y-78184285D01*
X158701385Y-75847858D02*
X158629957Y-75919286D01*
X158629957Y-75919286D02*
X158558528Y-76062144D01*
X158558528Y-76062144D02*
X158558528Y-76419286D01*
X158558528Y-76419286D02*
X158629957Y-76562144D01*
X158629957Y-76562144D02*
X158701385Y-76633572D01*
X158701385Y-76633572D02*
X158844242Y-76705001D01*
X158844242Y-76705001D02*
X158987100Y-76705001D01*
X158987100Y-76705001D02*
X159201385Y-76633572D01*
X159201385Y-76633572D02*
X160058528Y-75776429D01*
X160058528Y-75776429D02*
X160058528Y-76705001D01*
X158701385Y-77276429D02*
X158629957Y-77347857D01*
X158629957Y-77347857D02*
X158558528Y-77490715D01*
X158558528Y-77490715D02*
X158558528Y-77847857D01*
X158558528Y-77847857D02*
X158629957Y-77990715D01*
X158629957Y-77990715D02*
X158701385Y-78062143D01*
X158701385Y-78062143D02*
X158844242Y-78133572D01*
X158844242Y-78133572D02*
X158987100Y-78133572D01*
X158987100Y-78133572D02*
X159201385Y-78062143D01*
X159201385Y-78062143D02*
X160058528Y-77205000D01*
X160058528Y-77205000D02*
X160058528Y-78133572D01*
X158558528Y-79062143D02*
X158558528Y-79205000D01*
X158558528Y-79205000D02*
X158629957Y-79347857D01*
X158629957Y-79347857D02*
X158701385Y-79419286D01*
X158701385Y-79419286D02*
X158844242Y-79490714D01*
X158844242Y-79490714D02*
X159129957Y-79562143D01*
X159129957Y-79562143D02*
X159487100Y-79562143D01*
X159487100Y-79562143D02*
X159772814Y-79490714D01*
X159772814Y-79490714D02*
X159915671Y-79419286D01*
X159915671Y-79419286D02*
X159987100Y-79347857D01*
X159987100Y-79347857D02*
X160058528Y-79205000D01*
X160058528Y-79205000D02*
X160058528Y-79062143D01*
X160058528Y-79062143D02*
X159987100Y-78919286D01*
X159987100Y-78919286D02*
X159915671Y-78847857D01*
X159915671Y-78847857D02*
X159772814Y-78776428D01*
X159772814Y-78776428D02*
X159487100Y-78705000D01*
X159487100Y-78705000D02*
X159129957Y-78705000D01*
X159129957Y-78705000D02*
X158844242Y-78776428D01*
X158844242Y-78776428D02*
X158701385Y-78847857D01*
X158701385Y-78847857D02*
X158629957Y-78919286D01*
X158629957Y-78919286D02*
X158558528Y-79062143D01*
X205660713Y-100408528D02*
X204660713Y-100408528D01*
X204660713Y-100408528D02*
X205303570Y-101908528D01*
X203446428Y-100908528D02*
X203446428Y-101908528D01*
X203803570Y-100337100D02*
X204160713Y-101408528D01*
X204160713Y-101408528D02*
X203232142Y-101408528D01*
X202732142Y-101479957D02*
X202017857Y-101479957D01*
X202874999Y-101908528D02*
X202374999Y-100408528D01*
X202374999Y-100408528D02*
X201874999Y-101908528D01*
X200517857Y-101765671D02*
X200589285Y-101837100D01*
X200589285Y-101837100D02*
X200803571Y-101908528D01*
X200803571Y-101908528D02*
X200946428Y-101908528D01*
X200946428Y-101908528D02*
X201160714Y-101837100D01*
X201160714Y-101837100D02*
X201303571Y-101694242D01*
X201303571Y-101694242D02*
X201375000Y-101551385D01*
X201375000Y-101551385D02*
X201446428Y-101265671D01*
X201446428Y-101265671D02*
X201446428Y-101051385D01*
X201446428Y-101051385D02*
X201375000Y-100765671D01*
X201375000Y-100765671D02*
X201303571Y-100622814D01*
X201303571Y-100622814D02*
X201160714Y-100479957D01*
X201160714Y-100479957D02*
X200946428Y-100408528D01*
X200946428Y-100408528D02*
X200803571Y-100408528D01*
X200803571Y-100408528D02*
X200589285Y-100479957D01*
X200589285Y-100479957D02*
X200517857Y-100551385D01*
X199589285Y-100408528D02*
X199446428Y-100408528D01*
X199446428Y-100408528D02*
X199303571Y-100479957D01*
X199303571Y-100479957D02*
X199232143Y-100551385D01*
X199232143Y-100551385D02*
X199160714Y-100694242D01*
X199160714Y-100694242D02*
X199089285Y-100979957D01*
X199089285Y-100979957D02*
X199089285Y-101337100D01*
X199089285Y-101337100D02*
X199160714Y-101622814D01*
X199160714Y-101622814D02*
X199232143Y-101765671D01*
X199232143Y-101765671D02*
X199303571Y-101837100D01*
X199303571Y-101837100D02*
X199446428Y-101908528D01*
X199446428Y-101908528D02*
X199589285Y-101908528D01*
X199589285Y-101908528D02*
X199732143Y-101837100D01*
X199732143Y-101837100D02*
X199803571Y-101765671D01*
X199803571Y-101765671D02*
X199875000Y-101622814D01*
X199875000Y-101622814D02*
X199946428Y-101337100D01*
X199946428Y-101337100D02*
X199946428Y-100979957D01*
X199946428Y-100979957D02*
X199875000Y-100694242D01*
X199875000Y-100694242D02*
X199803571Y-100551385D01*
X199803571Y-100551385D02*
X199732143Y-100479957D01*
X199732143Y-100479957D02*
X199589285Y-100408528D01*
X197803572Y-100908528D02*
X197803572Y-101908528D01*
X198160714Y-100337100D02*
X198517857Y-101408528D01*
X198517857Y-101408528D02*
X197589286Y-101408528D01*
X156958528Y-76707501D02*
X156958528Y-75850358D01*
X156958528Y-76278929D02*
X155458528Y-76278929D01*
X155458528Y-76278929D02*
X155672814Y-76136072D01*
X155672814Y-76136072D02*
X155815671Y-75993215D01*
X155815671Y-75993215D02*
X155887100Y-75850358D01*
X155458528Y-77636072D02*
X155458528Y-77778929D01*
X155458528Y-77778929D02*
X155529957Y-77921786D01*
X155529957Y-77921786D02*
X155601385Y-77993215D01*
X155601385Y-77993215D02*
X155744242Y-78064643D01*
X155744242Y-78064643D02*
X156029957Y-78136072D01*
X156029957Y-78136072D02*
X156387100Y-78136072D01*
X156387100Y-78136072D02*
X156672814Y-78064643D01*
X156672814Y-78064643D02*
X156815671Y-77993215D01*
X156815671Y-77993215D02*
X156887100Y-77921786D01*
X156887100Y-77921786D02*
X156958528Y-77778929D01*
X156958528Y-77778929D02*
X156958528Y-77636072D01*
X156958528Y-77636072D02*
X156887100Y-77493215D01*
X156887100Y-77493215D02*
X156815671Y-77421786D01*
X156815671Y-77421786D02*
X156672814Y-77350357D01*
X156672814Y-77350357D02*
X156387100Y-77278929D01*
X156387100Y-77278929D02*
X156029957Y-77278929D01*
X156029957Y-77278929D02*
X155744242Y-77350357D01*
X155744242Y-77350357D02*
X155601385Y-77421786D01*
X155601385Y-77421786D02*
X155529957Y-77493215D01*
X155529957Y-77493215D02*
X155458528Y-77636072D01*
X155458528Y-79064643D02*
X155458528Y-79207500D01*
X155458528Y-79207500D02*
X155529957Y-79350357D01*
X155529957Y-79350357D02*
X155601385Y-79421786D01*
X155601385Y-79421786D02*
X155744242Y-79493214D01*
X155744242Y-79493214D02*
X156029957Y-79564643D01*
X156029957Y-79564643D02*
X156387100Y-79564643D01*
X156387100Y-79564643D02*
X156672814Y-79493214D01*
X156672814Y-79493214D02*
X156815671Y-79421786D01*
X156815671Y-79421786D02*
X156887100Y-79350357D01*
X156887100Y-79350357D02*
X156958528Y-79207500D01*
X156958528Y-79207500D02*
X156958528Y-79064643D01*
X156958528Y-79064643D02*
X156887100Y-78921786D01*
X156887100Y-78921786D02*
X156815671Y-78850357D01*
X156815671Y-78850357D02*
X156672814Y-78778928D01*
X156672814Y-78778928D02*
X156387100Y-78707500D01*
X156387100Y-78707500D02*
X156029957Y-78707500D01*
X156029957Y-78707500D02*
X155744242Y-78778928D01*
X155744242Y-78778928D02*
X155601385Y-78850357D01*
X155601385Y-78850357D02*
X155529957Y-78921786D01*
X155529957Y-78921786D02*
X155458528Y-79064643D01*
X161658528Y-75136072D02*
X161658528Y-75278929D01*
X161658528Y-75278929D02*
X161729957Y-75421786D01*
X161729957Y-75421786D02*
X161801385Y-75493215D01*
X161801385Y-75493215D02*
X161944242Y-75564643D01*
X161944242Y-75564643D02*
X162229957Y-75636072D01*
X162229957Y-75636072D02*
X162587100Y-75636072D01*
X162587100Y-75636072D02*
X162872814Y-75564643D01*
X162872814Y-75564643D02*
X163015671Y-75493215D01*
X163015671Y-75493215D02*
X163087100Y-75421786D01*
X163087100Y-75421786D02*
X163158528Y-75278929D01*
X163158528Y-75278929D02*
X163158528Y-75136072D01*
X163158528Y-75136072D02*
X163087100Y-74993215D01*
X163087100Y-74993215D02*
X163015671Y-74921786D01*
X163015671Y-74921786D02*
X162872814Y-74850357D01*
X162872814Y-74850357D02*
X162587100Y-74778929D01*
X162587100Y-74778929D02*
X162229957Y-74778929D01*
X162229957Y-74778929D02*
X161944242Y-74850357D01*
X161944242Y-74850357D02*
X161801385Y-74921786D01*
X161801385Y-74921786D02*
X161729957Y-74993215D01*
X161729957Y-74993215D02*
X161658528Y-75136072D01*
X163015671Y-76278928D02*
X163087100Y-76350357D01*
X163087100Y-76350357D02*
X163158528Y-76278928D01*
X163158528Y-76278928D02*
X163087100Y-76207500D01*
X163087100Y-76207500D02*
X163015671Y-76278928D01*
X163015671Y-76278928D02*
X163158528Y-76278928D01*
X163158528Y-77778929D02*
X163158528Y-76921786D01*
X163158528Y-77350357D02*
X161658528Y-77350357D01*
X161658528Y-77350357D02*
X161872814Y-77207500D01*
X161872814Y-77207500D02*
X162015671Y-77064643D01*
X162015671Y-77064643D02*
X162087100Y-76921786D01*
X162158528Y-78421785D02*
X163658528Y-78421785D01*
X162944242Y-79136071D02*
X163087100Y-79207500D01*
X163087100Y-79207500D02*
X163158528Y-79350357D01*
X162944242Y-78421785D02*
X163087100Y-78493214D01*
X163087100Y-78493214D02*
X163158528Y-78636071D01*
X163158528Y-78636071D02*
X163158528Y-78921785D01*
X163158528Y-78921785D02*
X163087100Y-79064643D01*
X163087100Y-79064643D02*
X162944242Y-79136071D01*
X162944242Y-79136071D02*
X162158528Y-79136071D01*
X162372814Y-80493214D02*
X162372814Y-79993214D01*
X163158528Y-79993214D02*
X161658528Y-79993214D01*
X161658528Y-79993214D02*
X161658528Y-80707500D01*
X181658528Y-95876429D02*
X182658528Y-95876429D01*
X181087100Y-95519286D02*
X182158528Y-95162143D01*
X182158528Y-95162143D02*
X182158528Y-96090714D01*
X181158528Y-96519285D02*
X181158528Y-97519285D01*
X181158528Y-97519285D02*
X182658528Y-96876428D01*
X159108885Y-58981786D02*
X159037457Y-59053214D01*
X159037457Y-59053214D02*
X158966028Y-59196072D01*
X158966028Y-59196072D02*
X158966028Y-59553214D01*
X158966028Y-59553214D02*
X159037457Y-59696072D01*
X159037457Y-59696072D02*
X159108885Y-59767500D01*
X159108885Y-59767500D02*
X159251742Y-59838929D01*
X159251742Y-59838929D02*
X159394600Y-59838929D01*
X159394600Y-59838929D02*
X159608885Y-59767500D01*
X159608885Y-59767500D02*
X160466028Y-58910357D01*
X160466028Y-58910357D02*
X160466028Y-59838929D01*
X160466028Y-60481785D02*
X158966028Y-60481785D01*
X159894600Y-60624643D02*
X160466028Y-61053214D01*
X159466028Y-61053214D02*
X160037457Y-60481785D01*
X156291028Y-57910358D02*
X157291028Y-57910358D01*
X155719600Y-57553215D02*
X156791028Y-57196072D01*
X156791028Y-57196072D02*
X156791028Y-58124643D01*
X157148171Y-58696071D02*
X157219600Y-58767500D01*
X157219600Y-58767500D02*
X157291028Y-58696071D01*
X157291028Y-58696071D02*
X157219600Y-58624643D01*
X157219600Y-58624643D02*
X157148171Y-58696071D01*
X157148171Y-58696071D02*
X157291028Y-58696071D01*
X155791028Y-59696072D02*
X155791028Y-59838929D01*
X155791028Y-59838929D02*
X155862457Y-59981786D01*
X155862457Y-59981786D02*
X155933885Y-60053215D01*
X155933885Y-60053215D02*
X156076742Y-60124643D01*
X156076742Y-60124643D02*
X156362457Y-60196072D01*
X156362457Y-60196072D02*
X156719600Y-60196072D01*
X156719600Y-60196072D02*
X157005314Y-60124643D01*
X157005314Y-60124643D02*
X157148171Y-60053215D01*
X157148171Y-60053215D02*
X157219600Y-59981786D01*
X157219600Y-59981786D02*
X157291028Y-59838929D01*
X157291028Y-59838929D02*
X157291028Y-59696072D01*
X157291028Y-59696072D02*
X157219600Y-59553215D01*
X157219600Y-59553215D02*
X157148171Y-59481786D01*
X157148171Y-59481786D02*
X157005314Y-59410357D01*
X157005314Y-59410357D02*
X156719600Y-59338929D01*
X156719600Y-59338929D02*
X156362457Y-59338929D01*
X156362457Y-59338929D02*
X156076742Y-59410357D01*
X156076742Y-59410357D02*
X155933885Y-59481786D01*
X155933885Y-59481786D02*
X155862457Y-59553215D01*
X155862457Y-59553215D02*
X155791028Y-59696072D01*
X155933885Y-60767500D02*
X155862457Y-60838928D01*
X155862457Y-60838928D02*
X155791028Y-60981786D01*
X155791028Y-60981786D02*
X155791028Y-61338928D01*
X155791028Y-61338928D02*
X155862457Y-61481786D01*
X155862457Y-61481786D02*
X155933885Y-61553214D01*
X155933885Y-61553214D02*
X156076742Y-61624643D01*
X156076742Y-61624643D02*
X156219600Y-61624643D01*
X156219600Y-61624643D02*
X156433885Y-61553214D01*
X156433885Y-61553214D02*
X157291028Y-60696071D01*
X157291028Y-60696071D02*
X157291028Y-61624643D01*
X157291028Y-62267499D02*
X155791028Y-62267499D01*
X156719600Y-62410357D02*
X157291028Y-62838928D01*
X156291028Y-62838928D02*
X156862457Y-62267499D01*
X168233528Y-72460358D02*
X169233528Y-72460358D01*
X167662100Y-72103215D02*
X168733528Y-71746072D01*
X168733528Y-71746072D02*
X168733528Y-72674643D01*
X167733528Y-73103214D02*
X167733528Y-74103214D01*
X167733528Y-74103214D02*
X169233528Y-73460357D01*
X168233528Y-74674642D02*
X169733528Y-74674642D01*
X169019242Y-75388928D02*
X169162100Y-75460357D01*
X169162100Y-75460357D02*
X169233528Y-75603214D01*
X169019242Y-74674642D02*
X169162100Y-74746071D01*
X169162100Y-74746071D02*
X169233528Y-74888928D01*
X169233528Y-74888928D02*
X169233528Y-75174642D01*
X169233528Y-75174642D02*
X169162100Y-75317500D01*
X169162100Y-75317500D02*
X169019242Y-75388928D01*
X169019242Y-75388928D02*
X168233528Y-75388928D01*
X168447814Y-76746071D02*
X168447814Y-76246071D01*
X169233528Y-76246071D02*
X167733528Y-76246071D01*
X167733528Y-76246071D02*
X167733528Y-76960357D01*
X131816028Y-59738929D02*
X131816028Y-58881786D01*
X131816028Y-59310357D02*
X130316028Y-59310357D01*
X130316028Y-59310357D02*
X130530314Y-59167500D01*
X130530314Y-59167500D02*
X130673171Y-59024643D01*
X130673171Y-59024643D02*
X130744600Y-58881786D01*
X131816028Y-60381785D02*
X130316028Y-60381785D01*
X131244600Y-60524643D02*
X131816028Y-60953214D01*
X130816028Y-60953214D02*
X131387457Y-60381785D01*
X113122457Y-118474644D02*
X113122457Y-119188930D01*
X113551028Y-118331787D02*
X112051028Y-118831787D01*
X112051028Y-118831787D02*
X113551028Y-119331787D01*
X113479600Y-119760358D02*
X113551028Y-119974644D01*
X113551028Y-119974644D02*
X113551028Y-120331786D01*
X113551028Y-120331786D02*
X113479600Y-120474644D01*
X113479600Y-120474644D02*
X113408171Y-120546072D01*
X113408171Y-120546072D02*
X113265314Y-120617501D01*
X113265314Y-120617501D02*
X113122457Y-120617501D01*
X113122457Y-120617501D02*
X112979600Y-120546072D01*
X112979600Y-120546072D02*
X112908171Y-120474644D01*
X112908171Y-120474644D02*
X112836742Y-120331786D01*
X112836742Y-120331786D02*
X112765314Y-120046072D01*
X112765314Y-120046072D02*
X112693885Y-119903215D01*
X112693885Y-119903215D02*
X112622457Y-119831786D01*
X112622457Y-119831786D02*
X112479600Y-119760358D01*
X112479600Y-119760358D02*
X112336742Y-119760358D01*
X112336742Y-119760358D02*
X112193885Y-119831786D01*
X112193885Y-119831786D02*
X112122457Y-119903215D01*
X112122457Y-119903215D02*
X112051028Y-120046072D01*
X112051028Y-120046072D02*
X112051028Y-120403215D01*
X112051028Y-120403215D02*
X112122457Y-120617501D01*
X112051028Y-121903215D02*
X112051028Y-121617500D01*
X112051028Y-121617500D02*
X112122457Y-121474643D01*
X112122457Y-121474643D02*
X112193885Y-121403215D01*
X112193885Y-121403215D02*
X112408171Y-121260357D01*
X112408171Y-121260357D02*
X112693885Y-121188929D01*
X112693885Y-121188929D02*
X113265314Y-121188929D01*
X113265314Y-121188929D02*
X113408171Y-121260357D01*
X113408171Y-121260357D02*
X113479600Y-121331786D01*
X113479600Y-121331786D02*
X113551028Y-121474643D01*
X113551028Y-121474643D02*
X113551028Y-121760357D01*
X113551028Y-121760357D02*
X113479600Y-121903215D01*
X113479600Y-121903215D02*
X113408171Y-121974643D01*
X113408171Y-121974643D02*
X113265314Y-122046072D01*
X113265314Y-122046072D02*
X112908171Y-122046072D01*
X112908171Y-122046072D02*
X112765314Y-121974643D01*
X112765314Y-121974643D02*
X112693885Y-121903215D01*
X112693885Y-121903215D02*
X112622457Y-121760357D01*
X112622457Y-121760357D02*
X112622457Y-121474643D01*
X112622457Y-121474643D02*
X112693885Y-121331786D01*
X112693885Y-121331786D02*
X112765314Y-121260357D01*
X112765314Y-121260357D02*
X112908171Y-121188929D01*
X113408171Y-123546071D02*
X113479600Y-123474643D01*
X113479600Y-123474643D02*
X113551028Y-123260357D01*
X113551028Y-123260357D02*
X113551028Y-123117500D01*
X113551028Y-123117500D02*
X113479600Y-122903214D01*
X113479600Y-122903214D02*
X113336742Y-122760357D01*
X113336742Y-122760357D02*
X113193885Y-122688928D01*
X113193885Y-122688928D02*
X112908171Y-122617500D01*
X112908171Y-122617500D02*
X112693885Y-122617500D01*
X112693885Y-122617500D02*
X112408171Y-122688928D01*
X112408171Y-122688928D02*
X112265314Y-122760357D01*
X112265314Y-122760357D02*
X112122457Y-122903214D01*
X112122457Y-122903214D02*
X112051028Y-123117500D01*
X112051028Y-123117500D02*
X112051028Y-123260357D01*
X112051028Y-123260357D02*
X112122457Y-123474643D01*
X112122457Y-123474643D02*
X112193885Y-123546071D01*
X112551028Y-124831786D02*
X113551028Y-124831786D01*
X111979600Y-124474643D02*
X113051028Y-124117500D01*
X113051028Y-124117500D02*
X113051028Y-125046071D01*
X112051028Y-125903214D02*
X112051028Y-126046071D01*
X112051028Y-126046071D02*
X112122457Y-126188928D01*
X112122457Y-126188928D02*
X112193885Y-126260357D01*
X112193885Y-126260357D02*
X112336742Y-126331785D01*
X112336742Y-126331785D02*
X112622457Y-126403214D01*
X112622457Y-126403214D02*
X112979600Y-126403214D01*
X112979600Y-126403214D02*
X113265314Y-126331785D01*
X113265314Y-126331785D02*
X113408171Y-126260357D01*
X113408171Y-126260357D02*
X113479600Y-126188928D01*
X113479600Y-126188928D02*
X113551028Y-126046071D01*
X113551028Y-126046071D02*
X113551028Y-125903214D01*
X113551028Y-125903214D02*
X113479600Y-125760357D01*
X113479600Y-125760357D02*
X113408171Y-125688928D01*
X113408171Y-125688928D02*
X113265314Y-125617499D01*
X113265314Y-125617499D02*
X112979600Y-125546071D01*
X112979600Y-125546071D02*
X112622457Y-125546071D01*
X112622457Y-125546071D02*
X112336742Y-125617499D01*
X112336742Y-125617499D02*
X112193885Y-125688928D01*
X112193885Y-125688928D02*
X112122457Y-125760357D01*
X112122457Y-125760357D02*
X112051028Y-125903214D01*
X112051028Y-127331785D02*
X112051028Y-127474642D01*
X112051028Y-127474642D02*
X112122457Y-127617499D01*
X112122457Y-127617499D02*
X112193885Y-127688928D01*
X112193885Y-127688928D02*
X112336742Y-127760356D01*
X112336742Y-127760356D02*
X112622457Y-127831785D01*
X112622457Y-127831785D02*
X112979600Y-127831785D01*
X112979600Y-127831785D02*
X113265314Y-127760356D01*
X113265314Y-127760356D02*
X113408171Y-127688928D01*
X113408171Y-127688928D02*
X113479600Y-127617499D01*
X113479600Y-127617499D02*
X113551028Y-127474642D01*
X113551028Y-127474642D02*
X113551028Y-127331785D01*
X113551028Y-127331785D02*
X113479600Y-127188928D01*
X113479600Y-127188928D02*
X113408171Y-127117499D01*
X113408171Y-127117499D02*
X113265314Y-127046070D01*
X113265314Y-127046070D02*
X112979600Y-126974642D01*
X112979600Y-126974642D02*
X112622457Y-126974642D01*
X112622457Y-126974642D02*
X112336742Y-127046070D01*
X112336742Y-127046070D02*
X112193885Y-127117499D01*
X112193885Y-127117499D02*
X112122457Y-127188928D01*
X112122457Y-127188928D02*
X112051028Y-127331785D01*
X112693885Y-128688927D02*
X112622457Y-128546070D01*
X112622457Y-128546070D02*
X112551028Y-128474641D01*
X112551028Y-128474641D02*
X112408171Y-128403213D01*
X112408171Y-128403213D02*
X112336742Y-128403213D01*
X112336742Y-128403213D02*
X112193885Y-128474641D01*
X112193885Y-128474641D02*
X112122457Y-128546070D01*
X112122457Y-128546070D02*
X112051028Y-128688927D01*
X112051028Y-128688927D02*
X112051028Y-128974641D01*
X112051028Y-128974641D02*
X112122457Y-129117499D01*
X112122457Y-129117499D02*
X112193885Y-129188927D01*
X112193885Y-129188927D02*
X112336742Y-129260356D01*
X112336742Y-129260356D02*
X112408171Y-129260356D01*
X112408171Y-129260356D02*
X112551028Y-129188927D01*
X112551028Y-129188927D02*
X112622457Y-129117499D01*
X112622457Y-129117499D02*
X112693885Y-128974641D01*
X112693885Y-128974641D02*
X112693885Y-128688927D01*
X112693885Y-128688927D02*
X112765314Y-128546070D01*
X112765314Y-128546070D02*
X112836742Y-128474641D01*
X112836742Y-128474641D02*
X112979600Y-128403213D01*
X112979600Y-128403213D02*
X113265314Y-128403213D01*
X113265314Y-128403213D02*
X113408171Y-128474641D01*
X113408171Y-128474641D02*
X113479600Y-128546070D01*
X113479600Y-128546070D02*
X113551028Y-128688927D01*
X113551028Y-128688927D02*
X113551028Y-128974641D01*
X113551028Y-128974641D02*
X113479600Y-129117499D01*
X113479600Y-129117499D02*
X113408171Y-129188927D01*
X113408171Y-129188927D02*
X113265314Y-129260356D01*
X113265314Y-129260356D02*
X112979600Y-129260356D01*
X112979600Y-129260356D02*
X112836742Y-129188927D01*
X112836742Y-129188927D02*
X112765314Y-129117499D01*
X112765314Y-129117499D02*
X112693885Y-128974641D01*
X205671427Y-122683528D02*
X205528570Y-122683528D01*
X205528570Y-122683528D02*
X205385713Y-122754957D01*
X205385713Y-122754957D02*
X205314285Y-122826385D01*
X205314285Y-122826385D02*
X205242856Y-122969242D01*
X205242856Y-122969242D02*
X205171427Y-123254957D01*
X205171427Y-123254957D02*
X205171427Y-123612100D01*
X205171427Y-123612100D02*
X205242856Y-123897814D01*
X205242856Y-123897814D02*
X205314285Y-124040671D01*
X205314285Y-124040671D02*
X205385713Y-124112100D01*
X205385713Y-124112100D02*
X205528570Y-124183528D01*
X205528570Y-124183528D02*
X205671427Y-124183528D01*
X205671427Y-124183528D02*
X205814285Y-124112100D01*
X205814285Y-124112100D02*
X205885713Y-124040671D01*
X205885713Y-124040671D02*
X205957142Y-123897814D01*
X205957142Y-123897814D02*
X206028570Y-123612100D01*
X206028570Y-123612100D02*
X206028570Y-123254957D01*
X206028570Y-123254957D02*
X205957142Y-122969242D01*
X205957142Y-122969242D02*
X205885713Y-122826385D01*
X205885713Y-122826385D02*
X205814285Y-122754957D01*
X205814285Y-122754957D02*
X205671427Y-122683528D01*
X204528571Y-124040671D02*
X204457142Y-124112100D01*
X204457142Y-124112100D02*
X204528571Y-124183528D01*
X204528571Y-124183528D02*
X204599999Y-124112100D01*
X204599999Y-124112100D02*
X204528571Y-124040671D01*
X204528571Y-124040671D02*
X204528571Y-124183528D01*
X203028570Y-124183528D02*
X203885713Y-124183528D01*
X203457142Y-124183528D02*
X203457142Y-122683528D01*
X203457142Y-122683528D02*
X203599999Y-122897814D01*
X203599999Y-122897814D02*
X203742856Y-123040671D01*
X203742856Y-123040671D02*
X203885713Y-123112100D01*
X202385714Y-123183528D02*
X202385714Y-124683528D01*
X201671428Y-123969242D02*
X201599999Y-124112100D01*
X201599999Y-124112100D02*
X201457142Y-124183528D01*
X202385714Y-123969242D02*
X202314285Y-124112100D01*
X202314285Y-124112100D02*
X202171428Y-124183528D01*
X202171428Y-124183528D02*
X201885714Y-124183528D01*
X201885714Y-124183528D02*
X201742857Y-124112100D01*
X201742857Y-124112100D02*
X201671428Y-123969242D01*
X201671428Y-123969242D02*
X201671428Y-123183528D01*
X200314285Y-123397814D02*
X200814285Y-123397814D01*
X200814285Y-124183528D02*
X200814285Y-122683528D01*
X200814285Y-122683528D02*
X200099999Y-122683528D01*
X189563528Y-98628572D02*
X189563528Y-98771429D01*
X189563528Y-98771429D02*
X189634957Y-98914286D01*
X189634957Y-98914286D02*
X189706385Y-98985715D01*
X189706385Y-98985715D02*
X189849242Y-99057143D01*
X189849242Y-99057143D02*
X190134957Y-99128572D01*
X190134957Y-99128572D02*
X190492100Y-99128572D01*
X190492100Y-99128572D02*
X190777814Y-99057143D01*
X190777814Y-99057143D02*
X190920671Y-98985715D01*
X190920671Y-98985715D02*
X190992100Y-98914286D01*
X190992100Y-98914286D02*
X191063528Y-98771429D01*
X191063528Y-98771429D02*
X191063528Y-98628572D01*
X191063528Y-98628572D02*
X190992100Y-98485715D01*
X190992100Y-98485715D02*
X190920671Y-98414286D01*
X190920671Y-98414286D02*
X190777814Y-98342857D01*
X190777814Y-98342857D02*
X190492100Y-98271429D01*
X190492100Y-98271429D02*
X190134957Y-98271429D01*
X190134957Y-98271429D02*
X189849242Y-98342857D01*
X189849242Y-98342857D02*
X189706385Y-98414286D01*
X189706385Y-98414286D02*
X189634957Y-98485715D01*
X189634957Y-98485715D02*
X189563528Y-98628572D01*
X190920671Y-99771428D02*
X190992100Y-99842857D01*
X190992100Y-99842857D02*
X191063528Y-99771428D01*
X191063528Y-99771428D02*
X190992100Y-99700000D01*
X190992100Y-99700000D02*
X190920671Y-99771428D01*
X190920671Y-99771428D02*
X191063528Y-99771428D01*
X191063528Y-101271429D02*
X191063528Y-100414286D01*
X191063528Y-100842857D02*
X189563528Y-100842857D01*
X189563528Y-100842857D02*
X189777814Y-100700000D01*
X189777814Y-100700000D02*
X189920671Y-100557143D01*
X189920671Y-100557143D02*
X189992100Y-100414286D01*
X190063528Y-101914285D02*
X191563528Y-101914285D01*
X190849242Y-102628571D02*
X190992100Y-102700000D01*
X190992100Y-102700000D02*
X191063528Y-102842857D01*
X190849242Y-101914285D02*
X190992100Y-101985714D01*
X190992100Y-101985714D02*
X191063528Y-102128571D01*
X191063528Y-102128571D02*
X191063528Y-102414285D01*
X191063528Y-102414285D02*
X190992100Y-102557143D01*
X190992100Y-102557143D02*
X190849242Y-102628571D01*
X190849242Y-102628571D02*
X190063528Y-102628571D01*
X190277814Y-103985714D02*
X190277814Y-103485714D01*
X191063528Y-103485714D02*
X189563528Y-103485714D01*
X189563528Y-103485714D02*
X189563528Y-104200000D01*
X91963927Y-89646028D02*
X91821070Y-89646028D01*
X91821070Y-89646028D02*
X91678213Y-89717457D01*
X91678213Y-89717457D02*
X91606785Y-89788885D01*
X91606785Y-89788885D02*
X91535356Y-89931742D01*
X91535356Y-89931742D02*
X91463927Y-90217457D01*
X91463927Y-90217457D02*
X91463927Y-90574600D01*
X91463927Y-90574600D02*
X91535356Y-90860314D01*
X91535356Y-90860314D02*
X91606785Y-91003171D01*
X91606785Y-91003171D02*
X91678213Y-91074600D01*
X91678213Y-91074600D02*
X91821070Y-91146028D01*
X91821070Y-91146028D02*
X91963927Y-91146028D01*
X91963927Y-91146028D02*
X92106785Y-91074600D01*
X92106785Y-91074600D02*
X92178213Y-91003171D01*
X92178213Y-91003171D02*
X92249642Y-90860314D01*
X92249642Y-90860314D02*
X92321070Y-90574600D01*
X92321070Y-90574600D02*
X92321070Y-90217457D01*
X92321070Y-90217457D02*
X92249642Y-89931742D01*
X92249642Y-89931742D02*
X92178213Y-89788885D01*
X92178213Y-89788885D02*
X92106785Y-89717457D01*
X92106785Y-89717457D02*
X91963927Y-89646028D01*
X90821071Y-91003171D02*
X90749642Y-91074600D01*
X90749642Y-91074600D02*
X90821071Y-91146028D01*
X90821071Y-91146028D02*
X90892499Y-91074600D01*
X90892499Y-91074600D02*
X90821071Y-91003171D01*
X90821071Y-91003171D02*
X90821071Y-91146028D01*
X89321070Y-91146028D02*
X90178213Y-91146028D01*
X89749642Y-91146028D02*
X89749642Y-89646028D01*
X89749642Y-89646028D02*
X89892499Y-89860314D01*
X89892499Y-89860314D02*
X90035356Y-90003171D01*
X90035356Y-90003171D02*
X90178213Y-90074600D01*
X88678214Y-90146028D02*
X88678214Y-91646028D01*
X87963928Y-90931742D02*
X87892499Y-91074600D01*
X87892499Y-91074600D02*
X87749642Y-91146028D01*
X88678214Y-90931742D02*
X88606785Y-91074600D01*
X88606785Y-91074600D02*
X88463928Y-91146028D01*
X88463928Y-91146028D02*
X88178214Y-91146028D01*
X88178214Y-91146028D02*
X88035357Y-91074600D01*
X88035357Y-91074600D02*
X87963928Y-90931742D01*
X87963928Y-90931742D02*
X87963928Y-90146028D01*
X86606785Y-90360314D02*
X87106785Y-90360314D01*
X87106785Y-91146028D02*
X87106785Y-89646028D01*
X87106785Y-89646028D02*
X86392499Y-89646028D01*
X153258885Y-57481786D02*
X153187457Y-57338929D01*
X153187457Y-57338929D02*
X153116028Y-57267500D01*
X153116028Y-57267500D02*
X152973171Y-57196072D01*
X152973171Y-57196072D02*
X152901742Y-57196072D01*
X152901742Y-57196072D02*
X152758885Y-57267500D01*
X152758885Y-57267500D02*
X152687457Y-57338929D01*
X152687457Y-57338929D02*
X152616028Y-57481786D01*
X152616028Y-57481786D02*
X152616028Y-57767500D01*
X152616028Y-57767500D02*
X152687457Y-57910358D01*
X152687457Y-57910358D02*
X152758885Y-57981786D01*
X152758885Y-57981786D02*
X152901742Y-58053215D01*
X152901742Y-58053215D02*
X152973171Y-58053215D01*
X152973171Y-58053215D02*
X153116028Y-57981786D01*
X153116028Y-57981786D02*
X153187457Y-57910358D01*
X153187457Y-57910358D02*
X153258885Y-57767500D01*
X153258885Y-57767500D02*
X153258885Y-57481786D01*
X153258885Y-57481786D02*
X153330314Y-57338929D01*
X153330314Y-57338929D02*
X153401742Y-57267500D01*
X153401742Y-57267500D02*
X153544600Y-57196072D01*
X153544600Y-57196072D02*
X153830314Y-57196072D01*
X153830314Y-57196072D02*
X153973171Y-57267500D01*
X153973171Y-57267500D02*
X154044600Y-57338929D01*
X154044600Y-57338929D02*
X154116028Y-57481786D01*
X154116028Y-57481786D02*
X154116028Y-57767500D01*
X154116028Y-57767500D02*
X154044600Y-57910358D01*
X154044600Y-57910358D02*
X153973171Y-57981786D01*
X153973171Y-57981786D02*
X153830314Y-58053215D01*
X153830314Y-58053215D02*
X153544600Y-58053215D01*
X153544600Y-58053215D02*
X153401742Y-57981786D01*
X153401742Y-57981786D02*
X153330314Y-57910358D01*
X153330314Y-57910358D02*
X153258885Y-57767500D01*
X153973171Y-58696071D02*
X154044600Y-58767500D01*
X154044600Y-58767500D02*
X154116028Y-58696071D01*
X154116028Y-58696071D02*
X154044600Y-58624643D01*
X154044600Y-58624643D02*
X153973171Y-58696071D01*
X153973171Y-58696071D02*
X154116028Y-58696071D01*
X152616028Y-59696072D02*
X152616028Y-59838929D01*
X152616028Y-59838929D02*
X152687457Y-59981786D01*
X152687457Y-59981786D02*
X152758885Y-60053215D01*
X152758885Y-60053215D02*
X152901742Y-60124643D01*
X152901742Y-60124643D02*
X153187457Y-60196072D01*
X153187457Y-60196072D02*
X153544600Y-60196072D01*
X153544600Y-60196072D02*
X153830314Y-60124643D01*
X153830314Y-60124643D02*
X153973171Y-60053215D01*
X153973171Y-60053215D02*
X154044600Y-59981786D01*
X154044600Y-59981786D02*
X154116028Y-59838929D01*
X154116028Y-59838929D02*
X154116028Y-59696072D01*
X154116028Y-59696072D02*
X154044600Y-59553215D01*
X154044600Y-59553215D02*
X153973171Y-59481786D01*
X153973171Y-59481786D02*
X153830314Y-59410357D01*
X153830314Y-59410357D02*
X153544600Y-59338929D01*
X153544600Y-59338929D02*
X153187457Y-59338929D01*
X153187457Y-59338929D02*
X152901742Y-59410357D01*
X152901742Y-59410357D02*
X152758885Y-59481786D01*
X152758885Y-59481786D02*
X152687457Y-59553215D01*
X152687457Y-59553215D02*
X152616028Y-59696072D01*
X152616028Y-61481786D02*
X152616028Y-61196071D01*
X152616028Y-61196071D02*
X152687457Y-61053214D01*
X152687457Y-61053214D02*
X152758885Y-60981786D01*
X152758885Y-60981786D02*
X152973171Y-60838928D01*
X152973171Y-60838928D02*
X153258885Y-60767500D01*
X153258885Y-60767500D02*
X153830314Y-60767500D01*
X153830314Y-60767500D02*
X153973171Y-60838928D01*
X153973171Y-60838928D02*
X154044600Y-60910357D01*
X154044600Y-60910357D02*
X154116028Y-61053214D01*
X154116028Y-61053214D02*
X154116028Y-61338928D01*
X154116028Y-61338928D02*
X154044600Y-61481786D01*
X154044600Y-61481786D02*
X153973171Y-61553214D01*
X153973171Y-61553214D02*
X153830314Y-61624643D01*
X153830314Y-61624643D02*
X153473171Y-61624643D01*
X153473171Y-61624643D02*
X153330314Y-61553214D01*
X153330314Y-61553214D02*
X153258885Y-61481786D01*
X153258885Y-61481786D02*
X153187457Y-61338928D01*
X153187457Y-61338928D02*
X153187457Y-61053214D01*
X153187457Y-61053214D02*
X153258885Y-60910357D01*
X153258885Y-60910357D02*
X153330314Y-60838928D01*
X153330314Y-60838928D02*
X153473171Y-60767500D01*
X154116028Y-62267499D02*
X152616028Y-62267499D01*
X153544600Y-62410357D02*
X154116028Y-62838928D01*
X153116028Y-62838928D02*
X153687457Y-62267499D01*
X154871028Y-112818929D02*
X156371028Y-113176072D01*
X156371028Y-113176072D02*
X155299600Y-113461786D01*
X155299600Y-113461786D02*
X156371028Y-113747501D01*
X156371028Y-113747501D02*
X154871028Y-114104644D01*
X154871028Y-115318930D02*
X154871028Y-115033215D01*
X154871028Y-115033215D02*
X154942457Y-114890358D01*
X154942457Y-114890358D02*
X155013885Y-114818930D01*
X155013885Y-114818930D02*
X155228171Y-114676072D01*
X155228171Y-114676072D02*
X155513885Y-114604644D01*
X155513885Y-114604644D02*
X156085314Y-114604644D01*
X156085314Y-114604644D02*
X156228171Y-114676072D01*
X156228171Y-114676072D02*
X156299600Y-114747501D01*
X156299600Y-114747501D02*
X156371028Y-114890358D01*
X156371028Y-114890358D02*
X156371028Y-115176072D01*
X156371028Y-115176072D02*
X156299600Y-115318930D01*
X156299600Y-115318930D02*
X156228171Y-115390358D01*
X156228171Y-115390358D02*
X156085314Y-115461787D01*
X156085314Y-115461787D02*
X155728171Y-115461787D01*
X155728171Y-115461787D02*
X155585314Y-115390358D01*
X155585314Y-115390358D02*
X155513885Y-115318930D01*
X155513885Y-115318930D02*
X155442457Y-115176072D01*
X155442457Y-115176072D02*
X155442457Y-114890358D01*
X155442457Y-114890358D02*
X155513885Y-114747501D01*
X155513885Y-114747501D02*
X155585314Y-114676072D01*
X155585314Y-114676072D02*
X155728171Y-114604644D01*
X154871028Y-116818929D02*
X154871028Y-116104643D01*
X154871028Y-116104643D02*
X155585314Y-116033215D01*
X155585314Y-116033215D02*
X155513885Y-116104643D01*
X155513885Y-116104643D02*
X155442457Y-116247501D01*
X155442457Y-116247501D02*
X155442457Y-116604643D01*
X155442457Y-116604643D02*
X155513885Y-116747501D01*
X155513885Y-116747501D02*
X155585314Y-116818929D01*
X155585314Y-116818929D02*
X155728171Y-116890358D01*
X155728171Y-116890358D02*
X156085314Y-116890358D01*
X156085314Y-116890358D02*
X156228171Y-116818929D01*
X156228171Y-116818929D02*
X156299600Y-116747501D01*
X156299600Y-116747501D02*
X156371028Y-116604643D01*
X156371028Y-116604643D02*
X156371028Y-116247501D01*
X156371028Y-116247501D02*
X156299600Y-116104643D01*
X156299600Y-116104643D02*
X156228171Y-116033215D01*
X156228171Y-118390357D02*
X156299600Y-118318929D01*
X156299600Y-118318929D02*
X156371028Y-118104643D01*
X156371028Y-118104643D02*
X156371028Y-117961786D01*
X156371028Y-117961786D02*
X156299600Y-117747500D01*
X156299600Y-117747500D02*
X156156742Y-117604643D01*
X156156742Y-117604643D02*
X156013885Y-117533214D01*
X156013885Y-117533214D02*
X155728171Y-117461786D01*
X155728171Y-117461786D02*
X155513885Y-117461786D01*
X155513885Y-117461786D02*
X155228171Y-117533214D01*
X155228171Y-117533214D02*
X155085314Y-117604643D01*
X155085314Y-117604643D02*
X154942457Y-117747500D01*
X154942457Y-117747500D02*
X154871028Y-117961786D01*
X154871028Y-117961786D02*
X154871028Y-118104643D01*
X154871028Y-118104643D02*
X154942457Y-118318929D01*
X154942457Y-118318929D02*
X155013885Y-118390357D01*
X155513885Y-119247500D02*
X155442457Y-119104643D01*
X155442457Y-119104643D02*
X155371028Y-119033214D01*
X155371028Y-119033214D02*
X155228171Y-118961786D01*
X155228171Y-118961786D02*
X155156742Y-118961786D01*
X155156742Y-118961786D02*
X155013885Y-119033214D01*
X155013885Y-119033214D02*
X154942457Y-119104643D01*
X154942457Y-119104643D02*
X154871028Y-119247500D01*
X154871028Y-119247500D02*
X154871028Y-119533214D01*
X154871028Y-119533214D02*
X154942457Y-119676072D01*
X154942457Y-119676072D02*
X155013885Y-119747500D01*
X155013885Y-119747500D02*
X155156742Y-119818929D01*
X155156742Y-119818929D02*
X155228171Y-119818929D01*
X155228171Y-119818929D02*
X155371028Y-119747500D01*
X155371028Y-119747500D02*
X155442457Y-119676072D01*
X155442457Y-119676072D02*
X155513885Y-119533214D01*
X155513885Y-119533214D02*
X155513885Y-119247500D01*
X155513885Y-119247500D02*
X155585314Y-119104643D01*
X155585314Y-119104643D02*
X155656742Y-119033214D01*
X155656742Y-119033214D02*
X155799600Y-118961786D01*
X155799600Y-118961786D02*
X156085314Y-118961786D01*
X156085314Y-118961786D02*
X156228171Y-119033214D01*
X156228171Y-119033214D02*
X156299600Y-119104643D01*
X156299600Y-119104643D02*
X156371028Y-119247500D01*
X156371028Y-119247500D02*
X156371028Y-119533214D01*
X156371028Y-119533214D02*
X156299600Y-119676072D01*
X156299600Y-119676072D02*
X156228171Y-119747500D01*
X156228171Y-119747500D02*
X156085314Y-119818929D01*
X156085314Y-119818929D02*
X155799600Y-119818929D01*
X155799600Y-119818929D02*
X155656742Y-119747500D01*
X155656742Y-119747500D02*
X155585314Y-119676072D01*
X155585314Y-119676072D02*
X155513885Y-119533214D01*
X156371028Y-121247500D02*
X156371028Y-120390357D01*
X156371028Y-120818928D02*
X154871028Y-120818928D01*
X154871028Y-120818928D02*
X155085314Y-120676071D01*
X155085314Y-120676071D02*
X155228171Y-120533214D01*
X155228171Y-120533214D02*
X155299600Y-120390357D01*
X154871028Y-122533214D02*
X154871028Y-122247499D01*
X154871028Y-122247499D02*
X154942457Y-122104642D01*
X154942457Y-122104642D02*
X155013885Y-122033214D01*
X155013885Y-122033214D02*
X155228171Y-121890356D01*
X155228171Y-121890356D02*
X155513885Y-121818928D01*
X155513885Y-121818928D02*
X156085314Y-121818928D01*
X156085314Y-121818928D02*
X156228171Y-121890356D01*
X156228171Y-121890356D02*
X156299600Y-121961785D01*
X156299600Y-121961785D02*
X156371028Y-122104642D01*
X156371028Y-122104642D02*
X156371028Y-122390356D01*
X156371028Y-122390356D02*
X156299600Y-122533214D01*
X156299600Y-122533214D02*
X156228171Y-122604642D01*
X156228171Y-122604642D02*
X156085314Y-122676071D01*
X156085314Y-122676071D02*
X155728171Y-122676071D01*
X155728171Y-122676071D02*
X155585314Y-122604642D01*
X155585314Y-122604642D02*
X155513885Y-122533214D01*
X155513885Y-122533214D02*
X155442457Y-122390356D01*
X155442457Y-122390356D02*
X155442457Y-122104642D01*
X155442457Y-122104642D02*
X155513885Y-121961785D01*
X155513885Y-121961785D02*
X155585314Y-121890356D01*
X155585314Y-121890356D02*
X155728171Y-121818928D01*
X156299600Y-123247499D02*
X156371028Y-123461785D01*
X156371028Y-123461785D02*
X156371028Y-123818927D01*
X156371028Y-123818927D02*
X156299600Y-123961785D01*
X156299600Y-123961785D02*
X156228171Y-124033213D01*
X156228171Y-124033213D02*
X156085314Y-124104642D01*
X156085314Y-124104642D02*
X155942457Y-124104642D01*
X155942457Y-124104642D02*
X155799600Y-124033213D01*
X155799600Y-124033213D02*
X155728171Y-123961785D01*
X155728171Y-123961785D02*
X155656742Y-123818927D01*
X155656742Y-123818927D02*
X155585314Y-123533213D01*
X155585314Y-123533213D02*
X155513885Y-123390356D01*
X155513885Y-123390356D02*
X155442457Y-123318927D01*
X155442457Y-123318927D02*
X155299600Y-123247499D01*
X155299600Y-123247499D02*
X155156742Y-123247499D01*
X155156742Y-123247499D02*
X155013885Y-123318927D01*
X155013885Y-123318927D02*
X154942457Y-123390356D01*
X154942457Y-123390356D02*
X154871028Y-123533213D01*
X154871028Y-123533213D02*
X154871028Y-123890356D01*
X154871028Y-123890356D02*
X154942457Y-124104642D01*
X149901028Y-58774644D02*
X150901028Y-58774644D01*
X149329600Y-58417501D02*
X150401028Y-58060358D01*
X150401028Y-58060358D02*
X150401028Y-58988929D01*
X150901028Y-59631786D02*
X150901028Y-59917500D01*
X150901028Y-59917500D02*
X150829600Y-60060357D01*
X150829600Y-60060357D02*
X150758171Y-60131786D01*
X150758171Y-60131786D02*
X150543885Y-60274643D01*
X150543885Y-60274643D02*
X150258171Y-60346072D01*
X150258171Y-60346072D02*
X149686742Y-60346072D01*
X149686742Y-60346072D02*
X149543885Y-60274643D01*
X149543885Y-60274643D02*
X149472457Y-60203215D01*
X149472457Y-60203215D02*
X149401028Y-60060357D01*
X149401028Y-60060357D02*
X149401028Y-59774643D01*
X149401028Y-59774643D02*
X149472457Y-59631786D01*
X149472457Y-59631786D02*
X149543885Y-59560357D01*
X149543885Y-59560357D02*
X149686742Y-59488929D01*
X149686742Y-59488929D02*
X150043885Y-59488929D01*
X150043885Y-59488929D02*
X150186742Y-59560357D01*
X150186742Y-59560357D02*
X150258171Y-59631786D01*
X150258171Y-59631786D02*
X150329600Y-59774643D01*
X150329600Y-59774643D02*
X150329600Y-60060357D01*
X150329600Y-60060357D02*
X150258171Y-60203215D01*
X150258171Y-60203215D02*
X150186742Y-60274643D01*
X150186742Y-60274643D02*
X150043885Y-60346072D01*
X150901028Y-61060357D02*
X150901028Y-61346071D01*
X150901028Y-61346071D02*
X150829600Y-61488928D01*
X150829600Y-61488928D02*
X150758171Y-61560357D01*
X150758171Y-61560357D02*
X150543885Y-61703214D01*
X150543885Y-61703214D02*
X150258171Y-61774643D01*
X150258171Y-61774643D02*
X149686742Y-61774643D01*
X149686742Y-61774643D02*
X149543885Y-61703214D01*
X149543885Y-61703214D02*
X149472457Y-61631786D01*
X149472457Y-61631786D02*
X149401028Y-61488928D01*
X149401028Y-61488928D02*
X149401028Y-61203214D01*
X149401028Y-61203214D02*
X149472457Y-61060357D01*
X149472457Y-61060357D02*
X149543885Y-60988928D01*
X149543885Y-60988928D02*
X149686742Y-60917500D01*
X149686742Y-60917500D02*
X150043885Y-60917500D01*
X150043885Y-60917500D02*
X150186742Y-60988928D01*
X150186742Y-60988928D02*
X150258171Y-61060357D01*
X150258171Y-61060357D02*
X150329600Y-61203214D01*
X150329600Y-61203214D02*
X150329600Y-61488928D01*
X150329600Y-61488928D02*
X150258171Y-61631786D01*
X150258171Y-61631786D02*
X150186742Y-61703214D01*
X150186742Y-61703214D02*
X150043885Y-61774643D01*
X118101028Y-59488929D02*
X119101028Y-59488929D01*
X117529600Y-59131786D02*
X118601028Y-58774643D01*
X118601028Y-58774643D02*
X118601028Y-59703214D01*
X117601028Y-60131785D02*
X117601028Y-61131785D01*
X117601028Y-61131785D02*
X119101028Y-60488928D01*
X123284166Y-36075373D02*
X123284166Y-36968230D01*
X123284166Y-36968230D02*
X123343689Y-37146802D01*
X123343689Y-37146802D02*
X123462737Y-37265850D01*
X123462737Y-37265850D02*
X123641308Y-37325373D01*
X123641308Y-37325373D02*
X123760356Y-37325373D01*
X122688927Y-37325373D02*
X122688927Y-36075373D01*
X122688927Y-36075373D02*
X122212737Y-36075373D01*
X122212737Y-36075373D02*
X122093689Y-36134897D01*
X122093689Y-36134897D02*
X122034166Y-36194421D01*
X122034166Y-36194421D02*
X121974642Y-36313469D01*
X121974642Y-36313469D02*
X121974642Y-36492040D01*
X121974642Y-36492040D02*
X122034166Y-36611088D01*
X122034166Y-36611088D02*
X122093689Y-36670611D01*
X122093689Y-36670611D02*
X122212737Y-36730135D01*
X122212737Y-36730135D02*
X122688927Y-36730135D01*
X120784166Y-37325373D02*
X121498451Y-37325373D01*
X121141308Y-37325373D02*
X121141308Y-36075373D01*
X121141308Y-36075373D02*
X121260356Y-36253945D01*
X121260356Y-36253945D02*
X121379404Y-36372992D01*
X121379404Y-36372992D02*
X121498451Y-36432516D01*
X116239403Y-37325373D02*
X116239403Y-36075373D01*
X116239403Y-36075373D02*
X115763213Y-36075373D01*
X115763213Y-36075373D02*
X115644165Y-36134897D01*
X115644165Y-36134897D02*
X115584642Y-36194421D01*
X115584642Y-36194421D02*
X115525118Y-36313469D01*
X115525118Y-36313469D02*
X115525118Y-36492040D01*
X115525118Y-36492040D02*
X115584642Y-36611088D01*
X115584642Y-36611088D02*
X115644165Y-36670611D01*
X115644165Y-36670611D02*
X115763213Y-36730135D01*
X115763213Y-36730135D02*
X116239403Y-36730135D01*
X114751308Y-36075373D02*
X114513213Y-36075373D01*
X114513213Y-36075373D02*
X114394165Y-36134897D01*
X114394165Y-36134897D02*
X114275118Y-36253945D01*
X114275118Y-36253945D02*
X114215594Y-36492040D01*
X114215594Y-36492040D02*
X114215594Y-36908707D01*
X114215594Y-36908707D02*
X114275118Y-37146802D01*
X114275118Y-37146802D02*
X114394165Y-37265850D01*
X114394165Y-37265850D02*
X114513213Y-37325373D01*
X114513213Y-37325373D02*
X114751308Y-37325373D01*
X114751308Y-37325373D02*
X114870356Y-37265850D01*
X114870356Y-37265850D02*
X114989403Y-37146802D01*
X114989403Y-37146802D02*
X115048927Y-36908707D01*
X115048927Y-36908707D02*
X115048927Y-36492040D01*
X115048927Y-36492040D02*
X114989403Y-36253945D01*
X114989403Y-36253945D02*
X114870356Y-36134897D01*
X114870356Y-36134897D02*
X114751308Y-36075373D01*
X113798927Y-36075373D02*
X113501308Y-37325373D01*
X113501308Y-37325373D02*
X113263213Y-36432516D01*
X113263213Y-36432516D02*
X113025118Y-37325373D01*
X113025118Y-37325373D02*
X112727499Y-36075373D01*
X112251308Y-36670611D02*
X111834642Y-36670611D01*
X111656070Y-37325373D02*
X112251308Y-37325373D01*
X112251308Y-37325373D02*
X112251308Y-36075373D01*
X112251308Y-36075373D02*
X111656070Y-36075373D01*
X110406071Y-37325373D02*
X110822737Y-36730135D01*
X111120356Y-37325373D02*
X111120356Y-36075373D01*
X111120356Y-36075373D02*
X110644166Y-36075373D01*
X110644166Y-36075373D02*
X110525118Y-36134897D01*
X110525118Y-36134897D02*
X110465595Y-36194421D01*
X110465595Y-36194421D02*
X110406071Y-36313469D01*
X110406071Y-36313469D02*
X110406071Y-36492040D01*
X110406071Y-36492040D02*
X110465595Y-36611088D01*
X110465595Y-36611088D02*
X110525118Y-36670611D01*
X110525118Y-36670611D02*
X110644166Y-36730135D01*
X110644166Y-36730135D02*
X111120356Y-36730135D01*
X123284166Y-39885373D02*
X123284166Y-40778230D01*
X123284166Y-40778230D02*
X123343689Y-40956802D01*
X123343689Y-40956802D02*
X123462737Y-41075850D01*
X123462737Y-41075850D02*
X123641308Y-41135373D01*
X123641308Y-41135373D02*
X123760356Y-41135373D01*
X122688927Y-41135373D02*
X122688927Y-39885373D01*
X122688927Y-39885373D02*
X122212737Y-39885373D01*
X122212737Y-39885373D02*
X122093689Y-39944897D01*
X122093689Y-39944897D02*
X122034166Y-40004421D01*
X122034166Y-40004421D02*
X121974642Y-40123469D01*
X121974642Y-40123469D02*
X121974642Y-40302040D01*
X121974642Y-40302040D02*
X122034166Y-40421088D01*
X122034166Y-40421088D02*
X122093689Y-40480611D01*
X122093689Y-40480611D02*
X122212737Y-40540135D01*
X122212737Y-40540135D02*
X122688927Y-40540135D01*
X121498451Y-40004421D02*
X121438927Y-39944897D01*
X121438927Y-39944897D02*
X121319880Y-39885373D01*
X121319880Y-39885373D02*
X121022261Y-39885373D01*
X121022261Y-39885373D02*
X120903213Y-39944897D01*
X120903213Y-39944897D02*
X120843689Y-40004421D01*
X120843689Y-40004421D02*
X120784166Y-40123469D01*
X120784166Y-40123469D02*
X120784166Y-40242516D01*
X120784166Y-40242516D02*
X120843689Y-40421088D01*
X120843689Y-40421088D02*
X121557975Y-41135373D01*
X121557975Y-41135373D02*
X120784166Y-41135373D01*
X116358451Y-41075850D02*
X116179880Y-41135373D01*
X116179880Y-41135373D02*
X115882261Y-41135373D01*
X115882261Y-41135373D02*
X115763213Y-41075850D01*
X115763213Y-41075850D02*
X115703689Y-41016326D01*
X115703689Y-41016326D02*
X115644166Y-40897278D01*
X115644166Y-40897278D02*
X115644166Y-40778230D01*
X115644166Y-40778230D02*
X115703689Y-40659183D01*
X115703689Y-40659183D02*
X115763213Y-40599659D01*
X115763213Y-40599659D02*
X115882261Y-40540135D01*
X115882261Y-40540135D02*
X116120356Y-40480611D01*
X116120356Y-40480611D02*
X116239404Y-40421088D01*
X116239404Y-40421088D02*
X116298927Y-40361564D01*
X116298927Y-40361564D02*
X116358451Y-40242516D01*
X116358451Y-40242516D02*
X116358451Y-40123469D01*
X116358451Y-40123469D02*
X116298927Y-40004421D01*
X116298927Y-40004421D02*
X116239404Y-39944897D01*
X116239404Y-39944897D02*
X116120356Y-39885373D01*
X116120356Y-39885373D02*
X115822737Y-39885373D01*
X115822737Y-39885373D02*
X115644166Y-39944897D01*
X115108451Y-41135373D02*
X115108451Y-39885373D01*
X115108451Y-40480611D02*
X114394166Y-40480611D01*
X114394166Y-41135373D02*
X114394166Y-39885373D01*
X113798927Y-41135373D02*
X113798927Y-39885373D01*
X113203689Y-40480611D02*
X112787023Y-40480611D01*
X112608451Y-41135373D02*
X113203689Y-41135373D01*
X113203689Y-41135373D02*
X113203689Y-39885373D01*
X113203689Y-39885373D02*
X112608451Y-39885373D01*
X111477499Y-41135373D02*
X112072737Y-41135373D01*
X112072737Y-41135373D02*
X112072737Y-39885373D01*
X111060832Y-41135373D02*
X111060832Y-39885373D01*
X111060832Y-39885373D02*
X110763213Y-39885373D01*
X110763213Y-39885373D02*
X110584642Y-39944897D01*
X110584642Y-39944897D02*
X110465594Y-40063945D01*
X110465594Y-40063945D02*
X110406071Y-40182992D01*
X110406071Y-40182992D02*
X110346547Y-40421088D01*
X110346547Y-40421088D02*
X110346547Y-40599659D01*
X110346547Y-40599659D02*
X110406071Y-40837754D01*
X110406071Y-40837754D02*
X110465594Y-40956802D01*
X110465594Y-40956802D02*
X110584642Y-41075850D01*
X110584642Y-41075850D02*
X110763213Y-41135373D01*
X110763213Y-41135373D02*
X111060832Y-41135373D01*
%TO.C,JP1*%
D12*
X117047500Y-36457500D02*
X117047500Y-37057500D01*
X117747500Y-37757500D02*
X119147500Y-37757500D01*
X119147500Y-35757500D02*
X117747500Y-35757500D01*
X119847500Y-37057500D02*
X119847500Y-36457500D01*
X117047500Y-36457500D02*
G75*
G02*
X117747500Y-35757500I700000J0D01*
G01*
X117747500Y-37757500D02*
G75*
G02*
X117047500Y-37057500I0J700000D01*
G01*
X119147500Y-35757500D02*
G75*
G02*
X119847500Y-36457500I1J-699999D01*
G01*
X119847500Y-37057500D02*
G75*
G02*
X119147500Y-37757500I-699999J-1D01*
G01*
%TO.C,JP2*%
X117047500Y-40267500D02*
X117047500Y-40867500D01*
X117747500Y-41567500D02*
X119147500Y-41567500D01*
X119147500Y-39567500D02*
X117747500Y-39567500D01*
X119847500Y-40867500D02*
X119847500Y-40267500D01*
X117047500Y-40267500D02*
G75*
G02*
X117747500Y-39567500I700000J0D01*
G01*
X117747500Y-41567500D02*
G75*
G02*
X117047500Y-40867500I0J700000D01*
G01*
X119147500Y-39567500D02*
G75*
G02*
X119847500Y-40267500I1J-699999D01*
G01*
X119847500Y-40867500D02*
G75*
G02*
X119147500Y-41567500I-699999J-1D01*
G01*
%TD*%
M02*
